%FSDAX24Y24*%
%MOIN*%
%SFA1B1*%

%IPPOS*%
%ADD11R,0.043300X0.039400*%
%ADD12R,0.090600X0.090600*%
%ADD13R,0.039400X0.043300*%
%ADD14R,0.023600X0.059100*%
%ADD15O,0.013800X0.070900*%
%ADD16R,0.023600X0.051200*%
%ADD17R,0.059100X0.051200*%
%ADD26C,0.098400*%
%ADD27C,0.059100*%
%ADD28R,0.059100X0.059100*%
%ADD29R,0.047200X0.098400*%
%ADD30O,0.047200X0.098400*%
%ADD31C,0.063000*%
%ADD32R,0.063000X0.063000*%
%ADD33C,0.060000*%
%ADD34C,0.053100*%
%ADD35R,0.059100X0.059100*%
%ADD36C,0.055100*%
%ADD37R,0.078700X0.078700*%
%ADD38C,0.078700*%
%ADD39R,0.053100X0.053100*%
%ADD40C,0.053100*%
%LNde-230724-1*%
%LPD*%
G54D11*
X024735Y020450D03*
X024065D03*
X012585Y023800D03*
X011915D03*
X022615Y014400D03*
X023285D03*
X025065Y029600D03*
X025735D03*
Y030450D03*
X025065D03*
X022385Y023800D03*
X021715D03*
X020285Y025300D03*
X019615D03*
G54D12*
X017017Y020014D03*
Y021786D03*
X012800Y020014D03*
Y021786D03*
X014205Y021904D03*
Y020132D03*
X015611Y021904D03*
Y020132D03*
G54D13*
X022100Y025285D03*
Y024615D03*
X021500Y025285D03*
Y024615D03*
X020900Y025285D03*
Y024615D03*
X021450Y030485D03*
Y029815D03*
X018450Y028265D03*
Y028935D03*
G54D14*
X017400Y028974D03*
X017774Y028226D03*
X017026D03*
G54D15*
X020048Y026528D03*
X020304D03*
X020560D03*
X020816D03*
X021072D03*
X021328D03*
X021584D03*
X021840D03*
X022096D03*
X022352D03*
X020048Y028772D03*
X020304D03*
X020560D03*
X020816D03*
X021072D03*
X021328D03*
X021584D03*
X021840D03*
X022096D03*
X022352D03*
G54D16*
X026452Y029600D03*
X027200D03*
X026826Y030427D03*
G54D17*
X022150Y030474D03*
Y029726D03*
G54D26*
X012362Y012362D03*
X015118D03*
X017874Y041102D03*
X015906D03*
X021811D03*
X019843D03*
X025748D03*
X023780D03*
X013937D03*
X011968D03*
X022598Y012362D03*
X025354D03*
G54D27*
X024250Y027900D03*
X025250D03*
X026700Y021300D03*
X025700D03*
X026700Y018300D03*
X024250Y026300D03*
X025250D03*
X019250Y030000D03*
X018250D03*
X010800Y019493D03*
X019800Y019816D03*
G54D28*
X026250Y027900D03*
Y026300D03*
X017250Y030000D03*
G54D29*
X015650Y031600D03*
X019850D03*
X024050D03*
X011800Y028700D03*
G54D30*
X016650Y031600D03*
X017650D03*
X015650Y034600D03*
X016650D03*
X017650D03*
X020850Y031600D03*
X021850D03*
X019850Y034600D03*
X020850D03*
X021850D03*
X025050Y031600D03*
X026050D03*
X024050Y034600D03*
X025050D03*
X026050D03*
X012800Y028700D03*
X013800D03*
X011800Y031700D03*
X012800D03*
X013800D03*
G54D31*
X017600Y037300D03*
X016600D03*
X022050D03*
X021050D03*
X026500D03*
X025500D03*
X013350Y034600D03*
X012350D03*
G54D32*
X015600Y037300D03*
X020050D03*
X024500D03*
X011350Y034600D03*
G54D33*
X023189Y023780D03*
X024370D03*
X013346D03*
X014528D03*
G54D34*
X013750Y016850D03*
X022411D03*
G54D35*
X025700Y018300D03*
X010800Y014907D03*
X019800Y021784D03*
G54D36*
X017300Y013500D03*
X020300D03*
X012100Y018900D03*
Y014900D03*
G54D37*
X019859Y023700D03*
G54D38*
X015741Y023700D03*
G54D39*
X014344Y026450D03*
G54D40*
X013556Y026450D03*
M02*