%FSDAX24Y24*%
%MOIN*%
%SFA1B1*%

%IPPOS*%
%ADD10C,0.008000*%
%ADD11R,0.043300X0.039400*%
%ADD12R,0.090600X0.090600*%
%ADD13R,0.039400X0.043300*%
%ADD14R,0.023600X0.059100*%
%ADD15O,0.013800X0.070900*%
%ADD16R,0.023600X0.051200*%
%ADD17R,0.059100X0.051200*%
%ADD18C,0.020000*%
%ADD19C,0.050000*%
%ADD20C,0.010000*%
%ADD21C,0.030000*%
%ADD22R,0.425000X0.275000*%
%ADD23R,0.300000X0.226400*%
%ADD24R,0.140000X0.150000*%
%ADD25R,0.230000X0.125000*%
%ADD26C,0.098400*%
%ADD27C,0.059100*%
%ADD28R,0.059100X0.059100*%
%ADD29R,0.047200X0.098400*%
%ADD30O,0.047200X0.098400*%
%ADD31C,0.063000*%
%ADD32R,0.063000X0.063000*%
%ADD33C,0.060000*%
%ADD34C,0.053100*%
%ADD35R,0.059100X0.059100*%
%ADD36C,0.055100*%
%ADD37R,0.078700X0.078700*%
%ADD38C,0.078700*%
%ADD39R,0.053100X0.053100*%
%ADD40C,0.053100*%
%ADD41C,0.030000*%
%LNde-230724-1*%
%LPD*%
G54D10*
X011344Y021616D02*
D01*
X011356Y021604*
X011369Y021593*
X011383Y021584*
X011397Y021575*
X011412Y021568*
X011427Y021561*
X011443Y021556*
X011459Y021551*
X011476Y021548*
X011493Y021546*
X011509Y021545*
X011514Y021546*
X011344Y021616D02*
D01*
X011356Y021604*
X011369Y021593*
X011383Y021584*
X011397Y021575*
X011412Y021568*
X011427Y021561*
X011443Y021556*
X011459Y021551*
X011476Y021548*
X011493Y021546*
X011509Y021545*
X011514Y021546*
X010810Y022250D02*
D01*
X010810Y022233*
X010812Y022216*
X010815Y022200*
X010819Y022183*
X010824Y022167*
X010830Y022152*
X010838Y022137*
X010846Y022122*
X010855Y022108*
X010866Y022095*
X010877Y022083*
X010880Y022080*
X010810Y022250D02*
D01*
X010810Y022233*
X010812Y022216*
X010815Y022200*
X010819Y022183*
X010824Y022167*
X010830Y022152*
X010838Y022137*
X010846Y022122*
X010855Y022108*
X010866Y022095*
X010877Y022083*
X010880Y022080*
X011559Y023603D02*
D01*
X011559Y023593*
X011560Y023583*
X011562Y023573*
X011564Y023564*
X011567Y023555*
X011571Y023546*
X011575Y023537*
X011580Y023528*
X011585Y023520*
X011591Y023513*
X011598Y023505*
X011605Y023498*
X011612Y023492*
X011620Y023486*
X011629Y023481*
X011637Y023477*
X011646Y023473*
X011655Y023469*
X011665Y023467*
X011674Y023465*
X011684Y023463*
X011694Y023463*
X011699Y023463*
X012347Y022379D02*
D01*
X012337Y022378*
X012327Y022377*
X012317Y022375*
X012308Y022373*
X012299Y022370*
X012290Y022366*
X012281Y022362*
X012272Y022357*
X012264Y022352*
X012257Y022346*
X012249Y022339*
X012242Y022332*
X012236Y022325*
X012230Y022317*
X012225Y022309*
X012221Y022300*
X012217Y022291*
X012213Y022282*
X012211Y022272*
X012209Y022263*
X012207Y022253*
X012207Y022243*
X012207Y022239*
X013393D02*
D01*
X013392Y022248*
X013391Y022258*
X013389Y022268*
X013387Y022277*
X013384Y022286*
X013380Y022295*
X013376Y022304*
X013371Y022313*
X013366Y022321*
X013360Y022328*
X013353Y022336*
X013346Y022343*
X013339Y022349*
X013331Y022355*
X013323Y022360*
X013314Y022364*
X013305Y022368*
X013296Y022372*
X013286Y022374*
X013277Y022376*
X013267Y022378*
X013257Y022378*
X013253Y022379*
X013613Y021451D02*
D01*
X013613Y021441*
X013614Y021431*
X013616Y021421*
X013618Y021412*
X013621Y021403*
X013622Y021400*
X012132Y023463D02*
D01*
X012141Y023463*
X012151Y023464*
X012161Y023466*
X012170Y023468*
X012179Y023471*
X012188Y023475*
X012197Y023479*
X012206Y023484*
X012214Y023489*
X012221Y023495*
X012229Y023502*
X012236Y023509*
X012242Y023516*
X012248Y023524*
X012250Y023528*
D01*
X012255Y023519*
X012261Y023512*
X012268Y023505*
X012275Y023498*
X012282Y023492*
X012290Y023486*
X012299Y023481*
X012307Y023476*
X012316Y023472*
X012325Y023469*
X012335Y023467*
X012344Y023465*
X012354Y023463*
X012364Y023463*
X012368Y023463*
X012801D02*
D01*
X012810Y023463*
X012820Y023464*
X012830Y023466*
X012839Y023468*
X012848Y023471*
X012857Y023475*
X012866Y023479*
X012875Y023484*
X012883Y023489*
X012890Y023495*
X012898Y023502*
X012905Y023509*
X012911Y023516*
X012917Y023524*
X012922Y023533*
X012926Y023541*
X012930Y023550*
X012934Y023559*
X012934Y023560*
X012965D02*
D01*
X012981Y023533*
X012999Y023509*
X013019Y023485*
X013040Y023463*
X013063Y023442*
X013087Y023424*
X013112Y023406*
X013139Y023391*
X013167Y023378*
X013195Y023366*
X013224Y023357*
X013254Y023349*
X013284Y023344*
X013315Y023341*
X013346Y023340*
X013376Y023341*
X013407Y023344*
X013437Y023349*
X013467Y023357*
X013496Y023366*
X013524Y023378*
X013552Y023391*
X013579Y023406*
X013604Y023424*
X013628Y023442*
X013651Y023463*
X013672Y023485*
X013692Y023509*
X013710Y023534*
X013727Y023560*
X013741Y023587*
X013753Y023615*
X013764Y023644*
X013772Y023673*
X013779Y023703*
X013783Y023734*
X013785Y023764*
X013786Y023780*
X011699Y024137D02*
D01*
X011689Y024136*
X011679Y024135*
X011669Y024133*
X011660Y024131*
X011651Y024128*
X011642Y024124*
X011633Y024120*
X011624Y024115*
X011616Y024110*
X011609Y024104*
X011601Y024097*
X011594Y024090*
X011588Y024083*
X011582Y024075*
X011577Y024067*
X011573Y024058*
X011569Y024049*
X011565Y024040*
X011563Y024030*
X011561Y024021*
X011559Y024011*
X011559Y024001*
X011559Y023997*
X012250Y024072D02*
D01*
X012244Y024080*
X012238Y024087*
X012231Y024094*
X012224Y024101*
X012217Y024107*
X012209Y024113*
X012200Y024118*
X012192Y024123*
X012183Y024127*
X012174Y024130*
X012164Y024132*
X012155Y024134*
X012145Y024136*
X012135Y024136*
X012132Y024137*
X012934Y024040D02*
D01*
X012930Y024049*
X012926Y024058*
X012922Y024066*
X012916Y024074*
X012911Y024082*
X012905Y024090*
X012898Y024097*
X012891Y024103*
X012883Y024109*
X012875Y024115*
X012866Y024120*
X012858Y024124*
X012848Y024128*
X012839Y024131*
X012830Y024133*
X012820Y024135*
X012810Y024136*
X012801Y024136*
X012801Y024137*
X012368D02*
D01*
X012358Y024136*
X012348Y024135*
X012338Y024133*
X012329Y024131*
X012320Y024128*
X012311Y024124*
X012302Y024120*
X012293Y024115*
X012285Y024110*
X012278Y024104*
X012270Y024097*
X012263Y024090*
X012257Y024083*
X012251Y024075*
X012250Y024072*
X013786Y023780D02*
D01*
X013784Y023810*
X013781Y023841*
X013776Y023871*
X013768Y023901*
X013759Y023930*
X013747Y023958*
X013734Y023986*
X013719Y024013*
X013701Y024038*
X013683Y024062*
X013662Y024085*
X013640Y024106*
X013616Y024126*
X013592Y024144*
X013566Y024161*
X013538Y024175*
X013510Y024187*
X013481Y024198*
X013452Y024206*
X013422Y024213*
X013391Y024217*
X013361Y024219*
X013330*
X013300Y024217*
X013269Y024213*
X013239Y024206*
X013210Y024198*
X013181Y024187*
X013153Y024175*
X013126Y024161*
X013099Y024144*
X013075Y024126*
X013051Y024106*
X013029Y024085*
X013008Y024062*
X012992Y024040*
X014674Y024195D02*
D01*
X014644Y024204*
X014614Y024211*
X014584Y024216*
X014553Y024219*
X014523Y024219*
X014492Y024218*
X014462Y024214*
X014431Y024209*
X014402Y024201*
X014373Y024191*
X014344Y024179*
X014317Y024166*
X014290Y024150*
X014265Y024133*
X014241Y024113*
X014219Y024093*
X014197Y024070*
X014178Y024047*
X014160Y024022*
X014144Y023995*
X014130Y023968*
X014118Y023940*
X014108Y023911*
X014100Y023881*
X014093Y023851*
X014090Y023821*
X014088Y023790*
X014088Y023759*
X014090Y023729*
X014095Y023698*
X014102Y023668*
X014111Y023639*
X014121Y023610*
X014134Y023582*
X014149Y023555*
X014165Y023530*
X014184Y023505*
X014204Y023482*
X014225Y023460*
X014248Y023439*
X014273Y023421*
X014298Y023404*
X014325Y023389*
X014353Y023376*
X014382Y023365*
X014411Y023355*
X014441Y023348*
X014471Y023343*
X014502Y023340*
X014507Y023340*
X013938Y026588D02*
D01*
X013927Y026614*
X013915Y026639*
X013900Y026664*
X013885Y026687*
X013867Y026710*
X013848Y026731*
X013828Y026751*
X013806Y026769*
X013783Y026786*
X013759Y026801*
X013734Y026814*
X013709Y026826*
X013682Y026835*
X013655Y026843*
X013627Y026849*
X013599Y026853*
X013571Y026855*
X013542Y026855*
X013514Y026854*
X013486Y026850*
X013458Y026844*
X013431Y026836*
X013404Y026826*
X013378Y026815*
X013353Y026802*
X013329Y026787*
X013306Y026770*
X013284Y026752*
X013264Y026732*
X013245Y026711*
X013227Y026689*
X013212Y026666*
X013197Y026641*
X013185Y026616*
X013174Y026589*
X013165Y026562*
X013158Y026535*
X013153Y026507*
X013150Y026479*
X013149Y026450*
X013150Y026422*
X013153Y026394*
X013158Y026366*
X013165Y026338*
X013174Y026312*
X013184Y026285*
X013196Y026260*
X013211Y026235*
X013226Y026212*
X013244Y026189*
X013263Y026168*
X013283Y026148*
X013305Y026130*
X013328Y026113*
X013352Y026098*
X013377Y026085*
X013402Y026073*
X013429Y026064*
X013456Y026056*
X013484Y026050*
X013512Y026046*
X013540Y026044*
X013569Y026044*
X013597Y026045*
X013625Y026049*
X013653Y026055*
X013680Y026063*
X013707Y026073*
X013733Y026084*
X013758Y026097*
X013782Y026112*
X013805Y026129*
X013827Y026147*
X013847Y026167*
X013866Y026188*
X013884Y026210*
X013899Y026233*
X013914Y026258*
X013926Y026283*
X013937Y026310*
X013938Y026312*
Y026184D02*
D01*
X013938Y026174*
X013939Y026164*
X013941Y026154*
X013943Y026145*
X013946Y026136*
X013950Y026127*
X013954Y026118*
X013959Y026109*
X013964Y026101*
X013970Y026094*
X013977Y026086*
X013984Y026079*
X013991Y026073*
X013999Y026067*
X014008Y026062*
X014016Y026058*
X014025Y026054*
X014034Y026050*
X014044Y026048*
X014053Y026046*
X014063Y026044*
X014073Y026044*
X014078Y026044*
Y026856D02*
D01*
X014068Y026855*
X014058Y026854*
X014048Y026852*
X014039Y026850*
X014030Y026847*
X014021Y026843*
X014012Y026839*
X014003Y026834*
X013995Y026829*
X013988Y026823*
X013980Y026816*
X013973Y026809*
X013967Y026802*
X013961Y026794*
X013956Y026786*
X013952Y026777*
X013948Y026768*
X013944Y026759*
X013942Y026749*
X013940Y026740*
X013938Y026730*
X013938Y026720*
X013938Y026716*
X014609Y026044D02*
D01*
X014618Y026044*
X014628Y026045*
X014638Y026047*
X014647Y026049*
X014656Y026052*
X014665Y026056*
X014674Y026060*
X014683Y026065*
X014691Y026070*
X014698Y026076*
X014706Y026083*
X014713Y026090*
X014719Y026097*
X014725Y026105*
X014730Y026114*
X014734Y026122*
X014738Y026131*
X014742Y026140*
X014744Y026150*
X014746Y026159*
X014747Y026160*
Y026740D02*
D01*
X014744Y026749*
X014742Y026758*
X014738Y026768*
X014735Y026777*
X014730Y026785*
X014725Y026794*
X014719Y026801*
X014713Y026809*
X014706Y026816*
X014699Y026823*
X014691Y026829*
X014683Y026834*
X014675Y026839*
X014666Y026843*
X014657Y026847*
X014647Y026850*
X014638Y026852*
X014628Y026854*
X014619Y026855*
X014609Y026856*
X014609Y026856*
X016194Y021400D02*
D01*
X016197Y021409*
X016199Y021418*
X016201Y021428*
X016203Y021437*
X016203Y021447*
X016204Y021451*
X014548Y023340D02*
D01*
X014578Y023342*
X014609Y023347*
X014639Y023353*
X014668Y023362*
X014697Y023373*
X014725Y023386*
X014752Y023400*
X014778Y023417*
X014802Y023435*
X014826Y023455*
X014848Y023477*
X014868Y023500*
X014887Y023524*
X014903Y023550*
X014919Y023577*
X014932Y023605*
X014943Y023633*
X014952Y023663*
X014959Y023692*
X014964Y023723*
X014967Y023753*
X014968Y023780*
X015360Y024074D02*
D01*
X015334Y024046*
X015311Y024017*
X015290Y023986*
X015271Y023954*
X015255Y023921*
X015240Y023886*
X015229Y023851*
X015219Y023815*
X015212Y023778*
X015208Y023741*
X015207Y023704*
X015208Y023667*
X015211Y023630*
X015217Y023593*
X015226Y023557*
X015237Y023521*
X015251Y023486*
X015267Y023453*
X015285Y023420*
X015306Y023389*
X015329Y023360*
X015347Y023340*
X016494Y022360D02*
D01*
X016485Y022354*
X016477Y022349*
X016470Y022342*
X016463Y022336*
X016456Y022328*
X016450Y022321*
X016445Y022312*
X016440Y022304*
X016436Y022295*
X016432Y022286*
X016429Y022277*
X016427Y022267*
X016425Y022258*
X016424Y022248*
X016424Y022239*
X014968Y023780D02*
D01*
X014966Y023810*
X014963Y023841*
X014958Y023871*
X014950Y023901*
X014943Y023926*
X015439Y024140D02*
D01*
X015409Y024117*
X015380Y024093*
X015360Y024074*
X016043Y024140D02*
D01*
X016011Y024159*
X015978Y024177*
X015944Y024193*
X015910Y024206*
X015874Y024216*
X015837Y024224*
X015801Y024230*
X015763Y024233*
X015726Y024233*
X015689Y024231*
X015652Y024226*
X015616Y024218*
X015580Y024208*
X015545Y024196*
X015510Y024181*
X015477Y024164*
X015446Y024144*
X015439Y024140*
X020235Y019816D02*
D01*
X020233Y019846*
X020230Y019876*
X020225Y019906*
X020218Y019935*
X020208Y019964*
X020197Y019992*
X020184Y020020*
X020168Y020046*
X020151Y020071*
X020133Y020095*
X020112Y020118*
X020091Y020139*
X020067Y020158*
X020043Y020176*
X020017Y020192*
X019990Y020206*
X019962Y020219*
X019934Y020229*
X019905Y020238*
X019875Y020244*
X019845Y020248*
X019815Y020250*
X019784*
X019754Y020248*
X019724Y020244*
X019694Y020238*
X019665Y020229*
X019637Y020219*
X019609Y020206*
X019582Y020192*
X019556Y020176*
X019532Y020158*
X019508Y020139*
X019487Y020118*
X019466Y020095*
X019448Y020071*
X019431Y020046*
X019415Y020020*
X019402Y019992*
X019391Y019964*
X019381Y019935*
X019374Y019906*
X019369Y019876*
X019366Y019846*
X019365Y019816*
X019366Y019785*
X019369Y019755*
X019374Y019725*
X019381Y019696*
X019391Y019667*
X019402Y019639*
X019415Y019611*
X019431Y019585*
X019448Y019560*
X019466Y019536*
X019487Y019513*
X019508Y019492*
X019532Y019473*
X019556Y019455*
X019582Y019439*
X019609Y019425*
X019637Y019412*
X019665Y019402*
X019694Y019393*
X019724Y019387*
X019754Y019383*
X019784Y019381*
X019815*
X019845Y019383*
X019875Y019387*
X019905Y019393*
X019934Y019402*
X019962Y019412*
X019990Y019425*
X020017Y019439*
X020043Y019455*
X020067Y019473*
X020091Y019492*
X020112Y019513*
X020133Y019536*
X020151Y019560*
X020168Y019585*
X020184Y019611*
X020197Y019639*
X020208Y019667*
X020218Y019696*
X020225Y019725*
X020230Y019755*
X020233Y019785*
X020235Y019816*
X019400Y021396D02*
D01*
X019406Y021388*
X019413Y021382*
X019421Y021376*
X019429Y021370*
X019438Y021365*
X019446Y021361*
X019455Y021357*
X019465Y021354*
X019474Y021352*
X019484Y021350*
X019494Y021349*
X019503Y021348*
X019505Y021349*
X019465Y024234D02*
D01*
X019455Y024233*
X019445Y024232*
X019435Y024230*
X019426Y024228*
X019417Y024225*
X019408Y024221*
X019399Y024217*
X019390Y024212*
X019382Y024207*
X019375Y024201*
X019367Y024194*
X019364Y024190*
X020095Y021349D02*
D01*
X020104Y021349*
X020114Y021350*
X020124Y021352*
X020133Y021354*
X020142Y021357*
X020151Y021361*
X020160Y021365*
X020169Y021370*
X020177Y021375*
X020184Y021381*
X020192Y021388*
X020199Y021395*
X020205Y021402*
X020211Y021410*
X020216Y021419*
X020220Y021427*
X020224Y021436*
X020228Y021445*
X020230Y021455*
X020232Y021464*
X020234Y021474*
X020234Y021484*
X020235Y021489*
X019340Y024976D02*
D01*
X019349Y024972*
X019358Y024969*
X019367Y024966*
X019377Y024964*
X019386Y024963*
X019396Y024962*
X019399Y024963*
Y025637D02*
D01*
X019389Y025636*
X019379Y025635*
X019369Y025633*
X019360Y025631*
X019351Y025628*
X019342Y025624*
X019340Y025624*
X019950Y025572D02*
D01*
X019944Y025580*
X019938Y025587*
X019931Y025594*
X019924Y025601*
X019917Y025607*
X019909Y025613*
X019900Y025618*
X019892Y025623*
X019883Y025627*
X019874Y025630*
X019864Y025632*
X019855Y025634*
X019845Y025636*
X019835Y025636*
X019832Y025637*
Y024963D02*
D01*
X019841Y024963*
X019851Y024964*
X019861Y024966*
X019870Y024968*
X019879Y024971*
X019888Y024975*
X019897Y024979*
X019906Y024984*
X019914Y024989*
X019921Y024995*
X019929Y025002*
X019936Y025009*
X019942Y025016*
X019948Y025024*
X019950Y025028*
X020335Y024684D02*
D01*
X020325Y024693*
X020315Y024701*
X020304Y024709*
X020292Y024716*
X020281Y024722*
X020268Y024727*
X020256Y024731*
X020243Y024735*
X020230Y024737*
X020217Y024739*
X020204Y024740*
X020200Y024740*
X020068Y025637D02*
D01*
X020058Y025636*
X020048Y025635*
X020038Y025633*
X020029Y025631*
X020020Y025628*
X020011Y025624*
X020002Y025620*
X019993Y025615*
X019985Y025610*
X019978Y025604*
X019970Y025597*
X019963Y025590*
X019957Y025583*
X019951Y025575*
X019950Y025572*
Y025028D02*
D01*
X019955Y025019*
X019961Y025012*
X019968Y025005*
X019975Y024998*
X019982Y024992*
X019990Y024986*
X019999Y024981*
X020007Y024976*
X020016Y024972*
X020025Y024969*
X020035Y024967*
X020044Y024965*
X020054Y024963*
X020064Y024963*
X020068Y024963*
X019858Y026900D02*
D01*
X019852Y026886*
X019847Y026872*
X019844Y026858*
X019841Y026844*
X019839Y026829*
X019839Y026815*
X019840Y026813*
X019637Y027497D02*
D01*
X019623Y027481*
X019611Y027465*
X019600Y027448*
X019590Y027430*
X019582Y027412*
X019575Y027393*
X019569Y027373*
X019564Y027354*
X019561Y027334*
X019560Y027313*
X019559Y027293*
X019561Y027273*
X019563Y027253*
X019567Y027233*
X019572Y027214*
X019579Y027194*
X019587Y027176*
X019596Y027158*
X019607Y027140*
X019619Y027124*
X019631Y027108*
X019645Y027094*
X019660Y027080*
X019676Y027067*
X019692Y027056*
X019710Y027045*
X019728Y027036*
X019747Y027028*
X019766Y027022*
X019785Y027017*
X019805Y027013*
X019825Y027010*
X019846Y027009*
X019858Y027010*
X019840Y026243D02*
D01*
X019840Y026228*
X019842Y026213*
X019844Y026199*
X019848Y026185*
X019852Y026171*
X019858Y026157*
X019864Y026144*
X019871Y026132*
X019879Y026120*
X019888Y026108*
X019898Y026097*
X019909Y026087*
X019920Y026078*
X019932Y026069*
X019944Y026062*
X019957Y026055*
X019970Y026049*
X019984Y026044*
X019998Y026040*
X020012Y026037*
X020027Y026035*
X020041Y026034*
X020056*
X020070Y026035*
X020085Y026037*
X020099Y026040*
X020113Y026044*
X020127Y026049*
X020140Y026055*
X020153Y026062*
X020165Y026069*
X020176Y026077*
D01*
X020187Y026068*
X020200Y026060*
X020213Y026053*
X020226Y026048*
X020240Y026043*
X020254Y026039*
X020268Y026036*
X020282Y026034*
X020297Y026033*
X020312Y026033*
X020326Y026034*
X020340Y026036*
X020355Y026039*
X020369Y026043*
X020382Y026048*
X020396Y026054*
X020409Y026061*
X020421Y026069*
X020432Y026077*
X020140Y027300D02*
D01*
X020139Y027320*
X020137Y027340*
X020133Y027360*
X020128Y027379*
X020122Y027399*
X020114Y027417*
X020106Y027436*
X020095Y027453*
X020092Y027460*
X020238Y027102D02*
D01*
X020237Y027115*
X020236Y027128*
X020233Y027141*
X020230Y027154*
X020226Y027166*
X020221Y027179*
X020215Y027191*
X020209Y027202*
X020201Y027213*
X020193Y027224*
X020184Y027233*
X020183Y027236*
X020238Y027102D02*
D01*
X020237Y027115*
X020236Y027128*
X020233Y027141*
X020230Y027154*
X020226Y027166*
X020221Y027179*
X020215Y027191*
X020209Y027202*
X020201Y027213*
X020193Y027224*
X020184Y027233*
X020182Y027236*
X010880Y028120D02*
D01*
X010868Y028107*
X010857Y028094*
X010848Y028080*
X010839Y028066*
X010832Y028051*
X010825Y028036*
X010820Y028020*
X010815Y028004*
X010812Y027987*
X010810Y027970*
X010809Y027954*
X010810Y027950*
X011516Y028076D02*
D01*
X011525Y028072*
X011534Y028070*
X011544Y028068*
X011554Y028067*
X011564Y028068*
X010880Y028120D02*
D01*
X010868Y028107*
X010857Y028094*
X010848Y028080*
X010839Y028066*
X010832Y028051*
X010825Y028036*
X010820Y028020*
X010815Y028004*
X010812Y027987*
X010810Y027970*
X010809Y027954*
X010810Y027950*
X012560Y028000D02*
D01*
X012560Y027983*
X012562Y027966*
X012565Y027950*
X012569Y027933*
X012574Y027917*
X012580Y027902*
X012588Y027887*
X012596Y027872*
X012605Y027858*
X012616Y027845*
X012627Y027833*
X012630Y027830*
X012560Y028000D02*
D01*
X012560Y027983*
X012562Y027966*
X012565Y027950*
X012569Y027933*
X012574Y027917*
X012580Y027902*
X012588Y027887*
X012596Y027872*
X012605Y027858*
X012616Y027845*
X012627Y027833*
X012630Y027830*
X013030Y027430D02*
D01*
X013042Y027418*
X013055Y027407*
X013069Y027398*
X013083Y027389*
X013098Y027382*
X013113Y027375*
X013129Y027370*
X013145Y027365*
X013162Y027362*
X013179Y027360*
X013195Y027359*
X013200Y027360*
X013030Y027430D02*
D01*
X013042Y027418*
X013055Y027407*
X013069Y027398*
X013083Y027389*
X013098Y027382*
X013113Y027375*
X013129Y027370*
X013145Y027365*
X013162Y027362*
X013179Y027360*
X013195Y027359*
X013200Y027360*
X012036Y028068D02*
D01*
X012045Y028068*
X012055Y028069*
X012065Y028071*
X012074Y028073*
X012083Y028076*
X012092Y028080*
X012101Y028084*
X012110Y028089*
X012118Y028094*
X012125Y028100*
X012133Y028107*
X012140Y028114*
X012146Y028121*
X012152Y028129*
X012157Y028138*
X012161Y028146*
X012165Y028155*
X012169Y028164*
X012171Y028174*
X012173Y028183*
X012175Y028193*
X012175Y028203*
X012176Y028208*
X011564Y029332D02*
D01*
X011554Y029331*
X011544Y029330*
X011534Y029328*
X011525Y029326*
X011516Y029323*
X011507Y029319*
X011498Y029315*
X011489Y029310*
X011481Y029305*
X011474Y029299*
X011466Y029292*
X011459Y029285*
X011453Y029278*
X011447Y029270*
X011442Y029262*
X011438Y029253*
X011434Y029244*
X011430Y029235*
X011428Y029225*
X011426Y029216*
X011424Y029206*
X011424Y029196*
X011424Y029192*
X012176D02*
D01*
X012175Y029201*
X012174Y029211*
X012172Y029221*
X012170Y029230*
X012167Y029239*
X012163Y029248*
X012159Y029257*
X012154Y029266*
X012149Y029274*
X012143Y029281*
X012136Y029289*
X012129Y029296*
X012122Y029302*
X012114Y029308*
X012106Y029313*
X012097Y029317*
X012088Y029321*
X012079Y029325*
X012069Y029327*
X012060Y029329*
X012050Y029331*
X012040Y029331*
X012036Y029332*
X012424Y028444D02*
D01*
X012424Y028417*
X012427Y028391*
X012432Y028365*
X012438Y028340*
X012446Y028315*
X012456Y028291*
X012468Y028267*
X012481Y028244*
X012495Y028222*
X012511Y028202*
X012529Y028182*
X012548Y028164*
X012560Y028154*
X013040D02*
D01*
X013059Y028171*
X013078Y028190*
X013095Y028210*
X013110Y028231*
X013124Y028253*
X013137Y028276*
X013148Y028300*
X013157Y028325*
X013164Y028350*
X013170Y028376*
X013174Y028402*
X013176Y028428*
X013176Y028444*
Y028956D02*
D01*
X013175Y028982*
X013172Y029008*
X013167Y029034*
X013161Y029059*
X013153Y029084*
X013143Y029108*
X013131Y029132*
X013118Y029155*
X013104Y029177*
X013088Y029197*
X013070Y029217*
X013051Y029235*
X013031Y029252*
X013010Y029267*
X012988Y029281*
X012964Y029293*
X012940Y029304*
X012916Y029313*
X012890Y029320*
X012865Y029326*
X012839Y029329*
X012813Y029331*
X012786*
X012760Y029329*
X012734Y029326*
X012709Y029320*
X012683Y029313*
X012659Y029304*
X012635Y029293*
X012612Y029281*
X012589Y029267*
X012568Y029252*
X012548Y029235*
X012529Y029217*
X012511Y029197*
X012495Y029177*
X012481Y029155*
X012468Y029132*
X012456Y029108*
X012446Y029084*
X012438Y029059*
X012432Y029034*
X012427Y029008*
X012424Y028982*
X012424Y028956*
X014100Y027360D02*
D01*
X014116Y027360*
X014133Y027362*
X014149Y027365*
X014166Y027369*
X014182Y027374*
X014197Y027380*
X014212Y027388*
X014227Y027396*
X014241Y027405*
X014254Y027416*
X014266Y027427*
X014270Y027430*
X014100Y027360D02*
D01*
X014116Y027360*
X014133Y027362*
X014149Y027365*
X014166Y027369*
X014182Y027374*
X014197Y027380*
X014212Y027388*
X014227Y027396*
X014241Y027405*
X014254Y027416*
X014266Y027427*
X014270Y027430*
X014670Y027830D02*
D01*
X014681Y027842*
X014692Y027855*
X014701Y027869*
X014710Y027883*
X014717Y027898*
X014724Y027913*
X014729Y027929*
X014734Y027945*
X014737Y027962*
X014739Y027979*
X014740Y027995*
X014740Y028000*
X014670Y027830D02*
D01*
X014681Y027842*
X014692Y027855*
X014701Y027869*
X014710Y027883*
X014717Y027898*
X014724Y027913*
X014729Y027929*
X014734Y027945*
X014737Y027962*
X014739Y027979*
X014740Y027995*
X014740Y028000*
X013424Y028444D02*
D01*
X013424Y028417*
X013427Y028391*
X013432Y028365*
X013438Y028340*
X013446Y028315*
X013456Y028291*
X013468Y028267*
X013481Y028244*
X013495Y028222*
X013511Y028202*
X013529Y028182*
X013548Y028164*
X013568Y028147*
X013589Y028132*
X013612Y028118*
X013635Y028106*
X013659Y028095*
X013683Y028086*
X013709Y028079*
X013734Y028073*
X013760Y028070*
X013786Y028068*
X013813*
X013839Y028070*
X013865Y028073*
X013890Y028079*
X013916Y028086*
X013940Y028095*
X013964Y028106*
X013988Y028118*
X014010Y028132*
X014031Y028147*
X014051Y028164*
X014070Y028182*
X014088Y028202*
X014104Y028222*
X014118Y028244*
X014131Y028267*
X014143Y028291*
X014153Y028315*
X014161Y028340*
X014167Y028365*
X014172Y028391*
X014175Y028417*
X014176Y028444*
Y028956D02*
D01*
X014175Y028982*
X014172Y029008*
X014167Y029034*
X014161Y029059*
X014153Y029084*
X014143Y029108*
X014131Y029132*
X014118Y029155*
X014104Y029177*
X014088Y029197*
X014070Y029217*
X014051Y029235*
X014031Y029252*
X014010Y029267*
X013988Y029281*
X013964Y029293*
X013940Y029304*
X013916Y029313*
X013890Y029320*
X013865Y029326*
X013839Y029329*
X013813Y029331*
X013786*
X013760Y029329*
X013734Y029326*
X013709Y029320*
X013683Y029313*
X013659Y029304*
X013635Y029293*
X013612Y029281*
X013589Y029267*
X013568Y029252*
X013548Y029235*
X013529Y029217*
X013511Y029197*
X013495Y029177*
X013481Y029155*
X013468Y029132*
X013456Y029108*
X013446Y029084*
X013438Y029059*
X013432Y029034*
X013427Y029008*
X013424Y028982*
X013424Y028956*
X014330Y029020D02*
D01*
X014318Y029007*
X014307Y028994*
X014298Y028980*
X014289Y028966*
X014282Y028951*
X014275Y028936*
X014270Y028920*
X014265Y028904*
X014262Y028887*
X014260Y028870*
X014259Y028854*
X014260Y028850*
X014330Y029020D02*
D01*
X014318Y029007*
X014307Y028994*
X014298Y028980*
X014289Y028966*
X014282Y028951*
X014275Y028936*
X014270Y028920*
X014265Y028904*
X014262Y028887*
X014260Y028870*
X014259Y028854*
X014260Y028850*
X015820Y029830D02*
D01*
X015831Y029842*
X015842Y029855*
X015851Y029869*
X015860Y029883*
X015867Y029898*
X015874Y029913*
X015879Y029929*
X015884Y029945*
X015887Y029962*
X015889Y029979*
X015890Y029995*
X015890Y030000*
X015820Y029830D02*
D01*
X015831Y029842*
X015842Y029855*
X015851Y029869*
X015860Y029883*
X015867Y029898*
X015874Y029913*
X015879Y029929*
X015884Y029945*
X015887Y029962*
X015889Y029979*
X015890Y029995*
X015890Y030000*
X016195Y030505D02*
D01*
X016181Y030490*
X016168Y030474*
X016156Y030457*
X016146Y030440*
X016137Y030422*
X016129Y030403*
X016122Y030384*
X016117Y030365*
X016113Y030345*
X016111Y030325*
X016110Y030305*
X016110Y030300*
X016195Y030505D02*
D01*
X016181Y030490*
X016168Y030474*
X016156Y030457*
X016146Y030440*
X016137Y030422*
X016129Y030403*
X016122Y030384*
X016117Y030365*
X016113Y030345*
X016111Y030325*
X016110Y030305*
X016110Y030300*
X016274Y031344D02*
D01*
X016274Y031317*
X016277Y031291*
X016282Y031265*
X016288Y031240*
X016296Y031215*
X016306Y031191*
X016318Y031167*
X016331Y031144*
X016345Y031122*
X016361Y031102*
X016379Y031082*
X016398Y031064*
X016418Y031047*
X016439Y031032*
X016462Y031018*
X016485Y031006*
X016509Y030995*
X016533Y030986*
X016559Y030979*
X016584Y030973*
X016610Y030970*
X016636Y030968*
X016658Y030968*
X015274Y031108D02*
D01*
X015274Y031098*
X015275Y031088*
X015277Y031078*
X015279Y031069*
X015282Y031060*
X015286Y031051*
X015290Y031042*
X015295Y031033*
X015300Y031025*
X015306Y031018*
X015313Y031010*
X015320Y031003*
X015327Y030997*
X015335Y030991*
X015344Y030986*
X015352Y030982*
X015361Y030978*
X015370Y030974*
X015380Y030972*
X015389Y030970*
X015399Y030968*
X015409Y030968*
X015410Y030968*
X015414Y032232D02*
D01*
X015404Y032231*
X015394Y032230*
X015384Y032228*
X015375Y032226*
X015366Y032223*
X015357Y032219*
X015348Y032215*
X015339Y032210*
X015331Y032205*
X015324Y032199*
X015316Y032192*
X015309Y032185*
X015303Y032178*
X015297Y032170*
X015292Y032162*
X015288Y032153*
X015284Y032144*
X015280Y032135*
X015278Y032125*
X015276Y032116*
X015274Y032106*
X015274Y032096*
X015274Y032092*
X015890Y030968D02*
D01*
X015899Y030968*
X015909Y030969*
X015919Y030971*
X015928Y030974*
X015937Y030977*
X015946Y030981*
X015955Y030986*
X015963Y030991*
X015971Y030997*
X015979Y031003*
X015986Y031010*
X015992Y031017*
X015998Y031024*
X016004Y031033*
X016009Y031041*
X016013Y031050*
X016017Y031059*
X016020Y031068*
X016022Y031078*
X016024Y031087*
X016025Y031097*
X016026Y031107*
X016026Y031108*
Y032092D02*
D01*
X016025Y032101*
X016024Y032111*
X016022Y032121*
X016020Y032130*
X016017Y032139*
X016013Y032148*
X016009Y032157*
X016004Y032166*
X015999Y032174*
X015993Y032181*
X015986Y032189*
X015979Y032196*
X015972Y032202*
X015964Y032208*
X015956Y032213*
X015947Y032217*
X015938Y032221*
X015929Y032225*
X015919Y032227*
X015910Y032229*
X015900Y032231*
X015890Y032231*
X015886Y032232*
X016768Y027931D02*
D01*
X016768Y027921*
X016769Y027911*
X016771Y027901*
X016773Y027892*
X016776Y027883*
X016780Y027874*
X016784Y027865*
X016789Y027856*
X016794Y027848*
X016800Y027841*
X016807Y027833*
X016814Y027826*
X016821Y027820*
X016829Y027814*
X016838Y027809*
X016846Y027805*
X016855Y027801*
X016864Y027797*
X016874Y027795*
X016883Y027793*
X016893Y027791*
X016903Y027791*
X016908Y027791*
X017144D02*
D01*
X017153Y027791*
X017163Y027792*
X017173Y027794*
X017182Y027796*
X017191Y027799*
X017200Y027803*
X017209Y027807*
X017218Y027812*
X017226Y027817*
X017233Y027823*
X017241Y027830*
X017248Y027837*
X017254Y027844*
X017260Y027852*
X017265Y027861*
X017269Y027869*
X017273Y027878*
X017277Y027887*
X017279Y027897*
X017281Y027906*
X017283Y027916*
X017283Y027926*
X017284Y027931*
X017516D02*
D01*
X017516Y027921*
X017517Y027911*
X017519Y027901*
X017521Y027892*
X017524Y027883*
X017528Y027874*
X017532Y027865*
X017537Y027856*
X017542Y027848*
X017548Y027841*
X017555Y027833*
X017562Y027826*
X017569Y027820*
X017577Y027814*
X017586Y027809*
X017594Y027805*
X017603Y027801*
X017612Y027797*
X017622Y027795*
X017631Y027793*
X017641Y027791*
X017651Y027791*
X017656Y027791*
X017892D02*
D01*
X017901Y027791*
X017911Y027792*
X017921Y027794*
X017930Y027796*
X017939Y027799*
X017948Y027803*
X017957Y027807*
X017966Y027812*
X017974Y027817*
X017981Y027823*
X017989Y027830*
X017996Y027837*
X018002Y027844*
X018008Y027852*
X018013Y027861*
X018017Y027869*
X018021Y027878*
X018025Y027887*
X018027Y027897*
X018029Y027906*
X018031Y027916*
X018031Y027926*
X018032Y027931*
X018114Y028036D02*
D01*
X018115Y028026*
X018117Y028016*
X018119Y028007*
X018122Y027998*
X018126Y027989*
X018131Y027980*
X018136Y027972*
X018142Y027964*
X018148Y027956*
X018154Y027949*
X018162Y027943*
X018169Y027937*
X018177Y027931*
X018186Y027926*
X018194Y027922*
X018203Y027918*
X018212Y027915*
X018222Y027912*
X018231Y027910*
X018241Y027909*
X018251Y027909*
X018253Y027909*
X016889Y028660D02*
D01*
X016879Y028658*
X016869Y028656*
X016860Y028653*
X016851Y028649*
X016842Y028645*
X016834Y028640*
X016825Y028634*
X016818Y028628*
X016810Y028622*
X016804Y028615*
X016797Y028607*
X016791Y028599*
X016786Y028591*
X016782Y028582*
X016778Y028574*
X016774Y028564*
X016772Y028555*
X016769Y028545*
X016768Y028536*
X016767Y028526*
X016768Y028521*
X018647Y027909D02*
D01*
X018656Y027909*
X018666Y027910*
X018676Y027912*
X018685Y027914*
X018694Y027917*
X018703Y027921*
X018712Y027925*
X018721Y027930*
X018729Y027935*
X018736Y027941*
X018744Y027948*
X018751Y027955*
X018757Y027962*
X018763Y027970*
X018768Y027979*
X018772Y027987*
X018776Y027996*
X018780Y028005*
X018782Y028015*
X018784Y028024*
X018786Y028034*
X018786Y028044*
X018787Y028049*
X019840Y028487D02*
D01*
X019840Y028472*
X019842Y028457*
X019844Y028443*
X019848Y028429*
X019852Y028415*
X019858Y028401*
X019864Y028388*
X019871Y028376*
X019879Y028364*
X019888Y028352*
X019898Y028341*
X019909Y028331*
X019920Y028322*
X019932Y028313*
X019944Y028306*
X019957Y028299*
X019970Y028293*
X019984Y028288*
X019998Y028284*
X020012Y028281*
X020027Y028279*
X020041Y028278*
X020056*
X020070Y028279*
X020085Y028281*
X020099Y028284*
X020113Y028288*
X020127Y028293*
X020140Y028299*
X020153Y028306*
X020165Y028313*
X020176Y028321*
D01*
X020187Y028312*
X020200Y028304*
X020213Y028297*
X020226Y028292*
X020240Y028287*
X020254Y028283*
X020268Y028280*
X020282Y028278*
X020297Y028277*
X020312Y028277*
X020326Y028278*
X020340Y028280*
X020355Y028283*
X020369Y028287*
X020382Y028292*
X020396Y028298*
X020409Y028305*
X020421Y028313*
X020432Y028321*
X018787Y028482D02*
D01*
X018786Y028491*
X018785Y028501*
X018783Y028511*
X018781Y028520*
X018778Y028529*
X018774Y028538*
X018770Y028547*
X018765Y028556*
X018760Y028564*
X018754Y028571*
X018747Y028579*
X018740Y028586*
X018733Y028592*
X018725Y028598*
X018722Y028600*
X018787Y029151D02*
D01*
X018786Y029160*
X018785Y029170*
X018783Y029180*
X018781Y029189*
X018778Y029198*
X018774Y029207*
X018770Y029216*
X018765Y029225*
X018760Y029233*
X018754Y029240*
X018747Y029248*
X018740Y029255*
X018735Y029260*
X018722Y028600D02*
D01*
X018730Y028605*
X018737Y028611*
X018744Y028618*
X018751Y028625*
X018757Y028632*
X018763Y028640*
X018768Y028649*
X018773Y028657*
X018777Y028666*
X018780Y028675*
X018782Y028685*
X018784Y028694*
X018786Y028704*
X018786Y028714*
X018787Y028718*
X018495Y029640D02*
D01*
X018519Y029657*
X018542Y029677*
X018564Y029698*
X018584Y029721*
X018603Y029745*
X018620Y029770*
X018635Y029797*
X018648Y029824*
X018659Y029852*
X018669Y029881*
X018676Y029911*
X018681Y029941*
X018684Y029971*
X018685Y030000*
X019269Y028399D02*
D01*
X019259Y028408*
X019249Y028416*
X019238Y028424*
X019226Y028431*
X019215Y028437*
X019202Y028442*
X019190Y028446*
X019177Y028450*
X019164Y028452*
X019151Y028454*
X019138Y028455*
X019135Y028455*
X019269Y028400D02*
D01*
X019259Y028409*
X019249Y028417*
X019238Y028424*
X019226Y028431*
X019215Y028437*
X019202Y028442*
X019190Y028447*
X019177Y028450*
X019164Y028453*
X019151Y028454*
X019138Y028455*
X019135Y028455*
X016927Y031090D02*
D01*
X016944Y031109*
X016959Y031131*
X016973Y031153*
X016986Y031176*
X016997Y031200*
X017006Y031224*
X017013Y031249*
X017019Y031275*
X017023Y031301*
X017025Y031327*
X017026Y031344*
X017685Y030295D02*
D01*
X017684Y030304*
X017683Y030314*
X017681Y030324*
X017679Y030333*
X017676Y030342*
X017672Y030351*
X017668Y030360*
X017663Y030369*
X017658Y030377*
X017652Y030384*
X017645Y030392*
X017638Y030399*
X017631Y030405*
X017623Y030411*
X017615Y030416*
X017606Y030420*
X017597Y030424*
X017588Y030428*
X017578Y030430*
X017569Y030432*
X017559Y030434*
X017549Y030434*
X017545Y030435*
X018685Y030000D02*
D01*
X018683Y030030*
X018680Y030060*
X018675Y030090*
X018668Y030119*
X018658Y030148*
X018647Y030176*
X018634Y030204*
X018618Y030230*
X018601Y030255*
X018583Y030279*
X018562Y030302*
X018541Y030323*
X018517Y030342*
X018493Y030360*
X018467Y030376*
X018440Y030390*
X018412Y030403*
X018384Y030413*
X018355Y030422*
X018325Y030428*
X018295Y030432*
X018265Y030434*
X018234*
X018204Y030432*
X018174Y030428*
X018144Y030422*
X018115Y030413*
X018087Y030403*
X018059Y030390*
X018032Y030376*
X018006Y030360*
X017982Y030342*
X017958Y030323*
X017937Y030302*
X017916Y030279*
X017898Y030255*
X017881Y030230*
X017865Y030204*
X017852Y030176*
X017841Y030148*
X017831Y030119*
X017824Y030090*
X017819Y030060*
X017816Y030030*
X017815Y030000*
X017816Y029969*
X017819Y029939*
X017824Y029909*
X017831Y029880*
X017841Y029851*
X017852Y029823*
X017865Y029795*
X017881Y029769*
X017898Y029744*
X017916Y029720*
X017937Y029697*
X017958Y029676*
X017982Y029657*
X018005Y029640*
X017927Y031090D02*
D01*
X017944Y031109*
X017959Y031131*
X017973Y031153*
X017986Y031176*
X017997Y031200*
X018006Y031224*
X018013Y031249*
X018019Y031275*
X018023Y031301*
X018025Y031327*
X018026Y031344*
X017026Y031856D02*
D01*
X017025Y031882*
X017022Y031908*
X017017Y031934*
X017011Y031959*
X017003Y031984*
X016993Y032008*
X016981Y032032*
X016968Y032055*
X016954Y032077*
X016938Y032097*
X016920Y032117*
X016901Y032135*
X016881Y032152*
X016860Y032167*
X016838Y032181*
X016814Y032193*
X016790Y032204*
X016766Y032213*
X016740Y032220*
X016715Y032226*
X016689Y032229*
X016663Y032231*
X016636*
X016610Y032229*
X016584Y032226*
X016559Y032220*
X016533Y032213*
X016509Y032204*
X016485Y032193*
X016462Y032181*
X016439Y032167*
X016418Y032152*
X016398Y032135*
X016379Y032117*
X016361Y032097*
X016345Y032077*
X016331Y032055*
X016318Y032032*
X016306Y032008*
X016296Y031984*
X016288Y031959*
X016282Y031934*
X016277Y031908*
X016274Y031882*
X016274Y031856*
X017274Y031344D02*
D01*
X017274Y031317*
X017277Y031291*
X017282Y031265*
X017288Y031240*
X017296Y031215*
X017306Y031191*
X017318Y031167*
X017331Y031144*
X017345Y031122*
X017361Y031102*
X017373Y031090*
X018026Y031856D02*
D01*
X018025Y031882*
X018022Y031908*
X018017Y031934*
X018011Y031959*
X018003Y031984*
X017993Y032008*
X017981Y032032*
X017968Y032055*
X017954Y032077*
X017938Y032097*
X017920Y032117*
X017901Y032135*
X017881Y032152*
X017860Y032167*
X017838Y032181*
X017814Y032193*
X017790Y032204*
X017766Y032213*
X017740Y032220*
X017715Y032226*
X017689Y032229*
X017663Y032231*
X017636*
X017610Y032229*
X017584Y032226*
X017559Y032220*
X017533Y032213*
X017509Y032204*
X017485Y032193*
X017462Y032181*
X017439Y032167*
X017418Y032152*
X017398Y032135*
X017379Y032117*
X017361Y032097*
X017345Y032077*
X017331Y032055*
X017318Y032032*
X017306Y032008*
X017296Y031984*
X017288Y031959*
X017282Y031934*
X017277Y031908*
X017274Y031882*
X017274Y031856*
X019372Y030418D02*
D01*
X019342Y030425*
X019312Y030430*
X019282Y030434*
X019252Y030435*
X019221Y030434*
X019191Y030431*
X019161Y030426*
X019131Y030419*
X019103Y030409*
X019074Y030398*
X019047Y030385*
X019020Y030370*
X018995Y030353*
X018971Y030334*
X018949Y030314*
X018927Y030292*
X018908Y030269*
X018890Y030245*
X018873Y030219*
X018859Y030192*
X018847Y030165*
X018836Y030136*
X018827Y030107*
X018821Y030077*
X018817Y030047*
X018814Y030017*
X018814Y029986*
X018816Y029956*
X018820Y029926*
X018827Y029896*
X018835Y029867*
X018845Y029838*
X018857Y029810*
X018871Y029784*
X018887Y029758*
X018905Y029733*
X018925Y029710*
X018946Y029688*
X018968Y029667*
X018992Y029648*
X019005Y029640*
X019477Y031080D02*
D01*
X019457Y031084*
X019437Y031087*
X019417Y031089*
X019400Y031090*
X019477Y031080D02*
D01*
X019457Y031084*
X019437Y031087*
X019417Y031089*
X019400Y031090*
X020086Y030968D02*
D01*
X020095Y030968*
X020105Y030969*
X020115Y030971*
X020124Y030973*
X020133Y030976*
X020142Y030980*
X020151Y030984*
X020160Y030989*
X020168Y030994*
X020175Y031000*
X020183Y031007*
X020190Y031014*
X020196Y031021*
X020202Y031029*
X020207Y031038*
X020211Y031046*
X020215Y031055*
X020219Y031064*
X020221Y031074*
X020223Y031083*
X020225Y031093*
X020225Y031103*
X020226Y031108*
X019614Y032232D02*
D01*
X019604Y032231*
X019594Y032230*
X019584Y032228*
X019575Y032226*
X019566Y032223*
X019557Y032219*
X019548Y032215*
X019539Y032210*
X019531Y032205*
X019524Y032199*
X019516Y032192*
X019509Y032185*
X019503Y032178*
X019497Y032170*
X019492Y032162*
X019488Y032153*
X019484Y032144*
X019480Y032135*
X019478Y032125*
X019476Y032116*
X019474Y032106*
X019474Y032096*
X019474Y032092*
X020226D02*
D01*
X020225Y032101*
X020224Y032111*
X020222Y032121*
X020220Y032130*
X020217Y032139*
X020213Y032148*
X020209Y032157*
X020204Y032166*
X020199Y032174*
X020193Y032181*
X020186Y032189*
X020179Y032196*
X020172Y032202*
X020164Y032208*
X020156Y032213*
X020147Y032217*
X020138Y032221*
X020129Y032225*
X020119Y032227*
X020110Y032229*
X020100Y032231*
X020090Y032231*
X020086Y032232*
X021016Y022866D02*
D01*
X021025Y022856*
X021035Y022848*
X021046Y022841*
X021058Y022834*
X021069Y022828*
X021082Y022823*
X021094Y022818*
X021107Y022815*
X021120Y022812*
X021133Y022811*
X021146Y022810*
X021150Y022810*
X020340Y023197D02*
D01*
X020347Y023203*
X020354Y023210*
X020360Y023217*
X020366Y023225*
X020372Y023233*
X020376Y023241*
X020380Y023250*
X020384Y023259*
X020387Y023268*
X020389Y023278*
X020391Y023288*
X020392Y023297*
X020393Y023306*
X021015Y022866D02*
D01*
X021024Y022856*
X021034Y022848*
X021045Y022840*
X021057Y022833*
X021068Y022827*
X021081Y022822*
X021093Y022818*
X021106Y022814*
X021119Y022812*
X021132Y022810*
X021145Y022809*
X021150Y022810*
X020460Y023500D02*
D01*
X020460Y023486*
X020461Y023473*
X020464Y023460*
X020467Y023447*
X020471Y023435*
X020476Y023422*
X020482Y023410*
X020488Y023399*
X020496Y023388*
X020504Y023377*
X020513Y023368*
X020516Y023365*
X020460Y023500D02*
D01*
X020460Y023486*
X020461Y023473*
X020464Y023460*
X020467Y023447*
X020471Y023435*
X020476Y023422*
X020482Y023410*
X020488Y023399*
X020496Y023388*
X020504Y023377*
X020513Y023368*
X020516Y023366*
X021193Y023225D02*
D01*
X021211Y023232*
X021230Y023240*
X021248Y023250*
X021265Y023261*
X021281Y023273*
X021296Y023286*
X021311Y023300*
X021324Y023316*
X021336Y023332*
X021348Y023349*
X021357Y023366*
X021366Y023385*
X021373Y023403*
X021379Y023423*
X021384Y023443*
X021387Y023463*
X021389Y023483*
X021390Y023500*
X021359Y023631D02*
D01*
X021349Y023648*
X021338Y023665*
X021326Y023681*
X021312Y023697*
X021298Y023711*
X021283Y023725*
X021283Y023725*
X021390Y023516D02*
D01*
X021396Y023508*
X021403Y023501*
X021410Y023495*
X021418Y023489*
X021426Y023484*
X021435Y023479*
X021444Y023475*
X021453Y023471*
X021462Y023468*
X021472Y023466*
X021481Y023464*
X021491Y023464*
X021499Y023463*
X021283Y023725D02*
D01*
X021298Y023738*
X021312Y023752*
X021325Y023767*
X021337Y023784*
X021348Y023801*
X021358Y023818*
X021359Y023819*
X023709Y020253D02*
D01*
X023709Y020243*
X023710Y020233*
X023712Y020223*
X023714Y020214*
X023717Y020205*
X023721Y020196*
X023725Y020187*
X023730Y020178*
X023735Y020170*
X023741Y020163*
X023748Y020155*
X023755Y020148*
X023762Y020142*
X023770Y020136*
X023779Y020131*
X023787Y020127*
X023796Y020123*
X023805Y020119*
X023815Y020117*
X023824Y020115*
X023834Y020113*
X023844Y020113*
X023849Y020113*
X023300Y022810D02*
D01*
X023313Y022810*
X023326Y022811*
X023339Y022814*
X023352Y022817*
X023364Y022821*
X023377Y022826*
X023389Y022832*
X023400Y022838*
X023411Y022846*
X023422Y022854*
X023431Y022863*
X023434Y022866*
X023849Y020787D02*
D01*
X023839Y020786*
X023829Y020785*
X023819Y020783*
X023810Y020781*
X023801Y020778*
X023792Y020774*
X023783Y020770*
X023774Y020765*
X023766Y020760*
X023759Y020754*
X023751Y020747*
X023744Y020740*
X023738Y020733*
X023732Y020725*
X023727Y020717*
X023723Y020708*
X023719Y020699*
X023715Y020690*
X023713Y020680*
X023711Y020671*
X023709Y020661*
X023709Y020651*
X023709Y020647*
X023300Y022810D02*
D01*
X023313Y022810*
X023326Y022811*
X023339Y022814*
X023352Y022817*
X023364Y022821*
X023377Y022826*
X023389Y022832*
X023400Y022838*
X023411Y022846*
X023422Y022854*
X023431Y022863*
X023435Y022866*
X024282Y020113D02*
D01*
X024291Y020113*
X024301Y020114*
X024311Y020116*
X024320Y020118*
X024329Y020121*
X024338Y020125*
X024347Y020129*
X024356Y020134*
X024364Y020139*
X024371Y020145*
X024379Y020152*
X024386Y020159*
X024392Y020166*
X024398Y020174*
X024400Y020178*
D01*
X024405Y020169*
X024411Y020162*
X024418Y020155*
X024425Y020148*
X024432Y020142*
X024440Y020136*
X024449Y020131*
X024457Y020126*
X024466Y020122*
X024475Y020119*
X024485Y020117*
X024494Y020115*
X024504Y020113*
X024514Y020113*
X024518Y020113*
X024400Y020722D02*
D01*
X024394Y020730*
X024388Y020737*
X024381Y020744*
X024374Y020751*
X024367Y020757*
X024359Y020763*
X024350Y020768*
X024342Y020773*
X024333Y020777*
X024324Y020780*
X024314Y020782*
X024305Y020784*
X024295Y020786*
X024285Y020786*
X024282Y020787*
X024518D02*
D01*
X024508Y020786*
X024498Y020785*
X024488Y020783*
X024479Y020781*
X024470Y020778*
X024461Y020774*
X024452Y020770*
X024443Y020765*
X024435Y020760*
X024428Y020754*
X024420Y020747*
X024413Y020740*
X024407Y020733*
X024401Y020725*
X024400Y020722*
X021932Y023463D02*
D01*
X021941Y023463*
X021951Y023464*
X021961Y023466*
X021970Y023468*
X021979Y023471*
X021988Y023475*
X021997Y023479*
X022006Y023484*
X022014Y023489*
X022021Y023495*
X022029Y023502*
X022036Y023509*
X022042Y023516*
X022048Y023524*
X022050Y023528*
D01*
X022055Y023519*
X022061Y023512*
X022068Y023505*
X022075Y023498*
X022082Y023492*
X022090Y023486*
X022099Y023481*
X022107Y023476*
X022116Y023472*
X022125Y023469*
X022135Y023467*
X022144Y023465*
X022154Y023463*
X022164Y023463*
X022168Y023463*
X022601D02*
D01*
X022610Y023463*
X022620Y023464*
X022630Y023466*
X022639Y023468*
X022648Y023471*
X022657Y023475*
X022666Y023479*
X022675Y023484*
X022683Y023489*
X022690Y023495*
X022698Y023502*
X022705Y023509*
X022711Y023516*
X022717Y023524*
X022722Y023533*
X022726Y023541*
X022730Y023550*
X022734Y023559*
X022734Y023560*
X023884Y023315D02*
D01*
X023893Y023324*
X023901Y023334*
X023909Y023345*
X023916Y023357*
X023922Y023368*
X023927Y023381*
X023931Y023393*
X023935Y023406*
X023937Y023419*
X023939Y023432*
X023940Y023445*
X023940Y023450*
X023884Y023316D02*
D01*
X023893Y023325*
X023901Y023335*
X023908Y023346*
X023915Y023358*
X023921Y023369*
X023926Y023382*
X023931Y023394*
X023934Y023407*
X023937Y023420*
X023938Y023433*
X023939Y023446*
X023940Y023450*
X022808Y023560D02*
D01*
X022824Y023533*
X022842Y023509*
X022862Y023485*
X022883Y023463*
X022906Y023442*
X022930Y023424*
X022955Y023406*
X022982Y023391*
X023010Y023378*
X023038Y023366*
X023067Y023357*
X023097Y023349*
X023127Y023344*
X023158Y023341*
X023189Y023340*
X023219Y023341*
X023250Y023344*
X023280Y023349*
X023310Y023357*
X023339Y023366*
X023367Y023378*
X023395Y023391*
X023422Y023406*
X023447Y023424*
X023471Y023442*
X023489Y023457*
X023511Y023480D02*
D01*
X023531Y023503*
X023549Y023527*
X023560Y023543*
X020840Y024100D02*
D01*
X020839Y024113*
X020838Y024126*
X020835Y024139*
X020832Y024152*
X020828Y024164*
X020823Y024177*
X020817Y024189*
X020811Y024200*
X020803Y024211*
X020795Y024222*
X020786Y024231*
X020784Y024234*
X020840Y024100D02*
D01*
X020839Y024113*
X020838Y024126*
X020835Y024139*
X020832Y024152*
X020828Y024164*
X020823Y024177*
X020817Y024189*
X020811Y024200*
X020803Y024211*
X020795Y024222*
X020786Y024231*
X020784Y024235*
X021371Y024054D02*
D01*
X021363Y024072*
X021353Y024090*
X021343Y024108*
X021331Y024124*
X021319Y024140*
X021305Y024155*
X021290Y024169*
X021274Y024181*
X021258Y024193*
X021240Y024203*
X021222Y024213*
X021204Y024220*
X021184Y024227*
X021165Y024232*
X021145Y024236*
X021125Y024239*
X021105Y024240*
X021084Y024239*
X021064Y024238*
X021044Y024234*
X021024Y024230*
X021005Y024224*
X020986Y024217*
X020968Y024208*
X020950Y024198*
X020933Y024187*
X020917Y024175*
X020902Y024162*
X020887Y024147*
X020874Y024132*
X020862Y024116*
X020851Y024099*
X020841Y024081*
X020840Y024078*
X021475Y024135D02*
D01*
X021465Y024133*
X021456Y024130*
X021446Y024127*
X021437Y024123*
X021429Y024118*
X021420Y024113*
X021412Y024108*
X021405Y024101*
X021398Y024095*
X021391Y024087*
X021385Y024080*
X021380Y024072*
X021375Y024063*
X021370Y024055*
X021371Y024054*
X021097Y024259D02*
D01*
X021106Y024259*
X021116Y024260*
X021126Y024262*
X021135Y024264*
X021144Y024267*
X021153Y024271*
X021162Y024275*
X021171Y024280*
X021179Y024285*
X021186Y024291*
X021194Y024298*
X021200Y024304*
D01*
X021206Y024297*
X021214Y024290*
X021222Y024284*
X021230Y024279*
X021238Y024274*
X021247Y024270*
X021256Y024266*
X021265Y024263*
X021275Y024261*
X021285Y024260*
X021294Y024259*
X021303Y024259*
X020334Y024684D02*
D01*
X020324Y024693*
X020314Y024701*
X020303Y024708*
X020291Y024715*
X020280Y024721*
X020267Y024726*
X020255Y024731*
X020242Y024734*
X020229Y024737*
X020216Y024738*
X020203Y024739*
X020200Y024740*
X020628Y024950D02*
D01*
X020619Y024944*
X020612Y024938*
X020605Y024931*
X020598Y024924*
X020592Y024917*
X020586Y024909*
X020581Y024900*
X020576Y024892*
X020572Y024883*
X020569Y024874*
X020567Y024864*
X020565Y024855*
X020563Y024845*
X020563Y024835*
X020563Y024832*
X020600Y025596D02*
D01*
X020592Y025602*
X020585Y025608*
X020577Y025614*
X020568Y025619*
X020560Y025623*
X020551Y025627*
X020541Y025630*
X020532Y025633*
X020522Y025635*
X020513Y025636*
X020503Y025636*
X020501Y025637*
Y024963D02*
D01*
X020510Y024963*
X020520Y024964*
X020530Y024966*
X020539Y024968*
X020548Y024971*
X020557Y024975*
X020566Y024979*
X020575Y024984*
X020583Y024989*
X020586Y024992*
D01*
X020591Y024984*
X020597Y024976*
X020604Y024969*
X020611Y024962*
X020619Y024956*
X020627Y024950*
X020628Y024950*
X020703Y025641D02*
D01*
X020693Y025640*
X020683Y025639*
X020673Y025637*
X020664Y025635*
X020655Y025632*
X020646Y025628*
X020637Y025624*
X020628Y025619*
X020620Y025614*
X020613Y025608*
X020605Y025601*
X020600Y025596*
X020766Y025784D02*
D01*
X020756Y025774*
X020748Y025764*
X020741Y025753*
X020734Y025741*
X020728Y025730*
X020723Y025717*
X020718Y025705*
X020715Y025692*
X020712Y025679*
X020711Y025666*
X020710Y025653*
X020710Y025650*
X020766Y025785D02*
D01*
X020756Y025775*
X020748Y025765*
X020740Y025754*
X020733Y025742*
X020727Y025731*
X020722Y025718*
X020718Y025706*
X020714Y025693*
X020712Y025680*
X020710Y025667*
X020709Y025654*
X020710Y025650*
X020432Y026077D02*
D01*
X020443Y026068*
X020456Y026060*
X020469Y026053*
X020482Y026048*
X020496Y026043*
X020510Y026039*
X020524Y026036*
X020538Y026034*
X020553Y026033*
X020568Y026033*
X020582Y026034*
X020596Y026036*
X020611Y026039*
X020625Y026043*
X020638Y026048*
X020652Y026054*
X020665Y026061*
X020677Y026069*
X020688Y026077*
D01*
X020699Y026068*
X020712Y026060*
X020725Y026053*
X020738Y026048*
X020752Y026043*
X020766Y026039*
X020780Y026036*
X020794Y026034*
X020809Y026033*
X020824Y026033*
X020838Y026034*
X020852Y026036*
X020867Y026039*
X020881Y026043*
X020882Y026044*
X022050Y024072D02*
D01*
X022044Y024080*
X022038Y024087*
X022031Y024094*
X022024Y024101*
X022017Y024107*
X022009Y024113*
X022000Y024118*
X021992Y024123*
X021983Y024127*
X021974Y024130*
X021964Y024132*
X021955Y024134*
X021955Y024135*
X022168Y024137D02*
D01*
X022158Y024136*
X022148Y024135*
X022138Y024133*
X022129Y024131*
X022120Y024128*
X022111Y024124*
X022102Y024120*
X022093Y024115*
X022085Y024110*
X022078Y024104*
X022070Y024097*
X022063Y024090*
X022057Y024083*
X022051Y024075*
X022050Y024072*
X022734Y024040D02*
D01*
X022730Y024049*
X022726Y024058*
X022722Y024066*
X022716Y024074*
X022711Y024082*
X022705Y024090*
X022698Y024097*
X022691Y024103*
X022683Y024109*
X022675Y024115*
X022666Y024120*
X022658Y024124*
X022648Y024128*
X022639Y024131*
X022630Y024133*
X022620Y024135*
X022610Y024136*
X022601Y024136*
X022601Y024137*
X022297Y024259D02*
D01*
X022306Y024259*
X022316Y024260*
X022326Y024262*
X022335Y024264*
X022344Y024267*
X022353Y024271*
X022362Y024275*
X022371Y024280*
X022379Y024285*
X022386Y024291*
X022394Y024298*
X022401Y024305*
X022407Y024312*
X022413Y024320*
X022418Y024329*
X022422Y024337*
X022426Y024346*
X022430Y024355*
X022432Y024365*
X022434Y024374*
X022436Y024384*
X022436Y024394*
X022437Y024399*
X023560Y024016D02*
D01*
X023542Y024041*
X023523Y024065*
X023502Y024087*
X023480Y024109*
X023456Y024128*
X023431Y024146*
X023405Y024162*
X023378Y024176*
X023349Y024188*
X023320Y024199*
X023291Y024207*
X023261Y024213*
X023230Y024217*
X023199Y024219*
X023169Y024218*
X023138Y024216*
X023108Y024211*
X023078Y024205*
X023048Y024196*
X023020Y024185*
X022992Y024172*
X022965Y024158*
X022939Y024141*
X022914Y024123*
X022891Y024103*
X022869Y024081*
X022848Y024058*
X022834Y024040*
X022372Y024950D02*
D01*
X022380Y024955*
X022387Y024961*
X022394Y024968*
X022401Y024975*
X022407Y024982*
X022413Y024990*
X022418Y024999*
X022423Y025007*
X022427Y025016*
X022430Y025025*
X022432Y025035*
X022434Y025044*
X022436Y025054*
X022436Y025064*
X022437Y025068*
Y024832D02*
D01*
X022436Y024841*
X022435Y024851*
X022433Y024861*
X022431Y024870*
X022428Y024879*
X022424Y024888*
X022420Y024897*
X022415Y024906*
X022410Y024914*
X022404Y024921*
X022397Y024929*
X022390Y024936*
X022383Y024942*
X022375Y024948*
X022372Y024950*
X024560Y024509D02*
D01*
X024559Y024522*
X024558Y024535*
X024555Y024548*
X024552Y024561*
X024548Y024573*
X024543Y024586*
X024537Y024598*
X024531Y024609*
X024523Y024620*
X024515Y024631*
X024506Y024640*
X024504Y024644*
X024560Y024509D02*
D01*
X024559Y024522*
X024558Y024535*
X024555Y024548*
X024552Y024561*
X024548Y024573*
X024543Y024586*
X024537Y024598*
X024531Y024609*
X024523Y024620*
X024515Y024631*
X024506Y024640*
X024504Y024644*
X024951Y020113D02*
D01*
X024960Y020113*
X024970Y020114*
X024980Y020116*
X024989Y020118*
X024998Y020121*
X025007Y020125*
X025016Y020129*
X025025Y020134*
X025033Y020139*
X025040Y020145*
X025048Y020152*
X025055Y020159*
X025061Y020166*
X025067Y020174*
X025072Y020183*
X025076Y020191*
X025080Y020200*
X025084Y020209*
X025084Y020210*
X025010Y020774D02*
D01*
X025000Y020777*
X024991Y020780*
X024982Y020783*
X024972Y020785*
X024963Y020786*
X024953Y020787*
X024951Y020787*
X025390Y020994D02*
D01*
X025412Y020973*
X025435Y020953*
X025460Y020936*
X025486Y020920*
X025513Y020906*
X025541Y020894*
X025569Y020884*
X025599Y020876*
X025629Y020870*
X025659Y020866*
X025689Y020864*
X025719Y020864*
X025750Y020867*
X025780Y020871*
X025810Y020878*
X025839Y020887*
X025867Y020897*
X025895Y020910*
X025921Y020925*
X025947Y020941*
X025971Y020959*
X025994Y020979*
X026016Y021000*
X026036Y021023*
X026055Y021047*
X026071Y021073*
X026086Y021099*
X026099Y021127*
X026110Y021155*
X026120Y021184*
X026127Y021214*
X026131Y021244*
X026134Y021274*
X026135Y021300*
X025495Y022555D02*
D01*
X025481Y022540*
X025468Y022524*
X025456Y022507*
X025446Y022490*
X025437Y022472*
X025429Y022453*
X025422Y022434*
X025417Y022415*
X025413Y022395*
X025411Y022375*
X025410Y022355*
X025410Y022350*
X025495Y022555D02*
D01*
X025481Y022540*
X025468Y022524*
X025456Y022507*
X025446Y022490*
X025437Y022472*
X025429Y022453*
X025422Y022434*
X025417Y022415*
X025413Y022395*
X025411Y022375*
X025410Y022355*
X025410Y022350*
X025850Y020210D02*
D01*
X025866Y020210*
X025883Y020212*
X025899Y020215*
X025916Y020219*
X025932Y020224*
X025947Y020230*
X025962Y020238*
X025977Y020246*
X025991Y020255*
X026004Y020266*
X026016Y020277*
X026020Y020280*
X025850Y020210D02*
D01*
X025866Y020210*
X025883Y020212*
X025899Y020215*
X025916Y020219*
X025932Y020224*
X025947Y020230*
X025962Y020238*
X025977Y020246*
X025991Y020255*
X026004Y020266*
X026016Y020277*
X026020Y020280*
X026613Y020874D02*
D01*
X026642Y020868*
X026673Y020866*
X026703Y020865*
X026733Y020866*
X026763Y020869*
X026793Y020875*
X026823Y020883*
X026851Y020892*
X026880Y020904*
X026907Y020917*
X026933Y020933*
X026958Y020950*
X026982Y020969*
X027004Y020989*
X027025Y021011*
X027044Y021035*
X027062Y021059*
X027078Y021085*
X027092Y021112*
X027104Y021140*
X027114Y021168*
X027122Y021198*
X027128Y021227*
X027132Y021258*
X027134Y021288*
X027135Y021300*
X026135D02*
D01*
X026133Y021330*
X026130Y021360*
X026125Y021390*
X026118Y021419*
X026108Y021448*
X026097Y021476*
X026084Y021504*
X026068Y021530*
X026051Y021555*
X026033Y021579*
X026012Y021602*
X025991Y021623*
X025990Y021625*
X026455Y022695D02*
D01*
X026468Y022709*
X026481Y022725*
X026493Y022742*
X026503Y022759*
X026512Y022777*
X026520Y022796*
X026527Y022815*
X026532Y022834*
X026536Y022854*
X026538Y022874*
X026539Y022894*
X026540Y022900*
X026455Y022695D02*
D01*
X026468Y022709*
X026481Y022725*
X026493Y022742*
X026503Y022759*
X026512Y022777*
X026520Y022796*
X026527Y022815*
X026532Y022834*
X026536Y022854*
X026538Y022874*
X026539Y022894*
X026540Y022900*
X027135Y021300D02*
D01*
X027133Y021330*
X027130Y021360*
X027125Y021390*
X027118Y021419*
X027108Y021448*
X027097Y021476*
X027084Y021504*
X027068Y021530*
X027051Y021555*
X027033Y021579*
X027012Y021602*
X026991Y021623*
X026967Y021642*
X026943Y021660*
X026917Y021676*
X026890Y021690*
X026862Y021703*
X026834Y021713*
X026805Y021722*
X026775Y021728*
X026745Y021732*
X026715Y021734*
X026684*
X026654Y021732*
X026624Y021728*
X026594Y021722*
X026565Y021713*
X026537Y021703*
X026509Y021690*
X026482Y021676*
X026456Y021660*
X026432Y021642*
X026408Y021623*
X026387Y021602*
X026366Y021579*
X026348Y021555*
X026331Y021530*
X026315Y021504*
X026302Y021476*
X026291Y021448*
X026281Y021419*
X026274Y021390*
X026269Y021360*
X026266Y021330*
X026265Y021300*
X026266Y021269*
X026269Y021239*
X026274Y021213*
X023940Y023687D02*
D01*
X023947Y023657*
X023957Y023628*
X023968Y023599*
X023982Y023572*
X023997Y023545*
X024015Y023520*
X024033Y023496*
X024054Y023473*
X024076Y023452*
X024100Y023432*
X024125Y023414*
X024151Y023398*
X024178Y023383*
X024206Y023371*
X024235Y023361*
X024265Y023352*
X024295Y023346*
X024325Y023342*
X024356Y023340*
X024386Y023340*
X024417Y023342*
X024447Y023347*
X024477Y023353*
X024507Y023362*
X024536Y023372*
X024564Y023385*
X024591Y023399*
X024617Y023416*
X024642Y023434*
X024665Y023454*
X024687Y023475*
X024708Y023498*
X024726Y023522*
X024743Y023548*
X024759Y023574*
X024772Y023602*
X024783Y023631*
X024793Y023660*
X024800Y023690*
X024805Y023720*
X024808Y023750*
X024810Y023780*
D01*
X024808Y023810*
X024805Y023841*
X024800Y023871*
X024792Y023901*
X024783Y023930*
X024771Y023958*
X024758Y023986*
X024743Y024013*
X024725Y024038*
X024707Y024062*
X024686Y024085*
X024664Y024106*
X024640Y024126*
X024616Y024144*
X024590Y024161*
X024562Y024175*
X024560Y024176*
X024615Y024495D02*
D01*
X024615Y024481*
X024616Y024468*
X024619Y024455*
X024622Y024442*
X024626Y024430*
X024631Y024417*
X024637Y024405*
X024643Y024394*
X024651Y024383*
X024659Y024372*
X024668Y024363*
X024671Y024361*
X025390Y024100D02*
D01*
X025389Y024113*
X025388Y024126*
X025385Y024139*
X025382Y024152*
X025378Y024164*
X025373Y024177*
X025367Y024189*
X025361Y024200*
X025353Y024211*
X025345Y024222*
X025336Y024231*
X025334Y024235*
X025390Y024100D02*
D01*
X025389Y024113*
X025388Y024126*
X025385Y024139*
X025382Y024152*
X025378Y024164*
X025373Y024177*
X025367Y024189*
X025361Y024200*
X025353Y024211*
X025345Y024222*
X025336Y024231*
X025334Y024234*
X024615Y024495D02*
D01*
X024615Y024481*
X024616Y024468*
X024619Y024455*
X024622Y024442*
X024626Y024430*
X024631Y024417*
X024637Y024405*
X024643Y024394*
X024651Y024383*
X024659Y024372*
X024668Y024363*
X024670Y024361*
X024060Y026692D02*
D01*
X024033Y026677*
X024007Y026661*
X023982Y026643*
X023959Y026624*
X023937Y026603*
X023916Y026580*
X023898Y026556*
X023881Y026531*
X023865Y026505*
X023852Y026478*
X023841Y026449*
X023831Y026421*
X023824Y026391*
X023818Y026361*
X023815Y026331*
X023814Y026301*
X023815Y026270*
X023818Y026240*
X023823Y026210*
X023830Y026180*
X023840Y026152*
X023851Y026123*
X023864Y026096*
X023880Y026070*
X023896Y026044*
X023915Y026020*
X023935Y025998*
X023957Y025976*
X023980Y025957*
X024005Y025939*
X024031Y025923*
X024058Y025908*
X024085Y025896*
X024114Y025886*
X024143Y025877*
X024173Y025871*
X024203Y025866*
X024233Y025864*
X024264Y025864*
X024294Y025866*
X024324Y025870*
X024354Y025877*
X024383Y025885*
X024412Y025895*
X024440Y025908*
X024466Y025922*
X024492Y025938*
X024517Y025956*
X024540Y025975*
X024562Y025996*
X024583Y026019*
X024601Y026043*
X024615Y026062*
X024995Y025947D02*
D01*
X025020Y025930*
X025046Y025914*
X025073Y025901*
X025102Y025890*
X025131Y025881*
X025160Y025873*
X025190Y025868*
X025220Y025865*
X025251Y025864*
X025281Y025865*
X025311Y025868*
X025341Y025874*
X025371Y025881*
X025400Y025891*
X025428Y025902*
X025455Y025916*
X025481Y025931*
X025506Y025948*
X025530Y025967*
X025553Y025987*
X025574Y026009*
X025593Y026032*
X025611Y026057*
X025627Y026083*
X025641Y026110*
X025654Y026137*
X025664Y026166*
X025672Y026195*
X025679Y026225*
X025683Y026255*
X025685Y026285*
X025685Y026300*
X026545Y025865D02*
D01*
X026554Y025865*
X026564Y025866*
X026574Y025868*
X026583Y025870*
X026592Y025873*
X026601Y025877*
X026610Y025881*
X026619Y025886*
X026627Y025891*
X026634Y025897*
X026642Y025904*
X026649Y025911*
X026655Y025918*
X026661Y025926*
X026666Y025935*
X026670Y025943*
X026674Y025952*
X026678Y025961*
X026680Y025971*
X026682Y025980*
X026684Y025990*
X026684Y026000*
X026685Y026005*
X025815D02*
D01*
X025815Y025995*
X025816Y025985*
X025818Y025975*
X025820Y025966*
X025823Y025957*
X025827Y025948*
X025831Y025939*
X025836Y025930*
X025841Y025922*
X025847Y025915*
X025854Y025907*
X025861Y025900*
X025868Y025894*
X025876Y025888*
X025885Y025883*
X025893Y025879*
X025902Y025875*
X025911Y025871*
X025921Y025869*
X025930Y025867*
X025940Y025865*
X025950Y025865*
X025955Y025865*
X025685Y026300D02*
D01*
X025683Y026330*
X025680Y026360*
X025675Y026390*
X025668Y026419*
X025658Y026448*
X025647Y026476*
X025634Y026504*
X025618Y026530*
X025601Y026555*
X025583Y026579*
X025562Y026602*
X025541Y026623*
X025540Y026625*
X020626Y027012D02*
D01*
X020612Y027016*
X020597Y027019*
X020583Y027021*
X020568Y027022*
X020554Y027022*
X020539Y027021*
X020525Y027019*
X020511Y027016*
X020497Y027012*
X020483Y027008*
X020469Y027002*
X020457Y026995*
X020444Y026987*
X020432Y026979*
X020432Y026979*
D01*
X020420Y026987*
X020407Y026995*
X020394Y027002*
X020381Y027007*
X020367Y027012*
X020353Y027016*
X020339Y027019*
X020325Y027021*
X020310Y027022*
X020295Y027022*
X020281Y027021*
X020267Y027019*
X020252Y027016*
X020238Y027012*
X020238Y027012*
X021006Y027284D02*
D01*
X021005Y027297*
X021004Y027310*
X021001Y027323*
X020998Y027336*
X020994Y027348*
X020989Y027361*
X020983Y027373*
X020977Y027384*
X020969Y027395*
X020961Y027406*
X020952Y027415*
X020950Y027418*
X021006Y027284D02*
D01*
X021005Y027297*
X021004Y027310*
X021001Y027323*
X020998Y027336*
X020994Y027348*
X020989Y027361*
X020983Y027373*
X020977Y027384*
X020969Y027395*
X020961Y027406*
X020952Y027415*
X020950Y027418*
X021138Y027012D02*
D01*
X021124Y027016*
X021109Y027019*
X021095Y027021*
X021080Y027022*
X021066Y027022*
X021051Y027021*
X021037Y027019*
X021023Y027016*
X021009Y027012*
X021006Y027012*
X021194Y027262D02*
D01*
X021184Y027252*
X021176Y027242*
X021169Y027231*
X021162Y027219*
X021156Y027208*
X021151Y027195*
X021146Y027183*
X021143Y027170*
X021140Y027157*
X021139Y027144*
X021138Y027131*
X021138Y027128*
X021194Y027263D02*
D01*
X021184Y027253*
X021176Y027243*
X021168Y027232*
X021161Y027220*
X021155Y027209*
X021150Y027196*
X021146Y027184*
X021142Y027171*
X021140Y027158*
X021138Y027145*
X021137Y027132*
X021138Y027128*
X020585Y027784D02*
D01*
X020575Y027793*
X020565Y027801*
X020554Y027809*
X020542Y027816*
X020531Y027822*
X020518Y027827*
X020506Y027831*
X020493Y027835*
X020480Y027837*
X020467Y027839*
X020454Y027840*
X020450Y027840*
X020584Y027784D02*
D01*
X020574Y027793*
X020564Y027801*
X020553Y027808*
X020541Y027815*
X020530Y027821*
X020517Y027826*
X020505Y027831*
X020492Y027834*
X020479Y027837*
X020466Y027838*
X020453Y027839*
X020450Y027840*
X021396Y028289D02*
D01*
X021398Y028275*
X021401Y028263*
X021405Y028250*
X021410Y028238*
X021416Y028226*
X021423Y028214*
X021430Y028203*
X021438Y028193*
X021447Y028183*
X021450Y028182*
X020432Y028321D02*
D01*
X020443Y028312*
X020456Y028304*
X020469Y028297*
X020482Y028292*
X020496Y028287*
X020510Y028283*
X020524Y028280*
X020538Y028278*
X020553Y028277*
X020568Y028277*
X020582Y028278*
X020596Y028280*
X020611Y028283*
X020625Y028287*
X020638Y028292*
X020652Y028298*
X020665Y028305*
X020677Y028313*
X020688Y028321*
D01*
X020699Y028312*
X020712Y028304*
X020725Y028297*
X020738Y028292*
X020752Y028287*
X020766Y028283*
X020780Y028280*
X020794Y028278*
X020809Y028277*
X020824Y028277*
X020838Y028278*
X020852Y028280*
X020867Y028283*
X020881Y028287*
X020894Y028292*
X020908Y028298*
X020921Y028305*
X020933Y028313*
X020944Y028321*
D01*
X020955Y028312*
X020968Y028304*
X020981Y028297*
X020994Y028292*
X021008Y028287*
X021022Y028283*
X021036Y028280*
X021050Y028278*
X021065Y028277*
X021080Y028277*
X021094Y028278*
X021108Y028280*
X021123Y028283*
X021137Y028287*
X021150Y028292*
X021164Y028298*
X021177Y028305*
X021189Y028313*
X021200Y028321*
D01*
X021211Y028312*
X021224Y028304*
X021237Y028297*
X021250Y028292*
X021264Y028287*
X021278Y028283*
X021292Y028280*
X021306Y028278*
X021321Y028277*
X021336Y028277*
X021350Y028278*
X021364Y028280*
X021379Y028283*
X021393Y028287*
X021396Y028289*
D01*
X021398Y028275*
X021401Y028263*
X021405Y028250*
X021410Y028238*
X021416Y028226*
X021423Y028214*
X021430Y028203*
X021438Y028193*
X021447Y028183*
X021450Y028182*
X021616Y028016D02*
D01*
X021625Y028006*
X021635Y027998*
X021646Y027991*
X021658Y027984*
X021669Y027978*
X021682Y027973*
X021694Y027968*
X021707Y027965*
X021720Y027962*
X021733Y027961*
X021746Y027960*
X021750Y027960*
X021615Y028016D02*
D01*
X021624Y028006*
X021634Y027998*
X021645Y027990*
X021657Y027983*
X021668Y027977*
X021681Y027972*
X021693Y027968*
X021706Y027964*
X021719Y027962*
X021732Y027960*
X021745Y027959*
X021750Y027960*
X021712Y029223D02*
D01*
X021700Y029231*
X021687Y029239*
X021674Y029246*
X021661Y029251*
X021647Y029256*
X021633Y029260*
X021619Y029263*
X021605Y029265*
X021590Y029266*
X021575Y029266*
X021561Y029265*
X021547Y029263*
X021532Y029260*
X021527Y029259*
X021584Y029315D02*
D01*
X021593Y029324*
X021601Y029334*
X021609Y029345*
X021616Y029357*
X021622Y029368*
X021627Y029381*
X021631Y029393*
X021635Y029406*
X021637Y029419*
X021639Y029432*
X021640Y029445*
X021640Y029450*
X021584Y029316D02*
D01*
X021593Y029325*
X021601Y029335*
X021608Y029346*
X021615Y029358*
X021621Y029369*
X021626Y029382*
X021631Y029394*
X021634Y029407*
X021637Y029420*
X021638Y029433*
X021639Y029446*
X021640Y029450*
X021647Y029459D02*
D01*
X021656Y029459*
X021666Y029460*
X021676Y029462*
X021685Y029464*
X021694Y029467*
X021703Y029471*
X021712Y029475*
X021715Y029476*
X022560Y026813D02*
D01*
X022559Y026827*
X022557Y026842*
X022555Y026856*
X022551Y026870*
X022547Y026884*
X022541Y026898*
X022535Y026911*
X022528Y026923*
X022520Y026935*
X022511Y026947*
X022501Y026958*
X022500Y026960*
D01*
X022520Y026960*
X022540Y026962*
X022560Y026966*
X022579Y026971*
X022599Y026977*
X022617Y026985*
X022636Y026993*
X022653Y027004*
X022670Y027015*
X022686Y027027*
X022701Y027041*
X022715Y027055*
X022728Y027071*
X022740Y027087*
X022751Y027105*
X022760Y027122*
X022768Y027141*
X022775Y027160*
X022781Y027179*
X022785Y027199*
X022788Y027219*
X022789Y027239*
X022790Y027250*
D01*
X022789Y027270*
X022787Y027290*
X022783Y027310*
X022778Y027329*
X022772Y027349*
X022764Y027367*
X022756Y027386*
X022745Y027403*
X022742Y027410*
X022500Y028340D02*
D01*
X022509Y028350*
X022519Y028362*
X022527Y028374*
X022534Y028386*
X022541Y028399*
X022546Y028413*
X022551Y028427*
X022555Y028441*
X022557Y028455*
X022559Y028470*
X022560Y028484*
X022560Y028487*
X021968Y029223D02*
D01*
X021956Y029231*
X021943Y029239*
X021930Y029246*
X021917Y029251*
X021903Y029256*
X021889Y029260*
X021875Y029263*
X021861Y029265*
X021846Y029266*
X021831Y029266*
X021817Y029265*
X021803Y029263*
X021788Y029260*
X021774Y029256*
X021761Y029251*
X021747Y029245*
X021734Y029238*
X021722Y029230*
X021712Y029223*
X022560Y029057D02*
D01*
X022559Y029071*
X022557Y029086*
X022555Y029100*
X022551Y029114*
X022547Y029128*
X022541Y029142*
X022535Y029155*
X022528Y029167*
X022520Y029179*
X022511Y029191*
X022501Y029202*
X022490Y029212*
X022479Y029221*
X022467Y029230*
X022455Y029237*
X022442Y029244*
X022429Y029250*
X022415Y029255*
X022401Y029259*
X022387Y029262*
X022372Y029264*
X022358Y029265*
X022343*
X022329Y029264*
X022314Y029262*
X022300Y029259*
X022286Y029255*
X022272Y029250*
X022259Y029244*
X022246Y029237*
X022234Y029230*
X022224Y029223*
D01*
X022212Y029231*
X022199Y029239*
X022186Y029246*
X022173Y029251*
X022159Y029256*
X022145Y029260*
X022131Y029263*
X022117Y029265*
X022102Y029266*
X022087Y029266*
X022073Y029265*
X022059Y029263*
X022044Y029260*
X022030Y029256*
X022017Y029251*
X022003Y029245*
X021990Y029238*
X021978Y029230*
X021968Y029223*
X021715Y029470D02*
D01*
X021715Y029460*
X021716Y029450*
X021718Y029440*
X021720Y029431*
X021723Y029422*
X021727Y029413*
X021731Y029404*
X021736Y029395*
X021741Y029387*
X021747Y029380*
X021754Y029372*
X021761Y029365*
X021768Y029359*
X021776Y029353*
X021785Y029348*
X021793Y029344*
X021802Y029340*
X021811Y029336*
X021821Y029334*
X021830Y029332*
X021840Y029330*
X021850Y029330*
X021855Y029330*
X022445D02*
D01*
X022454Y029330*
X022464Y029331*
X022474Y029333*
X022483Y029335*
X022492Y029338*
X022501Y029342*
X022510Y029346*
X022519Y029351*
X022527Y029356*
X022534Y029362*
X022542Y029369*
X022549Y029376*
X022555Y029383*
X022561Y029391*
X022566Y029400*
X022570Y029408*
X022574Y029417*
X022578Y029426*
X022580Y029436*
X022582Y029445*
X022584Y029455*
X022584Y029465*
X022585Y029470*
X023918Y028572D02*
D01*
X023906Y028565*
X023894Y028558*
X023884Y028551*
X023873Y028542*
X023865Y028534*
X023918Y028572D02*
D01*
X023906Y028565*
X023894Y028558*
X023884Y028551*
X023873Y028542*
X023866Y028534*
X024386Y029796D02*
D01*
X024382Y029815*
X024376Y029835*
X024370Y029854*
X024362Y029873*
X024353Y029891*
X024342Y029908*
X024330Y029924*
X024318Y029940*
X024305Y029955*
X024386Y029796D02*
D01*
X024382Y029815*
X024376Y029835*
X024370Y029854*
X024362Y029873*
X024353Y029891*
X024342Y029908*
X024330Y029924*
X024318Y029940*
X024305Y029955*
X024725Y029862D02*
D01*
X024706Y029870*
X024687Y029876*
X024667Y029882*
X024647Y029886*
X024627Y029888*
X024607Y029890*
X024587Y029890*
X024567Y029888*
X024547Y029885*
X024527Y029881*
X024507Y029875*
X024488Y029868*
X024470Y029859*
X024452Y029850*
X024435Y029839*
X024419Y029827*
X024403Y029814*
X024389Y029799*
X024386Y029796*
X021253Y030841D02*
D01*
X021243Y030840*
X021233Y030839*
X021223Y030837*
X021214Y030835*
X021205Y030832*
X021196Y030828*
X021187Y030824*
X021178Y030819*
X021170Y030814*
X021163Y030808*
X021155Y030801*
X021148Y030794*
X021145Y030790*
X020474Y031344D02*
D01*
X020474Y031317*
X020477Y031291*
X020482Y031265*
X020488Y031240*
X020496Y031215*
X020506Y031191*
X020518Y031167*
X020531Y031144*
X020545Y031122*
X020561Y031102*
X020579Y031082*
X020598Y031064*
X020618Y031047*
X020639Y031032*
X020662Y031018*
X020685Y031006*
X020709Y030995*
X020733Y030986*
X020759Y030979*
X020784Y030973*
X020810Y030970*
X020836Y030968*
X020863*
X020889Y030970*
X020915Y030973*
X020940Y030979*
X020966Y030986*
X020990Y030995*
X021014Y031006*
X021038Y031018*
X021060Y031032*
X021081Y031047*
X021101Y031064*
X021120Y031082*
X021138Y031102*
X021154Y031122*
X021168Y031144*
X021181Y031167*
X021193Y031191*
X021203Y031215*
X021211Y031240*
X021217Y031265*
X021222Y031291*
X021225Y031317*
X021226Y031344*
X021855Y030870D02*
D01*
X021845Y030869*
X021835Y030868*
X021825Y030866*
X021816Y030864*
X021807Y030861*
X021798Y030857*
X021789Y030853*
X021780Y030848*
X021772Y030843*
X021765Y030837*
X021757Y030830*
X021750Y030823*
X021744Y030816*
X021738Y030808*
X021738Y030807*
D01*
X021730Y030813*
X021722Y030818*
X021713Y030823*
X021705Y030827*
X021696Y030831*
X021687Y030834*
X021677Y030837*
X021668Y030839*
X021658Y030840*
X021648Y030840*
X021647Y030841*
X021474Y031344D02*
D01*
X021474Y031317*
X021477Y031291*
X021482Y031265*
X021488Y031240*
X021496Y031215*
X021506Y031191*
X021518Y031167*
X021531Y031144*
X021545Y031122*
X021561Y031102*
X021579Y031082*
X021598Y031064*
X021618Y031047*
X021639Y031032*
X021662Y031018*
X021685Y031006*
X021709Y030995*
X021733Y030986*
X021759Y030979*
X021784Y030973*
X021810Y030970*
X021836Y030968*
X021863*
X021889Y030970*
X021915Y030973*
X021940Y030979*
X021966Y030986*
X021990Y030995*
X022014Y031006*
X022038Y031018*
X022060Y031032*
X022081Y031047*
X022101Y031064*
X022120Y031082*
X022138Y031102*
X022154Y031122*
X022168Y031144*
X022181Y031167*
X022193Y031191*
X022203Y031215*
X022211Y031240*
X022217Y031265*
X022222Y031291*
X022225Y031317*
X022226Y031344*
X021226Y031856D02*
D01*
X021225Y031882*
X021222Y031908*
X021217Y031934*
X021211Y031959*
X021203Y031984*
X021193Y032008*
X021181Y032032*
X021168Y032055*
X021154Y032077*
X021138Y032097*
X021120Y032117*
X021101Y032135*
X021081Y032152*
X021060Y032167*
X021038Y032181*
X021014Y032193*
X020990Y032204*
X020966Y032213*
X020940Y032220*
X020915Y032226*
X020889Y032229*
X020863Y032231*
X020836*
X020810Y032229*
X020784Y032226*
X020759Y032220*
X020733Y032213*
X020709Y032204*
X020685Y032193*
X020662Y032181*
X020639Y032167*
X020618Y032152*
X020598Y032135*
X020579Y032117*
X020561Y032097*
X020545Y032077*
X020531Y032055*
X020518Y032032*
X020506Y032008*
X020496Y031984*
X020488Y031959*
X020482Y031934*
X020477Y031908*
X020474Y031882*
X020474Y031856*
X022226D02*
D01*
X022225Y031882*
X022222Y031908*
X022217Y031934*
X022211Y031959*
X022203Y031984*
X022193Y032008*
X022181Y032032*
X022168Y032055*
X022154Y032077*
X022138Y032097*
X022120Y032117*
X022101Y032135*
X022081Y032152*
X022060Y032167*
X022038Y032181*
X022014Y032193*
X021990Y032204*
X021966Y032213*
X021940Y032220*
X021915Y032226*
X021889Y032229*
X021863Y032231*
X021836*
X021810Y032229*
X021784Y032226*
X021759Y032220*
X021733Y032213*
X021709Y032204*
X021685Y032193*
X021662Y032181*
X021639Y032167*
X021618Y032152*
X021598Y032135*
X021579Y032117*
X021561Y032097*
X021545Y032077*
X021531Y032055*
X021518Y032032*
X021506Y032008*
X021496Y031984*
X021488Y031959*
X021482Y031934*
X021477Y031908*
X021474Y031882*
X021474Y031856*
X022581Y030764D02*
D01*
X022578Y030773*
X022574Y030782*
X022570Y030791*
X022566Y030800*
X022561Y030808*
X022555Y030816*
X022549Y030823*
X022542Y030830*
X022535Y030837*
X022527Y030843*
X022519Y030848*
X022510Y030853*
X022501Y030858*
X022492Y030861*
X022483Y030864*
X022474Y030867*
X022464Y030868*
X022454Y030869*
X022445Y030870*
X023581Y030679D02*
D01*
X023566Y030692*
X023550Y030705*
X023533Y030717*
X023516Y030727*
X023498Y030736*
X023479Y030744*
X023460Y030751*
X023441Y030756*
X023421Y030760*
X023401Y030762*
X023381Y030763*
X023376Y030764*
X023581Y030679D02*
D01*
X023566Y030692*
X023550Y030705*
X023533Y030717*
X023516Y030727*
X023498Y030736*
X023479Y030744*
X023460Y030751*
X023441Y030756*
X023421Y030760*
X023401Y030762*
X023381Y030763*
X023376Y030764*
X023674Y031108D02*
D01*
X023674Y031098*
X023675Y031088*
X023677Y031078*
X023679Y031069*
X023682Y031060*
X023686Y031051*
X023690Y031042*
X023695Y031033*
X023700Y031025*
X023706Y031018*
X023713Y031010*
X023720Y031003*
X023727Y030997*
X023735Y030991*
X023744Y030986*
X023752Y030982*
X023761Y030978*
X023770Y030974*
X023780Y030972*
X023789Y030970*
X023799Y030968*
X023809Y030968*
X023814Y030968*
X024286D02*
D01*
X024295Y030968*
X024305Y030969*
X024315Y030971*
X024324Y030973*
X024333Y030976*
X024342Y030980*
X024351Y030984*
X024360Y030989*
X024368Y030994*
X024375Y031000*
X024383Y031007*
X024390Y031014*
X024396Y031021*
X024402Y031029*
X024407Y031038*
X024411Y031046*
X024415Y031055*
X024419Y031064*
X024421Y031074*
X024423Y031083*
X024425Y031093*
X024425Y031103*
X024426Y031108*
X023814Y032232D02*
D01*
X023804Y032231*
X023794Y032230*
X023784Y032228*
X023775Y032226*
X023766Y032223*
X023757Y032219*
X023748Y032215*
X023739Y032210*
X023731Y032205*
X023724Y032199*
X023716Y032192*
X023709Y032185*
X023703Y032178*
X023697Y032170*
X023692Y032162*
X023688Y032153*
X023684Y032144*
X023680Y032135*
X023678Y032125*
X023676Y032116*
X023674Y032106*
X023674Y032096*
X023674Y032092*
X024426D02*
D01*
X024425Y032101*
X024424Y032111*
X024422Y032121*
X024420Y032130*
X024417Y032139*
X024413Y032148*
X024409Y032157*
X024404Y032166*
X024399Y032174*
X024393Y032181*
X024386Y032189*
X024379Y032196*
X024372Y032202*
X024364Y032208*
X024356Y032213*
X024347Y032217*
X024338Y032221*
X024329Y032225*
X024319Y032227*
X024310Y032229*
X024300Y032231*
X024290Y032231*
X024286Y032232*
X025540Y027575D02*
D01*
X025561Y027596*
X025582Y027618*
X025601Y027642*
X025618Y027667*
X025633Y027693*
X025647Y027721*
X025658Y027749*
X025668Y027778*
X025675Y027807*
X025681Y027837*
X025684Y027867*
X025685Y027898*
X025685Y027900*
D01*
X025683Y027930*
X025680Y027960*
X025675Y027990*
X025668Y028019*
X025658Y028048*
X025647Y028076*
X025634Y028104*
X025618Y028130*
X025601Y028155*
X025583Y028179*
X025562Y028202*
X025541Y028223*
X025540Y028225*
X025955Y026735D02*
D01*
X025945Y026734*
X025935Y026733*
X025925Y026731*
X025916Y026729*
X025907Y026726*
X025898Y026722*
X025889Y026718*
X025880Y026713*
X025872Y026708*
X025865Y026702*
X025857Y026695*
X025850Y026688*
X025844Y026681*
X025838Y026673*
X025833Y026665*
X025829Y026656*
X025825Y026647*
X025821Y026638*
X025819Y026628*
X025817Y026619*
X025815Y026609*
X025815Y026599*
X025815Y026595*
X025955Y028335D02*
D01*
X025945Y028334*
X025935Y028333*
X025925Y028331*
X025916Y028329*
X025907Y028326*
X025898Y028322*
X025889Y028318*
X025880Y028313*
X025872Y028308*
X025865Y028302*
X025857Y028295*
X025850Y028288*
X025844Y028281*
X025838Y028273*
X025833Y028265*
X025829Y028256*
X025825Y028247*
X025821Y028238*
X025819Y028228*
X025817Y028219*
X025815Y028209*
X025815Y028199*
X025815Y028195*
Y027605D02*
D01*
X025815Y027595*
X025816Y027585*
X025818Y027575*
X025820Y027566*
X025823Y027557*
X025827Y027548*
X025831Y027539*
X025836Y027530*
X025841Y027522*
X025847Y027515*
X025854Y027507*
X025861Y027500*
X025868Y027494*
X025876Y027488*
X025885Y027483*
X025893Y027479*
X025902Y027475*
X025911Y027471*
X025921Y027469*
X025930Y027467*
X025940Y027465*
X025950Y027465*
X025955Y027465*
X025540Y028400D02*
D01*
X025539Y028420*
X025537Y028440*
X025533Y028460*
X025528Y028479*
X025522Y028499*
X025514Y028517*
X025506Y028536*
X025495Y028553*
X025484Y028570*
X025472Y028586*
X025458Y028601*
X025455Y028605*
X025540Y028400D02*
D01*
X025539Y028420*
X025537Y028440*
X025533Y028460*
X025528Y028479*
X025522Y028499*
X025514Y028517*
X025506Y028536*
X025495Y028553*
X025484Y028570*
X025472Y028586*
X025458Y028601*
X025455Y028605*
X024849Y029937D02*
D01*
X024839Y029936*
X024829Y029935*
X024819Y029933*
X024810Y029931*
X024801Y029928*
X024792Y029924*
X024783Y029920*
X024774Y029915*
X024766Y029910*
X024759Y029904*
X024751Y029897*
X024744Y029890*
X024738Y029883*
X024732Y029875*
X024727Y029867*
X024725Y029862*
X025400Y029872D02*
D01*
X025394Y029880*
X025388Y029887*
X025381Y029894*
X025374Y029901*
X025367Y029907*
X025359Y029913*
X025350Y029918*
X025342Y029923*
X025333Y029927*
X025324Y029930*
X025314Y029932*
X025305Y029934*
X025295Y029936*
X025285Y029936*
X025282Y029937*
X025518D02*
D01*
X025508Y029936*
X025498Y029935*
X025488Y029933*
X025479Y029931*
X025470Y029928*
X025461Y029924*
X025452Y029920*
X025443Y029915*
X025435Y029910*
X025428Y029904*
X025420Y029897*
X025413Y029890*
X025407Y029883*
X025401Y029875*
X025400Y029872*
X025991Y029269D02*
D01*
X026000Y029272*
X026009Y029275*
X026017Y029280*
X026026Y029285*
X026034Y029290*
X026042Y029296*
X026049Y029303*
X026055Y029310*
X026062Y029318*
X026067Y029326*
X026072Y029334*
X026077Y029343*
X026081Y029352*
X026084Y029360*
Y029840D02*
D01*
X026080Y029849*
X026076Y029858*
X026072Y029866*
X026066Y029874*
X026061Y029882*
X026055Y029890*
X026048Y029897*
X026041Y029903*
X026033Y029909*
X026025Y029915*
X026016Y029920*
X026008Y029924*
X025998Y029928*
X025989Y029931*
X025980Y029933*
X025970Y029935*
X025960Y029936*
X025951Y029936*
X025951Y029937*
X026194Y029344D02*
D01*
X026194Y029334*
X026195Y029324*
X026197Y029314*
X026199Y029305*
X026202Y029296*
X026206Y029287*
X026210Y029278*
X026215Y029269*
X026220Y029261*
X026226Y029254*
X026233Y029246*
X026240Y029239*
X026247Y029233*
X026255Y029227*
X026264Y029222*
X026272Y029218*
X026281Y029214*
X026290Y029210*
X026300Y029208*
X026309Y029206*
X026319Y029204*
X026329Y029204*
X026334Y029204*
Y029996D02*
D01*
X026324Y029995*
X026314Y029994*
X026304Y029992*
X026295Y029990*
X026286Y029987*
X026277Y029983*
X026268Y029979*
X026259Y029974*
X026251Y029969*
X026244Y029963*
X026236Y029956*
X026229Y029949*
X026223Y029942*
X026217Y029934*
X026212Y029926*
X026208Y029917*
X026204Y029908*
X026200Y029899*
X026198Y029889*
X026196Y029880*
X026194Y029870*
X026194Y029860*
X026194Y029856*
X026685Y028195D02*
D01*
X026684Y028204*
X026683Y028214*
X026681Y028224*
X026679Y028233*
X026676Y028242*
X026672Y028251*
X026668Y028260*
X026663Y028269*
X026658Y028277*
X026652Y028284*
X026645Y028292*
X026638Y028299*
X026631Y028305*
X026623Y028311*
X026615Y028316*
X026606Y028320*
X026597Y028324*
X026588Y028328*
X026578Y028330*
X026569Y028332*
X026559Y028334*
X026549Y028334*
X026545Y028335*
X026685Y026595D02*
D01*
X026684Y026604*
X026683Y026614*
X026681Y026624*
X026679Y026633*
X026676Y026642*
X026672Y026651*
X026668Y026660*
X026663Y026669*
X026658Y026677*
X026652Y026684*
X026645Y026692*
X026638Y026699*
X026631Y026705*
X026623Y026711*
X026615Y026716*
X026606Y026720*
X026597Y026724*
X026588Y026728*
X026578Y026730*
X026569Y026732*
X026559Y026734*
X026549Y026734*
X026545Y026735*
Y027465D02*
D01*
X026554Y027465*
X026564Y027466*
X026574Y027468*
X026583Y027470*
X026592Y027473*
X026601Y027477*
X026610Y027481*
X026619Y027486*
X026627Y027491*
X026634Y027497*
X026642Y027504*
X026649Y027511*
X026655Y027518*
X026661Y027526*
X026666Y027535*
X026670Y027543*
X026674Y027552*
X026678Y027561*
X026680Y027571*
X026682Y027580*
X026684Y027590*
X026684Y027600*
X026685Y027605*
X026540Y028600D02*
D01*
X026539Y028620*
X026537Y028640*
X026533Y028660*
X026528Y028679*
X026522Y028699*
X026514Y028717*
X026506Y028736*
X026495Y028753*
X026484Y028770*
X026472Y028786*
X026458Y028801*
X026455Y028805*
X026540Y028600D02*
D01*
X026539Y028620*
X026537Y028640*
X026533Y028660*
X026528Y028679*
X026522Y028699*
X026514Y028717*
X026506Y028736*
X026495Y028753*
X026484Y028770*
X026472Y028786*
X026458Y028801*
X026455Y028805*
X026570Y029204D02*
D01*
X026579Y029204*
X026589Y029205*
X026599Y029207*
X026608Y029209*
X026617Y029212*
X026626Y029216*
X026635Y029220*
X026644Y029225*
X026652Y029230*
X026659Y029236*
X026667Y029243*
X026674Y029250*
X026680Y029257*
X026686Y029265*
X026691Y029274*
X026695Y029282*
X026699Y029291*
X026703Y029300*
X026705Y029310*
X026707Y029319*
X026709Y029329*
X026709Y029339*
X026710Y029344*
X026942D02*
D01*
X026942Y029334*
X026943Y029324*
X026945Y029314*
X026947Y029305*
X026950Y029296*
X026954Y029287*
X026958Y029278*
X026963Y029269*
X026968Y029261*
X026974Y029254*
X026981Y029246*
X026988Y029239*
X026995Y029233*
X027003Y029227*
X027012Y029222*
X027020Y029218*
X027029Y029214*
X027038Y029210*
X027048Y029208*
X027057Y029206*
X027067Y029204*
X027077Y029204*
X027082Y029204*
X026710Y029856D02*
D01*
X026709Y029865*
X026708Y029875*
X026706Y029885*
X026704Y029894*
X026701Y029903*
X026697Y029912*
X026693Y029921*
X026688Y029930*
X026683Y029938*
X026677Y029945*
X026670Y029953*
X026663Y029960*
X026656Y029966*
X026648Y029972*
X026640Y029977*
X026631Y029981*
X026622Y029985*
X026613Y029989*
X026603Y029991*
X026594Y029993*
X026584Y029995*
X026574Y029995*
X026570Y029996*
X027082D02*
D01*
X027072Y029995*
X027062Y029994*
X027052Y029992*
X027043Y029990*
X027034Y029987*
X027025Y029983*
X027016Y029979*
X027007Y029974*
X026999Y029969*
X026992Y029963*
X026984Y029956*
X026977Y029949*
X026971Y029942*
X026965Y029934*
X026960Y029926*
X026956Y029917*
X026952Y029908*
X026948Y029899*
X026946Y029889*
X026944Y029880*
X026942Y029870*
X026942Y029860*
X026942Y029856*
X027318Y029204D02*
D01*
X027327Y029204*
X027337Y029205*
X027347Y029207*
X027356Y029209*
X027365Y029212*
X027374Y029216*
X027383Y029220*
X027392Y029225*
X027400Y029230*
X027407Y029236*
X027415Y029243*
X027422Y029250*
X027428Y029257*
X027434Y029265*
X027439Y029274*
X027443Y029282*
X027447Y029291*
X027451Y029300*
X027453Y029310*
X027455Y029319*
X027457Y029329*
X027457Y029339*
X027458Y029344*
Y029856D02*
D01*
X027457Y029865*
X027456Y029875*
X027454Y029885*
X027452Y029894*
X027449Y029903*
X027445Y029912*
X027441Y029921*
X027436Y029930*
X027431Y029938*
X027425Y029945*
X027418Y029953*
X027411Y029960*
X027404Y029966*
X027396Y029972*
X027388Y029977*
X027379Y029981*
X027370Y029985*
X027361Y029989*
X027351Y029991*
X027342Y029993*
X027332Y029995*
X027322Y029995*
X027318Y029996*
X025282Y030113D02*
D01*
X025291Y030113*
X025301Y030114*
X025311Y030116*
X025320Y030118*
X025329Y030121*
X025338Y030125*
X025347Y030129*
X025356Y030134*
X025364Y030139*
X025371Y030145*
X025379Y030152*
X025386Y030159*
X025392Y030166*
X025398Y030174*
X025400Y030178*
X024810Y030781D02*
D01*
X024800Y030777*
X024791Y030774*
X024782Y030769*
X024774Y030765*
X024766Y030759*
X024758Y030753*
X024751Y030746*
X024744Y030739*
X024738Y030732*
X024732Y030724*
X024727Y030716*
X024722Y030707*
X024718Y030698*
X024715Y030689*
X024712Y030679*
X024710Y030670*
X024709Y030660*
X024708Y030650*
X024709Y030647*
Y030253D02*
D01*
X024709Y030243*
X024710Y030233*
X024712Y030223*
X024714Y030214*
X024717Y030205*
X024721Y030196*
X024725Y030187*
X024730Y030178*
X024735Y030170*
X024741Y030163*
X024748Y030155*
X024755Y030148*
X024762Y030142*
X024770Y030136*
X024779Y030131*
X024787Y030127*
X024796Y030123*
X024805Y030119*
X024815Y030117*
X024824Y030115*
X024834Y030113*
X024844Y030113*
X024849Y030113*
X025400Y030178D02*
D01*
X025405Y030169*
X025411Y030162*
X025418Y030155*
X025425Y030148*
X025432Y030142*
X025440Y030136*
X025449Y030131*
X025457Y030126*
X025466Y030122*
X025475Y030119*
X025485Y030117*
X025494Y030115*
X025504Y030113*
X025514Y030113*
X025518Y030113*
X025400Y030722D02*
D01*
X025394Y030730*
X025388Y030737*
X025381Y030744*
X025374Y030751*
X025367Y030757*
X025359Y030763*
X025350Y030768*
X025342Y030773*
X025333Y030777*
X025324Y030780*
X025314Y030782*
X025305Y030784*
X025295Y030786*
X025290Y030787*
X025518D02*
D01*
X025508Y030786*
X025498Y030785*
X025488Y030783*
X025479Y030781*
X025470Y030778*
X025461Y030774*
X025452Y030770*
X025443Y030765*
X025435Y030760*
X025428Y030754*
X025420Y030747*
X025413Y030740*
X025407Y030733*
X025401Y030725*
X025400Y030722*
X024674Y031344D02*
D01*
X024674Y031317*
X024677Y031291*
X024682Y031265*
X024688Y031240*
X024696Y031215*
X024706Y031191*
X024718Y031167*
X024731Y031144*
X024745Y031122*
X024761Y031102*
X024779Y031082*
X024798Y031064*
X024810Y031054*
X025290D02*
D01*
X025309Y031071*
X025328Y031090*
X025345Y031110*
X025360Y031131*
X025374Y031153*
X025387Y031176*
X025398Y031200*
X025407Y031225*
X025414Y031250*
X025420Y031276*
X025424Y031302*
X025426Y031328*
X025426Y031344*
Y031856D02*
D01*
X025425Y031882*
X025422Y031908*
X025417Y031934*
X025411Y031959*
X025403Y031984*
X025393Y032008*
X025381Y032032*
X025368Y032055*
X025354Y032077*
X025338Y032097*
X025320Y032117*
X025301Y032135*
X025281Y032152*
X025260Y032167*
X025238Y032181*
X025214Y032193*
X025190Y032204*
X025166Y032213*
X025140Y032220*
X025115Y032226*
X025089Y032229*
X025063Y032231*
X025036*
X025010Y032229*
X024984Y032226*
X024959Y032220*
X024933Y032213*
X024909Y032204*
X024885Y032193*
X024862Y032181*
X024839Y032167*
X024818Y032152*
X024798Y032135*
X024779Y032117*
X024761Y032097*
X024745Y032077*
X024731Y032055*
X024718Y032032*
X024706Y032008*
X024696Y031984*
X024688Y031959*
X024682Y031934*
X024677Y031908*
X024674Y031882*
X024674Y031856*
X025674Y031344D02*
D01*
X025674Y031317*
X025677Y031291*
X025682Y031265*
X025688Y031240*
X025696Y031215*
X025706Y031191*
X025718Y031167*
X025731Y031144*
X025745Y031122*
X025761Y031102*
X025779Y031082*
X025798Y031064*
X025818Y031047*
X025839Y031032*
X025862Y031018*
X025885Y031006*
X025909Y030995*
X025933Y030986*
X025959Y030979*
X025984Y030973*
X026010Y030970*
X026036Y030968*
X026063*
X026089Y030970*
X026115Y030973*
X026140Y030979*
X026166Y030986*
X026190Y030995*
X026214Y031006*
X026238Y031018*
X026260Y031032*
X026281Y031047*
X026301Y031064*
X026320Y031082*
X026338Y031102*
X026354Y031122*
X026368Y031144*
X026381Y031167*
X026393Y031191*
X026403Y031215*
X026411Y031240*
X026417Y031265*
X026422Y031291*
X026425Y031317*
X026426Y031344*
Y031856D02*
D01*
X026425Y031882*
X026422Y031908*
X026417Y031934*
X026411Y031959*
X026403Y031984*
X026393Y032008*
X026381Y032032*
X026368Y032055*
X026354Y032077*
X026338Y032097*
X026320Y032117*
X026301Y032135*
X026281Y032152*
X026260Y032167*
X026238Y032181*
X026214Y032193*
X026190Y032204*
X026166Y032213*
X026140Y032220*
X026115Y032226*
X026089Y032229*
X026063Y032231*
X026036*
X026010Y032229*
X025984Y032226*
X025959Y032220*
X025933Y032213*
X025909Y032204*
X025885Y032193*
X025862Y032181*
X025839Y032167*
X025818Y032152*
X025798Y032135*
X025779Y032117*
X025761Y032097*
X025745Y032077*
X025731Y032055*
X025718Y032032*
X025706Y032008*
X025696Y031984*
X025688Y031959*
X025682Y031934*
X025677Y031908*
X025674Y031882*
X025674Y031856*
X025951Y030113D02*
D01*
X025960Y030113*
X025970Y030114*
X025980Y030116*
X025989Y030118*
X025998Y030121*
X026007Y030125*
X026016Y030129*
X026025Y030134*
X026033Y030139*
X026040Y030145*
X026048Y030152*
X026055Y030159*
X026061Y030166*
X026067Y030174*
X026072Y030183*
X026076Y030191*
X026080Y030200*
X026084Y030209*
X026084Y030210*
X026568Y030171D02*
D01*
X026568Y030161*
X026569Y030151*
X026571Y030141*
X026573Y030132*
X026576Y030123*
X026580Y030114*
X026584Y030105*
X026589Y030096*
X026594Y030088*
X026600Y030081*
X026607Y030073*
X026614Y030066*
X026621Y030060*
X026629Y030054*
X026638Y030049*
X026646Y030045*
X026655Y030041*
X026664Y030037*
X026674Y030035*
X026683Y030033*
X026693Y030031*
X026703Y030031*
X026708Y030031*
Y030823D02*
D01*
X026698Y030822*
X026688Y030821*
X026678Y030819*
X026669Y030817*
X026660Y030814*
X026651Y030810*
X026642Y030806*
X026633Y030801*
X026625Y030796*
X026618Y030790*
X026610Y030783*
X026603Y030776*
X026597Y030769*
X026591Y030761*
X026586Y030753*
X026582Y030744*
X026578Y030735*
X026574Y030726*
X026572Y030716*
X026570Y030707*
X026568Y030697*
X026568Y030690*
X026944Y030031D02*
D01*
X026953Y030031*
X026963Y030032*
X026973Y030034*
X026982Y030036*
X026991Y030039*
X027000Y030043*
X027009Y030047*
X027018Y030052*
X027026Y030057*
X027033Y030063*
X027041Y030070*
X027048Y030077*
X027054Y030084*
X027060Y030092*
X027065Y030101*
X027069Y030109*
X027073Y030118*
X027077Y030127*
X027079Y030137*
X027081Y030146*
X027083Y030156*
X027083Y030166*
X027084Y030171*
Y030683D02*
D01*
X027083Y030692*
X027082Y030702*
X027080Y030712*
X027078Y030721*
X027075Y030730*
X027071Y030739*
X027067Y030748*
X027062Y030757*
X027057Y030765*
X027051Y030772*
X027044Y030780*
X027037Y030787*
X027030Y030793*
X027022Y030799*
X027014Y030804*
X027005Y030808*
X026996Y030812*
X026987Y030816*
X026977Y030818*
X026968Y030820*
X026958Y030822*
X026948Y030822*
X026944Y030823*
X026084Y030690D02*
D01*
X026080Y030699*
X026076Y030708*
X026072Y030716*
X026066Y030724*
X026061Y030732*
X026055Y030740*
X026048Y030747*
X026041Y030753*
X026033Y030759*
X026025Y030765*
X026016Y030770*
X026008Y030774*
X025998Y030778*
X025989Y030781*
X025980Y030783*
X025970Y030785*
X025960Y030786*
X025951Y030786*
X025951Y030787*
X010369Y021400D02*
X010965Y021996D01*
X010190Y021488D02*
X010278Y021400D01*
X010190Y021771D02*
X010561Y021400D01*
X011218D02*
X011395Y021577D01*
X010652Y021400D02*
X011106Y021854D01*
X010935Y021400D02*
X011248Y021713D01*
X010190Y022337D02*
X011127Y021400D01*
X010190Y021504D02*
X010833Y022147D01*
X010190Y022054D02*
X010844Y021400D01*
X010190Y022620D02*
X011410Y021400D01*
X010190Y021787D02*
X010810Y022407D01*
X010880Y022080D02*
X011344Y021616D01*
X010190Y021400D02*
X012207D01*
X011501D02*
X011646Y021546D01*
X011547D02*
X011693Y021400D01*
X011514Y021546D02*
X012207D01*
X011290Y022651D02*
X011915Y022026D01*
X011290Y022349D02*
X011614Y022026D01*
X011290Y022368D02*
X011632Y022026D01*
X011290Y022934D02*
X012198Y022026D01*
X011614D02*
X012207D01*
X011587Y022052D02*
X013020Y023485D01*
X010190Y022903D02*
X010810Y022283D01*
X010190Y023185D02*
X010810Y022565D01*
X010190Y022352D02*
X010810Y022972D01*
X010190Y022069D02*
X010810Y022689D01*
X010190Y022635D02*
X010810Y023255D01*
X010190Y022918D02*
X010810Y023538D01*
X010190Y023468D02*
X010810Y022848D01*
X010190Y023751D02*
X010810Y023131D01*
X010190Y023201D02*
X010810Y023821D01*
X011559Y023603D02*
Y023997D01*
X011290Y023217D02*
X012217Y022290D01*
X011290Y022887D02*
X011867Y023463D01*
X011290Y022604D02*
X012151Y023464D01*
X011446Y022194D02*
X012715Y023463D01*
X011699D02*
X012132D01*
X011304Y022335D02*
X012432Y023463D01*
X011290Y023500D02*
X012411Y022379D01*
X011290Y023452D02*
X011559Y023721D01*
X011290Y023169D02*
X011613Y023492D01*
X011290Y023782D02*
X012694Y022379D01*
X011290Y023735D02*
X011559Y024004D01*
X012066Y021400D02*
X012207Y021541D01*
X011783Y021400D02*
X011929Y021546D01*
X011830D02*
X011975Y021400D01*
X012207D02*
Y021546D01*
X012126Y022026D02*
X012207Y022107D01*
X012112Y021546D02*
X012207Y021451D01*
X011843Y022026D02*
X013187Y023369D01*
X012207Y022026D02*
Y022239D01*
X013393Y021400D02*
Y022239D01*
Y022161D02*
X013610Y022378D01*
X013393Y021400D02*
X013622D01*
X013393Y021595D02*
X013610Y021812D01*
X013393Y021680D02*
X013613Y021460D01*
X013480Y021400D02*
X013613Y021532D01*
Y021451D02*
Y021810D01*
X013392Y022246D02*
X013610Y022028D01*
X013314Y022365D02*
X013610Y022661D01*
X012458Y023463D02*
X013610Y022311D01*
Y021810D02*
Y023340D01*
X013393Y021963D02*
X013613Y021743D01*
X013393Y021878D02*
X013610Y022095D01*
X011892Y023463D02*
X012977Y022379D01*
X012368Y023463D02*
X012801D01*
X012347Y022379D02*
X013253D01*
X012479D02*
X013453Y023353D01*
X013423Y023346D02*
X013610Y023160D01*
X012741Y023463D02*
X013610Y022594D01*
X012170Y023468D02*
X013260Y022378D01*
X012934Y023560D02*
X012965D01*
X013314Y022365D02*
X013610Y022661D01*
X012762Y022379D02*
X013610Y023227D01*
X013045Y022379D02*
X013610Y022944D01*
X014289Y023340D02*
X014334Y023385D01*
X014289Y023340D02*
X014334Y023385D01*
X013610Y023340D02*
X014507D01*
X012932Y023554D02*
X013610Y022877D01*
X013619Y023434D02*
X013712Y023340D01*
X014006D02*
X014178Y023512D01*
X013783Y023835D02*
X014278Y023340D01*
X013744Y023591D02*
X013995Y023340D01*
X013723D02*
X014093Y023710D01*
X010190Y024034D02*
X010810Y023414D01*
X010190Y024317D02*
X010810Y023697D01*
X010190Y023484D02*
X010810Y024104D01*
X010190Y023766D02*
X010810Y024386D01*
X010190Y024600D02*
X010810Y023980D01*
X011290Y024348D02*
X011575Y024063D01*
X010190Y024049D02*
X010810Y024669D01*
X010190Y024332D02*
X010810Y024952D01*
X010190Y024883D02*
X010810Y024262D01*
X010190Y021400D02*
Y029550D01*
X010810Y022250D02*
Y027950D01*
X011290Y022349D02*
Y027851D01*
Y025762D02*
X013001Y024052D01*
X011290Y025480D02*
X012633Y024137D01*
X011290Y026045D02*
X013158Y024177D01*
X011290Y025197D02*
X012351Y024136D01*
X011290Y024631D02*
X011784Y024137D01*
X011290Y024914D02*
X012067Y024137D01*
X011290Y026611D02*
X014089Y023812D01*
X011290Y027177D02*
X014307Y024160D01*
X011290Y027742D02*
X014756Y024276D01*
X011290Y024018D02*
X013365Y026092D01*
X011290Y024301D02*
X013217Y026228D01*
X011290Y026328D02*
X013402Y024216D01*
X010190Y024898D02*
X010810Y025518D01*
X010190Y025181D02*
X010810Y025801D01*
X010190Y025731D02*
X010810Y025111D01*
X010190Y025165D02*
X010810Y024545D01*
X010190Y025448D02*
X010810Y024828D01*
X010190Y024615D02*
X010810Y025235D01*
X010190Y025746D02*
X010810Y026366D01*
X010190Y027161D02*
X010810Y027781D01*
X010190Y026580D02*
X010810Y025960D01*
X010190Y026014D02*
X010810Y025394D01*
X010190Y026297D02*
X010810Y025677D01*
X010190Y025464D02*
X010810Y026084D01*
X010190Y026312D02*
X010810Y026932D01*
X010190Y026595D02*
X010810Y027215D01*
X010190Y027145D02*
X010810Y026525D01*
X011290Y024584D02*
X013151Y026444D01*
X010190Y026862D02*
X010810Y026242D01*
X010190Y026029D02*
X010810Y026649D01*
X010190Y027428D02*
X010810Y026808D01*
X010190Y027711D02*
X010810Y027091D01*
X010190Y026878D02*
X010810Y027498D01*
X011290Y025149D02*
X013501Y027360D01*
X011290Y024866D02*
X013784Y027360D01*
X011290Y026564D02*
X012598Y027871D01*
X011290Y026281D02*
X012735Y027726D01*
X011290Y024065D02*
X011559Y023797D01*
X011699Y024137D02*
X012132D01*
X012934Y024040D02*
X012992D01*
X011290Y025432D02*
X013218Y027360D01*
X011290Y025998D02*
X012876Y027584D01*
X011290Y025715D02*
X013018Y027443D01*
X012368Y024137D02*
X012801D01*
X012223Y024103D02*
X014165Y026044D01*
X012540Y024137D02*
X014448Y026044D01*
X014119D02*
X014810Y025354D01*
X013757Y023939D02*
X014810Y024992D01*
X011290Y026894D02*
X014161Y024023D01*
X011692Y024137D02*
X013602Y026047D01*
X011290Y027459D02*
X014530Y024220D01*
X011975Y024137D02*
X013955Y026117D01*
X013774Y026107D02*
X014810Y025071D01*
X014402Y026044D02*
X014810Y025637D01*
X013938Y026184D02*
Y026312D01*
X013914Y026642D02*
X013938Y026666D01*
Y026588D02*
Y026716D01*
X011524Y028073D02*
X013151Y026447D01*
X011290Y027129D02*
X012455Y028294D01*
X011290Y026846D02*
X012560Y028116D01*
X011813Y028068D02*
X013214Y026667D01*
X012086Y028077D02*
X013359Y026805D01*
X012176Y028270D02*
X013592Y026854D01*
X013911Y026253D02*
X013938Y026226D01*
X014078Y026044D02*
X014609D01*
X014078Y026856D02*
X014609D01*
X013369Y027360D02*
X013952Y026777D01*
X013562Y026856D02*
X014066Y027360D01*
X013652D02*
X014156Y026856D01*
X014411D02*
X014810Y027255D01*
X013935Y027360D02*
X014439Y026856D01*
X014128D02*
X014810Y027538D01*
X016204Y021697D02*
X016424Y021477D01*
X016204Y021451D02*
Y022357D01*
Y022144D02*
X016420Y022360D01*
X016204Y021578D02*
X016424Y021798D01*
X014855Y023340D02*
X015207Y023693D01*
X014548Y023340D02*
X015347D01*
X014908Y023559D02*
X015127Y023340D01*
X015138D02*
X015262Y023464D01*
X016194Y021400D02*
X016424D01*
X016204Y021861D02*
X016424Y022081D01*
X016204Y021980D02*
X016424Y021760D01*
X018854Y021396D02*
X018900Y021350D01*
X016309Y021400D02*
X016424Y021515D01*
Y021400D02*
Y022239D01*
X016204Y022263D02*
X016424Y022043D01*
X016389Y022360D02*
X016442Y022307D01*
X016204Y022360D02*
X016494D01*
X017040Y022379D02*
Y024140D01*
X017060Y022379D02*
Y024190D01*
X014771Y023413D02*
X014844Y023340D01*
X014965Y023733D02*
X015360Y024128D01*
X014968Y023782D02*
X015244Y023506D01*
X015025Y024008D02*
X015219Y023813D01*
X014943Y023926D02*
X015377Y024360D01*
X015166Y024149D02*
X015306Y024009D01*
X015307Y024291D02*
X015450Y024148D01*
X015360Y024074D02*
Y024140D01*
X015439*
X016043D02*
X017040D01*
X017060Y024131D02*
X017119Y024190D01*
X017501Y024360D02*
X017671Y024190D01*
X017060D02*
X019364D01*
X016220Y024140D02*
X016440Y024360D01*
X017685Y024190D02*
X017855Y024360D01*
X017784D02*
X017954Y024190D01*
X018250D02*
X018420Y024360D01*
X018816Y024190D02*
X018986Y024360D01*
X017967Y024190D02*
X018137Y024360D01*
X018066D02*
X018236Y024190D01*
X019000Y019000D02*
X019500Y019500D01*
X018900Y019284D02*
X019184Y019000D01*
X018900Y019567D02*
X019467Y019000D01*
X019606Y019426D02*
X020032Y019000D01*
X019283D02*
X019680Y019397D01*
X019566Y019000D02*
X019990Y019424D01*
X018900Y019849D02*
X019749Y019000D01*
X018900Y019466D02*
X019387Y019952D01*
X018900Y019183D02*
X019389Y019672D01*
X018900Y019000D02*
Y021350D01*
Y020132D02*
X019410Y019622D01*
X018900Y019000D02*
X020300D01*
X019663Y021349D02*
X021462Y019550D01*
X019918Y019397D02*
X020315Y019000D01*
X020099Y019499D02*
X020575Y019023D01*
X019946Y021349D02*
X021745Y019550D01*
X019051Y021396D02*
X021018Y019429D01*
X019334Y021396D02*
X021179Y019550D01*
X018900Y019749D02*
X021961Y022810D01*
X019849Y019000D02*
X024216Y023367D01*
X020131Y019000D02*
X024487Y023355D01*
X020191Y021387D02*
X022028Y019550D01*
X020192Y019626D02*
X023413Y022847D01*
X018900Y020415D02*
X019381Y019934D01*
X018900Y020698D02*
X019483Y020115D01*
X018900Y020981D02*
X019655Y020226D01*
X018900Y020597D02*
X019652Y021349D01*
X018900Y020880D02*
X019408Y021388D01*
X018900Y021163D02*
X019133Y021396D01*
X018915Y024360D02*
X019085Y024190D01*
X018854Y021396D02*
X019400D01*
X019099Y024190D02*
X019269Y024360D01*
X019198D02*
X019366Y024192D01*
X018900Y021264D02*
X019934Y020230D01*
X018900Y020314D02*
X019935Y021349D01*
X019505D02*
X020095D01*
X018900Y020031D02*
X021679Y022810D01*
X019465Y024234D02*
X020248D01*
X019663Y020229D02*
X022244Y022810D01*
X019944Y020227D02*
X022527Y022810D01*
X020116Y020116D02*
X022810Y022810D01*
X020046Y024360D02*
X020173Y024234D01*
X015372Y024140D02*
X015592Y024360D01*
X014597Y024214D02*
X015043Y024660D01*
X015521Y024360D02*
X015654Y024227D01*
X015804Y024360D02*
X015994Y024170D01*
X015748Y024234D02*
X015875Y024360D01*
X015976Y024179D02*
X016158Y024360D01*
X012822Y024135D02*
X014810Y026124D01*
X013457Y024205D02*
X014810Y025558D01*
X013134Y024165D02*
X014810Y025841D01*
X013773Y023673D02*
X014810Y024709D01*
X013641Y024106D02*
X014810Y025275D01*
X014674Y024195D02*
X015139Y024660D01*
X017402Y024190D02*
X017572Y024360D01*
X017119Y024190D02*
X017289Y024360D01*
X017218D02*
X017388Y024190D01*
X018632Y024360D02*
X018802Y024190D01*
X018349Y024360D02*
X018519Y024190D01*
X018533D02*
X018703Y024360D01*
X016503Y024140D02*
X016723Y024360D01*
X016087D02*
X016307Y024140D01*
X016369Y024360D02*
X016589Y024140D01*
X016652Y024360D02*
X016872Y024140D01*
X016786D02*
X017006Y024360D01*
X016935D02*
X017105Y024190D01*
X013554Y026044D02*
X014810Y024788D01*
X014747Y026160D02*
X014810D01*
X014671Y026058D02*
X014810Y025919D01*
X014938Y024660D02*
X015039Y024559D01*
X014747Y026740D02*
X014810D01*
Y024660D02*
Y026160D01*
X011377Y027938D02*
X014897Y024418D01*
X014350Y027511D02*
X014810Y027051D01*
X014197Y027381D02*
X014810Y026768D01*
Y026740D02*
Y027690D01*
X014491Y027652D02*
X014810Y027334D01*
X014676Y026839D02*
X014810Y026972D01*
X015377Y024360D02*
X020121D01*
X014810Y024660D02*
X015139D01*
X019340Y024740D02*
X020200D01*
X019340D02*
Y024976D01*
Y024783D02*
X019383Y024740D01*
X019340Y026763D02*
X019840Y026264D01*
X013779Y026789D02*
X016110Y029121D01*
X019340Y026411D02*
X019858Y026929D01*
X019340Y025915D02*
X019618Y025637D01*
X019340Y026128D02*
X019840Y026628D01*
X019340Y025845D02*
X019840Y026345D01*
X019417Y024225D02*
X019552Y024360D01*
X019366Y024740D02*
X019589Y024963D01*
X019443D02*
X019666Y024740D01*
X019763Y024360D02*
X019890Y024234D01*
X019481Y024360D02*
X019607Y024234D01*
X019708D02*
X019835Y024360D01*
X019649Y024740D02*
X019881Y024972D01*
X019340Y025624D02*
Y027690D01*
X019399Y024963D02*
X019832D01*
X019726D02*
X019949Y024740D01*
X019991Y024234D02*
X020117Y024360D01*
X019932Y024740D02*
X020155Y024963D01*
X019948Y025024D02*
X020235Y024737D01*
X020121Y024360D02*
X020248Y024234D01*
X020068Y024963D02*
X020501D01*
X019340Y026198D02*
X019956Y025581D01*
X019697Y025637D02*
X020101Y026040D01*
X019340Y026481D02*
X020184Y025637D01*
X019935Y025592D02*
X020400Y026057D01*
X020068Y025637D02*
X020501D01*
X019399D02*
X019832D01*
X019340Y026694D02*
X019699Y027053D01*
X019340Y027046D02*
X019840Y026547D01*
Y026243D02*
Y026813D01*
X019858Y026900D02*
Y027010D01*
X019340Y027329D02*
X019840Y026829D01*
X019340Y026977D02*
X019574Y027211D01*
X019340Y027260D02*
X019606Y027525D01*
X019414Y025637D02*
X019887Y026110D01*
X020069Y026035D02*
X020467Y025637D01*
X020125Y027393D02*
X020503Y027014D01*
X020139Y027279D02*
X020182Y027236D01*
X020174Y027245D02*
X020380Y027451D01*
X010190Y027994D02*
X010810Y027374D01*
X011290Y027412D02*
X011946Y028068D01*
X011290Y027695D02*
X011663Y028068D01*
X011290Y027851D02*
X011516Y028076D01*
X010190Y027443D02*
X011424Y028677D01*
X010190Y027726D02*
X011424Y028960D01*
X010190Y028009D02*
X011442Y029261D01*
X010190Y028277D02*
X010810Y027657D01*
X010190Y028559D02*
X010810Y027939D01*
X011564Y028068D02*
X012036D01*
X012630Y027830D02*
X013030Y027430D01*
X013040Y028099D02*
X013299Y027840D01*
X012560Y028000D02*
Y028154D01*
X013174Y028404D02*
X013738Y027840D01*
X013074Y028065D02*
X013425Y028416D01*
X013090Y028205D02*
X013455Y027840D01*
X010880Y028120D02*
X011424Y028663D01*
X010190Y028842D02*
X010896Y028136D01*
X010190Y029125D02*
X011038Y028277D01*
X012176Y028298D02*
X012424Y028546D01*
X012176Y028581D02*
X012424Y028829D01*
Y028444D02*
Y028956D01*
X010190Y029408D02*
X011179Y028419D01*
X011424Y028663D02*
Y029192D01*
X012176Y028208D02*
Y029192D01*
X011564Y029332D02*
X012036D01*
X012176Y028836D02*
X012424Y028588D01*
X012176Y028553D02*
X012475Y028254D01*
X013040Y028099D02*
Y028154D01*
X013176Y028444D02*
Y028956D01*
X012176Y028864D02*
X012526Y029214D01*
X012176Y029119D02*
X012424Y028871D01*
X012028Y029550D02*
X012460Y029118D01*
X013176Y028968D02*
X013424Y028720D01*
X013176Y028733D02*
X013425Y028981D01*
X013172Y029011D02*
X013711Y029550D01*
X013200Y027360D02*
X014100D01*
X013299Y027840D02*
X014001D01*
X014270Y027430D02*
X014670Y027830D01*
X013415Y027840D02*
X013667Y028092D01*
X013698Y027840D02*
X013963Y028105D01*
X013793Y028068D02*
X014011Y027850D01*
X013981Y027840D02*
X014260Y028119D01*
X014001Y027840D02*
X014260Y028099D01*
X014633Y027794D02*
X014810Y027616D01*
X014738Y027971D02*
X015019Y027690D01*
X014740Y028252D02*
X015302Y027690D01*
X015811D02*
X016110Y027989D01*
X014810Y027690D02*
X016110D01*
X015528D02*
X016110Y028272D01*
X014740Y028535D02*
X015585Y027690D01*
X014774Y028784D02*
X015868Y027690D01*
X014915Y028926D02*
X016110Y027731D01*
Y027690D02*
Y028950D01*
X016690Y027690D02*
Y028660D01*
X014962Y027690D02*
X016110Y028838D01*
X015245Y027690D02*
X016110Y028555D01*
X013216Y027924D02*
X013504Y028212D01*
X013176Y028685D02*
X013424Y028437D01*
X014011Y028133D02*
X014152Y027991D01*
X014139Y028281D02*
X014260Y028402D01*
X014141Y028285D02*
X014260Y028166D01*
X013424Y028444D02*
Y028956D01*
X013176Y028450D02*
X013424Y028697D01*
X014176Y028444D02*
Y028956D01*
X013442Y029550D02*
X013680Y029312D01*
X013775Y029331D02*
X013994Y029550D01*
X014176Y028533D02*
X014260Y028449D01*
X014176Y028816D02*
X014260Y028732D01*
X014176Y028601D02*
X014260Y028685D01*
X014740Y028000D02*
Y028751D01*
X014260Y028099D02*
Y028850D01*
X014740Y028034D02*
X016110Y029404D01*
X014118Y029157D02*
X014297Y028978D01*
X015198Y029208D02*
X016110Y028296D01*
X015056Y029067D02*
X016110Y028013D01*
X015481Y029491D02*
X016110Y028862D01*
X015339Y029350D02*
X016110Y028579D01*
X010190Y028292D02*
X011448Y029550D01*
X011179D02*
X011452Y029277D01*
X012176Y029147D02*
X012579Y029550D01*
X012876D02*
X013426Y029000D01*
X012311Y029550D02*
X012592Y029269D01*
X012542Y029230D02*
X012862Y029550D01*
X010190Y028575D02*
X011165Y029550D01*
X010190Y029140D02*
X010600Y029550D01*
X010190Y028858D02*
X010882Y029550D01*
X010331D02*
X011321Y028560D01*
X010897Y029550D02*
X011424Y029023D01*
X010614Y029550D02*
X011424Y028740D01*
X013159Y029550D02*
X013512Y029198D01*
X013082Y029204D02*
X013428Y029550D01*
X013725D02*
X014001Y029274D01*
X014008Y029550D02*
X014434Y029124D01*
X014001Y029274D02*
X014276Y029550D01*
X014291D02*
X014576Y029265D01*
X014176Y028884D02*
X015410Y030118D01*
X014135Y029126D02*
X015410Y030401D01*
X014330Y029020D02*
X015410Y030099D01*
X014740Y028316D02*
X016110Y029686D01*
X014740Y028751D02*
X015820Y029830D01*
X014740Y028599D02*
X016110Y029969D01*
X011495Y029314D02*
X011731Y029550D01*
X010190Y029423D02*
X010317Y029550D01*
X011462D02*
X011680Y029332D01*
X012074Y029327D02*
X012297Y029550D01*
X011745D02*
X011963Y029332D01*
X011796D02*
X012014Y029550D01*
X012911Y029316D02*
X013145Y029550D01*
X012594D02*
X012812Y029332D01*
X010190Y029550D02*
X014550D01*
X014562Y029562D02*
X014717Y029406D01*
X014703Y029703D02*
X014858Y029548D01*
X014845Y029845D02*
X015000Y029689D01*
X014550Y029550D02*
X015050Y030050D01*
X014986Y029986D02*
X015141Y029831D01*
X015050Y030205D02*
X015283Y029972D01*
X015050Y030488D02*
X015410Y030128D01*
X015050Y030771D02*
X015410Y030411D01*
X015050Y030324D02*
X015410Y030684D01*
X015050Y030050D02*
Y032350D01*
Y032185D02*
X015274Y031961D01*
X015050Y032303D02*
X015647Y032900D01*
X015050Y031619D02*
X015274Y031395D01*
X015050Y031172D02*
X015274Y031396D01*
X015050Y031902D02*
X015274Y031678D01*
X015050Y031455D02*
X015274Y031679D01*
X015764Y029774D02*
X016110Y029428D01*
Y028950D02*
Y030300D01*
X015890Y030032D02*
X016110Y030252D01*
X015882Y029939D02*
X016110Y029711D01*
X015050Y030606D02*
X015410Y030966D01*
X015050Y030889D02*
X015274Y031113D01*
X015050Y031053D02*
X015410Y030693D01*
X015890Y030000D02*
Y030968D01*
X015410Y030099D02*
Y030968D01*
X015890Y030496D02*
X016110Y030276D01*
X015622Y029633D02*
X016110Y029145D01*
X015890Y030213D02*
X016110Y029993D01*
X015890Y030779D02*
X016180Y030489D01*
X016195Y030505D02*
X016658Y030968D01*
X015890Y030315D02*
X016555Y030980D01*
X015890Y030881D02*
X016281Y031272D01*
X015890Y030598D02*
X016377Y031085D01*
X015962Y030990D02*
X016321Y030631D01*
X016026Y031209D02*
X016462Y030772D01*
X016530Y030988D02*
X016604Y030914D01*
X015050Y031738D02*
X015274Y031962D01*
X015050Y031336D02*
X015274Y031112D01*
X016026Y031108D02*
Y032092D01*
X015274Y031108D02*
Y032092D01*
X015050Y032021D02*
X015929Y032900D01*
X015109Y032409D02*
X015321Y032197D01*
X015050Y032350D02*
X015600Y032900D01*
X015414Y032232D02*
X015886D01*
X015250Y032550D02*
X015568Y032232D01*
X015392Y032692D02*
X015851Y032232D01*
X016026Y031300D02*
X016274Y031547D01*
X016026Y031491D02*
X016293Y031224D01*
X016274Y031344D02*
Y031856D01*
X016026Y031583D02*
X016274Y031830D01*
X016026Y031774D02*
X016274Y031527D01*
X015533Y032833D02*
X016323Y032043D01*
X015544Y032232D02*
X016212Y032900D01*
X015749D02*
X016465Y032184D01*
X016026Y032057D02*
X016274Y031809D01*
X015827Y032232D02*
X016495Y032900D01*
X016032D02*
X016703Y032228D01*
X016690Y027716D02*
X016716Y027690D01*
X016898Y027791D02*
X016999Y027690D01*
X016908Y027791D02*
X017144D01*
X017508Y027690D02*
X017615Y027797D01*
X016942Y027690D02*
X017043Y027791D01*
X017177Y027795D02*
X017282Y027690D01*
X016690Y027721D02*
X016805Y027836D01*
X017284Y027971D02*
X017565Y027690D01*
X017225D02*
X017516Y027981D01*
X016690Y027690D02*
X019340D01*
X017747Y027791D02*
X017848Y027690D01*
X017656Y027791D02*
X017892D01*
X018356Y027690D02*
X018575Y027909D01*
X017790Y027690D02*
X017891Y027791D01*
X017990Y027831D02*
X018131Y027690D01*
X018067Y028036D02*
X018413Y027690D01*
X018073D02*
X018292Y027909D01*
X018253D02*
X018647D01*
X016690Y027999D02*
X016768Y027921D01*
X016690Y028287D02*
X016768Y028364D01*
X016690Y028004D02*
X016768Y028082D01*
X016690Y028282D02*
X016768Y028204D01*
X016690Y028565D02*
X016768Y028487D01*
X016690Y028569D02*
X016781Y028660D01*
X016690D02*
X016889D01*
X016768Y027931D02*
Y028521D01*
X017284Y027931D02*
Y028521D01*
X017516Y027931D02*
Y028521D01*
X017284Y028032D02*
X017516Y028264D01*
X017284Y028254D02*
X017516Y028022D01*
X018032Y027931D02*
Y028036D01*
X018114*
X018032Y027932D02*
X018117Y028016D01*
X017283Y028537D02*
X017516Y028305D01*
X017284Y028315D02*
X017508Y028539D01*
X017283D02*
X017517D01*
X017685Y029833D02*
X017879Y029640D01*
X018005*
X017685Y029848D02*
X017815Y029978D01*
X017820Y029699D02*
X017884Y029764D01*
X019205Y027690D02*
X019323Y027808D01*
X018477Y027909D02*
X018696Y027690D01*
X018732Y027937D02*
X018979Y027690D01*
X019340Y027612D02*
X019571Y027380D01*
X019262Y027690D02*
X019340Y027612D01*
Y027542D02*
X019464Y027667D01*
X018639Y027690D02*
X019024Y028075D01*
X018639Y027690D02*
X019024Y028075D01*
X018922Y027690D02*
X019182Y027950D01*
X018787Y028075D02*
X019056D01*
X018877D02*
X019262Y027690D01*
X019056Y028075D02*
X019615Y027516D01*
X019733Y027936D02*
X020077Y028280D01*
X019829Y027840D02*
X020450D01*
X020092Y027460D02*
X020371D01*
X019920Y027840D02*
X020368Y028288D01*
X020085Y028281D02*
X020564Y027802D01*
X019269Y028399D02*
X019829Y027840D01*
X018787Y029014D02*
X019960Y027840D01*
X018823Y029260D02*
X020243Y027840D01*
X019450Y028218D02*
X019840Y028608D01*
X019592Y028077D02*
X019879Y028364D01*
X018787Y028731D02*
X019062Y028455D01*
X018787Y028718D02*
Y029151D01*
X018763Y029229D02*
X018795Y029260D01*
X018609Y029640D02*
X018836Y029867D01*
X018495Y029640D02*
X019005D01*
X018610Y029756D02*
X018726Y029640D01*
X018684Y029965D02*
X018883Y029766D01*
X018892Y029640D02*
X018943Y029691D01*
X018787Y028455D02*
X019135D01*
X019309Y028360D02*
X019750Y028801D01*
X019309Y028360D02*
X019750Y028801D01*
X019840Y028487D02*
Y028712D01*
X018782Y028681D02*
X019326Y029226D01*
X018787Y028969D02*
X019078Y029260D01*
X018735D02*
X019292D01*
X018839Y028455D02*
X019468Y029084D01*
X019122Y028455D02*
X019609Y028943D01*
X019292Y029260D02*
X019840Y028712D01*
X019106Y029260D02*
X019840Y028527D01*
X016945Y030435D02*
X017020Y030510D01*
X017014Y030504D02*
X017082Y030435D01*
X016955D02*
X017545D01*
X017685Y029833D02*
Y030295D01*
X017142Y030435D02*
X017216Y030510D01*
X017425Y030435D02*
X017499Y030510D01*
X016948Y031090D02*
X017274Y031416D01*
X016927Y031090D02*
X017373D01*
X017290Y030510D02*
X017365Y030435D01*
X016957Y031126D02*
X016993Y031090D01*
X017026Y031340D02*
X017276Y031090D01*
X017685Y030115D02*
X017815Y029985D01*
X017573Y030510D02*
X017870Y030213D01*
X017856Y030510D02*
X018006Y030360D01*
X017685Y030130D02*
X018065Y030510D01*
X017655Y030383D02*
X017782Y030510D01*
X017020D02*
X019280D01*
X018002Y031212D02*
X018125Y031090D01*
X017927D02*
X019400D01*
X017026Y031623D02*
X017274Y031375D01*
X017022Y031909D02*
X017274Y031658D01*
X017026Y031451D02*
X017274Y031699D01*
X017231Y031090D02*
X017315Y031174D01*
X017026Y031344D02*
Y031856D01*
X017274Y031344D02*
Y031856D01*
X016018Y032140D02*
X016778Y032900D01*
X016026Y031865D02*
X017061Y032900D01*
X017026Y031734D02*
X017311Y032019D01*
X016315Y032900D02*
X017282Y031933D01*
X016675Y032231D02*
X017344Y032900D01*
X016597D02*
X017380Y032118D01*
X016880Y032900D02*
X017559Y032221D01*
X016880Y032154D02*
X017626Y032900D01*
X017001Y031992D02*
X017909Y032900D01*
X017446D02*
X019256Y031090D01*
X017163Y032900D02*
X018973Y031090D01*
X015600Y032900D02*
X027527D01*
X017946Y032088D02*
X018758Y032900D01*
X017729D02*
X019474Y031155D01*
X017487Y032195D02*
X018192Y032900D01*
X017783Y032208D02*
X018475Y032900D01*
X018139Y030510D02*
X018215Y030434D01*
X018685Y029999D02*
X018844Y030158D01*
X018486Y030366D02*
X018631Y030510D01*
X019270D02*
X019359Y030421D01*
X018422Y030510D02*
X018827Y030104D01*
X018272Y030435D02*
X018348Y030510D01*
X018625Y030221D02*
X018913Y030510D01*
X018705D02*
X018925Y030290D01*
X018987Y030510D02*
X019092Y030406D01*
X019196Y030510D01*
X019280D02*
X019372Y030418D01*
X019642Y030968D02*
X019820Y030790D01*
X019661Y030968D02*
X019839Y030790D01*
X019790Y030821D02*
X019937Y030968D01*
X019820Y030790D02*
X020976D01*
X019642Y030968D02*
X020086D01*
X019944D02*
X020122Y030790D01*
X020042D02*
X020489Y031237D01*
X020185Y031009D02*
X020405Y030790D01*
X018026Y031754D02*
X018690Y031090D01*
X018026Y031344D02*
Y031856D01*
Y031471D02*
X018407Y031090D01*
X019211D02*
X019474Y031353D01*
X018645Y031090D02*
X019474Y031919D01*
X018928Y031090D02*
X019474Y031636D01*
X018012Y032900D02*
X019474Y031438D01*
X018025Y031884D02*
X019041Y032900D01*
X018026Y031603D02*
X019324Y032900D01*
X019474Y031108D02*
Y032092D01*
X018577Y032900D02*
X019474Y032004D01*
X018295Y032900D02*
X019474Y031721D01*
X018079Y031090D02*
X019889Y032900D01*
X018860D02*
X019546Y032214D01*
X018025Y031319D02*
X019606Y032900D01*
X019614Y032232D02*
X020086D01*
X018362Y031090D02*
X020172Y032900D01*
X019143D02*
X019811Y032232D01*
X019426Y032900D02*
X020094Y032232D01*
X019709Y032900D02*
X020540Y032069D01*
X019992Y032900D02*
X020694Y032198D01*
X019787Y032232D02*
X020455Y032900D01*
X020070Y032232D02*
X020738Y032900D01*
X020210Y019671D02*
X020723Y019158D01*
X020235Y021489D02*
Y021646D01*
X020214Y019949D02*
X020870Y019294D01*
X020550Y019000D02*
X021150Y019550D01*
X020235Y021646D02*
X020340D01*
X020300Y019000D02*
X020550D01*
X020340Y021754D02*
X021396Y022810D01*
X020340Y022320D02*
X020951Y022931D01*
X020340Y022037D02*
X021116Y022813D01*
X020340Y021646D02*
Y023197D01*
Y022603D02*
X020809Y023072D01*
X020340Y021804D02*
X022594Y019550D01*
X020235Y021625D02*
X022311Y019550D01*
X020340Y022086D02*
X022876Y019550D01*
X020340Y022652D02*
X023442Y019550D01*
X020340Y022369D02*
X023159Y019550D01*
X021596Y022810D02*
X023716Y020691D01*
X020351Y023207D02*
X024008Y019550D01*
X020218Y019936D02*
X023093Y022810D01*
X020340Y022935D02*
X023725Y019550D01*
X020393Y023448D02*
X024291Y019550D01*
X021150Y022810D02*
X023300D01*
X021313D02*
X023709Y020415D01*
X020340Y022886D02*
X020668Y023213D01*
X020340Y023168D02*
X020526Y023355D01*
X020516Y023365D02*
X021015Y022866D01*
X021193Y023225D02*
X021229Y023190D01*
X020393Y023731D02*
X020460Y023663D01*
X020393Y024014D02*
X020460Y023946D01*
X020393Y023787D02*
X020460Y023854D01*
X020393Y023504D02*
X020460Y023571D01*
X021345Y023344D02*
X021499Y023190D01*
X021219Y023199D02*
X021484Y023464D01*
X021229Y023190D02*
X023221D01*
X021493D02*
X021766Y023463D01*
X021509D02*
X021782Y023190D01*
X021499Y023463D02*
X021932D01*
X021359Y023631D02*
Y023819D01*
X023227Y019550D02*
X023799Y020122D01*
X022661Y019550D02*
X023709Y020598D01*
X022944Y019550D02*
X023709Y020315D01*
X023510Y019550D02*
X024073Y020113D01*
X023709Y020253D02*
Y020647D01*
X021879Y022810D02*
X023902Y020787D01*
X022636Y023468D02*
X022913Y023190D01*
X023435Y022866D02*
X023884Y023315D01*
X023793Y019550D02*
X024409Y020166D01*
X023849Y020113D02*
X024282D01*
X024010D02*
X024573Y019550D01*
X022445Y022810D02*
X024475Y020780D01*
X022162Y022810D02*
X024185Y020787D01*
X023849D02*
X024282D01*
X022059Y023190D02*
X022332Y023463D01*
X021792D02*
X022065Y023190D01*
X021776D02*
X022080Y023494D01*
X022357Y023463D02*
X022631Y023190D01*
X022168Y023463D02*
X022601D01*
X022341Y023190D02*
X022615Y023464D01*
X022032Y023505D02*
X022348Y023190D01*
X022734Y023560D02*
X022808D01*
X023190Y023190D02*
X023386Y023386D01*
X022907Y023190D02*
X023072Y023355D01*
X023008Y023379D02*
X023196Y023190D01*
X023312Y023357D02*
X023350Y023319D01*
X022624Y023190D02*
X022891Y023456D01*
X023221Y023190D02*
X023489Y023457D01*
X023940Y023450D02*
Y023687D01*
X023903Y023337D02*
X024047Y023481D01*
X023511Y023480D02*
X023560Y023529D01*
X020393Y023306D02*
Y024089D01*
X020460Y024021*
Y023500D02*
Y024021D01*
X020837Y024135D02*
X020860Y024112D01*
X020760Y024259D02*
X020784Y024235D01*
X020760Y024259D02*
X021097D01*
X020809Y024203D02*
X020865Y024259D01*
X020996D02*
X021025Y024230D01*
X021127Y024239D02*
X021166Y024277D01*
X021316Y024144D02*
X021430Y024259D01*
X021303D02*
X021475D01*
Y024135D02*
Y024259D01*
X021955Y024218D02*
X021996Y024259D01*
X021276Y024261D02*
X021423Y024115D01*
X021955Y024135D02*
Y024259D01*
X022297*
X020335Y024684D02*
X020563Y024456D01*
X020388Y024631D02*
X020563Y024806D01*
Y024456D02*
Y024832D01*
X020529Y024489D02*
X020563Y024523D01*
X020292Y024963D02*
X020563Y024692D01*
X020214Y024739D02*
X020438Y024963D01*
X020561Y024977D02*
X020605Y024932D01*
X020766Y025785D02*
X020882Y025901D01*
X020263Y025637D02*
X020697Y026071D01*
X020348Y026038D02*
X020712Y025675D01*
X020625Y026044D02*
X020825Y025844D01*
X020540Y025631D02*
X020882Y025973D01*
Y025901D02*
Y026044D01*
X022156Y024136D02*
X022279Y024259D01*
X022734Y024040D02*
X022834D01*
X022168Y024137D02*
X022601D01*
X022127Y024259D02*
X022249Y024137D01*
X022437Y024515D02*
X022870Y024082D01*
X022437Y024399D02*
Y024832D01*
X022382Y024287D02*
X022532Y024137D01*
X023072Y024204D02*
X023375Y024506D01*
X023343Y024192D02*
X023516Y024365D01*
X023560Y024016D02*
Y024321D01*
X023512Y024078D02*
X023560Y024126D01*
X024560Y024176D02*
Y024509D01*
X022437Y025081D02*
X023317Y024200D01*
X022437Y025444D02*
X023560Y024321D01*
X022437Y025364D02*
X023560Y024240D01*
X022440Y024137D02*
X023092Y024789D01*
X022690Y024105D02*
X023234Y024648D01*
X022437Y024417D02*
X022951Y024931D01*
X022437Y024798D02*
X023041Y024194D01*
X022437Y024700D02*
X022809Y025072D01*
X022437Y025265D02*
X022526Y025355D01*
X022390Y024936D02*
X022668Y025213D01*
X022437Y025068D02*
Y025444D01*
X022560Y026588D02*
Y026813D01*
X022594Y026554D02*
X023450Y027410D01*
X022789Y027274D02*
X023818Y026245D01*
X022736Y026413D02*
X023602Y027279D01*
X022877Y026271D02*
X023744Y027138D01*
X023584Y025564D02*
X023979Y025959D01*
X023726Y025423D02*
X024174Y025871D01*
X024615Y024495D02*
Y026062D01*
X024555Y024555D02*
X024615Y024615D01*
X022560Y026654D02*
X024615Y024600D01*
X022936Y027410D02*
X023858Y026488D01*
X022560Y026588D02*
X024504Y024644D01*
X023301Y025847D02*
X023820Y026365D01*
X023443Y025705D02*
X023855Y026118D01*
X023018Y026130D02*
X023885Y026996D01*
X023160Y025988D02*
X024026Y026855D01*
X024358Y019550D02*
X024921Y020113D01*
X024076Y019550D02*
X024639Y020113D01*
X024293Y020114D02*
X024856Y019550D01*
X024576Y020113D02*
X025139Y019550D01*
X024518Y020113D02*
X024951D01*
X025084Y020210D02*
X025200D01*
X021813Y019550D02*
X025010Y022747D01*
X021247Y019550D02*
X025010Y023313D01*
X021530Y019550D02*
X025010Y023030D01*
X022096Y019550D02*
X025010Y022464D01*
X022378Y019550D02*
X025010Y022182D01*
X024859Y020113D02*
X025422Y019550D01*
X024641D02*
X025301Y020210D01*
X021150Y019550D02*
X027317D01*
X025072Y020183D02*
X025705Y019550D01*
X025200Y020210D02*
X025850D01*
X025328D02*
X025988Y019550D01*
X024924D02*
X025584Y020210D01*
X025390Y020690D02*
X025751D01*
X025207Y019550D02*
X025868Y020211D01*
X025490Y019550D02*
X026822Y020882D01*
X025390Y020690D02*
Y020994D01*
X025417Y020970D02*
X025696Y020690D01*
X024440Y020763D02*
X025010Y021333D01*
X023898Y020787D02*
X025010Y021899D01*
X024181Y020787D02*
X025010Y021616D01*
X024518Y020787D02*
X024951D01*
X024747D02*
X025010Y021050D01*
X022728Y022810D02*
X024751Y020787D01*
X023293Y022810D02*
X025010Y021093D01*
X023011Y022810D02*
X025010Y020811D01*
X023477Y022909D02*
X025010Y021376D01*
X023901Y023334D02*
X025010Y022225D01*
X023619Y023050D02*
X025010Y021659D01*
X025390Y020713D02*
X025413Y020690D01*
X025390Y020865D02*
X025461Y020936D01*
X025410Y021625D02*
Y022350D01*
X025390Y022410D02*
X025412Y022388D01*
X023760Y023192D02*
X025010Y021942D01*
X024453Y023347D02*
X025010Y022790D01*
X025390Y022976D02*
X025653Y022713D01*
X025390Y022562D02*
X025960Y023132D01*
X025390Y022693D02*
X025512Y022572D01*
X025390Y023259D02*
X025794Y022855D01*
X025611Y020210D02*
X026271Y019550D01*
X026204Y020465D02*
X027119Y019550D01*
X025890Y020213D02*
X026553Y019550D01*
X026063Y020323D02*
X026836Y019550D01*
X025498Y020690D02*
X025674Y020866D01*
X025794Y020875D02*
X025865Y020804D01*
X025751Y020690D02*
X026274Y021213D01*
X026020Y020280D02*
X026613Y020874D01*
X025983Y020969D02*
X026006Y020946D01*
X026338Y019550D02*
X027527Y020738D01*
X026346Y020606D02*
X027359Y019593D01*
X026621Y019550D02*
X027527Y020455D01*
X027317Y019550D02*
X027527Y019760D01*
X026904Y019550D02*
X027527Y020173D01*
X027187Y019550D02*
X027527Y019890D01*
X025773Y019550D02*
X027527Y021304D01*
X026487Y020748D02*
X027501Y019734D01*
X026055Y019550D02*
X027527Y021021D01*
X026891Y020909D02*
X027527Y020274D01*
X026650Y020868D02*
X027527Y019991D01*
X027130Y021236D02*
X027527Y020840D01*
X027047Y021037D02*
X027527Y020557D01*
X025990Y021810D02*
X026309Y021491D01*
X025990Y022093D02*
X026437Y021647D01*
X026102Y021133D02*
X026148Y021087D01*
X026125Y021392D02*
X026268Y021250D01*
X026134Y021326D02*
X026319Y021511D01*
X025990Y021625D02*
Y022230D01*
X025495Y022555D02*
X025960Y023020D01*
X025990Y022230D02*
X026455Y022695D01*
X026063Y022303D02*
X026636Y021730D01*
X026205Y022444D02*
X027527Y021122D01*
X026812Y021721D02*
X027527Y022435D01*
X027118Y021178D02*
X027527Y021587D01*
X026995Y021621D02*
X027527Y022153D01*
X027108Y021451D02*
X027527Y021870D01*
X026346Y022586D02*
X027527Y021405D01*
X025990Y021747D02*
X027527Y023284D01*
X026064Y021539D02*
X027527Y023001D01*
X026485Y022730D02*
X027527Y021688D01*
X026489Y021681D02*
X027527Y022718D01*
X026540Y023240D02*
X027527Y022254D01*
X026540Y022957D02*
X027527Y021971D01*
X020414Y019000D02*
X025010Y023596D01*
X024646Y023437D02*
X025010Y023073D01*
X024770Y023596D02*
X025010Y023356D01*
X024794Y023663D02*
X025010Y023879D01*
X024805Y023844D02*
X025010Y023639D01*
X024560Y024277D02*
X024658Y024375D01*
X025010Y020774D02*
Y024021D01*
X024669Y024103D02*
X024799Y024233D01*
X024782Y023934D02*
X024940Y024091D01*
X023940Y023578D02*
X025010Y022508D01*
X024671Y024361D02*
X025010Y024021D01*
X025390Y023542D02*
X025936Y022996D01*
X025390Y024108D02*
X025960Y023537D01*
X024995Y024786D02*
X025960Y023820D01*
X024560Y024372D02*
X025010Y023922D01*
X024995Y024574D02*
X025334Y024235D01*
X024995Y025068D02*
X025960Y024103D01*
X025209Y024360D02*
X025960Y025111D01*
X025349Y024218D02*
X025960Y024829D01*
X024150Y024998D02*
X024615Y025463D01*
X024195Y025868D02*
X024615Y025448D01*
X024008Y025140D02*
X024615Y025746D01*
X024291Y024857D02*
X024615Y025180D01*
X024433Y024716D02*
X024615Y024898D01*
X022535Y026962D02*
X024615Y024883D01*
X022720Y027061D02*
X024615Y025166D01*
X024995Y024574D02*
Y025947D01*
X024438Y025908D02*
X024615Y025731D01*
X023867Y025281D02*
X024615Y026029D01*
X024995Y025351D02*
X025960Y024386D01*
X024995Y024712D02*
X025960Y025677D01*
X024995Y025634D02*
X025960Y024669D01*
X025067Y024502D02*
X025960Y025394D01*
X024995Y025560D02*
X025302Y025868D01*
X025324Y025871D02*
X025960Y025235D01*
X024995Y025917D02*
X025960Y024952D01*
X024995Y025843D02*
X025060Y025908D01*
X024995Y024995D02*
X025884Y025884D01*
X024995Y025278D02*
X025815Y026098D01*
X025390Y022844D02*
X025960Y023414D01*
X025390Y023825D02*
X025960Y023255D01*
X025390Y023127D02*
X025960Y023697D01*
X026540Y023806D02*
X027527Y022819D01*
X025390Y023410D02*
X025960Y023980D01*
X026537Y022860D02*
X027527Y023850D01*
X025390Y021606D02*
Y024100D01*
Y023976D02*
X025960Y024546D01*
X025390Y023693D02*
X025960Y024263D01*
X026540Y022900D02*
Y025865D01*
X025960Y023020D02*
Y025865D01*
X026540Y024277D02*
X027527Y025264D01*
X025990Y022030D02*
X027527Y023567D01*
X026540Y024089D02*
X027527Y023102D01*
X026540Y023523D02*
X027527Y022537D01*
X026540Y023146D02*
X027527Y024132D01*
X026540Y023429D02*
X027527Y024415D01*
X026540Y024372D02*
X027527Y023385D01*
X026540Y024655D02*
X027527Y023668D01*
X026540Y024937D02*
X027527Y023951D01*
X026540Y023712D02*
X027527Y024698D01*
X026540Y023994D02*
X027527Y024981D01*
Y019760D02*
Y032900D01*
X026540Y025503D02*
X027527Y024517D01*
X026540Y025220D02*
X027527Y024234D01*
X025519Y025958D02*
X025960Y025517D01*
X025681Y026362D02*
X025815Y026228D01*
X025644Y026116D02*
X025960Y025800D01*
X025682Y026248D02*
X025815Y026380D01*
X025540Y026786D02*
X025815Y026511D01*
X025642Y026490D02*
X025960Y026809D01*
X026540Y025409D02*
X027527Y026395D01*
X025815Y026005D02*
Y026595D01*
X026685Y026005D02*
Y026595D01*
X026540Y024560D02*
X027527Y025547D01*
X026540Y024843D02*
X027527Y025829D01*
X026540Y025786D02*
X027527Y024799D01*
X026669Y025940D02*
X027527Y025082D01*
X026685Y026206D02*
X027527Y025365D01*
X026540Y025126D02*
X027527Y026112D01*
X026540Y025691D02*
X027527Y026678D01*
X026540Y027200D02*
X027527Y026214D01*
X026540Y026917D02*
X027527Y025931D01*
X026685Y026120D02*
X027527Y026961D01*
X026685Y026489D02*
X027527Y025648D01*
X026558Y027465D02*
X027527Y026496D01*
X026685Y026402D02*
X027527Y027244D01*
X020238Y027012D02*
Y027102D01*
X021006Y027012D02*
Y027284D01*
X020511Y027016D02*
X020626Y027132D01*
Y027012D02*
Y027205D01*
X020238Y027027D02*
X020522Y027310D01*
X020371Y027460D02*
X020626Y027205D01*
X020340Y027460D02*
X020626Y027174D01*
X020585Y027784D02*
X020950Y027418D01*
X021006Y027077D02*
X021061Y027022D01*
X021082D02*
X021138Y027078D01*
Y027012D02*
Y027128D01*
X020363Y028286D02*
X021290Y027359D01*
X020639Y028293D02*
X021432Y027500D01*
X020932Y027437D02*
X021563Y028068D01*
X020968Y027398D02*
X021156Y027210D01*
X021006Y027229D02*
X021738Y027960D01*
X021194Y027263D02*
X021891Y027960D01*
X020483Y027837D02*
X020958Y028312D01*
X020790Y027578D02*
X021424Y028213D01*
X020649Y027720D02*
X021231Y028302D01*
X020203Y027840D02*
X020676Y028313D01*
X020913Y028302D02*
X021573Y027642D01*
X021186Y028312D02*
X021714Y027783D01*
X021450Y028182D02*
X021615Y028016D01*
X021527Y029259D02*
X021584Y029315D01*
X021590Y029322D02*
X021659Y029252D01*
X021625Y029262D02*
X021746Y029382D01*
X021750Y027960D02*
X021891D01*
X022560Y026803D02*
X023167Y027410D01*
X022784Y027309D02*
X022885Y027410D01*
X021820Y027960D02*
X021856Y027925D01*
X022531Y028380D02*
X022572Y028340D01*
X022560Y028634D02*
X022855Y028340D01*
X022560Y028487D02*
Y029057D01*
Y028917D02*
X023137Y028340D01*
X023219Y027410D02*
X023984Y026645D01*
X022742Y027410D02*
X023471D01*
X022500Y028340D02*
X023671D01*
X024060Y026692D02*
Y026821D01*
X023671Y028340D02*
X023865Y028534D01*
X023471Y027410D02*
X024060Y026821D01*
X022430Y029330D02*
X023420Y028340D01*
X022683D02*
X023417Y029073D01*
X022585Y029458D02*
X023687Y028356D01*
X023249Y028340D02*
X023699Y028791D01*
X023532Y028340D02*
X023841Y028649D01*
X022966Y028340D02*
X023558Y028932D01*
X022801Y029525D02*
X023829Y028497D01*
X021864Y029330D02*
X021970Y029224D01*
X021903Y029257D02*
X021976Y029330D01*
X022147D02*
X022242Y029235D01*
X021855Y029330D02*
X022445D01*
X022178Y029249D02*
X022259Y029330D01*
X022585Y029470D02*
Y029525D01*
X022560Y028500D02*
X023275Y029215D01*
X022452Y029241D02*
X022737Y029525D01*
X022560Y029066D02*
X022992Y029498D01*
X022560Y028783D02*
X023134Y029356D01*
X022965Y029525D02*
X023918Y028572D01*
X022585Y029525D02*
X022965D01*
X024302Y029958D02*
X024709Y030366D01*
Y030253D02*
Y030647D01*
X020787Y030973D02*
X020970Y030790D01*
X020325D02*
X020599Y031064D01*
X020608Y030790D02*
X020790Y030973D01*
X020976Y030790D02*
X021145D01*
X021030Y031013D02*
X021209Y030834D01*
X020226Y031251D02*
X020687Y030790D01*
X020226Y031108D02*
Y032092D01*
X020891Y030790D02*
X021474Y031373D01*
X021174Y031152D02*
X021485Y030841D01*
X021221Y030837D02*
X021530Y031147D01*
X021253Y030841D02*
X021647D01*
X021812Y030863D02*
X021924Y030975D01*
X021918Y030974D02*
X022022Y030870D01*
X021855D02*
X022445D01*
X021406Y032900D02*
X024455Y029851D01*
X021226Y031383D02*
X021769Y030840D01*
X021689Y032900D02*
X024726Y029863D01*
X021507Y030841D02*
X021676Y031010D01*
X021812Y030863D02*
X021924Y030975D01*
X020226Y031257D02*
X020474Y031505D01*
X020226Y031540D02*
X020474Y031787D01*
X020226Y031534D02*
X020479Y031281D01*
X021226Y031344D02*
Y031856D01*
X020226Y031817D02*
X020474Y031569D01*
X021226Y031665D02*
X021474Y031418D01*
X020226Y031823D02*
X021303Y032900D01*
X020226Y032100D02*
X020474Y031852D01*
X020226Y032105D02*
X021021Y032900D01*
X020474Y031344D02*
Y031856D01*
X020274Y032900D02*
X020958Y032216D01*
X021226Y031409D02*
X021474Y031656D01*
X021210Y031964D02*
X021474Y031701D01*
X020913Y032227D02*
X021586Y032900D01*
X021474Y031344D02*
Y031856D01*
X021226Y031691D02*
X021486Y031951D01*
X020557Y032900D02*
X021490Y031967D01*
X020840Y032900D02*
X021602Y032138D01*
X021103Y032134D02*
X021869Y032900D01*
X021212Y031960D02*
X022152Y032900D01*
X021971D02*
X023674Y031198D01*
X021123Y032900D02*
X021795Y032228D01*
X021755Y032220D02*
X022435Y032900D01*
X022581Y030764D02*
X023376D01*
X022106Y031068D02*
X022305Y030870D01*
X023408Y030762D02*
X023689Y031043D01*
X022226Y031797D02*
X023259Y030764D01*
X022213Y031244D02*
X022693Y030764D01*
X022226Y031514D02*
X022976Y030764D01*
X023127D02*
X023674Y031311D01*
X022576Y030779D02*
X023674Y031876D01*
X022844Y030764D02*
X023674Y031593D01*
X023581Y030679D02*
X024305Y029955D01*
X023595Y030666D02*
X023897Y030968D01*
X023736Y030524D02*
X024180Y030968D01*
X024160Y030100D02*
X024709Y030649D01*
X023814Y030968D02*
X024286D01*
X024186D02*
X024709Y030446D01*
X022102Y030870D02*
X024132Y032900D01*
X022385Y030870D02*
X024415Y032900D01*
X023877Y030383D02*
X024700Y031206D01*
X024404Y031033D02*
X024725Y030712D01*
X024426Y031108D02*
Y032092D01*
X022226Y031344D02*
Y031856D01*
X022013Y032195D02*
X022718Y032900D01*
X022226Y031843D02*
X023283Y032900D01*
X023674Y031108D02*
Y032092D01*
X022226Y031560D02*
X023566Y032900D01*
X022219Y031270D02*
X023849Y032900D01*
X022164Y032063D02*
X023001Y032900D01*
X022254D02*
X023674Y031481D01*
X022537Y032900D02*
X023674Y031763D01*
X022820Y032900D02*
X023674Y032046D01*
X023103Y032900D02*
X023776Y032227D01*
X024426Y031577D02*
X024674Y031329D01*
X024426Y031497D02*
X024674Y031745D01*
X024409Y032160D02*
X024676Y031893D01*
X024426Y031214D02*
X024674Y031462D01*
X024426Y031859D02*
X024674Y031612D01*
Y031344D02*
Y031856D01*
X022219Y031270D02*
X023849Y032900D01*
X023386D02*
X024054Y032232D01*
X023669Y032900D02*
X024354Y032215D01*
X023951Y032900D02*
X024758Y032093D01*
X023814Y032232D02*
X024286D01*
X024030D02*
X024698Y032900D01*
X025540Y026625D02*
Y027575D01*
Y027237D02*
X025835Y027532D01*
X025540Y027520D02*
X025815Y027795D01*
X025670Y027787D02*
X025815Y027643D01*
X025540Y028225D02*
Y028400D01*
X025522Y028501D02*
X025815Y028208D01*
Y027605D02*
Y028195D01*
X025683Y027946D02*
X025815Y028077D01*
X025633Y028107D02*
X025815Y027925D01*
X025540Y026671D02*
X025960Y027091D01*
X025540Y027069D02*
X025890Y026719D01*
X025540Y027352D02*
X025960Y026932D01*
X025540Y026954D02*
X025960Y027374D01*
Y026735D02*
Y027465D01*
X025570Y027605D02*
X025960Y027214D01*
X025606Y028151D02*
X025947Y028493D01*
X025960Y028335D02*
Y028480D01*
X026083Y029355D02*
X027527Y027911D01*
X025333Y028727D02*
X025416Y028810D01*
X025250D02*
X025455Y028605D01*
X025540Y028368D02*
X025806Y028634D01*
X025474Y028585D02*
X025664Y028776D01*
X025250Y028810D02*
X025630D01*
X024849Y029937D02*
X025282D01*
X025518D02*
X025951D01*
X025496Y028810D02*
X025960Y028346D01*
X025630Y028810D02*
X025960Y028480D01*
X025991Y029269D02*
X026455Y028805D01*
X026216Y029044D02*
X026376Y029204D01*
X026074Y029186D02*
X026198Y029309D01*
X026334Y029204D02*
X026570D01*
X026084Y029360D02*
X026194D01*
X026084Y029840D02*
X026194D01*
X026163D02*
X026195Y029872D01*
X026540Y026735D02*
Y027465D01*
Y027106D02*
X027527Y028092D01*
X026685Y027605D02*
Y028195D01*
X026357Y028903D02*
X026942Y029487D01*
X026540Y028335D02*
Y028600D01*
X026494Y028757D02*
X026983Y029245D01*
X026540Y028520D02*
X027224Y029204D01*
X026666Y026666D02*
X027527Y027527D01*
X026540Y027389D02*
X027527Y028375D01*
X026540Y026823D02*
X027527Y027809D01*
X026685Y027621D02*
X027527Y026779D01*
X026685Y028186D02*
X027527Y027345D01*
X026685Y027903D02*
X027527Y027062D01*
X026540Y028615D02*
X027527Y027628D01*
X026618Y028315D02*
X027527Y029224D01*
X026516Y029204D02*
X027527Y028193D01*
X026685Y028099D02*
X027527Y028941D01*
X026685Y027817D02*
X027527Y028658D01*
X027082Y029204D02*
X027527Y028759D01*
X026703Y029300D02*
X027527Y028476D01*
X026710Y029539D02*
X026942Y029770D01*
X026710Y029576D02*
X026942Y029344D01*
X026710D02*
Y029856D01*
X026942Y029344D02*
Y029856D01*
X026710Y029859D02*
X026942Y029627D01*
X026334Y029996D02*
X026570D01*
X026821Y030031D02*
X026950Y029902D01*
X027082Y029204D02*
X027318D01*
X027359Y029210D02*
X027527Y029042D01*
X027458Y029438D02*
X027527Y029506D01*
X027458Y029393D02*
X027527Y029325D01*
X027082Y029996D02*
X027318D01*
X027458Y029344D02*
Y029856D01*
Y029676D02*
X027527Y029608D01*
X027458Y029721D02*
X027527Y029789D01*
X024497Y029871D02*
X024766Y030140D01*
X024846Y029937D02*
X025022Y030113D01*
X024849D02*
X025282D01*
X025041D02*
X025217Y029937D01*
X025129D02*
X025307Y030115D01*
X023904Y030968D02*
X024935Y029937D01*
X024019Y030241D02*
X024810Y031033D01*
Y030781D02*
Y031054D01*
X025290Y030787D02*
Y031054D01*
X025375Y029901D02*
X025588Y030113D01*
X025319Y030118D02*
X025501Y029936D01*
X025694Y029937D02*
X025871Y030113D01*
X025607D02*
X025783Y029937D01*
X025518Y030113D02*
X025951D01*
X025290Y030996D02*
X025500Y030786D01*
X025376Y030750D02*
X025747Y031121D01*
X025426Y031425D02*
X026161Y030690D01*
X025389Y031180D02*
X025782Y030787D01*
X025518D02*
X025951D01*
X024426Y031294D02*
X024810Y030910D01*
X025426Y031344D02*
Y031856D01*
X025379Y032038D02*
X025674Y031743D01*
X025426Y031708D02*
X025674Y031460D01*
X024426Y031780D02*
X025546Y032900D01*
X024234D02*
X024924Y032210D01*
X024310Y032230D02*
X024980Y032900D01*
X024517D02*
X025232Y032185D01*
X024426Y032063D02*
X025263Y032900D01*
X025290Y030947D02*
X025674Y031331D01*
X025426Y031366D02*
X025674Y031613D01*
X025426Y031649D02*
X025676Y031899D01*
X025674Y031344D02*
Y031856D01*
X024800Y032900D02*
X025702Y031998D01*
X025083Y032900D02*
X025825Y032158D01*
X025148Y032219D02*
X025829Y032900D01*
X025420Y031925D02*
X026395Y032900D01*
X025648D02*
X027527Y031022D01*
X025366Y032900D02*
X026034Y032232D01*
X025325Y032113D02*
X026112Y032900D01*
X025890Y030113D02*
X026163Y029840D01*
X025975Y029935D02*
X026250Y030210D01*
X026082Y030204D02*
X026295Y029990D01*
X026599Y029993D02*
X026650Y030044D01*
X026318Y029995D02*
X026533Y030210D01*
X026152Y030982D02*
X026444Y030690D01*
X026084Y030210D02*
X026568D01*
X026359D02*
X026573Y029996D01*
X026568Y030171D02*
Y030210D01*
X026710Y029821D02*
X026920Y030031D01*
X026708D02*
X026944D01*
X027084Y030333D02*
X027527Y029891D01*
X027052Y030082D02*
X027138Y029996D01*
X027413Y029959D02*
X027527Y030072D01*
X027084Y030195D02*
X027527Y030638D01*
X026426Y031557D02*
X027527Y030456D01*
X027084Y030171D02*
Y030683D01*
X027167Y029996D02*
X027527Y030355D01*
X027084Y030478D02*
X027527Y030921D01*
X027084Y030616D02*
X027527Y030173D01*
X025696Y030787D02*
X025906Y030997D01*
X025976Y030785D02*
X026184Y030993D01*
X026084Y030690D02*
X026568D01*
X026327Y031090D02*
X026623Y030794D01*
X026708Y030823D02*
X026944D01*
X026380Y032037D02*
X027243Y032900D01*
X026007Y032230D02*
X026677Y032900D01*
X026241Y032180D02*
X026960Y032900D01*
X026421Y031279D02*
X026877Y030823D01*
X026426Y031344D02*
Y031856D01*
Y031800D02*
X027526Y032900D01*
X026165Y030690D02*
X027527Y032052D01*
X026401Y031210D02*
X027527Y032335D01*
X026426Y031839D02*
X027527Y030739D01*
X026447Y030690D02*
X027527Y031769D01*
X026863Y030823D02*
X027527Y031486D01*
X027069Y030746D02*
X027527Y031203D01*
X025931Y032900D02*
X027527Y031305D01*
X026214Y032900D02*
X027527Y031588D01*
X026426Y031517D02*
X027527Y032618D01*
X026780Y032900D02*
X027527Y032153D01*
X026497Y032900D02*
X027527Y031870D01*
X027346Y032900D02*
X027527Y032719D01*
X027063Y032900D02*
X027527Y032436D01*
G54D11*
X024735Y020450D03*
X024065D03*
X012585Y023800D03*
X011915D03*
X022615Y014400D03*
X023285D03*
X025065Y029600D03*
X025735D03*
Y030450D03*
X025065D03*
X022385Y023800D03*
X021715D03*
X020285Y025300D03*
X019615D03*
G54D12*
X017017Y020014D03*
Y021786D03*
X012800Y020014D03*
Y021786D03*
X014205Y021904D03*
Y020132D03*
X015611Y021904D03*
Y020132D03*
G54D13*
X022100Y025285D03*
Y024615D03*
X021500Y025285D03*
Y024615D03*
X020900Y025285D03*
Y024615D03*
X021450Y030485D03*
Y029815D03*
X018450Y028265D03*
Y028935D03*
G54D14*
X017400Y028974D03*
X017774Y028226D03*
X017026D03*
G54D15*
X020048Y026528D03*
X020304D03*
X020560D03*
X020816D03*
X021072D03*
X021328D03*
X021584D03*
X021840D03*
X022096D03*
X022352D03*
X020048Y028772D03*
X020304D03*
X020560D03*
X020816D03*
X021072D03*
X021328D03*
X021584D03*
X021840D03*
X022096D03*
X022352D03*
G54D16*
X026452Y029600D03*
X027200D03*
X026826Y030427D03*
G54D17*
X022150Y030474D03*
Y029726D03*
G54D18*
X022598Y012362D02*
X022615Y012379D01*
Y014400*
X025354Y012362D02*
X026962D01*
X027400Y012800*
Y017600*
X026700Y018300D02*
X027400Y017600D01*
X023285Y014400D02*
X023785Y013900D01*
X026300*
X027050Y014650*
Y017050*
X025800Y018300D02*
X027050Y017050D01*
X025700Y018300D02*
X025800D01*
X025850Y020450D02*
X026700Y021300D01*
X011050Y027950D02*
X011800Y028700D01*
X011050Y022250D02*
Y027950D01*
Y022250D02*
X011514Y021786D01*
X012800*
Y021200D02*
Y021786D01*
Y021200D02*
X013000Y021000D01*
X016700*
X017017Y021317*
Y021786*
X012800Y028000D02*
Y028700D01*
Y028000D02*
X013200Y027600D01*
X025050Y030465D02*
X025065Y030450D01*
X025735D02*
X026803D01*
X026826Y030427*
X025735Y029600D02*
X026452D01*
X022385Y023800D02*
X023169D01*
X023189Y023780*
X020900Y024615D02*
X021500D01*
X021715Y023800D02*
Y024600D01*
X021700Y024615D02*
X021715Y024600D01*
X021500Y024615D02*
X021700D01*
X022100*
X015650Y030000D02*
Y031600D01*
X013200Y027600D02*
X014100D01*
X014500Y028000*
Y028850*
X015650Y030000*
X024735Y020450D02*
X025200D01*
X025850*
X025050Y030465D02*
Y031600D01*
X012585Y023800D02*
X013326D01*
X013346Y023780*
G54D19*
X010800Y013924D02*
X012362Y012362D01*
X010800Y013924D02*
Y014907D01*
X012350Y033750D02*
Y034600D01*
X011900Y033300D02*
X012350Y033750D01*
X010950Y033300D02*
X011900D01*
X010450Y033800D02*
X010950Y033300D01*
X010450Y033800D02*
Y038300D01*
X011800Y039650*
X012485*
X013937Y041102*
X013350Y034600D02*
X013800Y034150D01*
Y031700D02*
Y034150D01*
X015600Y040797D02*
X015906Y041102D01*
X015600Y037300D02*
Y040797D01*
X017874Y039974D02*
Y041102D01*
X016600Y038700D02*
X017874Y039974D01*
X016600Y037300D02*
Y038700D01*
X019843Y037507D02*
Y041102D01*
Y037507D02*
X020050Y037300D01*
X021811Y039611D02*
Y041102D01*
X021050Y038850D02*
X021811Y039611D01*
X021050Y037300D02*
Y038850D01*
X023780Y038020D02*
Y041102D01*
Y038020D02*
X024500Y037300D01*
X025500Y040854D02*
X025748Y041102D01*
X025500Y037300D02*
Y040854D01*
X026500Y035050D02*
Y037300D01*
X022050Y034800D02*
Y037300D01*
X021850Y034600D02*
X022050Y034800D01*
X017600Y037300D02*
X017650Y037250D01*
Y034600D02*
Y037250D01*
X010800Y016800D02*
Y019493D01*
Y016800D02*
X012100Y015500D01*
Y014900D02*
Y015500D01*
Y018900D02*
Y019314D01*
X012800Y020014*
X014087*
X014205Y020132*
Y021904D02*
X015611D01*
Y020132D02*
X016899D01*
X017017Y020014*
X013750Y016850D02*
X015611Y018711D01*
Y020132*
X020650Y016850D02*
X022411D01*
X017300Y013500D02*
X020650Y016850D01*
X016256Y013500D02*
X017300D01*
X015118Y012362D02*
X016256Y013500D01*
X017017Y021786D02*
X019798D01*
X019800Y021784*
X015611Y021904D02*
X015741Y022034D01*
Y023700*
X026050Y034600D02*
X026500Y035050D01*
G54D20*
X021328Y027128D02*
X022100Y027900D01*
X024250*
X021328Y025922D02*
X021500Y025750D01*
Y025285D02*
Y025750D01*
X021584Y026984D02*
X022200Y027600D01*
X023550*
X024250Y026900*
Y026300D02*
Y026900D01*
X021584Y026066D02*
X022100Y025550D01*
Y025285D02*
Y025550D01*
X020900Y025650D02*
X021072Y025822D01*
X020900Y025285D02*
Y025650D01*
X020300Y025285D02*
X020900D01*
X020285Y025300D02*
X020300Y025285D01*
X022352Y026528D02*
X024370Y024509D01*
Y023780D02*
Y024509D01*
X022096Y026054D02*
X023750Y024400D01*
Y023450D02*
Y024400D01*
X023300Y023000D02*
X023750Y023450D01*
X021150Y023000D02*
X023300D01*
X020650Y023500D02*
X021150Y023000D01*
X020650Y023500D02*
Y024100D01*
X020200Y024550D02*
X020650Y024100D01*
X015298Y024550D02*
X020200D01*
X017774Y028226D02*
X018411D01*
X018450Y028265*
X020450Y027650D02*
X020816Y027284D01*
X017250Y030000D02*
X017800Y029450D01*
X019370*
X021584Y028316D02*
X021750Y028150D01*
X020976Y029574D02*
X021072Y029478D01*
X018450Y028265D02*
X019135D01*
X019750Y027650*
X020450*
X025200Y020450D02*
Y024100D01*
X024805Y024495D02*
X025200Y024100D01*
X021840Y026890D02*
X022200Y027250D01*
X022500*
X020976Y029574D02*
Y030500D01*
X024805Y024495D02*
Y028095D01*
X024500Y028400D02*
X024805Y028095D01*
X021750Y028150D02*
X023750D01*
X024000Y028400*
X024500*
X024600Y029600D02*
X025065D01*
X021328Y029328D02*
X021450Y029450D01*
Y029815*
X019250Y030000D02*
X019700D01*
X020304Y029396*
X019850Y027300D02*
X020048Y027102D01*
X021840Y026528D02*
Y026890D01*
X021584Y028316D02*
Y028772D01*
Y026528D02*
Y026984D01*
Y026066D02*
Y026528D01*
X021328Y025922D02*
Y026528D01*
Y027128*
X022096Y026054D02*
Y026528D01*
X020816D02*
Y027284D01*
X019370Y029450D02*
X020048Y028772D01*
X021328D02*
Y029328D01*
X020048Y026528D02*
Y027102D01*
X020304Y028772D02*
Y029396D01*
X021072Y028772D02*
Y029478D01*
Y025822D02*
Y026528D01*
X014528Y023780D02*
X015298Y024550D01*
X011599Y023800D02*
X011915D01*
X013653Y021904D02*
X014205D01*
X011915Y023503D02*
Y023800D01*
Y024097*
X013556Y026084D02*
Y026450D01*
Y026816*
X013191Y026450D02*
X013556D01*
X015611Y021904D02*
X016164D01*
X015247Y023700D02*
X015741D01*
Y024194*
X019800Y019420D02*
Y019816D01*
X019405D02*
X019800D01*
Y020211*
Y019816D02*
X020195D01*
X019600Y027300D02*
X019850D01*
Y027050D02*
Y027300D01*
X019880Y026528D02*
X020048D01*
Y026074D02*
Y026528D01*
X019850Y027300D02*
X020100D01*
X017026Y027831D02*
Y028226D01*
X016808D02*
X017026D01*
X017244*
X017855Y030000D02*
X018250D01*
X018645*
X018250D02*
Y030395D01*
X021100Y023500D02*
X021350D01*
X021399Y023800D02*
X021715D01*
X023749Y020450D02*
X024065D01*
Y020747*
Y020153D02*
Y020450D01*
X021715Y023503D02*
Y023800D01*
X021100Y023950D02*
Y024200D01*
X021500Y024299D02*
Y024615D01*
X020603D02*
X020900D01*
Y024299D02*
Y024615D01*
X022100Y024299D02*
Y024615D01*
X022397*
X025250Y025905D02*
Y026300D01*
X025645*
X021328Y028318D02*
Y028772D01*
X022150Y029370D02*
Y029726D01*
X025250Y027900D02*
X025645D01*
X027200Y029600D02*
Y029956D01*
X026982Y029600D02*
X027200D01*
Y029244D02*
Y029600D01*
X027418*
G54D21*
X014344Y026450D02*
X015400D01*
X019000Y025300D02*
X019615D01*
X016400Y027275D02*
X016500Y027175D01*
X018435Y028950D02*
X018450Y028935D01*
X016400Y027275D02*
Y028950D01*
Y030300*
X016900Y030800*
X019400*
X019700Y030500*
X020976*
X026250Y026300D02*
Y027900D01*
Y022900D02*
Y026300D01*
X025700Y022350D02*
X026250Y022900D01*
X025700Y021300D02*
Y022350D01*
X022124Y030500D02*
X022150Y030474D01*
X023376*
X026250Y027900D02*
Y028600D01*
X025750Y029100D02*
X026250Y028600D01*
X023376Y030474D02*
X024100Y029750D01*
Y029450D02*
Y029750D01*
Y029450D02*
X024450Y029100D01*
X025750*
X025250Y026300D02*
Y027900D01*
Y028400*
X024950Y028700D02*
X025250Y028400D01*
X024200Y028700D02*
X024950D01*
X023085Y029815D02*
X024200Y028700D01*
X016400Y028950D02*
X018435D01*
X020976Y030500D02*
X022124D01*
X021450Y029815D02*
X023085D01*
G54D22*
X017075Y026175D03*
G54D23*
X018700Y022918D03*
G54D24*
X016200Y023250D03*
G54D25*
X014900Y022575D03*
G54D26*
X012362Y012362D03*
X015118D03*
X017874Y041102D03*
X015906D03*
X021811D03*
X019843D03*
X025748D03*
X023780D03*
X013937D03*
X011968D03*
X022598Y012362D03*
X025354D03*
G54D27*
X024250Y027900D03*
X025250D03*
X026700Y021300D03*
X025700D03*
X026700Y018300D03*
X024250Y026300D03*
X025250D03*
X019250Y030000D03*
X018250D03*
X010800Y019493D03*
X019800Y019816D03*
G54D28*
X026250Y027900D03*
Y026300D03*
X017250Y030000D03*
G54D29*
X015650Y031600D03*
X019850D03*
X024050D03*
X011800Y028700D03*
G54D30*
X016650Y031600D03*
X017650D03*
X015650Y034600D03*
X016650D03*
X017650D03*
X020850Y031600D03*
X021850D03*
X019850Y034600D03*
X020850D03*
X021850D03*
X025050Y031600D03*
X026050D03*
X024050Y034600D03*
X025050D03*
X026050D03*
X012800Y028700D03*
X013800D03*
X011800Y031700D03*
X012800D03*
X013800D03*
G54D31*
X017600Y037300D03*
X016600D03*
X022050D03*
X021050D03*
X026500D03*
X025500D03*
X013350Y034600D03*
X012350D03*
G54D32*
X015600Y037300D03*
X020050D03*
X024500D03*
X011350Y034600D03*
G54D33*
X023189Y023780D03*
X024370D03*
X013346D03*
X014528D03*
G54D34*
X013750Y016850D03*
X022411D03*
G54D35*
X025700Y018300D03*
X010800Y014907D03*
X019800Y021784D03*
G54D36*
X017300Y013500D03*
X020300D03*
X012100Y018900D03*
Y014900D03*
G54D37*
X019859Y023700D03*
G54D38*
X015741Y023700D03*
G54D39*
X014344Y026450D03*
G54D40*
X013556Y026450D03*
G54D41*
X015850Y026675D03*
Y026150D03*
Y025638D03*
Y025100D03*
X016433D03*
Y025638D03*
Y026150D03*
Y026675D03*
X017017Y025638D03*
Y026150D03*
Y026675D03*
X017600Y025100D03*
Y025638D03*
Y026150D03*
Y026675D03*
X022500Y027250D03*
X024600Y029600D03*
X019850Y027300D03*
X021100Y023950D03*
Y023500D03*
X017017Y025100D03*
M02*