%FSDAX24Y24*%
%MOIN*%
%SFA1B1*%

%IPPOS*%
%ADD85C,0.002000*%
%LNde-230724-1*%
%LPD*%
G54D85*
X024173Y016299D02*
X025748D01*
X024961Y015512D02*
Y017087D01*
X011969Y037165D02*
X013543D01*
X012756Y036378D02*
Y037953D01*
X012165Y012362D02*
X012559D01*
X012362Y012165D02*
Y012559D01*
X014921Y012362D02*
X015315D01*
X015118Y012165D02*
Y012559D01*
X017677Y041102D02*
X018071D01*
X017874Y040906D02*
Y041299D01*
X015709Y041102D02*
X016102D01*
X015906Y040906D02*
Y041299D01*
X021614Y041102D02*
X022008D01*
X021811Y040906D02*
Y041299D01*
X019646Y041102D02*
X020039D01*
X019843Y040906D02*
Y041299D01*
X025551Y041102D02*
X025945D01*
X025748Y040906D02*
Y041299D01*
X023583Y041102D02*
X023976D01*
X023780Y040906D02*
Y041299D01*
X024073Y027900D02*
X024427D01*
X024250Y027723D02*
Y028077D01*
X025073Y027900D02*
X025427D01*
X025250Y027723D02*
Y028077D01*
X026073Y027900D02*
X026427D01*
X026250Y027723D02*
Y028077D01*
X015532Y031600D02*
X015768D01*
X015650Y031482D02*
Y031718D01*
X016532Y031600D02*
X016768D01*
X016650Y031482D02*
Y031718D01*
X017532Y031600D02*
X017768D01*
X017650Y031482D02*
Y031718D01*
X015532Y034600D02*
X015768D01*
X015650Y034482D02*
Y034718D01*
X016532Y034600D02*
X016768D01*
X016650Y034482D02*
Y034718D01*
X017532Y034600D02*
X017768D01*
X017650Y034482D02*
Y034718D01*
X019732Y031600D02*
X019968D01*
X019850Y031482D02*
Y031718D01*
X020732Y031600D02*
X020968D01*
X020850Y031482D02*
Y031718D01*
X021732Y031600D02*
X021968D01*
X021850Y031482D02*
Y031718D01*
X019732Y034600D02*
X019968D01*
X019850Y034482D02*
Y034718D01*
X020732Y034600D02*
X020968D01*
X020850Y034482D02*
Y034718D01*
X021732Y034600D02*
X021968D01*
X021850Y034482D02*
Y034718D01*
X023932Y031600D02*
X024168D01*
X024050Y031482D02*
Y031718D01*
X024932Y031600D02*
X025168D01*
X025050Y031482D02*
Y031718D01*
X025932Y031600D02*
X026168D01*
X026050Y031482D02*
Y031718D01*
X023932Y034600D02*
X024168D01*
X024050Y034482D02*
Y034718D01*
X024932Y034600D02*
X025168D01*
X025050Y034482D02*
Y034718D01*
X025932Y034600D02*
X026168D01*
X026050Y034482D02*
Y034718D01*
X017403Y037300D02*
X017797D01*
X017600Y037103D02*
Y037497D01*
X016403Y037300D02*
X016797D01*
X016600Y037103D02*
Y037497D01*
X015403Y037300D02*
X015797D01*
X015600Y037103D02*
Y037497D01*
X021853Y037300D02*
X022247D01*
X022050Y037103D02*
Y037497D01*
X020853Y037300D02*
X021247D01*
X021050Y037103D02*
Y037497D01*
X019853Y037300D02*
X020247D01*
X020050Y037103D02*
Y037497D01*
X026303Y037300D02*
X026697D01*
X026500Y037103D02*
Y037497D01*
X025303Y037300D02*
X025697D01*
X025500Y037103D02*
Y037497D01*
X024303Y037300D02*
X024697D01*
X024500Y037103D02*
Y037497D01*
X023039Y023780D02*
X023339D01*
X023189Y023630D02*
Y023930D01*
X024220Y023780D02*
X024520D01*
X024370Y023630D02*
Y023930D01*
X013196Y023780D02*
X013496D01*
X013346Y023630D02*
Y023930D01*
X014378Y023780D02*
X014678D01*
X014528Y023630D02*
Y023930D01*
X013740Y041102D02*
X014134D01*
X013937Y040906D02*
Y041299D01*
X011772Y041102D02*
X012165D01*
X011968Y040906D02*
Y041299D01*
X013593Y016850D02*
X013907D01*
X013750Y016693D02*
Y017007D01*
X022254Y016850D02*
X022569D01*
X022411Y016693D02*
Y017007D01*
X026523Y021300D02*
X026877D01*
X026700Y021123D02*
Y021477D01*
X025523Y021300D02*
X025877D01*
X025700Y021123D02*
Y021477D01*
X026523Y018300D02*
X026877D01*
X026700Y018123D02*
Y018477D01*
X025523Y018300D02*
X025877D01*
X025700Y018123D02*
Y018477D01*
X017133Y013500D02*
X017467D01*
X017300Y013333D02*
Y013667D01*
X020133Y013500D02*
X020467D01*
X020300Y013333D02*
Y013667D01*
X011933Y018900D02*
X012267D01*
X012100Y018733D02*
Y019067D01*
X011933Y014900D02*
X012267D01*
X012100Y014733D02*
Y015067D01*
X024073Y026300D02*
X024427D01*
X024250Y026123D02*
Y026477D01*
X025073Y026300D02*
X025427D01*
X025250Y026123D02*
Y026477D01*
X026073Y026300D02*
X026427D01*
X026250Y026123D02*
Y026477D01*
X019073Y030000D02*
X019427D01*
X019250Y029823D02*
Y030177D01*
X018073Y030000D02*
X018427D01*
X018250Y029823D02*
Y030177D01*
X017073Y030000D02*
X017427D01*
X017250Y029823D02*
Y030177D01*
X010623Y014907D02*
X010977D01*
X010800Y014730D02*
Y015084D01*
X010623Y019493D02*
X010977D01*
X010800Y019316D02*
Y019670D01*
X019623Y023700D02*
X020095D01*
X019859Y023464D02*
Y023936D01*
X015505Y023700D02*
X015977D01*
X015741Y023464D02*
Y023936D01*
X019623Y021784D02*
X019977D01*
X019800Y021607D02*
Y021961D01*
X019623Y019816D02*
X019977D01*
X019800Y019639D02*
Y019993D01*
X014186Y026450D02*
X014501D01*
X014344Y026293D02*
Y026607D01*
X013399Y026450D02*
X013714D01*
X013556Y026293D02*
Y026607D01*
X013153Y034600D02*
X013547D01*
X013350Y034403D02*
Y034797D01*
X012153Y034600D02*
X012547D01*
X012350Y034403D02*
Y034797D01*
X011153Y034600D02*
X011547D01*
X011350Y034403D02*
Y034797D01*
X011682Y028700D02*
X011918D01*
X011800Y028582D02*
Y028818D01*
X012682Y028700D02*
X012918D01*
X012800Y028582D02*
Y028818D01*
X013682Y028700D02*
X013918D01*
X013800Y028582D02*
Y028818D01*
X011682Y031700D02*
X011918D01*
X011800Y031582D02*
Y031818D01*
X012682Y031700D02*
X012918D01*
X012800Y031582D02*
Y031818D01*
X013682Y031700D02*
X013918D01*
X013800Y031582D02*
Y031818D01*
X022402Y012362D02*
X022795D01*
X022598Y012165D02*
Y012559D01*
X025157Y012362D02*
X025551D01*
X025354Y012165D02*
Y012559D01*
X015800Y026675D02*
X015900D01*
X015850Y026625D02*
Y026725D01*
X015800Y026150D02*
X015900D01*
X015850Y026100D02*
Y026200D01*
X015800Y025638D02*
X015900D01*
X015850Y025587D02*
Y025687D01*
X015800Y025100D02*
X015900D01*
X015850Y025050D02*
Y025150D01*
X016383Y025100D02*
X016483D01*
X016433Y025050D02*
Y025150D01*
X016383Y025638D02*
X016483D01*
X016433Y025587D02*
Y025687D01*
X016383Y026150D02*
X016483D01*
X016433Y026100D02*
Y026200D01*
X016383Y026675D02*
X016483D01*
X016433Y026625D02*
Y026725D01*
X016967Y025638D02*
X017067D01*
X017017Y025587D02*
Y025687D01*
X016967Y026150D02*
X017067D01*
X017017Y026100D02*
Y026200D01*
X016967Y026675D02*
X017067D01*
X017017Y026625D02*
Y026725D01*
X017550Y025100D02*
X017650D01*
X017600Y025050D02*
Y025150D01*
X017550Y025638D02*
X017650D01*
X017600Y025587D02*
Y025687D01*
X017550Y026150D02*
X017650D01*
X017600Y026100D02*
Y026200D01*
X017550Y026675D02*
X017650D01*
X017600Y026625D02*
Y026725D01*
X022450Y027250D02*
X022550D01*
X022500Y027200D02*
Y027300D01*
X024550Y029600D02*
X024650D01*
X024600Y029550D02*
Y029650D01*
X019800Y027300D02*
X019900D01*
X019850Y027250D02*
Y027350D01*
X021050Y023950D02*
X021150D01*
X021100Y023900D02*
Y024000D01*
X021050Y023500D02*
X021150D01*
X021100Y023450D02*
Y023550D01*
X016967Y025100D02*
X017067D01*
X017017Y025050D02*
Y025150D01*
M02*