%FSDAX24Y24*%
%MOIN*%
%SFA1B1*%

%IPPOS*%
%ADD20C,0.010000*%
%ADD82C,0.003900*%
%ADD83C,0.006000*%
%LNde-230724-1*%
%LPD*%
G54D20*
X013143Y012362D02*
D01*
X013141Y012416*
X013135Y012471*
X013125Y012525*
X013112Y012578*
X013095Y012631*
X013074Y012682*
X013050Y012731*
X013023Y012779*
X012992Y012824*
X012958Y012867*
X012922Y012908*
X012882Y012946*
X012840Y012982*
X012796Y013014*
X012749Y013043*
X012700Y013069*
X012650Y013091*
X012599Y013110*
X012546Y013125*
X012492Y013137*
X012438Y013144*
X012383Y013148*
X012328*
X012273Y013144*
X012219Y013137*
X012165Y013125*
X012112Y013110*
X012061Y013091*
X012011Y013069*
X011962Y013043*
X011915Y013014*
X011871Y012982*
X011829Y012946*
X011789Y012908*
X011753Y012867*
X011719Y012824*
X011688Y012779*
X011661Y012731*
X011637Y012682*
X011616Y012631*
X011599Y012578*
X011586Y012525*
X011576Y012471*
X011570Y012416*
X011569Y012362*
X011570Y012307*
X011576Y012252*
X011586Y012198*
X011599Y012145*
X011616Y012092*
X011637Y012041*
X011661Y011992*
X011688Y011944*
X011719Y011899*
X011753Y011856*
X011789Y011815*
X011829Y011777*
X011871Y011741*
X011915Y011709*
X011962Y011680*
X012011Y011654*
X012061Y011632*
X012112Y011613*
X012165Y011598*
X012219Y011586*
X012273Y011579*
X012328Y011575*
X012383*
X012438Y011579*
X012492Y011586*
X012546Y011598*
X012599Y011613*
X012650Y011632*
X012700Y011654*
X012749Y011680*
X012796Y011709*
X012840Y011741*
X012882Y011777*
X012922Y011815*
X012958Y011856*
X012992Y011899*
X013023Y011944*
X013050Y011992*
X013074Y012041*
X013095Y012092*
X013112Y012145*
X013125Y012198*
X013135Y012252*
X013141Y012307*
X013143Y012362*
X015928D02*
D01*
X015926Y012416*
X015920Y012471*
X015910Y012525*
X015897Y012578*
X015880Y012631*
X015859Y012682*
X015835Y012731*
X015808Y012779*
X015777Y012824*
X015743Y012867*
X015707Y012908*
X015667Y012946*
X015625Y012982*
X015581Y013014*
X015534Y013043*
X015485Y013069*
X015435Y013091*
X015384Y013110*
X015331Y013125*
X015277Y013137*
X015223Y013144*
X015168Y013148*
X015113*
X015058Y013144*
X015004Y013137*
X014950Y013125*
X014897Y013110*
X014846Y013091*
X014796Y013069*
X014747Y013043*
X014700Y013014*
X014656Y012982*
X014614Y012946*
X014574Y012908*
X014538Y012867*
X014504Y012824*
X014473Y012779*
X014446Y012731*
X014422Y012682*
X014401Y012631*
X014384Y012578*
X014371Y012525*
X014361Y012471*
X014355Y012416*
X014354Y012362*
X014355Y012307*
X014361Y012252*
X014371Y012198*
X014384Y012145*
X014401Y012092*
X014422Y012041*
X014446Y011992*
X014473Y011944*
X014504Y011899*
X014538Y011856*
X014574Y011815*
X014614Y011777*
X014656Y011741*
X014700Y011709*
X014747Y011680*
X014796Y011654*
X014846Y011632*
X014897Y011613*
X014950Y011598*
X015004Y011586*
X015058Y011579*
X015113Y011575*
X015168*
X015223Y011579*
X015277Y011586*
X015331Y011598*
X015384Y011613*
X015435Y011632*
X015485Y011654*
X015534Y011680*
X015581Y011709*
X015625Y011741*
X015667Y011777*
X015707Y011815*
X015743Y011856*
X015777Y011899*
X015808Y011944*
X015835Y011992*
X015859Y012041*
X015880Y012092*
X015897Y012145*
X015910Y012198*
X015920Y012252*
X015926Y012307*
X015928Y012362*
X018661Y041102D02*
D01*
X018659Y041156*
X018653Y041211*
X018643Y041265*
X018630Y041318*
X018613Y041371*
X018592Y041422*
X018568Y041471*
X018541Y041519*
X018510Y041564*
X018476Y041607*
X018440Y041648*
X018400Y041686*
X018358Y041722*
X018314Y041754*
X018267Y041783*
X018218Y041809*
X018168Y041831*
X018117Y041850*
X018064Y041865*
X018010Y041877*
X017956Y041884*
X017901Y041888*
X017846*
X017791Y041884*
X017737Y041877*
X017683Y041865*
X017630Y041850*
X017579Y041831*
X017529Y041809*
X017480Y041783*
X017433Y041754*
X017389Y041722*
X017347Y041686*
X017307Y041648*
X017271Y041607*
X017237Y041564*
X017206Y041519*
X017179Y041471*
X017155Y041422*
X017134Y041371*
X017117Y041318*
X017104Y041265*
X017094Y041211*
X017088Y041156*
X017087Y041102*
X017088Y041047*
X017094Y040992*
X017104Y040938*
X017117Y040885*
X017134Y040832*
X017155Y040781*
X017179Y040732*
X017206Y040684*
X017237Y040639*
X017271Y040596*
X017307Y040555*
X017347Y040517*
X017389Y040481*
X017433Y040449*
X017480Y040420*
X017529Y040394*
X017579Y040372*
X017630Y040353*
X017683Y040338*
X017737Y040326*
X017791Y040319*
X017846Y040315*
X017901*
X017956Y040319*
X018010Y040326*
X018064Y040338*
X018117Y040353*
X018168Y040372*
X018218Y040394*
X018267Y040420*
X018314Y040449*
X018358Y040481*
X018400Y040517*
X018440Y040555*
X018476Y040596*
X018510Y040639*
X018541Y040684*
X018568Y040732*
X018592Y040781*
X018613Y040832*
X018630Y040885*
X018643Y040938*
X018653Y040992*
X018659Y041047*
X018661Y041102*
X016677D02*
D01*
X016675Y041156*
X016669Y041211*
X016659Y041265*
X016646Y041318*
X016629Y041371*
X016608Y041422*
X016584Y041471*
X016557Y041519*
X016526Y041564*
X016492Y041607*
X016456Y041648*
X016416Y041686*
X016374Y041722*
X016330Y041754*
X016283Y041783*
X016234Y041809*
X016184Y041831*
X016133Y041850*
X016080Y041865*
X016026Y041877*
X015972Y041884*
X015917Y041888*
X015862*
X015807Y041884*
X015753Y041877*
X015699Y041865*
X015646Y041850*
X015595Y041831*
X015545Y041809*
X015496Y041783*
X015449Y041754*
X015405Y041722*
X015363Y041686*
X015323Y041648*
X015287Y041607*
X015253Y041564*
X015222Y041519*
X015195Y041471*
X015171Y041422*
X015150Y041371*
X015133Y041318*
X015120Y041265*
X015110Y041211*
X015104Y041156*
X015103Y041102*
X015104Y041047*
X015110Y040992*
X015120Y040938*
X015133Y040885*
X015150Y040832*
X015171Y040781*
X015195Y040732*
X015222Y040684*
X015253Y040639*
X015287Y040596*
X015323Y040555*
X015363Y040517*
X015405Y040481*
X015449Y040449*
X015496Y040420*
X015545Y040394*
X015595Y040372*
X015646Y040353*
X015699Y040338*
X015753Y040326*
X015807Y040319*
X015862Y040315*
X015917*
X015972Y040319*
X016026Y040326*
X016080Y040338*
X016133Y040353*
X016184Y040372*
X016234Y040394*
X016283Y040420*
X016330Y040449*
X016374Y040481*
X016416Y040517*
X016456Y040555*
X016492Y040596*
X016526Y040639*
X016557Y040684*
X016584Y040732*
X016608Y040781*
X016629Y040832*
X016646Y040885*
X016659Y040938*
X016669Y040992*
X016675Y041047*
X016677Y041102*
X022598D02*
D01*
X022596Y041156*
X022590Y041211*
X022580Y041265*
X022567Y041318*
X022550Y041371*
X022529Y041422*
X022505Y041471*
X022478Y041519*
X022447Y041564*
X022413Y041607*
X022377Y041648*
X022337Y041686*
X022295Y041722*
X022251Y041754*
X022204Y041783*
X022155Y041809*
X022105Y041831*
X022054Y041850*
X022001Y041865*
X021947Y041877*
X021893Y041884*
X021838Y041888*
X021783*
X021728Y041884*
X021674Y041877*
X021620Y041865*
X021567Y041850*
X021516Y041831*
X021466Y041809*
X021417Y041783*
X021370Y041754*
X021326Y041722*
X021284Y041686*
X021244Y041648*
X021208Y041607*
X021174Y041564*
X021143Y041519*
X021116Y041471*
X021092Y041422*
X021071Y041371*
X021054Y041318*
X021041Y041265*
X021031Y041211*
X021025Y041156*
X021024Y041102*
X021025Y041047*
X021031Y040992*
X021041Y040938*
X021054Y040885*
X021071Y040832*
X021092Y040781*
X021116Y040732*
X021143Y040684*
X021174Y040639*
X021208Y040596*
X021244Y040555*
X021284Y040517*
X021326Y040481*
X021370Y040449*
X021417Y040420*
X021466Y040394*
X021516Y040372*
X021567Y040353*
X021620Y040338*
X021674Y040326*
X021728Y040319*
X021783Y040315*
X021838*
X021893Y040319*
X021947Y040326*
X022001Y040338*
X022054Y040353*
X022105Y040372*
X022155Y040394*
X022204Y040420*
X022251Y040449*
X022295Y040481*
X022337Y040517*
X022377Y040555*
X022413Y040596*
X022447Y040639*
X022478Y040684*
X022505Y040732*
X022529Y040781*
X022550Y040832*
X022567Y040885*
X022580Y040938*
X022590Y040992*
X022596Y041047*
X022598Y041102*
X020614D02*
D01*
X020612Y041156*
X020606Y041211*
X020596Y041265*
X020583Y041318*
X020566Y041371*
X020545Y041422*
X020521Y041471*
X020494Y041519*
X020463Y041564*
X020429Y041607*
X020393Y041648*
X020353Y041686*
X020311Y041722*
X020267Y041754*
X020220Y041783*
X020171Y041809*
X020121Y041831*
X020070Y041850*
X020017Y041865*
X019963Y041877*
X019909Y041884*
X019854Y041888*
X019799*
X019744Y041884*
X019690Y041877*
X019636Y041865*
X019583Y041850*
X019532Y041831*
X019482Y041809*
X019433Y041783*
X019386Y041754*
X019342Y041722*
X019300Y041686*
X019260Y041648*
X019224Y041607*
X019190Y041564*
X019159Y041519*
X019132Y041471*
X019108Y041422*
X019087Y041371*
X019070Y041318*
X019057Y041265*
X019047Y041211*
X019041Y041156*
X019040Y041102*
X019041Y041047*
X019047Y040992*
X019057Y040938*
X019070Y040885*
X019087Y040832*
X019108Y040781*
X019132Y040732*
X019159Y040684*
X019190Y040639*
X019224Y040596*
X019260Y040555*
X019300Y040517*
X019342Y040481*
X019386Y040449*
X019433Y040420*
X019482Y040394*
X019532Y040372*
X019583Y040353*
X019636Y040338*
X019690Y040326*
X019744Y040319*
X019799Y040315*
X019854*
X019909Y040319*
X019963Y040326*
X020017Y040338*
X020070Y040353*
X020121Y040372*
X020171Y040394*
X020220Y040420*
X020267Y040449*
X020311Y040481*
X020353Y040517*
X020393Y040555*
X020429Y040596*
X020463Y040639*
X020494Y040684*
X020521Y040732*
X020545Y040781*
X020566Y040832*
X020583Y040885*
X020596Y040938*
X020606Y040992*
X020612Y041047*
X020614Y041102*
X026535D02*
D01*
X026533Y041156*
X026527Y041211*
X026517Y041265*
X026504Y041318*
X026487Y041371*
X026466Y041422*
X026442Y041471*
X026415Y041519*
X026384Y041564*
X026350Y041607*
X026314Y041648*
X026274Y041686*
X026232Y041722*
X026188Y041754*
X026141Y041783*
X026092Y041809*
X026042Y041831*
X025991Y041850*
X025938Y041865*
X025884Y041877*
X025830Y041884*
X025775Y041888*
X025720*
X025665Y041884*
X025611Y041877*
X025557Y041865*
X025504Y041850*
X025453Y041831*
X025403Y041809*
X025354Y041783*
X025307Y041754*
X025263Y041722*
X025221Y041686*
X025181Y041648*
X025145Y041607*
X025111Y041564*
X025080Y041519*
X025053Y041471*
X025029Y041422*
X025008Y041371*
X024991Y041318*
X024978Y041265*
X024968Y041211*
X024962Y041156*
X024961Y041102*
X024962Y041047*
X024968Y040992*
X024978Y040938*
X024991Y040885*
X025008Y040832*
X025029Y040781*
X025053Y040732*
X025080Y040684*
X025111Y040639*
X025145Y040596*
X025181Y040555*
X025221Y040517*
X025263Y040481*
X025307Y040449*
X025354Y040420*
X025403Y040394*
X025453Y040372*
X025504Y040353*
X025557Y040338*
X025611Y040326*
X025665Y040319*
X025720Y040315*
X025775*
X025830Y040319*
X025884Y040326*
X025938Y040338*
X025991Y040353*
X026042Y040372*
X026092Y040394*
X026141Y040420*
X026188Y040449*
X026232Y040481*
X026274Y040517*
X026314Y040555*
X026350Y040596*
X026384Y040639*
X026415Y040684*
X026442Y040732*
X026466Y040781*
X026487Y040832*
X026504Y040885*
X026517Y040938*
X026527Y040992*
X026533Y041047*
X026535Y041102*
X024551D02*
D01*
X024549Y041156*
X024543Y041211*
X024533Y041265*
X024520Y041318*
X024503Y041371*
X024482Y041422*
X024458Y041471*
X024431Y041519*
X024400Y041564*
X024366Y041607*
X024330Y041648*
X024290Y041686*
X024248Y041722*
X024204Y041754*
X024157Y041783*
X024108Y041809*
X024058Y041831*
X024007Y041850*
X023954Y041865*
X023900Y041877*
X023846Y041884*
X023791Y041888*
X023736*
X023681Y041884*
X023627Y041877*
X023573Y041865*
X023520Y041850*
X023469Y041831*
X023419Y041809*
X023370Y041783*
X023323Y041754*
X023279Y041722*
X023237Y041686*
X023197Y041648*
X023161Y041607*
X023127Y041564*
X023096Y041519*
X023069Y041471*
X023045Y041422*
X023024Y041371*
X023007Y041318*
X022994Y041265*
X022984Y041211*
X022978Y041156*
X022977Y041102*
X022978Y041047*
X022984Y040992*
X022994Y040938*
X023007Y040885*
X023024Y040832*
X023045Y040781*
X023069Y040732*
X023096Y040684*
X023127Y040639*
X023161Y040596*
X023197Y040555*
X023237Y040517*
X023279Y040481*
X023323Y040449*
X023370Y040420*
X023419Y040394*
X023469Y040372*
X023520Y040353*
X023573Y040338*
X023627Y040326*
X023681Y040319*
X023736Y040315*
X023791*
X023846Y040319*
X023900Y040326*
X023954Y040338*
X024007Y040353*
X024058Y040372*
X024108Y040394*
X024157Y040420*
X024204Y040449*
X024248Y040481*
X024290Y040517*
X024330Y040555*
X024366Y040596*
X024400Y040639*
X024431Y040684*
X024458Y040732*
X024482Y040781*
X024503Y040832*
X024520Y040885*
X024533Y040938*
X024543Y040992*
X024549Y041047*
X024551Y041102*
X014724D02*
D01*
X014722Y041156*
X014716Y041211*
X014706Y041265*
X014693Y041318*
X014676Y041371*
X014655Y041422*
X014631Y041471*
X014604Y041519*
X014573Y041564*
X014539Y041607*
X014503Y041648*
X014463Y041686*
X014421Y041722*
X014377Y041754*
X014330Y041783*
X014281Y041809*
X014231Y041831*
X014180Y041850*
X014127Y041865*
X014073Y041877*
X014019Y041884*
X013964Y041888*
X013909*
X013854Y041884*
X013800Y041877*
X013746Y041865*
X013693Y041850*
X013642Y041831*
X013592Y041809*
X013543Y041783*
X013496Y041754*
X013452Y041722*
X013410Y041686*
X013370Y041648*
X013334Y041607*
X013300Y041564*
X013269Y041519*
X013242Y041471*
X013218Y041422*
X013197Y041371*
X013180Y041318*
X013167Y041265*
X013157Y041211*
X013151Y041156*
X013150Y041102*
X013151Y041047*
X013157Y040992*
X013167Y040938*
X013180Y040885*
X013197Y040832*
X013218Y040781*
X013242Y040732*
X013269Y040684*
X013300Y040639*
X013334Y040596*
X013370Y040555*
X013410Y040517*
X013452Y040481*
X013496Y040449*
X013543Y040420*
X013592Y040394*
X013642Y040372*
X013693Y040353*
X013746Y040338*
X013800Y040326*
X013854Y040319*
X013909Y040315*
X013964*
X014019Y040319*
X014073Y040326*
X014127Y040338*
X014180Y040353*
X014231Y040372*
X014281Y040394*
X014330Y040420*
X014377Y040449*
X014421Y040481*
X014463Y040517*
X014503Y040555*
X014539Y040596*
X014573Y040639*
X014604Y040684*
X014631Y040732*
X014655Y040781*
X014676Y040832*
X014693Y040885*
X014706Y040938*
X014716Y040992*
X014722Y041047*
X014724Y041102*
X012740D02*
D01*
X012738Y041156*
X012732Y041211*
X012722Y041265*
X012709Y041318*
X012692Y041371*
X012671Y041422*
X012647Y041471*
X012620Y041519*
X012589Y041564*
X012555Y041607*
X012519Y041648*
X012479Y041686*
X012437Y041722*
X012393Y041754*
X012346Y041783*
X012297Y041809*
X012247Y041831*
X012196Y041850*
X012143Y041865*
X012089Y041877*
X012035Y041884*
X011980Y041888*
X011925*
X011870Y041884*
X011816Y041877*
X011762Y041865*
X011709Y041850*
X011658Y041831*
X011608Y041809*
X011559Y041783*
X011512Y041754*
X011468Y041722*
X011426Y041686*
X011386Y041648*
X011350Y041607*
X011316Y041564*
X011285Y041519*
X011258Y041471*
X011234Y041422*
X011213Y041371*
X011196Y041318*
X011183Y041265*
X011173Y041211*
X011167Y041156*
X011166Y041102*
X011167Y041047*
X011173Y040992*
X011183Y040938*
X011196Y040885*
X011213Y040832*
X011234Y040781*
X011258Y040732*
X011285Y040684*
X011316Y040639*
X011350Y040596*
X011386Y040555*
X011426Y040517*
X011468Y040481*
X011512Y040449*
X011559Y040420*
X011608Y040394*
X011658Y040372*
X011709Y040353*
X011762Y040338*
X011816Y040326*
X011870Y040319*
X011925Y040315*
X011980*
X012035Y040319*
X012089Y040326*
X012143Y040338*
X012196Y040353*
X012247Y040372*
X012297Y040394*
X012346Y040420*
X012393Y040449*
X012437Y040481*
X012479Y040517*
X012519Y040555*
X012555Y040596*
X012589Y040639*
X012620Y040684*
X012647Y040732*
X012671Y040781*
X012692Y040832*
X012709Y040885*
X012722Y040938*
X012732Y040992*
X012738Y041047*
X012740Y041102*
X023380Y012362D02*
D01*
X023378Y012416*
X023372Y012471*
X023362Y012525*
X023349Y012578*
X023332Y012631*
X023311Y012682*
X023287Y012731*
X023260Y012779*
X023229Y012824*
X023195Y012867*
X023159Y012908*
X023119Y012946*
X023077Y012982*
X023033Y013014*
X022986Y013043*
X022937Y013069*
X022887Y013091*
X022836Y013110*
X022783Y013125*
X022729Y013137*
X022675Y013144*
X022620Y013148*
X022565*
X022510Y013144*
X022456Y013137*
X022402Y013125*
X022349Y013110*
X022298Y013091*
X022248Y013069*
X022199Y013043*
X022152Y013014*
X022108Y012982*
X022066Y012946*
X022026Y012908*
X021990Y012867*
X021956Y012824*
X021925Y012779*
X021898Y012731*
X021874Y012682*
X021853Y012631*
X021836Y012578*
X021823Y012525*
X021813Y012471*
X021807Y012416*
X021806Y012362*
X021807Y012307*
X021813Y012252*
X021823Y012198*
X021836Y012145*
X021853Y012092*
X021874Y012041*
X021898Y011992*
X021925Y011944*
X021956Y011899*
X021990Y011856*
X022026Y011815*
X022066Y011777*
X022108Y011741*
X022152Y011709*
X022199Y011680*
X022248Y011654*
X022298Y011632*
X022349Y011613*
X022402Y011598*
X022456Y011586*
X022510Y011579*
X022565Y011575*
X022620*
X022675Y011579*
X022729Y011586*
X022783Y011598*
X022836Y011613*
X022887Y011632*
X022937Y011654*
X022986Y011680*
X023033Y011709*
X023077Y011741*
X023119Y011777*
X023159Y011815*
X023195Y011856*
X023229Y011899*
X023260Y011944*
X023287Y011992*
X023311Y012041*
X023332Y012092*
X023349Y012145*
X023362Y012198*
X023372Y012252*
X023378Y012307*
X023380Y012362*
X026164D02*
D01*
X026162Y012416*
X026156Y012471*
X026146Y012525*
X026133Y012578*
X026116Y012631*
X026095Y012682*
X026071Y012731*
X026044Y012779*
X026013Y012824*
X025979Y012867*
X025943Y012908*
X025903Y012946*
X025861Y012982*
X025817Y013014*
X025770Y013043*
X025721Y013069*
X025671Y013091*
X025620Y013110*
X025567Y013125*
X025513Y013137*
X025459Y013144*
X025404Y013148*
X025349*
X025294Y013144*
X025240Y013137*
X025186Y013125*
X025133Y013110*
X025082Y013091*
X025032Y013069*
X024983Y013043*
X024936Y013014*
X024892Y012982*
X024850Y012946*
X024810Y012908*
X024774Y012867*
X024740Y012824*
X024709Y012779*
X024682Y012731*
X024658Y012682*
X024637Y012631*
X024620Y012578*
X024607Y012525*
X024597Y012471*
X024591Y012416*
X024590Y012362*
X024591Y012307*
X024597Y012252*
X024607Y012198*
X024620Y012145*
X024637Y012092*
X024658Y012041*
X024682Y011992*
X024709Y011944*
X024740Y011899*
X024774Y011856*
X024810Y011815*
X024850Y011777*
X024892Y011741*
X024936Y011709*
X024983Y011680*
X025032Y011654*
X025082Y011632*
X025133Y011613*
X025186Y011598*
X025240Y011586*
X025294Y011579*
X025349Y011575*
X025404*
X025459Y011579*
X025513Y011586*
X025567Y011598*
X025620Y011613*
X025671Y011632*
X025721Y011654*
X025770Y011680*
X025817Y011709*
X025861Y011741*
X025903Y011777*
X025943Y011815*
X025979Y011856*
X026013Y011899*
X026044Y011944*
X026071Y011992*
X026095Y012041*
X026116Y012092*
X026133Y012145*
X026146Y012198*
X026156Y012252*
X026162Y012307*
X026164Y012362*
X023697Y017563D02*
X024404Y016856D01*
X024121Y017422D02*
X024404Y016856D01*
X023838Y017139D02*
X024404Y016856D01*
X026071Y015189D02*
X026611Y015730D01*
X025517Y015742D02*
X026071Y015189D01*
X025517Y015742D02*
X025800Y015177D01*
X025517Y015742D02*
X026083Y015460D01*
X011492Y038429D02*
X012199Y037722D01*
X011916Y038288D02*
X012199Y037722D01*
X011633Y038005D02*
X012199Y037722D01*
X014061Y035860D02*
X014101Y035899D01*
X013313Y036609D02*
X014061Y035860D01*
X013313Y036609D02*
X013596Y036043D01*
X013313Y036609D02*
X013878Y036326D01*
X027867Y010000D02*
X031000D01*
X024323Y016299D02*
X031000D01*
X030900Y010000D02*
Y011480D01*
Y014499D02*
Y016299D01*
Y010000D02*
X031100Y010600D01*
X030700D02*
X030900Y010000D01*
X030700Y015699D02*
X030900Y016299D01*
X031100Y015699*
X005950Y010000D02*
X009850D01*
X005950Y043465D02*
X009850D01*
X006050Y010000D02*
Y025013D01*
Y028132D02*
Y043465D01*
Y010000D02*
X006250Y010600D01*
X005850D02*
X006050Y010000D01*
X005850Y042865D02*
X006050Y043465D01*
X006250Y042865*
X007400Y010000D02*
X009850D01*
X007400Y037165D02*
X011818D01*
X007500Y010000D02*
Y021863D01*
Y024982D02*
Y037165D01*
Y010000D02*
X007700Y010600D01*
X007300D02*
X007500Y010000D01*
X007300Y036565D02*
X007500Y037165D01*
X007700Y036565*
X007400Y043465D02*
X009850D01*
X007400Y037165D02*
X013393D01*
X007500Y041759D02*
Y043465D01*
Y037165D02*
Y038740D01*
X007300Y042865D02*
X007500Y043465D01*
X007700Y042865*
X007500Y037165D02*
X007700Y037765D01*
X007300D02*
X007500Y037165D01*
X027717Y043615D02*
Y044650D01*
X012756Y038103D02*
Y044650D01*
X021636Y044550D02*
X027717D01*
X012756D02*
X018517D01*
X027117Y044750D02*
X027717Y044550D01*
X027117Y044350D02*
X027717Y044550D01*
X012756D02*
X013356Y044350D01*
X012756Y044550D02*
X013356Y044750D01*
X010000Y043615D02*
Y044650D01*
X012756Y036528D02*
Y044650D01*
X010000Y044550D02*
X011378D01*
X012756*
X010000D02*
X010600Y044350D01*
X010000Y044550D02*
X010600Y044750D01*
X012156D02*
X012756Y044550D01*
X012156Y044350D02*
X012756Y044550D01*
X024961Y009000D02*
Y016937D01*
X010000Y009000D02*
Y009850D01*
X018959Y009100D02*
X024961D01*
X010000D02*
X015840D01*
X024361Y009300D02*
X024961Y009100D01*
X024361Y008900D02*
X024961Y009100D01*
X010000D02*
X010600Y008900D01*
X010000Y009100D02*
X010600Y009300D01*
X027717Y009000D02*
Y009900D01*
X024961Y009000D02*
Y015362D01*
X026339Y009100D02*
X027717D01*
X024961D02*
X026339D01*
X027117Y009300D02*
X027717Y009100D01*
X027117Y008900D02*
X027717Y009100D01*
X024961D02*
X025561Y008900D01*
X024961Y009100D02*
X025561Y009300D01*
X027717Y006150D02*
Y009900D01*
X010000Y006150D02*
Y009900D01*
X020258Y006250D02*
X027717D01*
X010000D02*
X017139D01*
X027117Y006450D02*
X027717Y006250D01*
X027117Y006050D02*
X027717Y006250D01*
X010000D02*
X010600Y006050D01*
X010000Y006250D02*
X010600Y006450D01*
X014490Y012762D02*
X015540Y011712D01*
X014690Y012962D02*
X015740Y011912D01*
X011715Y011937D02*
X012790Y013012D01*
X011890Y011762D02*
X012940Y012812D01*
X015490Y041752D02*
X016540Y040702D01*
X016340Y040452D02*
Y040502D01*
X015290Y041552D02*
X016340Y040502D01*
X017440Y040452D02*
X018515Y041527D01*
X017290Y040652D02*
X018340Y041702D01*
X019427Y041752D02*
X020477Y040702D01*
X020277Y040452D02*
Y040502D01*
X019227Y041552D02*
X020277Y040502D01*
X021377Y040452D02*
X022452Y041527D01*
X021227Y040652D02*
X022277Y041702D01*
X023364Y041752D02*
X024414Y040702D01*
X024214Y040452D02*
Y040502D01*
X023164Y041552D02*
X024214Y040502D01*
X025314Y040452D02*
X026389Y041527D01*
X025164Y040652D02*
X026214Y041702D01*
X011553Y041752D02*
X012603Y040702D01*
X012403Y040452D02*
Y040502D01*
X011353Y041552D02*
X012403Y040502D01*
X013503Y040452D02*
X014578Y041527D01*
X013353Y040652D02*
X014403Y041702D01*
X024726Y012762D02*
X025776Y011712D01*
X024926Y012962D02*
X025976Y011912D01*
X021951Y011937D02*
X023026Y013012D01*
X022126Y011762D02*
X023176Y012812D01*
G54D82*
X017017Y020821D02*
Y020979D01*
X016938Y020900D02*
X017095D01*
X012800Y020821D02*
Y020979D01*
X012721Y020900D02*
X012879D01*
X014205Y020939D02*
Y021097D01*
X014127Y021018D02*
X014284D01*
X015611Y020939D02*
Y021097D01*
X015532Y021018D02*
X015690D01*
G54D83*
X026811Y015270D02*
X027011D01*
X027111Y015370*
Y015570*
X027011Y015670*
X026811*
X026711Y015570*
Y015370*
X026811Y015270*
X026711D02*
X027111Y015670D01*
X028211Y015270D02*
Y015869D01*
X027911Y015570*
X028311*
X028611Y015170D02*
X028711Y015270D01*
Y015370*
X028611*
Y015270*
X028711*
X028611Y015170*
X028511Y015070*
X029110Y015769D02*
X029210Y015869D01*
X029410*
X029510Y015769*
Y015370*
X029410Y015270*
X029210*
X029110Y015370*
Y015769*
X029710D02*
X029810Y015869D01*
X030010*
X030110Y015769*
Y015370*
X030010Y015270*
X029810*
X029710Y015370*
Y015769*
X008500Y038600D02*
X008700D01*
X008800Y038700*
Y038900*
X008700Y039000*
X008500*
X008400Y038900*
Y038700*
X008500Y038600*
X008400D02*
X008800Y039000D01*
X009900Y038600D02*
Y039200D01*
X009600Y038900*
X009999*
X010299Y038500D02*
X010399Y038600D01*
Y038700*
X010299*
Y038600*
X010399*
X010299Y038500*
X010199Y038400*
X010799Y039100D02*
X010899Y039200D01*
X011099*
X011199Y039100*
Y038700*
X011099Y038600*
X010899*
X010799Y038700*
Y039100*
X011399D02*
X011499Y039200D01*
X011699*
X011799Y039100*
Y038700*
X011699Y038600*
X011499*
X011399Y038700*
Y039100*
X031360Y011640D02*
Y011840D01*
Y011740*
X030760*
X030860Y011640*
X030760Y012540D02*
X030860Y012340D01*
X031060Y012140*
X031260*
X031360Y012240*
Y012440*
X031260Y012540*
X031160*
X031060Y012440*
Y012140*
X031460Y012840D02*
X031360Y012940D01*
X031260*
Y012840*
X031360*
Y012940*
X031460Y012840*
X031560Y012740*
X030860Y013339D02*
X030760Y013439D01*
Y013639*
X030860Y013739*
X031260*
X031360Y013639*
Y013439*
X031260Y013339*
X030860*
Y013939D02*
X030760Y014039D01*
Y014239*
X030860Y014339*
X031260*
X031360Y014239*
Y014039*
X031260Y013939*
X030860*
X006010Y025173D02*
X005910Y025273D01*
Y025473*
X006010Y025573*
X006110*
X006210Y025473*
X006310Y025573*
X006410*
X006510Y025473*
Y025273*
X006410Y025173*
X006310*
X006210Y025273*
X006110Y025173*
X006010*
X006210Y025273D02*
Y025473D01*
X005910Y026172D02*
Y025773D01*
X006210*
X006110Y025972*
Y026072*
X006210Y026172*
X006410*
X006510Y026072*
Y025873*
X006410Y025773*
X006610Y026472D02*
X006510Y026572D01*
X006410*
Y026472*
X006510*
Y026572*
X006610Y026472*
X006710Y026372*
X006010Y026972D02*
X005910Y027072D01*
Y027272*
X006010Y027372*
X006410*
X006510Y027272*
Y027072*
X006410Y026972*
X006010*
Y027572D02*
X005910Y027672D01*
Y027872*
X006010Y027972*
X006410*
X006510Y027872*
Y027672*
X006410Y027572*
X006010*
X007360Y022423D02*
X007460Y022223D01*
X007660Y022023*
X007860*
X007960Y022123*
Y022323*
X007860Y022423*
X007760*
X007660Y022323*
Y022023*
X007860Y022623D02*
X007960Y022723D01*
Y022923*
X007860Y023023*
X007460*
X007360Y022923*
Y022723*
X007460Y022623*
X007560*
X007660Y022723*
Y023023*
X008060Y023323D02*
X007960Y023423D01*
X007860*
Y023323*
X007960*
Y023423*
X008060Y023323*
X008160Y023223*
X007460Y023823D02*
X007360Y023923D01*
Y024122*
X007460Y024222*
X007860*
X007960Y024122*
Y023923*
X007860Y023823*
X007460*
Y024422D02*
X007360Y024522D01*
Y024722*
X007460Y024822*
X007860*
X007960Y024722*
Y024522*
X007860Y024422*
X007460*
X007800Y038900D02*
Y039100D01*
Y039000*
X007200*
X007300Y038900*
X007200Y039800D02*
X007300Y039600D01*
X007500Y039400*
X007700*
X007800Y039500*
Y039700*
X007700Y039800*
X007600*
X007500Y039700*
Y039400*
X007900Y040100D02*
X007800Y040200D01*
X007700*
Y040100*
X007800*
Y040200*
X007900Y040100*
X008000Y040000*
X007300Y040599D02*
X007200Y040699D01*
Y040899*
X007300Y040999*
X007700*
X007800Y040899*
Y040699*
X007700Y040599*
X007300*
Y041199D02*
X007200Y041299D01*
Y041499*
X007300Y041599*
X007700*
X007800Y041499*
Y041299*
X007700Y041199*
X007300*
X018677Y044590D02*
X018777Y044690D01*
X018977*
X019077Y044590*
Y044490*
X018977Y044390*
X018877*
X018977*
X019077Y044290*
Y044190*
X018977Y044090*
X018777*
X018677Y044190*
X019276Y044590D02*
X019376Y044690D01*
X019576*
X019676Y044590*
Y044490*
X019576Y044390*
X019676Y044290*
Y044190*
X019576Y044090*
X019376*
X019276Y044190*
Y044290*
X019376Y044390*
X019276Y044490*
Y044590*
X019376Y044390D02*
X019576D01*
X019976Y043990D02*
X020076Y044090D01*
Y044190*
X019976*
Y044090*
X020076*
X019976Y043990*
X019876Y043890*
X020476Y044590D02*
X020576Y044690D01*
X020776*
X020876Y044590*
Y044190*
X020776Y044090*
X020576*
X020476Y044190*
Y044590*
X021076D02*
X021176Y044690D01*
X021376*
X021476Y044590*
Y044190*
X021376Y044090*
X021176*
X021076Y044190*
Y044590*
X010500Y045700D02*
X010900D01*
Y045600*
X010500Y045200*
Y045100*
X011200Y045000D02*
X011300Y045100D01*
Y045200*
X011200*
Y045100*
X011300*
X011200Y045000*
X011100Y044900*
X011700Y045600D02*
X011800Y045700D01*
X012000*
X012099Y045600*
Y045200*
X012000Y045100*
X011800*
X011700Y045200*
Y045600*
X012299D02*
X012399Y045700D01*
X012599*
X012699Y045600*
Y045200*
X012599Y045100*
X012399*
X012299Y045200*
Y045600*
X016000Y009100D02*
X016100Y009200D01*
X016300*
X016400Y009100*
Y009000*
X016300Y008900*
X016200*
X016300*
X016400Y008800*
Y008700*
X016300Y008600*
X016100*
X016000Y008700*
X016600Y009100D02*
X016700Y009200D01*
X016900*
X017000Y009100*
Y009000*
X016900Y008900*
X017000Y008800*
Y008700*
X016900Y008600*
X016700*
X016600Y008700*
Y008800*
X016700Y008900*
X016600Y009000*
Y009100*
X016700Y008900D02*
X016900D01*
X017300Y008500D02*
X017400Y008600D01*
Y008700*
X017300*
Y008600*
X017400*
X017300Y008500*
X017200Y008400*
X017799Y009100D02*
X017899Y009200D01*
X018099*
X018199Y009100*
Y008700*
X018099Y008600*
X017899*
X017799Y008700*
Y009100*
X018399D02*
X018499Y009200D01*
X018699*
X018799Y009100*
Y008700*
X018699Y008600*
X018499*
X018399Y008700*
Y009100*
X025100Y008500D02*
X025500D01*
Y008400*
X025100Y008000*
Y007900*
X025800Y007800D02*
X025900Y007900D01*
Y008000*
X025800*
Y007900*
X025900*
X025800Y007800*
X025700Y007700*
X026300Y008400D02*
X026400Y008500D01*
X026600*
X026699Y008400*
Y008000*
X026600Y007900*
X026400*
X026300Y008000*
Y008400*
X026899D02*
X026999Y008500D01*
X027199*
X027299Y008400*
Y008000*
X027199Y007900*
X026999*
X026899Y008000*
Y008400*
X017599Y005790D02*
Y006390D01*
X017299Y006090*
X017699*
X018298Y006390D02*
X017899D01*
Y006090*
X018098Y006190*
X018198*
X018298Y006090*
Y005890*
X018198Y005790*
X017998*
X017899Y005890*
X018598Y005690D02*
X018698Y005790D01*
Y005890*
X018598*
Y005790*
X018698*
X018598Y005690*
X018498Y005590*
X019098Y006290D02*
X019198Y006390D01*
X019398*
X019498Y006290*
Y005890*
X019398Y005790*
X019198*
X019098Y005890*
Y006290*
X019698D02*
X019798Y006390D01*
X019998*
X020098Y006290*
Y005890*
X019998Y005790*
X019798*
X019698Y005890*
Y006290*
M02*