%FSDAX24Y24*%
%MOIN*%
%SFA1B1*%

%IPPOS*%
%ADD13R,0.039400X0.043300*%
%ADD17R,0.059100X0.051200*%
%ADD26C,0.098400*%
%ADD27C,0.059100*%
%ADD28R,0.059100X0.059100*%
%ADD29R,0.047200X0.098400*%
%ADD30O,0.047200X0.098400*%
%ADD31C,0.063000*%
%ADD32R,0.063000X0.063000*%
%ADD33C,0.060000*%
%ADD34C,0.053100*%
%ADD35R,0.059100X0.059100*%
%ADD36C,0.055100*%
%ADD37R,0.078700X0.078700*%
%ADD38C,0.078700*%
%ADD39R,0.053100X0.053100*%
%ADD40C,0.053100*%
%ADD42R,0.051200X0.059100*%
%ADD43R,0.061000X0.043300*%
%ADD44R,0.061000X0.043300*%
%ADD45R,0.061000X0.135800*%
%LNde-230724-1*%
%LPD*%
G54D13*
X020800Y026015D03*
Y026685D03*
X019150Y021135D03*
Y020465D03*
G54D17*
X014550Y034976D03*
Y035724D03*
X018700Y035076D03*
Y035824D03*
X025500Y035826D03*
Y036574D03*
X021050Y035826D03*
Y036574D03*
X016850Y035726D03*
Y036474D03*
X010750Y031276D03*
Y032024D03*
X012350Y032976D03*
Y033724D03*
X023200Y035076D03*
Y035824D03*
G54D26*
X012362Y012362D03*
X015118D03*
X017874Y041102D03*
X015906D03*
X021811D03*
X019843D03*
X025748D03*
X023780D03*
X013937D03*
X011968D03*
X022598Y012362D03*
X025354D03*
G54D27*
X024250Y027900D03*
X025250D03*
X026700Y021300D03*
X025700D03*
X026700Y018300D03*
X024250Y026300D03*
X025250D03*
X019250Y030000D03*
X018250D03*
X010800Y019493D03*
X019800Y019816D03*
G54D28*
X026250Y027900D03*
Y026300D03*
X017250Y030000D03*
G54D29*
X015650Y031600D03*
X019850D03*
X024050D03*
X011800Y028700D03*
G54D30*
X016650Y031600D03*
X017650D03*
X015650Y034600D03*
X016650D03*
X017650D03*
X020850Y031600D03*
X021850D03*
X019850Y034600D03*
X020850D03*
X021850D03*
X025050Y031600D03*
X026050D03*
X024050Y034600D03*
X025050D03*
X026050D03*
X012800Y028700D03*
X013800D03*
X011800Y031700D03*
X012800D03*
X013800D03*
G54D31*
X017600Y037300D03*
X016600D03*
X022050D03*
X021050D03*
X026500D03*
X025500D03*
X013350Y034600D03*
X012350D03*
G54D32*
X015600Y037300D03*
X020050D03*
X024500D03*
X011350Y034600D03*
G54D33*
X023189Y023780D03*
X024370D03*
X013346D03*
X014528D03*
G54D34*
X013750Y016850D03*
X022411D03*
G54D35*
X025700Y018300D03*
X010800Y014907D03*
X019800Y021784D03*
G54D36*
X017300Y013500D03*
X020300D03*
X012100Y018900D03*
Y014900D03*
G54D37*
X019859Y023700D03*
G54D38*
X015741Y023700D03*
G54D39*
X014344Y026450D03*
G54D40*
X013556Y026450D03*
G54D42*
X010702Y032950D03*
X011450D03*
X015326Y035700D03*
X016074D03*
X019476Y035800D03*
X020224D03*
X023976D03*
X024724D03*
G54D43*
X019829Y026756D03*
G54D44*
X019829Y025850D03*
Y024944D03*
G54D45*
X017171Y025850D03*
M02*