%FSDAX24Y24*%
%MOIN*%
%SFA1B1*%

%IPPOS*%
%ADD82C,0.003900*%
%LNde-230724-1*%
%LPD*%
G54D82*
X020452Y027118D02*
D01*
X020451Y027131*
X020450Y027145*
X020447Y027158*
X020444Y027172*
X020440Y027185*
X020434Y027198*
X020428Y027210*
X020422Y027222*
X020414Y027233*
X020405Y027244*
X020396Y027254*
X020386Y027264*
X020376Y027273*
X020365Y027281*
X020353Y027288*
X020341Y027295*
X020328Y027300*
X020315Y027305*
X020302Y027309*
X020289Y027312*
X020275Y027313*
X020261Y027314*
X020248*
X020234Y027313*
X020220Y027312*
X020207Y027309*
X020194Y027305*
X020181Y027300*
X020168Y027295*
X020156Y027288*
X020144Y027281*
X020133Y027273*
X020123Y027264*
X020113Y027254*
X020104Y027244*
X020095Y027233*
X020087Y027222*
X020081Y027210*
X020075Y027198*
X020069Y027185*
X020065Y027172*
X020062Y027158*
X020059Y027145*
X020058Y027131*
X020058Y027118*
X020058Y027104*
X020059Y027090*
X020062Y027077*
X020065Y027063*
X020069Y027050*
X020075Y027037*
X020081Y027025*
X020087Y027013*
X020095Y027002*
X020104Y026991*
X020113Y026981*
X020123Y026971*
X020133Y026962*
X020144Y026954*
X020156Y026947*
X020168Y026940*
X020181Y026935*
X020194Y026930*
X020207Y026926*
X020220Y026923*
X020234Y026922*
X020248Y026921*
X020261*
X020275Y026922*
X020289Y026923*
X020302Y026926*
X020315Y026930*
X020328Y026935*
X020341Y026940*
X020353Y026947*
X020365Y026954*
X020376Y026962*
X020386Y026971*
X020396Y026981*
X020405Y026991*
X020414Y027002*
X020422Y027013*
X020428Y027025*
X020434Y027037*
X020440Y027050*
X020444Y027063*
X020447Y027077*
X020450Y027090*
X020451Y027104*
X020452Y027118*
X025767Y018914D02*
D01*
X025766Y018927*
X025765Y018941*
X025762Y018954*
X025759Y018968*
X025755Y018981*
X025749Y018994*
X025743Y019006*
X025737Y019018*
X025729Y019029*
X025720Y019040*
X025711Y019050*
X025701Y019060*
X025691Y019069*
X025680Y019077*
X025668Y019084*
X025656Y019091*
X025643Y019096*
X025630Y019101*
X025617Y019105*
X025604Y019108*
X025590Y019109*
X025576Y019110*
X025563*
X025549Y019109*
X025535Y019108*
X025522Y019105*
X025509Y019101*
X025496Y019096*
X025483Y019091*
X025471Y019084*
X025459Y019077*
X025448Y019069*
X025438Y019060*
X025428Y019050*
X025419Y019040*
X025410Y019029*
X025402Y019018*
X025396Y019006*
X025390Y018994*
X025384Y018981*
X025380Y018968*
X025377Y018954*
X025374Y018941*
X025373Y018927*
X025373Y018914*
X025373Y018900*
X025374Y018886*
X025377Y018873*
X025380Y018859*
X025384Y018846*
X025390Y018833*
X025396Y018821*
X025402Y018809*
X025410Y018798*
X025419Y018787*
X025428Y018777*
X025438Y018767*
X025448Y018758*
X025459Y018750*
X025471Y018743*
X025483Y018736*
X025496Y018731*
X025509Y018726*
X025522Y018722*
X025535Y018719*
X025549Y018718*
X025563Y018717*
X025576*
X025590Y018718*
X025604Y018719*
X025617Y018722*
X025630Y018726*
X025643Y018731*
X025656Y018736*
X025668Y018743*
X025680Y018750*
X025691Y018758*
X025701Y018767*
X025711Y018777*
X025720Y018787*
X025729Y018798*
X025737Y018809*
X025743Y018821*
X025749Y018833*
X025755Y018846*
X025759Y018859*
X025762Y018873*
X025765Y018886*
X025766Y018900*
X025767Y018914*
X014572Y037847D02*
X018628D01*
Y036430D02*
Y038339D01*
X014572Y036430D02*
Y038339D01*
X018628*
X014572Y036430D02*
X018628D01*
X019022Y037847D02*
X023078D01*
Y036430D02*
Y038339D01*
X019022Y036430D02*
Y038339D01*
X023078*
X019022Y036430D02*
X023078D01*
X023472Y037847D02*
X027528D01*
Y036430D02*
Y038339D01*
X023472Y036430D02*
Y038339D01*
X027528*
X023472Y036430D02*
X027528D01*
X017998Y028324D02*
Y028876D01*
X016802Y028324D02*
Y028876D01*
X017998*
X016802Y028324D02*
X017998D01*
X019901Y026764D02*
X022499D01*
X019901Y028536D02*
X022499D01*
X019901Y026764D02*
Y028536D01*
X022499Y026764D02*
Y028536D01*
X027184Y018560D02*
Y021040D01*
X025216Y018560D02*
Y021040D01*
X027184*
X025216Y018560D02*
X027184D01*
X026235Y029738D02*
X027417D01*
X026235Y030289D02*
X027417D01*
X026235Y029738D02*
Y030289D01*
X027417Y029738D02*
Y030289D01*
X010322Y035147D02*
X014378D01*
Y033730D02*
Y035639D01*
X010322Y033730D02*
Y035639D01*
X014378*
X010322Y033730D02*
X014378D01*
M02*