%FSDAX24Y24*%
%MOIN*%
%SFA1B1*%

%IPPOS*%
%ADD56R,0.047400X0.051300*%
%ADD60R,0.067100X0.059200*%
%ADD61C,0.008000*%
%ADD62C,0.106400*%
%ADD63C,0.067100*%
%ADD64R,0.067100X0.067100*%
%ADD65R,0.055200X0.106400*%
%ADD66O,0.055200X0.106400*%
%ADD67C,0.071000*%
%ADD68R,0.071000X0.071000*%
%ADD69C,0.068000*%
%ADD70C,0.061100*%
%ADD71R,0.067100X0.067100*%
%ADD72C,0.063100*%
%ADD73R,0.086700X0.086700*%
%ADD74C,0.086700*%
%ADD75R,0.061100X0.061100*%
%ADD76C,0.061100*%
%ADD77C,0.038000*%
%ADD78R,0.059200X0.067100*%
%ADD79R,0.069000X0.051300*%
%ADD80R,0.069000X0.051300*%
%ADD81R,0.069000X0.143800*%
%LNde-230724-1*%
%LPD*%
G54D56*
X020800Y026015D03*
Y026685D03*
X019150Y021135D03*
Y020465D03*
G54D60*
X014550Y034976D03*
Y035724D03*
X018700Y035076D03*
Y035824D03*
X025500Y035826D03*
Y036574D03*
X021050Y035826D03*
Y036574D03*
X016850Y035726D03*
Y036474D03*
X010750Y031276D03*
Y032024D03*
X012350Y032976D03*
Y033724D03*
X023200Y035076D03*
Y035824D03*
G54D61*
X024961Y016299D03*
X012756Y037165D03*
G54D62*
X012362Y012362D03*
X015118D03*
X017874Y041102D03*
X015906D03*
X021811D03*
X019843D03*
X025748D03*
X023780D03*
X013937D03*
X011968D03*
X022598Y012362D03*
X025354D03*
G54D63*
X024250Y027900D03*
X025250D03*
X026700Y021300D03*
X025700D03*
X026700Y018300D03*
X024250Y026300D03*
X025250D03*
X019250Y030000D03*
X018250D03*
X010800Y019493D03*
X019800Y019816D03*
G54D64*
X026250Y027900D03*
Y026300D03*
X017250Y030000D03*
G54D65*
X015650Y031600D03*
X019850D03*
X024050D03*
X011800Y028700D03*
G54D66*
X016650Y031600D03*
X017650D03*
X015650Y034600D03*
X016650D03*
X017650D03*
X020850Y031600D03*
X021850D03*
X019850Y034600D03*
X020850D03*
X021850D03*
X025050Y031600D03*
X026050D03*
X024050Y034600D03*
X025050D03*
X026050D03*
X012800Y028700D03*
X013800D03*
X011800Y031700D03*
X012800D03*
X013800D03*
G54D67*
X017600Y037300D03*
X016600D03*
X022050D03*
X021050D03*
X026500D03*
X025500D03*
X013350Y034600D03*
X012350D03*
G54D68*
X015600Y037300D03*
X020050D03*
X024500D03*
X011350Y034600D03*
G54D69*
X023189Y023780D03*
X024370D03*
X013346D03*
X014528D03*
G54D70*
X013750Y016850D03*
X022411D03*
G54D71*
X025700Y018300D03*
X010800Y014907D03*
X019800Y021784D03*
G54D72*
X017300Y013500D03*
X020300D03*
X012100Y018900D03*
Y014900D03*
G54D73*
X019859Y023700D03*
G54D74*
X015741Y023700D03*
G54D75*
X014344Y026450D03*
G54D76*
X013556Y026450D03*
G54D77*
X015850Y026675D03*
Y026150D03*
Y025638D03*
Y025100D03*
X016433D03*
Y025638D03*
Y026150D03*
Y026675D03*
X017017Y025638D03*
Y026150D03*
Y026675D03*
X017600Y025100D03*
Y025638D03*
Y026150D03*
Y026675D03*
X022500Y027250D03*
X024600Y029600D03*
X019850Y027300D03*
X021100Y023950D03*
Y023500D03*
X017017Y025100D03*
G54D78*
X010702Y032950D03*
X011450D03*
X015326Y035700D03*
X016074D03*
X019476Y035800D03*
X020224D03*
X023976D03*
X024724D03*
G54D79*
X019829Y026756D03*
G54D80*
X019829Y025850D03*
Y024944D03*
G54D81*
X017171Y025850D03*
M02*