%FSDAX24Y24*%
%MOIN*%
%SFA1B1*%

%IPPOS*%
%ADD10C,0.008000*%
%ADD13R,0.039400X0.043300*%
%ADD17R,0.059100X0.051200*%
%ADD18C,0.020000*%
%ADD19C,0.050000*%
%ADD20C,0.010000*%
%ADD21C,0.030000*%
%ADD26C,0.098400*%
%ADD27C,0.059100*%
%ADD28R,0.059100X0.059100*%
%ADD29R,0.047200X0.098400*%
%ADD30O,0.047200X0.098400*%
%ADD31C,0.063000*%
%ADD32R,0.063000X0.063000*%
%ADD33C,0.060000*%
%ADD34C,0.053100*%
%ADD35R,0.059100X0.059100*%
%ADD36C,0.055100*%
%ADD37R,0.078700X0.078700*%
%ADD38C,0.078700*%
%ADD39R,0.053100X0.053100*%
%ADD40C,0.053100*%
%ADD41C,0.030000*%
%ADD42R,0.051200X0.059100*%
%ADD43R,0.061000X0.043300*%
%ADD44R,0.061000X0.043300*%
%ADD45R,0.061000X0.135800*%
%ADD46R,0.370000X0.405000*%
%ADD47R,0.230000X0.260000*%
%ADD48R,0.265000X0.260000*%
%LNde-230724-1*%
%LPD*%
G54D10*
X013786Y023780D02*
D01*
X013784Y023810*
X013781Y023841*
X013776Y023871*
X013768Y023901*
X013759Y023930*
X013747Y023958*
X013734Y023986*
X013719Y024013*
X013701Y024038*
X013683Y024062*
X013662Y024085*
X013640Y024106*
X013616Y024126*
X013592Y024144*
X013566Y024161*
X013538Y024175*
X013510Y024187*
X013481Y024198*
X013452Y024206*
X013422Y024213*
X013391Y024217*
X013361Y024219*
X013330*
X013300Y024217*
X013269Y024213*
X013239Y024206*
X013210Y024198*
X013181Y024187*
X013153Y024175*
X013126Y024161*
X013099Y024144*
X013075Y024126*
X013051Y024106*
X013029Y024085*
X013008Y024062*
X012990Y024038*
X012972Y024013*
X012957Y023986*
X012944Y023958*
X012932Y023930*
X012923Y023901*
X012915Y023871*
X012910Y023841*
X012907Y023810*
X012906Y023780*
X012907Y023749*
X012910Y023718*
X012915Y023688*
X012923Y023658*
X012932Y023629*
X012944Y023601*
X012957Y023573*
X012972Y023546*
X012990Y023521*
X013008Y023497*
X013029Y023474*
X013051Y023453*
X013075Y023433*
X013099Y023415*
X013126Y023398*
X013153Y023384*
X013181Y023372*
X013210Y023361*
X013239Y023353*
X013269Y023346*
X013300Y023342*
X013330Y023340*
X013361*
X013391Y023342*
X013422Y023346*
X013452Y023353*
X013481Y023361*
X013510Y023372*
X013538Y023384*
X013566Y023398*
X013592Y023415*
X013616Y023433*
X013640Y023453*
X013662Y023474*
X013683Y023497*
X013701Y023521*
X013719Y023546*
X013734Y023573*
X013747Y023601*
X013759Y023629*
X013768Y023658*
X013776Y023688*
X013781Y023718*
X013784Y023749*
X013786Y023780*
X014968D02*
D01*
X014966Y023810*
X014963Y023841*
X014958Y023871*
X014950Y023901*
X014941Y023930*
X014929Y023958*
X014916Y023986*
X014901Y024013*
X014883Y024038*
X014865Y024062*
X014844Y024085*
X014822Y024106*
X014798Y024126*
X014774Y024144*
X014748Y024161*
X014720Y024175*
X014692Y024187*
X014663Y024198*
X014634Y024206*
X014604Y024213*
X014573Y024217*
X014543Y024219*
X014512*
X014482Y024217*
X014451Y024213*
X014421Y024206*
X014392Y024198*
X014363Y024187*
X014335Y024175*
X014308Y024161*
X014281Y024144*
X014257Y024126*
X014233Y024106*
X014211Y024085*
X014190Y024062*
X014172Y024038*
X014154Y024013*
X014139Y023986*
X014126Y023958*
X014114Y023930*
X014105Y023901*
X014097Y023871*
X014092Y023841*
X014089Y023810*
X014088Y023780*
X014089Y023749*
X014092Y023718*
X014097Y023688*
X014105Y023658*
X014114Y023629*
X014126Y023601*
X014139Y023573*
X014154Y023546*
X014172Y023521*
X014190Y023497*
X014211Y023474*
X014233Y023453*
X014257Y023433*
X014281Y023415*
X014308Y023398*
X014335Y023384*
X014363Y023372*
X014392Y023361*
X014421Y023353*
X014451Y023346*
X014482Y023342*
X014512Y023340*
X014543*
X014573Y023342*
X014604Y023346*
X014634Y023353*
X014663Y023361*
X014692Y023372*
X014720Y023384*
X014748Y023398*
X014774Y023415*
X014798Y023433*
X014822Y023453*
X014844Y023474*
X014865Y023497*
X014883Y023521*
X014901Y023546*
X014916Y023573*
X014929Y023601*
X014941Y023629*
X014950Y023658*
X014958Y023688*
X014963Y023718*
X014966Y023749*
X014968Y023780*
X013938Y026588D02*
D01*
X013927Y026614*
X013915Y026639*
X013900Y026664*
X013885Y026687*
X013867Y026710*
X013848Y026731*
X013828Y026751*
X013806Y026769*
X013783Y026786*
X013759Y026801*
X013734Y026814*
X013709Y026826*
X013682Y026835*
X013655Y026843*
X013627Y026849*
X013599Y026853*
X013571Y026855*
X013542Y026855*
X013514Y026854*
X013486Y026850*
X013458Y026844*
X013431Y026836*
X013404Y026826*
X013378Y026815*
X013353Y026802*
X013329Y026787*
X013306Y026770*
X013284Y026752*
X013264Y026732*
X013245Y026711*
X013227Y026689*
X013212Y026666*
X013197Y026641*
X013185Y026616*
X013174Y026589*
X013165Y026562*
X013158Y026535*
X013153Y026507*
X013150Y026479*
X013149Y026450*
X013150Y026422*
X013153Y026394*
X013158Y026366*
X013165Y026338*
X013174Y026312*
X013184Y026285*
X013196Y026260*
X013211Y026235*
X013226Y026212*
X013244Y026189*
X013263Y026168*
X013283Y026148*
X013305Y026130*
X013328Y026113*
X013352Y026098*
X013377Y026085*
X013402Y026073*
X013429Y026064*
X013456Y026056*
X013484Y026050*
X013512Y026046*
X013540Y026044*
X013569Y026044*
X013597Y026045*
X013625Y026049*
X013653Y026055*
X013680Y026063*
X013707Y026073*
X013733Y026084*
X013758Y026097*
X013782Y026112*
X013805Y026129*
X013827Y026147*
X013847Y026167*
X013866Y026188*
X013884Y026210*
X013899Y026233*
X013914Y026258*
X013926Y026283*
X013937Y026310*
X013938Y026312*
X014609Y026044D02*
D01*
X014618Y026044*
X014628Y026045*
X014638Y026047*
X014647Y026049*
X014656Y026052*
X014665Y026056*
X014674Y026060*
X014683Y026065*
X014691Y026070*
X014698Y026076*
X014706Y026083*
X014713Y026090*
X014719Y026097*
X014725Y026105*
X014730Y026114*
X014734Y026122*
X014738Y026131*
X014742Y026140*
X014744Y026150*
X014746Y026159*
X014747Y026160*
X013938Y026184D02*
D01*
X013938Y026174*
X013939Y026164*
X013941Y026154*
X013943Y026145*
X013946Y026136*
X013950Y026127*
X013954Y026118*
X013959Y026109*
X013964Y026101*
X013970Y026094*
X013977Y026086*
X013984Y026079*
X013991Y026073*
X013999Y026067*
X014008Y026062*
X014016Y026058*
X014025Y026054*
X014034Y026050*
X014044Y026048*
X014053Y026046*
X014063Y026044*
X014073Y026044*
X014078Y026044*
Y026856D02*
D01*
X014068Y026855*
X014058Y026854*
X014048Y026852*
X014039Y026850*
X014030Y026847*
X014021Y026843*
X014012Y026839*
X014003Y026834*
X013995Y026829*
X013988Y026823*
X013980Y026816*
X013973Y026809*
X013967Y026802*
X013961Y026794*
X013956Y026786*
X013952Y026777*
X013948Y026768*
X013944Y026759*
X013942Y026749*
X013940Y026740*
X013938Y026730*
X013938Y026720*
X013938Y026716*
X014747Y026740D02*
D01*
X014744Y026749*
X014742Y026758*
X014738Y026768*
X014735Y026777*
X014730Y026785*
X014725Y026794*
X014719Y026801*
X014713Y026809*
X014706Y026816*
X014699Y026823*
X014691Y026829*
X014683Y026834*
X014675Y026839*
X014666Y026843*
X014657Y026847*
X014647Y026850*
X014638Y026852*
X014628Y026854*
X014619Y026855*
X014609Y026856*
X014609Y026856*
X018813Y020249D02*
D01*
X018813Y020239*
X018814Y020229*
X018816Y020219*
X018818Y020210*
X018821Y020201*
X018825Y020192*
X018829Y020183*
X018834Y020174*
X018839Y020166*
X018845Y020159*
X018852Y020151*
X018859Y020144*
X018866Y020138*
X018874Y020132*
X018883Y020127*
X018891Y020123*
X018900Y020119*
X018909Y020115*
X018919Y020113*
X018928Y020111*
X018938Y020109*
X018948Y020109*
X018953Y020109*
X019347D02*
D01*
X019356Y020109*
X019366Y020110*
X019376Y020112*
X019385Y020114*
X019394Y020117*
X019403Y020121*
X019412Y020125*
X019421Y020130*
X019429Y020135*
X019436Y020141*
X019444Y020148*
X019451Y020155*
X019457Y020162*
X019463Y020170*
X019468Y020179*
X019472Y020187*
X019476Y020196*
X019480Y020205*
X019482Y020215*
X019484Y020224*
X019486Y020234*
X019486Y020244*
X019487Y020249*
X020235Y019816D02*
D01*
X020233Y019846*
X020230Y019876*
X020225Y019906*
X020218Y019935*
X020208Y019964*
X020197Y019992*
X020184Y020020*
X020168Y020046*
X020151Y020071*
X020133Y020095*
X020112Y020118*
X020091Y020139*
X020067Y020158*
X020043Y020176*
X020017Y020192*
X019990Y020206*
X019962Y020219*
X019934Y020229*
X019905Y020238*
X019875Y020244*
X019845Y020248*
X019815Y020250*
X019784*
X019754Y020248*
X019724Y020244*
X019694Y020238*
X019665Y020229*
X019637Y020219*
X019609Y020206*
X019582Y020192*
X019556Y020176*
X019532Y020158*
X019508Y020139*
X019487Y020118*
X019466Y020095*
X019448Y020071*
X019431Y020046*
X019415Y020020*
X019402Y019992*
X019391Y019964*
X019381Y019935*
X019374Y019906*
X019369Y019876*
X019366Y019846*
X019365Y019816*
X019366Y019785*
X019369Y019755*
X019374Y019725*
X019381Y019696*
X019391Y019667*
X019402Y019639*
X019415Y019611*
X019431Y019585*
X019448Y019560*
X019466Y019536*
X019487Y019513*
X019508Y019492*
X019532Y019473*
X019556Y019455*
X019582Y019439*
X019609Y019425*
X019637Y019412*
X019665Y019402*
X019694Y019393*
X019724Y019387*
X019754Y019383*
X019784Y019381*
X019815*
X019845Y019383*
X019875Y019387*
X019905Y019393*
X019934Y019402*
X019962Y019412*
X019990Y019425*
X020017Y019439*
X020043Y019455*
X020067Y019473*
X020091Y019492*
X020112Y019513*
X020133Y019536*
X020151Y019560*
X020168Y019585*
X020184Y019611*
X020197Y019639*
X020208Y019667*
X020218Y019696*
X020225Y019725*
X020230Y019755*
X020233Y019785*
X020235Y019816*
X018813Y020918D02*
D01*
X018813Y020908*
X018814Y020898*
X018816Y020888*
X018818Y020879*
X018821Y020870*
X018825Y020861*
X018829Y020852*
X018834Y020843*
X018839Y020835*
X018845Y020828*
X018852Y020820*
X018859Y020813*
X018866Y020807*
X018874Y020801*
X018878Y020800*
D01*
X018869Y020794*
X018862Y020788*
X018855Y020781*
X018848Y020774*
X018842Y020767*
X018836Y020759*
X018831Y020750*
X018826Y020742*
X018822Y020733*
X018819Y020724*
X018817Y020714*
X018815Y020705*
X018813Y020695*
X018813Y020685*
X018813Y020682*
X019487D02*
D01*
X019486Y020691*
X019485Y020701*
X019483Y020711*
X019481Y020720*
X019478Y020729*
X019474Y020738*
X019470Y020747*
X019465Y020756*
X019460Y020764*
X019454Y020771*
X019447Y020779*
X019440Y020786*
X019433Y020792*
X019425Y020798*
X019422Y020800*
D01*
X019430Y020805*
X019437Y020811*
X019444Y020818*
X019451Y020825*
X019457Y020832*
X019463Y020840*
X019468Y020849*
X019473Y020857*
X019477Y020866*
X019480Y020875*
X019482Y020885*
X019484Y020894*
X019486Y020904*
X019486Y020914*
X019487Y020918*
X019384Y024728D02*
D01*
X019384Y024718*
X019385Y024708*
X019387Y024698*
X019389Y024689*
X019392Y024680*
X019396Y024671*
X019400Y024662*
X019405Y024653*
X019410Y024645*
X019416Y024638*
X019423Y024630*
X019430Y024623*
X019437Y024617*
X019445Y024611*
X019454Y024606*
X019462Y024602*
X019471Y024598*
X019480Y024594*
X019490Y024592*
X019499Y024590*
X019509Y024588*
X019519Y024588*
X019524Y024588*
X019404Y025560D02*
D01*
X019409Y025551*
X019415Y025544*
X019421Y025536*
X019428Y025530*
X019436Y025523*
X019443Y025517*
X019452Y025512*
X019460Y025508*
X019469Y025503*
X019478Y025500*
X019488Y025497*
X019497Y025495*
X019507Y025494*
X019516Y025493*
X019524Y025493*
Y025301D02*
D01*
X019514Y025300*
X019504Y025299*
X019494Y025297*
X019485Y025295*
X019476Y025292*
X019467Y025288*
X019458Y025284*
X019449Y025279*
X019441Y025274*
X019434Y025268*
X019426Y025261*
X019419Y025254*
X019413Y025247*
X019407Y025239*
X019402Y025231*
X019398Y025222*
X019394Y025213*
X019390Y025204*
X019388Y025194*
X019386Y025185*
X019384Y025175*
X019384Y025165*
X019384Y025161*
X019524Y026207D02*
D01*
X019514Y026206*
X019504Y026205*
X019494Y026203*
X019485Y026201*
X019476Y026198*
X019467Y026194*
X019458Y026190*
X019449Y026185*
X019441Y026180*
X019434Y026174*
X019426Y026167*
X019419Y026160*
X019413Y026153*
X019407Y026145*
X019404Y026140*
X019384Y026539D02*
D01*
X019384Y026529*
X019385Y026519*
X019387Y026509*
X019389Y026500*
X019392Y026491*
X019396Y026482*
X019400Y026473*
X019405Y026464*
X019410Y026456*
X019416Y026449*
X019423Y026441*
X019430Y026434*
X019437Y026428*
X019445Y026422*
X019454Y026417*
X019462Y026413*
X019471Y026409*
X019480Y026405*
X019490Y026403*
X019499Y026401*
X019509Y026399*
X019519Y026399*
X019524Y026399*
Y027112D02*
D01*
X019514Y027111*
X019504Y027110*
X019494Y027108*
X019485Y027106*
X019476Y027103*
X019467Y027099*
X019458Y027095*
X019449Y027090*
X019441Y027085*
X019434Y027079*
X019426Y027072*
X019419Y027065*
X019413Y027058*
X019407Y027050*
X019402Y027042*
X019398Y027033*
X019394Y027024*
X019390Y027015*
X019388Y027005*
X019386Y026996*
X019384Y026986*
X019384Y026976*
X019384Y026972*
X011424Y028208D02*
D01*
X011424Y028198*
X011425Y028188*
X011427Y028178*
X011429Y028169*
X011432Y028160*
X011436Y028151*
X011440Y028142*
X011445Y028133*
X011450Y028125*
X011456Y028118*
X011463Y028110*
X011470Y028103*
X011477Y028097*
X011485Y028091*
X011494Y028086*
X011502Y028082*
X011511Y028078*
X011520Y028074*
X011530Y028072*
X011539Y028070*
X011549Y028068*
X011559Y028068*
X011564Y028068*
X012036D02*
D01*
X012045Y028068*
X012055Y028069*
X012065Y028071*
X012074Y028073*
X012083Y028076*
X012092Y028080*
X012101Y028084*
X012110Y028089*
X012118Y028094*
X012125Y028100*
X012133Y028107*
X012140Y028114*
X012146Y028121*
X012152Y028129*
X012157Y028138*
X012161Y028146*
X012165Y028155*
X012169Y028164*
X012171Y028174*
X012173Y028183*
X012175Y028193*
X012175Y028203*
X012176Y028208*
X011564Y029332D02*
D01*
X011554Y029331*
X011544Y029330*
X011534Y029328*
X011525Y029326*
X011516Y029323*
X011507Y029319*
X011498Y029315*
X011489Y029310*
X011481Y029305*
X011474Y029299*
X011466Y029292*
X011459Y029285*
X011453Y029278*
X011447Y029270*
X011442Y029262*
X011438Y029253*
X011434Y029244*
X011430Y029235*
X011428Y029225*
X011426Y029216*
X011424Y029206*
X011424Y029196*
X011424Y029192*
X012176D02*
D01*
X012175Y029201*
X012174Y029211*
X012172Y029221*
X012170Y029230*
X012167Y029239*
X012163Y029248*
X012159Y029257*
X012154Y029266*
X012149Y029274*
X012143Y029281*
X012136Y029289*
X012129Y029296*
X012122Y029302*
X012114Y029308*
X012106Y029313*
X012097Y029317*
X012088Y029321*
X012079Y029325*
X012069Y029327*
X012060Y029329*
X012050Y029331*
X012040Y029331*
X012036Y029332*
X012424Y028444D02*
D01*
X012424Y028417*
X012427Y028391*
X012432Y028365*
X012438Y028340*
X012446Y028315*
X012456Y028291*
X012468Y028267*
X012481Y028244*
X012495Y028222*
X012511Y028202*
X012529Y028182*
X012548Y028164*
X012568Y028147*
X012589Y028132*
X012612Y028118*
X012635Y028106*
X012659Y028095*
X012683Y028086*
X012709Y028079*
X012734Y028073*
X012760Y028070*
X012786Y028068*
X012813*
X012839Y028070*
X012865Y028073*
X012890Y028079*
X012916Y028086*
X012940Y028095*
X012964Y028106*
X012988Y028118*
X013010Y028132*
X013031Y028147*
X013051Y028164*
X013070Y028182*
X013088Y028202*
X013104Y028222*
X013118Y028244*
X013131Y028267*
X013143Y028291*
X013153Y028315*
X013161Y028340*
X013167Y028365*
X013172Y028391*
X013175Y028417*
X013176Y028444*
X013424D02*
D01*
X013424Y028417*
X013427Y028391*
X013432Y028365*
X013438Y028340*
X013446Y028315*
X013456Y028291*
X013468Y028267*
X013481Y028244*
X013495Y028222*
X013511Y028202*
X013529Y028182*
X013548Y028164*
X013568Y028147*
X013589Y028132*
X013612Y028118*
X013635Y028106*
X013659Y028095*
X013683Y028086*
X013709Y028079*
X013734Y028073*
X013760Y028070*
X013786Y028068*
X013813*
X013839Y028070*
X013865Y028073*
X013890Y028079*
X013916Y028086*
X013940Y028095*
X013964Y028106*
X013988Y028118*
X014010Y028132*
X014031Y028147*
X014051Y028164*
X014070Y028182*
X014088Y028202*
X014104Y028222*
X014118Y028244*
X014131Y028267*
X014143Y028291*
X014153Y028315*
X014161Y028340*
X014167Y028365*
X014172Y028391*
X014175Y028417*
X014176Y028444*
X013176Y028956D02*
D01*
X013175Y028982*
X013172Y029008*
X013167Y029034*
X013161Y029059*
X013153Y029084*
X013143Y029108*
X013131Y029132*
X013118Y029155*
X013104Y029177*
X013088Y029197*
X013070Y029217*
X013051Y029235*
X013031Y029252*
X013010Y029267*
X012988Y029281*
X012964Y029293*
X012940Y029304*
X012916Y029313*
X012890Y029320*
X012865Y029326*
X012839Y029329*
X012813Y029331*
X012786*
X012760Y029329*
X012734Y029326*
X012709Y029320*
X012683Y029313*
X012659Y029304*
X012635Y029293*
X012612Y029281*
X012589Y029267*
X012568Y029252*
X012548Y029235*
X012529Y029217*
X012511Y029197*
X012495Y029177*
X012481Y029155*
X012468Y029132*
X012456Y029108*
X012446Y029084*
X012438Y029059*
X012432Y029034*
X012427Y029008*
X012424Y028982*
X012424Y028956*
X014176D02*
D01*
X014175Y028982*
X014172Y029008*
X014167Y029034*
X014161Y029059*
X014153Y029084*
X014143Y029108*
X014131Y029132*
X014118Y029155*
X014104Y029177*
X014088Y029197*
X014070Y029217*
X014051Y029235*
X014031Y029252*
X014010Y029267*
X013988Y029281*
X013964Y029293*
X013940Y029304*
X013916Y029313*
X013890Y029320*
X013865Y029326*
X013839Y029329*
X013813Y029331*
X013786*
X013760Y029329*
X013734Y029326*
X013709Y029320*
X013683Y029313*
X013659Y029304*
X013635Y029293*
X013612Y029281*
X013589Y029267*
X013568Y029252*
X013548Y029235*
X013529Y029217*
X013511Y029197*
X013495Y029177*
X013481Y029155*
X013468Y029132*
X013456Y029108*
X013446Y029084*
X013438Y029059*
X013432Y029034*
X013427Y029008*
X013424Y028982*
X013424Y028956*
X015274Y031108D02*
D01*
X015274Y031098*
X015275Y031088*
X015277Y031078*
X015279Y031069*
X015282Y031060*
X015286Y031051*
X015290Y031042*
X015295Y031033*
X015300Y031025*
X015306Y031018*
X015313Y031010*
X015320Y031003*
X015327Y030997*
X015335Y030991*
X015344Y030986*
X015352Y030982*
X015361Y030978*
X015370Y030974*
X015380Y030972*
X015389Y030970*
X015399Y030968*
X015409Y030968*
X015414Y030968*
X015886D02*
D01*
X015895Y030968*
X015905Y030969*
X015915Y030971*
X015924Y030973*
X015933Y030976*
X015942Y030980*
X015951Y030984*
X015960Y030989*
X015968Y030994*
X015975Y031000*
X015983Y031007*
X015990Y031014*
X015996Y031021*
X016002Y031029*
X016007Y031038*
X016011Y031046*
X016015Y031055*
X016019Y031064*
X016021Y031074*
X016023Y031083*
X016025Y031093*
X016025Y031103*
X016026Y031108*
X016815Y029705D02*
D01*
X016815Y029695*
X016816Y029685*
X016818Y029675*
X016820Y029666*
X016823Y029657*
X016827Y029648*
X016831Y029639*
X016836Y029630*
X016841Y029622*
X016847Y029615*
X016854Y029607*
X016861Y029600*
X016868Y029594*
X016876Y029588*
X016885Y029583*
X016893Y029579*
X016902Y029575*
X016911Y029571*
X016921Y029569*
X016930Y029567*
X016940Y029565*
X016950Y029565*
X016955Y029565*
Y030435D02*
D01*
X016945Y030434*
X016935Y030433*
X016925Y030431*
X016916Y030429*
X016907Y030426*
X016898Y030422*
X016889Y030418*
X016880Y030413*
X016872Y030408*
X016865Y030402*
X016857Y030395*
X016850Y030388*
X016844Y030381*
X016838Y030373*
X016833Y030365*
X016829Y030356*
X016825Y030347*
X016821Y030338*
X016819Y030328*
X016817Y030319*
X016815Y030309*
X016815Y030299*
X016815Y030295*
X016274Y031344D02*
D01*
X016274Y031317*
X016277Y031291*
X016282Y031265*
X016288Y031240*
X016296Y031215*
X016306Y031191*
X016318Y031167*
X016331Y031144*
X016345Y031122*
X016361Y031102*
X016379Y031082*
X016398Y031064*
X016418Y031047*
X016439Y031032*
X016462Y031018*
X016485Y031006*
X016509Y030995*
X016533Y030986*
X016559Y030979*
X016584Y030973*
X016610Y030970*
X016636Y030968*
X016643Y030968*
X015414Y032232D02*
D01*
X015404Y032231*
X015394Y032230*
X015384Y032228*
X015375Y032226*
X015366Y032223*
X015357Y032219*
X015348Y032215*
X015339Y032210*
X015331Y032205*
X015324Y032199*
X015316Y032192*
X015309Y032185*
X015303Y032178*
X015297Y032170*
X015292Y032162*
X015288Y032153*
X015284Y032144*
X015280Y032135*
X015278Y032125*
X015276Y032116*
X015274Y032106*
X015274Y032096*
X015274Y032092*
X016026D02*
D01*
X016025Y032101*
X016024Y032111*
X016022Y032121*
X016020Y032130*
X016017Y032139*
X016013Y032148*
X016009Y032157*
X016004Y032166*
X015999Y032174*
X015993Y032181*
X015986Y032189*
X015979Y032196*
X015972Y032202*
X015964Y032208*
X015956Y032213*
X015947Y032217*
X015938Y032221*
X015929Y032225*
X015919Y032227*
X015910Y032229*
X015900Y032231*
X015890Y032231*
X015886Y032232*
X017026Y031856D02*
D01*
X017025Y031882*
X017022Y031908*
X017017Y031934*
X017011Y031959*
X017003Y031984*
X016993Y032008*
X016981Y032032*
X016968Y032055*
X016954Y032077*
X016938Y032097*
X016920Y032117*
X016901Y032135*
X016881Y032152*
X016860Y032167*
X016838Y032181*
X016814Y032193*
X016790Y032204*
X016766Y032213*
X016740Y032220*
X016715Y032226*
X016689Y032229*
X016663Y032231*
X016636*
X016610Y032229*
X016584Y032226*
X016559Y032220*
X016533Y032213*
X016509Y032204*
X016485Y032193*
X016462Y032181*
X016439Y032167*
X016418Y032152*
X016398Y032135*
X016379Y032117*
X016361Y032097*
X016345Y032077*
X016331Y032055*
X016318Y032032*
X016306Y032008*
X016296Y031984*
X016288Y031959*
X016282Y031934*
X016277Y031908*
X016274Y031882*
X016274Y031856*
X017545Y029565D02*
D01*
X017554Y029565*
X017564Y029566*
X017574Y029568*
X017583Y029570*
X017592Y029573*
X017601Y029577*
X017610Y029581*
X017619Y029586*
X017627Y029591*
X017634Y029597*
X017642Y029604*
X017649Y029611*
X017655Y029618*
X017661Y029626*
X017666Y029635*
X017670Y029643*
X017674Y029652*
X017678Y029661*
X017680Y029671*
X017682Y029680*
X017684Y029690*
X017684Y029700*
X017685Y029705*
X018685Y030000D02*
D01*
X018683Y030030*
X018680Y030060*
X018675Y030090*
X018668Y030119*
X018658Y030148*
X018647Y030176*
X018634Y030204*
X018618Y030230*
X018601Y030255*
X018583Y030279*
X018562Y030302*
X018541Y030323*
X018517Y030342*
X018493Y030360*
X018467Y030376*
X018440Y030390*
X018412Y030403*
X018384Y030413*
X018355Y030422*
X018325Y030428*
X018295Y030432*
X018265Y030434*
X018234*
X018204Y030432*
X018174Y030428*
X018144Y030422*
X018115Y030413*
X018087Y030403*
X018059Y030390*
X018032Y030376*
X018006Y030360*
X017982Y030342*
X017958Y030323*
X017937Y030302*
X017916Y030279*
X017898Y030255*
X017881Y030230*
X017865Y030204*
X017852Y030176*
X017841Y030148*
X017831Y030119*
X017824Y030090*
X017819Y030060*
X017816Y030030*
X017815Y030000*
X017816Y029969*
X017819Y029939*
X017824Y029909*
X017831Y029880*
X017841Y029851*
X017852Y029823*
X017865Y029795*
X017881Y029769*
X017898Y029744*
X017916Y029720*
X017937Y029697*
X017958Y029676*
X017982Y029657*
X018006Y029639*
X018032Y029623*
X018059Y029609*
X018087Y029596*
X018115Y029586*
X018144Y029577*
X018174Y029571*
X018204Y029567*
X018234Y029565*
X018265*
X018295Y029567*
X018325Y029571*
X018355Y029577*
X018384Y029586*
X018412Y029596*
X018440Y029609*
X018467Y029623*
X018493Y029639*
X018517Y029657*
X018541Y029676*
X018562Y029697*
X018583Y029720*
X018601Y029744*
X018618Y029769*
X018634Y029795*
X018647Y029823*
X018658Y029851*
X018668Y029880*
X018675Y029909*
X018680Y029939*
X018683Y029969*
X018685Y030000*
X017685Y030295D02*
D01*
X017684Y030304*
X017683Y030314*
X017681Y030324*
X017679Y030333*
X017676Y030342*
X017672Y030351*
X017668Y030360*
X017663Y030369*
X017658Y030377*
X017652Y030384*
X017645Y030392*
X017638Y030399*
X017631Y030405*
X017623Y030411*
X017615Y030416*
X017606Y030420*
X017597Y030424*
X017588Y030428*
X017578Y030430*
X017569Y030432*
X017559Y030434*
X017549Y030434*
X017545Y030435*
X017030Y030580D02*
D01*
X017042Y030568*
X017055Y030557*
X017069Y030548*
X017083Y030539*
X017098Y030532*
X017113Y030525*
X017129Y030520*
X017145Y030515*
X017162Y030512*
X017179Y030510*
X017195Y030509*
X017200Y030510*
X017030Y030580D02*
D01*
X017042Y030568*
X017055Y030557*
X017069Y030548*
X017083Y030539*
X017098Y030532*
X017113Y030525*
X017129Y030520*
X017145Y030515*
X017162Y030512*
X017179Y030510*
X017195Y030509*
X017200Y030510*
X019685Y030000D02*
D01*
X019683Y030030*
X019680Y030060*
X019675Y030090*
X019668Y030119*
X019658Y030148*
X019647Y030176*
X019634Y030204*
X019618Y030230*
X019601Y030255*
X019583Y030279*
X019562Y030302*
X019541Y030323*
X019517Y030342*
X019493Y030360*
X019467Y030376*
X019440Y030390*
X019412Y030403*
X019384Y030413*
X019355Y030422*
X019325Y030428*
X019295Y030432*
X019265Y030434*
X019234*
X019204Y030432*
X019174Y030428*
X019144Y030422*
X019115Y030413*
X019087Y030403*
X019059Y030390*
X019032Y030376*
X019006Y030360*
X018982Y030342*
X018958Y030323*
X018937Y030302*
X018916Y030279*
X018898Y030255*
X018881Y030230*
X018865Y030204*
X018852Y030176*
X018841Y030148*
X018831Y030119*
X018824Y030090*
X018819Y030060*
X018816Y030030*
X018815Y030000*
X018816Y029969*
X018819Y029939*
X018824Y029909*
X018831Y029880*
X018841Y029851*
X018852Y029823*
X018865Y029795*
X018881Y029769*
X018898Y029744*
X018916Y029720*
X018937Y029697*
X018958Y029676*
X018982Y029657*
X019006Y029639*
X019032Y029623*
X019059Y029609*
X019087Y029596*
X019115Y029586*
X019144Y029577*
X019174Y029571*
X019204Y029567*
X019234Y029565*
X019265*
X019295Y029567*
X019325Y029571*
X019355Y029577*
X019384Y029586*
X019412Y029596*
X019440Y029609*
X019467Y029623*
X019493Y029639*
X019517Y029657*
X019541Y029676*
X019562Y029697*
X019583Y029720*
X019601Y029744*
X019618Y029769*
X019634Y029795*
X019647Y029823*
X019658Y029851*
X019668Y029880*
X019675Y029909*
X019680Y029939*
X019683Y029969*
X019685Y030000*
X019000Y030510D02*
D01*
X019016Y030510*
X019033Y030512*
X019049Y030515*
X019066Y030519*
X019082Y030524*
X019097Y030530*
X019112Y030538*
X019127Y030546*
X019141Y030555*
X019154Y030566*
X019166Y030577*
X019170Y030580*
X017019Y031270D02*
D01*
X017023Y031295*
X017025Y031322*
X017026Y031344*
X017274D02*
D01*
X017274Y031317*
X017277Y031291*
X017282Y031265*
X017288Y031240*
X017296Y031215*
X017306Y031191*
X017318Y031167*
X017331Y031144*
X017345Y031122*
X017361Y031102*
X017379Y031082*
X017398Y031064*
X017418Y031047*
X017439Y031032*
X017462Y031018*
X017485Y031006*
X017509Y030995*
X017523Y030990*
X018026Y031856D02*
D01*
X018025Y031882*
X018022Y031908*
X018017Y031934*
X018011Y031959*
X018003Y031984*
X017993Y032008*
X017981Y032032*
X017968Y032055*
X017954Y032077*
X017938Y032097*
X017920Y032117*
X017901Y032135*
X017881Y032152*
X017860Y032167*
X017838Y032181*
X017814Y032193*
X017790Y032204*
X017766Y032213*
X017740Y032220*
X017715Y032226*
X017689Y032229*
X017663Y032231*
X017636*
X017610Y032229*
X017584Y032226*
X017559Y032220*
X017533Y032213*
X017509Y032204*
X017485Y032193*
X017462Y032181*
X017439Y032167*
X017418Y032152*
X017398Y032135*
X017379Y032117*
X017361Y032097*
X017345Y032077*
X017331Y032055*
X017318Y032032*
X017306Y032008*
X017296Y031984*
X017288Y031959*
X017282Y031934*
X017277Y031908*
X017274Y031882*
X017274Y031856*
X019000Y030510D02*
D01*
X019016Y030510*
X019033Y030512*
X019049Y030515*
X019066Y030519*
X019082Y030524*
X019097Y030530*
X019112Y030538*
X019127Y030546*
X019141Y030555*
X019154Y030566*
X019166Y030577*
X019170Y030580*
X017777Y030990D02*
D01*
X017801Y030999*
X017825Y031011*
X017847Y031024*
X017869Y031038*
X017890Y031054*
X017910Y031072*
X017928Y031091*
X017945Y031111*
X017960Y031132*
X017974Y031154*
X017987Y031177*
X017998Y031201*
X018007Y031226*
X018014Y031251*
X018020Y031276*
X018023Y031302*
X018025Y031329*
X018026Y031344*
X019614Y032232D02*
D01*
X019604Y032231*
X019594Y032230*
X019584Y032228*
X019575Y032226*
X019566Y032223*
X019557Y032219*
X019548Y032215*
X019539Y032210*
X019531Y032205*
X019524Y032199*
X019516Y032192*
X019509Y032185*
X019503Y032178*
X019497Y032170*
X019492Y032162*
X019488Y032153*
X019484Y032144*
X019480Y032135*
X019478Y032125*
X019476Y032116*
X019474Y032106*
X019474Y032096*
X019474Y032092*
X020095Y021349D02*
D01*
X020104Y021349*
X020114Y021350*
X020124Y021352*
X020133Y021354*
X020142Y021357*
X020150Y021360*
X020274Y025161D02*
D01*
X020273Y025170*
X020272Y025180*
X020270Y025190*
X020268Y025199*
X020265Y025208*
X020261Y025217*
X020257Y025226*
X020252Y025235*
X020247Y025243*
X020241Y025250*
X020234Y025258*
X020227Y025265*
X020220Y025271*
X020212Y025277*
X020204Y025282*
X020195Y025286*
X020186Y025290*
X020177Y025294*
X020167Y025296*
X020158Y025298*
X020148Y025300*
X020138Y025300*
X020134Y025301*
Y024588D02*
D01*
X020143Y024588*
X020153Y024589*
X020163Y024591*
X020172Y024593*
X020181Y024596*
X020190Y024600*
X020199Y024604*
X020208Y024609*
X020216Y024614*
X020223Y024620*
X020231Y024627*
X020238Y024634*
X020244Y024641*
X020250Y024649*
X020255Y024658*
X020259Y024666*
X020263Y024675*
X020267Y024684*
X020269Y024694*
X020271Y024703*
X020273Y024713*
X020273Y024723*
X020274Y024728*
X020917Y023725D02*
D01*
X020901Y023711*
X020887Y023697*
X020874Y023682*
X020862Y023665*
X020851Y023648*
X020841Y023631*
X020832Y023612*
X020825Y023593*
X020819Y023574*
X020815Y023554*
X020812Y023534*
X020810Y023514*
X020810Y023494*
X020811Y023474*
X020813Y023454*
X020817Y023434*
X020822Y023414*
X020829Y023395*
X020837Y023376*
X020846Y023358*
X020857Y023341*
X020868Y023324*
X020881Y023309*
X020895Y023294*
X020910Y023280*
X020925Y023268*
X020942Y023256*
X020959Y023246*
X020977Y023236*
X020996Y023229*
X021015Y023222*
X021035Y023217*
X021055Y023213*
X021075Y023211*
X021095Y023210*
X021115Y023210*
X021135Y023212*
X021155Y023215*
X021175Y023220*
X021195Y023225*
X021213Y023233*
X021232Y023241*
X021249Y023251*
X021266Y023262*
X021283Y023275*
X021298Y023288*
X021312Y023302*
X021325Y023317*
X021337Y023334*
X021348Y023351*
X021358Y023368*
X021367Y023387*
X021374Y023406*
X021380Y023425*
X021384Y023445*
X021387Y023465*
X021389Y023485*
X021390Y023500*
D01*
X021389Y023520*
X021387Y023540*
X021383Y023560*
X021378Y023579*
X021372Y023599*
X021364Y023617*
X021356Y023636*
X021345Y023653*
X021334Y023670*
X021322Y023686*
X021308Y023701*
X021294Y023715*
X021283Y023725*
D01*
X021298Y023738*
X021312Y023752*
X021325Y023767*
X021337Y023784*
X021348Y023801*
X021358Y023818*
X021367Y023837*
X021374Y023856*
X021380Y023875*
X021384Y023895*
X021387Y023915*
X021389Y023935*
X021390Y023950*
D01*
X021389Y023970*
X021387Y023990*
X021383Y024010*
X021378Y024029*
X021372Y024049*
X021364Y024067*
X021356Y024086*
X021345Y024103*
X021334Y024120*
X021322Y024136*
X021308Y024151*
X021294Y024165*
X021278Y024178*
X021262Y024190*
X021245Y024201*
X021227Y024210*
X021208Y024218*
X021189Y024225*
X021170Y024231*
X021150Y024235*
X021130Y024238*
X021110Y024239*
X021089*
X021069Y024238*
X021049Y024235*
X021029Y024231*
X021010Y024225*
X020991Y024218*
X020972Y024210*
X020955Y024201*
X020937Y024190*
X020921Y024178*
X020905Y024165*
X020891Y024151*
X020877Y024136*
X020865Y024120*
X020854Y024103*
X020843Y024086*
X020835Y024067*
X020827Y024049*
X020821Y024029*
X020816Y024010*
X020812Y023990*
X020810Y023970*
X020810Y023950*
X020810Y023929*
X020812Y023909*
X020816Y023889*
X020821Y023870*
X020827Y023850*
X020835Y023832*
X020843Y023813*
X020854Y023796*
X020865Y023779*
X020877Y023763*
X020891Y023748*
X020905Y023734*
X020917Y023725*
X023629Y023780D02*
D01*
X023627Y023810*
X023624Y023841*
X023619Y023871*
X023611Y023901*
X023602Y023930*
X023590Y023958*
X023577Y023986*
X023562Y024013*
X023544Y024038*
X023526Y024062*
X023505Y024085*
X023483Y024106*
X023459Y024126*
X023435Y024144*
X023409Y024161*
X023381Y024175*
X023353Y024187*
X023324Y024198*
X023295Y024206*
X023265Y024213*
X023234Y024217*
X023204Y024219*
X023173*
X023143Y024217*
X023112Y024213*
X023082Y024206*
X023053Y024198*
X023024Y024187*
X022996Y024175*
X022969Y024161*
X022942Y024144*
X022918Y024126*
X022894Y024106*
X022872Y024085*
X022851Y024062*
X022833Y024038*
X022815Y024013*
X022800Y023986*
X022787Y023958*
X022775Y023930*
X022766Y023901*
X022758Y023871*
X022753Y023841*
X022750Y023810*
X022749Y023780*
X022750Y023749*
X022753Y023718*
X022758Y023688*
X022766Y023658*
X022775Y023629*
X022787Y023601*
X022800Y023573*
X022815Y023546*
X022833Y023521*
X022851Y023497*
X022872Y023474*
X022894Y023453*
X022918Y023433*
X022942Y023415*
X022969Y023398*
X022996Y023384*
X023024Y023372*
X023053Y023361*
X023082Y023353*
X023112Y023346*
X023143Y023342*
X023173Y023340*
X023204*
X023234Y023342*
X023265Y023346*
X023295Y023353*
X023324Y023361*
X023353Y023372*
X023381Y023384*
X023409Y023398*
X023435Y023415*
X023459Y023433*
X023483Y023453*
X023505Y023474*
X023526Y023497*
X023544Y023521*
X023562Y023546*
X023577Y023573*
X023590Y023601*
X023602Y023629*
X023611Y023658*
X023619Y023688*
X023624Y023718*
X023627Y023749*
X023629Y023780*
X020134Y025493D02*
D01*
X020143Y025493*
X020153Y025494*
X020163Y025496*
X020172Y025498*
X020181Y025501*
X020190Y025505*
X020199Y025509*
X020208Y025514*
X020216Y025519*
X020223Y025525*
X020231Y025532*
X020238Y025539*
X020244Y025546*
X020250Y025554*
X020253Y025560*
Y026140D02*
D01*
X020247Y026148*
X020241Y026155*
X020235Y026163*
X020228Y026169*
X020220Y026176*
X020213Y026182*
X020204Y026187*
X020196Y026191*
X020187Y026196*
X020178Y026199*
X020168Y026202*
X020159Y026204*
X020149Y026205*
X020140Y026206*
X020134Y026207*
Y026399D02*
D01*
X020143Y026399*
X020153Y026400*
X020163Y026402*
X020172Y026404*
X020181Y026407*
X020190Y026411*
X020199Y026415*
X020208Y026420*
X020216Y026425*
X020223Y026431*
X020231Y026438*
X020238Y026445*
X020244Y026452*
X020250Y026460*
X020255Y026469*
X020259Y026477*
X020263Y026486*
X020267Y026495*
X020269Y026505*
X020271Y026514*
X020273Y026524*
X020273Y026534*
X020274Y026539*
X020528Y026350D02*
D01*
X020519Y026344*
X020512Y026338*
X020505Y026331*
X020498Y026324*
X020492Y026317*
X020486Y026309*
X020481Y026300*
X020476Y026292*
X020472Y026283*
X020469Y026274*
X020467Y026264*
X020465Y026255*
X020463Y026245*
X020463Y026235*
X020463Y026232*
Y026468D02*
D01*
X020463Y026458*
X020464Y026448*
X020466Y026438*
X020468Y026429*
X020471Y026420*
X020475Y026411*
X020479Y026402*
X020484Y026393*
X020489Y026385*
X020495Y026378*
X020502Y026370*
X020509Y026363*
X020516Y026357*
X020524Y026351*
X020528Y026350*
X020635Y025560D02*
D01*
X020655Y025560*
X020675Y025562*
X020695Y025566*
X020714Y025571*
X020734Y025577*
X020752Y025585*
X020771Y025593*
X020788Y025604*
X020805Y025615*
X020821Y025627*
X020836Y025641*
X020840Y025645*
X020635Y025560D02*
D01*
X020655Y025560*
X020675Y025562*
X020695Y025566*
X020714Y025571*
X020734Y025577*
X020752Y025585*
X020771Y025593*
X020788Y025604*
X020805Y025615*
X020821Y025627*
X020836Y025641*
X020840Y025645*
X020997Y025659D02*
D01*
X021006Y025659*
X021016Y025660*
X021026Y025662*
X021035Y025664*
X021044Y025667*
X021053Y025671*
X021062Y025675*
X021071Y025680*
X021079Y025685*
X021086Y025691*
X021094Y025698*
X021101Y025705*
X021107Y025712*
X021113Y025720*
X021118Y025729*
X021122Y025737*
X021126Y025746*
X021130Y025755*
X021132Y025765*
X021134Y025774*
X021136Y025784*
X021136Y025794*
X021137Y025799*
X024685Y026300D02*
D01*
X024683Y026330*
X024680Y026360*
X024675Y026390*
X024668Y026419*
X024658Y026448*
X024647Y026476*
X024634Y026504*
X024618Y026530*
X024601Y026555*
X024583Y026579*
X024562Y026602*
X024541Y026623*
X024517Y026642*
X024493Y026660*
X024467Y026676*
X024440Y026690*
X024412Y026703*
X024384Y026713*
X024355Y026722*
X024325Y026728*
X024295Y026732*
X024265Y026734*
X024234*
X024204Y026732*
X024174Y026728*
X024144Y026722*
X024115Y026713*
X024087Y026703*
X024059Y026690*
X024032Y026676*
X024006Y026660*
X023982Y026642*
X023958Y026623*
X023937Y026602*
X023916Y026579*
X023898Y026555*
X023881Y026530*
X023865Y026504*
X023852Y026476*
X023841Y026448*
X023831Y026419*
X023824Y026390*
X023819Y026360*
X023816Y026330*
X023815Y026300*
X023816Y026269*
X023819Y026239*
X023824Y026209*
X023831Y026180*
X023841Y026151*
X023852Y026123*
X023865Y026095*
X023881Y026069*
X023898Y026044*
X023916Y026020*
X023937Y025997*
X023958Y025976*
X023982Y025957*
X024006Y025939*
X024032Y025923*
X024059Y025909*
X024087Y025896*
X024115Y025886*
X024144Y025877*
X024174Y025871*
X024204Y025867*
X024234Y025865*
X024265*
X024295Y025867*
X024325Y025871*
X024355Y025877*
X024384Y025886*
X024412Y025896*
X024440Y025909*
X024467Y025923*
X024493Y025939*
X024517Y025957*
X024541Y025976*
X024562Y025997*
X024583Y026020*
X024601Y026044*
X024618Y026069*
X024634Y026095*
X024647Y026123*
X024658Y026151*
X024668Y026180*
X024675Y026209*
X024680Y026239*
X024683Y026269*
X024685Y026300*
X021137Y026232D02*
D01*
X021136Y026241*
X021135Y026251*
X021133Y026261*
X021131Y026270*
X021128Y026279*
X021124Y026288*
X021120Y026297*
X021115Y026306*
X021110Y026314*
X021104Y026321*
X021097Y026329*
X021090Y026336*
X021083Y026342*
X021075Y026348*
X021072Y026350*
D01*
X021080Y026355*
X021087Y026361*
X021094Y026368*
X021101Y026375*
X021107Y026382*
X021113Y026390*
X021118Y026399*
X021123Y026407*
X021127Y026416*
X021130Y026425*
X021132Y026435*
X021134Y026444*
X021136Y026454*
X021136Y026464*
X021137Y026468*
X020603Y027041D02*
D01*
X020593Y027040*
X020583Y027039*
X020573Y027037*
X020564Y027035*
X020555Y027032*
X020546Y027028*
X020537Y027024*
X020528Y027019*
X020520Y027014*
X020513Y027008*
X020505Y027001*
X020498Y026994*
X020492Y026987*
X020486Y026979*
X020481Y026971*
X020477Y026962*
X020473Y026953*
X020469Y026944*
X020467Y026934*
X020465Y026925*
X020463Y026915*
X020463Y026905*
X020463Y026901*
X024810Y023780D02*
D01*
X024808Y023810*
X024805Y023841*
X024800Y023871*
X024792Y023901*
X024783Y023930*
X024771Y023958*
X024758Y023986*
X024743Y024013*
X024725Y024038*
X024707Y024062*
X024686Y024085*
X024664Y024106*
X024640Y024126*
X024616Y024144*
X024590Y024161*
X024562Y024175*
X024534Y024187*
X024505Y024198*
X024476Y024206*
X024446Y024213*
X024415Y024217*
X024385Y024219*
X024354*
X024324Y024217*
X024293Y024213*
X024263Y024206*
X024234Y024198*
X024205Y024187*
X024177Y024175*
X024150Y024161*
X024123Y024144*
X024099Y024126*
X024075Y024106*
X024053Y024085*
X024032Y024062*
X024014Y024038*
X023996Y024013*
X023981Y023986*
X023968Y023958*
X023956Y023930*
X023947Y023901*
X023939Y023871*
X023934Y023841*
X023931Y023810*
X023930Y023780*
X023931Y023749*
X023934Y023718*
X023939Y023688*
X023947Y023658*
X023956Y023629*
X023968Y023601*
X023981Y023573*
X023996Y023546*
X024014Y023521*
X024032Y023497*
X024053Y023474*
X024075Y023453*
X024099Y023433*
X024123Y023415*
X024150Y023398*
X024177Y023384*
X024205Y023372*
X024234Y023361*
X024263Y023353*
X024293Y023346*
X024324Y023342*
X024354Y023340*
X024385*
X024415Y023342*
X024446Y023346*
X024476Y023353*
X024505Y023361*
X024534Y023372*
X024562Y023384*
X024590Y023398*
X024616Y023415*
X024640Y023433*
X024664Y023453*
X024686Y023474*
X024707Y023497*
X024725Y023521*
X024743Y023546*
X024758Y023573*
X024771Y023601*
X024783Y023629*
X024792Y023658*
X024800Y023688*
X024805Y023718*
X024808Y023749*
X024810Y023780*
X026135Y021300D02*
D01*
X026133Y021330*
X026130Y021360*
X026125Y021390*
X026118Y021419*
X026108Y021448*
X026097Y021476*
X026084Y021504*
X026068Y021530*
X026051Y021555*
X026033Y021579*
X026012Y021602*
X025991Y021623*
X025967Y021642*
X025943Y021660*
X025917Y021676*
X025890Y021690*
X025862Y021703*
X025834Y021713*
X025805Y021722*
X025775Y021728*
X025745Y021732*
X025715Y021734*
X025684*
X025654Y021732*
X025624Y021728*
X025594Y021722*
X025565Y021713*
X025537Y021703*
X025509Y021690*
X025482Y021676*
X025456Y021660*
X025432Y021642*
X025408Y021623*
X025387Y021602*
X025366Y021579*
X025348Y021555*
X025331Y021530*
X025315Y021504*
X025302Y021476*
X025291Y021448*
X025281Y021419*
X025274Y021390*
X025269Y021360*
X025266Y021330*
X025265Y021300*
X025266Y021269*
X025269Y021239*
X025274Y021209*
X025281Y021180*
X025291Y021151*
X025302Y021123*
X025315Y021095*
X025331Y021069*
X025348Y021044*
X025366Y021020*
X025387Y020997*
X025408Y020976*
X025432Y020957*
X025456Y020939*
X025482Y020923*
X025509Y020909*
X025537Y020896*
X025565Y020886*
X025594Y020877*
X025624Y020871*
X025654Y020867*
X025684Y020865*
X025715*
X025745Y020867*
X025775Y020871*
X025805Y020877*
X025834Y020886*
X025862Y020896*
X025890Y020909*
X025917Y020923*
X025943Y020939*
X025967Y020957*
X025991Y020976*
X026012Y020997*
X026033Y021020*
X026051Y021044*
X026068Y021069*
X026084Y021095*
X026097Y021123*
X026108Y021151*
X026118Y021180*
X026125Y021209*
X026130Y021239*
X026133Y021269*
X026135Y021300*
X027135D02*
D01*
X027133Y021330*
X027130Y021360*
X027125Y021390*
X027118Y021419*
X027108Y021448*
X027097Y021476*
X027084Y021504*
X027068Y021530*
X027051Y021555*
X027033Y021579*
X027012Y021602*
X026991Y021623*
X026967Y021642*
X026943Y021660*
X026917Y021676*
X026890Y021690*
X026862Y021703*
X026834Y021713*
X026805Y021722*
X026775Y021728*
X026745Y021732*
X026715Y021734*
X026684*
X026654Y021732*
X026624Y021728*
X026594Y021722*
X026565Y021713*
X026537Y021703*
X026509Y021690*
X026482Y021676*
X026456Y021660*
X026432Y021642*
X026408Y021623*
X026387Y021602*
X026366Y021579*
X026348Y021555*
X026331Y021530*
X026315Y021504*
X026302Y021476*
X026291Y021448*
X026281Y021419*
X026274Y021390*
X026269Y021360*
X026266Y021330*
X026265Y021300*
X026266Y021269*
X026269Y021239*
X026274Y021209*
X026281Y021180*
X026291Y021151*
X026302Y021123*
X026315Y021095*
X026331Y021069*
X026348Y021044*
X026366Y021020*
X026387Y020997*
X026408Y020976*
X026432Y020957*
X026456Y020939*
X026482Y020923*
X026509Y020909*
X026537Y020896*
X026565Y020886*
X026594Y020877*
X026624Y020871*
X026654Y020867*
X026684Y020865*
X026715*
X026745Y020867*
X026775Y020871*
X026805Y020877*
X026834Y020886*
X026862Y020896*
X026890Y020909*
X026917Y020923*
X026943Y020939*
X026967Y020957*
X026991Y020976*
X027012Y020997*
X027033Y021020*
X027051Y021044*
X027068Y021069*
X027084Y021095*
X027097Y021123*
X027108Y021151*
X027118Y021180*
X027125Y021209*
X027130Y021239*
X027133Y021269*
X027135Y021300*
X025685Y026300D02*
D01*
X025683Y026330*
X025680Y026360*
X025675Y026390*
X025668Y026419*
X025658Y026448*
X025647Y026476*
X025634Y026504*
X025618Y026530*
X025601Y026555*
X025583Y026579*
X025562Y026602*
X025541Y026623*
X025517Y026642*
X025493Y026660*
X025467Y026676*
X025440Y026690*
X025412Y026703*
X025384Y026713*
X025355Y026722*
X025325Y026728*
X025295Y026732*
X025265Y026734*
X025234*
X025204Y026732*
X025174Y026728*
X025144Y026722*
X025115Y026713*
X025087Y026703*
X025059Y026690*
X025032Y026676*
X025006Y026660*
X024982Y026642*
X024958Y026623*
X024937Y026602*
X024916Y026579*
X024898Y026555*
X024881Y026530*
X024865Y026504*
X024852Y026476*
X024841Y026448*
X024831Y026419*
X024824Y026390*
X024819Y026360*
X024816Y026330*
X024815Y026300*
X024816Y026269*
X024819Y026239*
X024824Y026209*
X024831Y026180*
X024841Y026151*
X024852Y026123*
X024865Y026095*
X024881Y026069*
X024898Y026044*
X024916Y026020*
X024937Y025997*
X024958Y025976*
X024982Y025957*
X025006Y025939*
X025032Y025923*
X025059Y025909*
X025087Y025896*
X025115Y025886*
X025144Y025877*
X025174Y025871*
X025204Y025867*
X025234Y025865*
X025265*
X025295Y025867*
X025325Y025871*
X025355Y025877*
X025384Y025886*
X025412Y025896*
X025440Y025909*
X025467Y025923*
X025493Y025939*
X025517Y025957*
X025541Y025976*
X025562Y025997*
X025583Y026020*
X025601Y026044*
X025618Y026069*
X025634Y026095*
X025647Y026123*
X025658Y026151*
X025668Y026180*
X025675Y026209*
X025680Y026239*
X025683Y026269*
X025685Y026300*
X025815Y026005D02*
D01*
X025815Y025995*
X025816Y025985*
X025818Y025975*
X025820Y025966*
X025823Y025957*
X025827Y025948*
X025831Y025939*
X025836Y025930*
X025841Y025922*
X025847Y025915*
X025854Y025907*
X025861Y025900*
X025868Y025894*
X025876Y025888*
X025885Y025883*
X025893Y025879*
X025902Y025875*
X025911Y025871*
X025921Y025869*
X025930Y025867*
X025940Y025865*
X025950Y025865*
X025955Y025865*
X026545D02*
D01*
X026554Y025865*
X026564Y025866*
X026574Y025868*
X026583Y025870*
X026592Y025873*
X026601Y025877*
X026610Y025881*
X026619Y025886*
X026627Y025891*
X026634Y025897*
X026642Y025904*
X026649Y025911*
X026655Y025918*
X026661Y025926*
X026666Y025935*
X026670Y025943*
X026674Y025952*
X026678Y025961*
X026680Y025971*
X026682Y025980*
X026684Y025990*
X026684Y026000*
X026685Y026005*
X025955Y026735D02*
D01*
X025945Y026734*
X025935Y026733*
X025925Y026731*
X025916Y026729*
X025907Y026726*
X025898Y026722*
X025889Y026718*
X025880Y026713*
X025872Y026708*
X025865Y026702*
X025857Y026695*
X025850Y026688*
X025844Y026681*
X025838Y026673*
X025833Y026665*
X025829Y026656*
X025825Y026647*
X025821Y026638*
X025819Y026628*
X025817Y026619*
X025815Y026609*
X025815Y026599*
X025815Y026595*
X026685D02*
D01*
X026684Y026604*
X026683Y026614*
X026681Y026624*
X026679Y026633*
X026676Y026642*
X026672Y026651*
X026668Y026660*
X026663Y026669*
X026658Y026677*
X026652Y026684*
X026645Y026692*
X026638Y026699*
X026631Y026705*
X026623Y026711*
X026615Y026716*
X026606Y026720*
X026597Y026724*
X026588Y026728*
X026578Y026730*
X026569Y026732*
X026559Y026734*
X026549Y026734*
X026545Y026735*
X020140Y027300D02*
D01*
X020139Y027320*
X020137Y027340*
X020133Y027360*
X020128Y027379*
X020122Y027399*
X020114Y027417*
X020106Y027436*
X020095Y027453*
X020084Y027470*
X020072Y027486*
X020058Y027501*
X020044Y027515*
X020028Y027528*
X020012Y027540*
X019995Y027551*
X019977Y027560*
X019958Y027568*
X019939Y027575*
X019920Y027581*
X019900Y027585*
X019880Y027588*
X019860Y027589*
X019839*
X019819Y027588*
X019799Y027585*
X019779Y027581*
X019760Y027575*
X019741Y027568*
X019722Y027560*
X019705Y027551*
X019687Y027540*
X019671Y027528*
X019655Y027515*
X019641Y027501*
X019627Y027486*
X019615Y027470*
X019604Y027453*
X019593Y027436*
X019585Y027417*
X019577Y027399*
X019571Y027379*
X019566Y027360*
X019562Y027340*
X019560Y027320*
X019560Y027300*
X019560Y027279*
X019562Y027259*
X019566Y027239*
X019571Y027220*
X019577Y027200*
X019585Y027182*
X019593Y027163*
X019604Y027146*
X019615Y027129*
X019627Y027113*
X019629Y027112*
X020274Y026972D02*
D01*
X020273Y026981*
X020272Y026991*
X020270Y027001*
X020268Y027010*
X020265Y027019*
X020261Y027028*
X020257Y027037*
X020252Y027046*
X020247Y027054*
X020241Y027061*
X020234Y027069*
X020227Y027076*
X020220Y027082*
X020212Y027088*
X020204Y027093*
X020195Y027097*
X020186Y027101*
X020177Y027105*
X020167Y027107*
X020158Y027109*
X020148Y027111*
X020138Y027111*
X020134Y027112*
X020071D02*
D01*
X020083Y027127*
X020095Y027144*
X020105Y027162*
X020114Y027180*
X020121Y027198*
X020128Y027218*
X020133Y027237*
X020137Y027257*
X020139Y027277*
X020140Y027298*
X020140Y027300*
X021137Y026901D02*
D01*
X021136Y026910*
X021135Y026920*
X021133Y026930*
X021131Y026939*
X021128Y026948*
X021124Y026957*
X021120Y026966*
X021115Y026975*
X021110Y026983*
X021104Y026990*
X021097Y026998*
X021090Y027005*
X021083Y027011*
X021075Y027017*
X021067Y027022*
X021058Y027026*
X021049Y027030*
X021040Y027034*
X021030Y027036*
X021021Y027038*
X021011Y027040*
X021001Y027040*
X020997Y027041*
X020610Y030950D02*
D01*
X020610Y030933*
X020612Y030916*
X020615Y030900*
X020619Y030883*
X020624Y030867*
X020630Y030852*
X020638Y030837*
X020646Y030822*
X020655Y030808*
X020666Y030795*
X020677Y030783*
X020680Y030780*
X020930Y030530D02*
D01*
X020942Y030518*
X020955Y030507*
X020969Y030498*
X020983Y030489*
X020998Y030482*
X021013Y030475*
X021029Y030470*
X021045Y030465*
X021062Y030462*
X021079Y030460*
X021095Y030459*
X021100Y030460*
X019566Y030976D02*
D01*
X019575Y030972*
X019584Y030970*
X019594Y030968*
X019604Y030967*
X019614Y030968*
X020610Y030950D02*
D01*
X020610Y030933*
X020612Y030916*
X020615Y030900*
X020619Y030883*
X020624Y030867*
X020630Y030852*
X020638Y030837*
X020646Y030822*
X020655Y030808*
X020666Y030795*
X020677Y030783*
X020680Y030780*
X020930Y030530D02*
D01*
X020942Y030518*
X020955Y030507*
X020969Y030498*
X020983Y030489*
X020998Y030482*
X021013Y030475*
X021029Y030470*
X021045Y030465*
X021062Y030462*
X021079Y030460*
X021095Y030459*
X021100Y030460*
X022790Y027250D02*
D01*
X022789Y027270*
X022787Y027290*
X022783Y027310*
X022778Y027329*
X022772Y027349*
X022764Y027367*
X022756Y027386*
X022745Y027403*
X022734Y027420*
X022722Y027436*
X022708Y027451*
X022694Y027465*
X022690Y027469*
X022366Y028984D02*
D01*
X022356Y028974*
X022348Y028964*
X022341Y028953*
X022334Y028941*
X022328Y028930*
X022323Y028917*
X022318Y028905*
X022315Y028892*
X022312Y028879*
X022311Y028866*
X022310Y028853*
X022310Y028850*
X022366Y028985D02*
D01*
X022356Y028975*
X022348Y028965*
X022340Y028954*
X022333Y028942*
X022327Y028931*
X022322Y028918*
X022318Y028906*
X022314Y028893*
X022312Y028880*
X022310Y028867*
X022309Y028854*
X022310Y028850*
Y027469D02*
D01*
X022295Y027455*
X022281Y027440*
X022268Y027424*
X022256Y027408*
X022246Y027390*
X022237Y027372*
X022229Y027354*
X022222Y027335*
X022217Y027315*
X022213Y027295*
X022211Y027275*
X022210Y027255*
X022210Y027235*
X022212Y027214*
X022215Y027194*
X022219Y027175*
X022225Y027155*
X022233Y027136*
X022241Y027118*
X022251Y027100*
X022262Y027083*
X022274Y027067*
X022287Y027052*
X022302Y027038*
X022317Y027024*
X022333Y027012*
X022350Y027001*
X022368Y026991*
X022386Y026983*
X022405Y026975*
X022424Y026970*
X022444Y026965*
X022464Y026962*
X022484Y026960*
X022504Y026960*
X022524Y026961*
X022545Y026963*
X022564Y026967*
X022584Y026972*
X022603Y026979*
X022622Y026987*
X022640Y026996*
X022657Y027006*
X022674Y027018*
X022690Y027031*
X022704Y027044*
X022718Y027059*
X022731Y027075*
X022743Y027091*
X022753Y027109*
X022762Y027127*
X022770Y027145*
X022777Y027164*
X022782Y027184*
X022786Y027204*
X022788Y027224*
X022789Y027244*
X022790Y027250*
X023250Y029790D02*
D01*
X023236Y029789*
X023223Y029788*
X023210Y029785*
X023197Y029782*
X023185Y029778*
X023172Y029773*
X023160Y029767*
X023149Y029761*
X023138Y029753*
X023127Y029745*
X023118Y029736*
X023115Y029734*
X023250Y029790D02*
D01*
X023236Y029789*
X023223Y029788*
X023210Y029785*
X023197Y029782*
X023185Y029778*
X023172Y029773*
X023160Y029767*
X023149Y029761*
X023138Y029753*
X023127Y029745*
X023118Y029736*
X023116Y029734*
X023150Y030460D02*
D01*
X023166Y030460*
X023183Y030462*
X023199Y030465*
X023216Y030469*
X023232Y030474*
X023247Y030480*
X023262Y030488*
X023277Y030496*
X023291Y030505*
X023304Y030516*
X023316Y030527*
X023320Y030530*
X023150Y030460D02*
D01*
X023166Y030460*
X023183Y030462*
X023199Y030465*
X023216Y030469*
X023232Y030474*
X023247Y030480*
X023262Y030488*
X023277Y030496*
X023291Y030505*
X023304Y030516*
X023316Y030527*
X023320Y030530*
X023766Y030976D02*
D01*
X023775Y030972*
X023784Y030970*
X023794Y030968*
X023804Y030967*
X023814Y030968*
X020086D02*
D01*
X020095Y030968*
X020105Y030969*
X020115Y030971*
X020124Y030973*
X020133Y030976*
X020142Y030980*
X020151Y030984*
X020160Y030989*
X020168Y030994*
X020175Y031000*
X020183Y031007*
X020190Y031014*
X020196Y031021*
X020202Y031029*
X020207Y031038*
X020211Y031046*
X020215Y031055*
X020219Y031064*
X020221Y031074*
X020223Y031083*
X020225Y031093*
X020225Y031103*
X020226Y031108*
X021090Y031054D02*
D01*
X021109Y031071*
X021128Y031090*
X021145Y031110*
X021160Y031131*
X021174Y031153*
X021187Y031176*
X021198Y031200*
X021207Y031225*
X021214Y031250*
X021220Y031276*
X021224Y031302*
X021226Y031328*
X021226Y031344*
X020474D02*
D01*
X020474Y031317*
X020477Y031291*
X020482Y031265*
X020488Y031240*
X020496Y031215*
X020506Y031191*
X020518Y031167*
X020531Y031144*
X020545Y031122*
X020561Y031102*
X020579Y031082*
X020598Y031064*
X020610Y031054*
X020226Y032092D02*
D01*
X020225Y032101*
X020224Y032111*
X020222Y032121*
X020220Y032130*
X020217Y032139*
X020213Y032148*
X020209Y032157*
X020204Y032166*
X020199Y032174*
X020193Y032181*
X020186Y032189*
X020179Y032196*
X020172Y032202*
X020164Y032208*
X020156Y032213*
X020147Y032217*
X020138Y032221*
X020129Y032225*
X020119Y032227*
X020110Y032229*
X020100Y032231*
X020090Y032231*
X020086Y032232*
X021226Y031856D02*
D01*
X021225Y031882*
X021222Y031908*
X021217Y031934*
X021211Y031959*
X021203Y031984*
X021193Y032008*
X021181Y032032*
X021168Y032055*
X021154Y032077*
X021138Y032097*
X021120Y032117*
X021101Y032135*
X021081Y032152*
X021060Y032167*
X021038Y032181*
X021014Y032193*
X020990Y032204*
X020966Y032213*
X020940Y032220*
X020915Y032226*
X020889Y032229*
X020863Y032231*
X020836*
X020810Y032229*
X020784Y032226*
X020759Y032220*
X020733Y032213*
X020709Y032204*
X020685Y032193*
X020662Y032181*
X020639Y032167*
X020618Y032152*
X020598Y032135*
X020579Y032117*
X020561Y032097*
X020545Y032077*
X020531Y032055*
X020518Y032032*
X020506Y032008*
X020496Y031984*
X020488Y031959*
X020482Y031934*
X020477Y031908*
X020474Y031882*
X020474Y031856*
X021474Y031344D02*
D01*
X021474Y031317*
X021477Y031291*
X021482Y031265*
X021488Y031240*
X021496Y031215*
X021506Y031191*
X021518Y031167*
X021531Y031144*
X021545Y031122*
X021561Y031102*
X021579Y031082*
X021598Y031064*
X021618Y031047*
X021639Y031032*
X021662Y031018*
X021685Y031006*
X021709Y030995*
X021733Y030986*
X021759Y030979*
X021784Y030973*
X021810Y030970*
X021836Y030968*
X021863*
X021889Y030970*
X021915Y030973*
X021940Y030979*
X021966Y030986*
X021990Y030995*
X022014Y031006*
X022038Y031018*
X022060Y031032*
X022081Y031047*
X022101Y031064*
X022120Y031082*
X022138Y031102*
X022154Y031122*
X022168Y031144*
X022181Y031167*
X022193Y031191*
X022203Y031215*
X022211Y031240*
X022217Y031265*
X022222Y031291*
X022225Y031317*
X022226Y031344*
Y031856D02*
D01*
X022225Y031882*
X022222Y031908*
X022217Y031934*
X022211Y031959*
X022203Y031984*
X022193Y032008*
X022181Y032032*
X022168Y032055*
X022154Y032077*
X022138Y032097*
X022120Y032117*
X022101Y032135*
X022081Y032152*
X022060Y032167*
X022038Y032181*
X022014Y032193*
X021990Y032204*
X021966Y032213*
X021940Y032220*
X021915Y032226*
X021889Y032229*
X021863Y032231*
X021836*
X021810Y032229*
X021784Y032226*
X021759Y032220*
X021733Y032213*
X021709Y032204*
X021685Y032193*
X021662Y032181*
X021639Y032167*
X021618Y032152*
X021598Y032135*
X021579Y032117*
X021561Y032097*
X021545Y032077*
X021531Y032055*
X021518Y032032*
X021506Y032008*
X021496Y031984*
X021488Y031959*
X021482Y031934*
X021477Y031908*
X021474Y031882*
X021474Y031856*
X023814Y032232D02*
D01*
X023804Y032231*
X023794Y032230*
X023784Y032228*
X023775Y032226*
X023766Y032223*
X023757Y032219*
X023748Y032215*
X023739Y032210*
X023731Y032205*
X023724Y032199*
X023716Y032192*
X023709Y032185*
X023703Y032178*
X023697Y032170*
X023692Y032162*
X023688Y032153*
X023684Y032144*
X023680Y032135*
X023678Y032125*
X023676Y032116*
X023674Y032106*
X023674Y032096*
X023674Y032092*
X024685Y027900D02*
D01*
X024683Y027930*
X024680Y027960*
X024675Y027990*
X024668Y028019*
X024658Y028048*
X024647Y028076*
X024634Y028104*
X024618Y028130*
X024601Y028155*
X024583Y028179*
X024562Y028202*
X024541Y028223*
X024517Y028242*
X024493Y028260*
X024467Y028276*
X024440Y028290*
X024412Y028303*
X024384Y028313*
X024355Y028322*
X024325Y028328*
X024295Y028332*
X024265Y028334*
X024234*
X024204Y028332*
X024174Y028328*
X024144Y028322*
X024115Y028313*
X024087Y028303*
X024059Y028290*
X024032Y028276*
X024006Y028260*
X023982Y028242*
X023958Y028223*
X023937Y028202*
X023916Y028179*
X023898Y028155*
X023881Y028130*
X023865Y028104*
X023852Y028076*
X023841Y028048*
X023831Y028019*
X023824Y027990*
X023819Y027960*
X023816Y027930*
X023815Y027900*
X023816Y027869*
X023819Y027839*
X023824Y027809*
X023831Y027780*
X023841Y027751*
X023852Y027723*
X023865Y027695*
X023881Y027669*
X023898Y027644*
X023916Y027620*
X023937Y027597*
X023958Y027576*
X023982Y027557*
X024006Y027539*
X024032Y027523*
X024059Y027509*
X024087Y027496*
X024115Y027486*
X024144Y027477*
X024174Y027471*
X024204Y027467*
X024234Y027465*
X024265*
X024295Y027467*
X024325Y027471*
X024355Y027477*
X024384Y027486*
X024412Y027496*
X024440Y027509*
X024467Y027523*
X024493Y027539*
X024517Y027557*
X024541Y027576*
X024562Y027597*
X024583Y027620*
X024601Y027644*
X024618Y027669*
X024634Y027695*
X024647Y027723*
X024658Y027751*
X024668Y027780*
X024675Y027809*
X024680Y027839*
X024683Y027869*
X024685Y027900*
X025685D02*
D01*
X025683Y027930*
X025680Y027960*
X025675Y027990*
X025668Y028019*
X025658Y028048*
X025647Y028076*
X025634Y028104*
X025618Y028130*
X025601Y028155*
X025583Y028179*
X025562Y028202*
X025541Y028223*
X025517Y028242*
X025493Y028260*
X025467Y028276*
X025440Y028290*
X025412Y028303*
X025384Y028313*
X025355Y028322*
X025325Y028328*
X025295Y028332*
X025265Y028334*
X025234*
X025204Y028332*
X025174Y028328*
X025144Y028322*
X025115Y028313*
X025087Y028303*
X025059Y028290*
X025032Y028276*
X025006Y028260*
X024982Y028242*
X024958Y028223*
X024937Y028202*
X024916Y028179*
X024898Y028155*
X024881Y028130*
X024865Y028104*
X024852Y028076*
X024841Y028048*
X024831Y028019*
X024824Y027990*
X024819Y027960*
X024816Y027930*
X024815Y027900*
X024816Y027869*
X024819Y027839*
X024824Y027809*
X024831Y027780*
X024841Y027751*
X024852Y027723*
X024865Y027695*
X024881Y027669*
X024898Y027644*
X024916Y027620*
X024937Y027597*
X024958Y027576*
X024982Y027557*
X025006Y027539*
X025032Y027523*
X025059Y027509*
X025087Y027496*
X025115Y027486*
X025144Y027477*
X025174Y027471*
X025204Y027467*
X025234Y027465*
X025265*
X025295Y027467*
X025325Y027471*
X025355Y027477*
X025384Y027486*
X025412Y027496*
X025440Y027509*
X025467Y027523*
X025493Y027539*
X025517Y027557*
X025541Y027576*
X025562Y027597*
X025583Y027620*
X025601Y027644*
X025618Y027669*
X025634Y027695*
X025647Y027723*
X025658Y027751*
X025668Y027780*
X025675Y027809*
X025680Y027839*
X025683Y027869*
X025685Y027900*
X024286Y030968D02*
D01*
X024295Y030968*
X024305Y030969*
X024315Y030971*
X024324Y030973*
X024333Y030976*
X024342Y030980*
X024351Y030984*
X024360Y030989*
X024368Y030994*
X024375Y031000*
X024383Y031007*
X024390Y031014*
X024396Y031021*
X024402Y031029*
X024407Y031038*
X024411Y031046*
X024415Y031055*
X024419Y031064*
X024421Y031074*
X024423Y031083*
X024425Y031093*
X024425Y031103*
X024426Y031108*
X024381Y029410D02*
D01*
X024394Y029395*
X024409Y029381*
X024425Y029368*
X024441Y029356*
X024459Y029346*
X024477Y029337*
X024495Y029329*
X024514Y029322*
X024534Y029317*
X024554Y029313*
X024574Y029311*
X024594Y029310*
X024614Y029310*
X024635Y029312*
X024655Y029315*
X024674Y029319*
X024694Y029325*
X024713Y029333*
X024731Y029341*
X024749Y029351*
X024766Y029362*
X024782Y029374*
X024797Y029387*
X024811Y029402*
X024825Y029417*
X024837Y029433*
X024848Y029450*
X024858Y029468*
X024866Y029486*
X024874Y029505*
X024879Y029524*
X024884Y029544*
X024887Y029564*
X024889Y029584*
X024890Y029600*
D01*
X024889Y029620*
X024887Y029640*
X024883Y029660*
X024878Y029679*
X024872Y029699*
X024864Y029717*
X024856Y029736*
X024845Y029753*
X024834Y029770*
X024822Y029786*
X024808Y029801*
X024794Y029815*
X024778Y029828*
X024762Y029840*
X024745Y029851*
X024727Y029860*
X024708Y029868*
X024689Y029875*
X024670Y029881*
X024650Y029885*
X024630Y029888*
X024610Y029889*
X024589*
X024569Y029888*
X024549Y029885*
X024529Y029881*
X024510Y029875*
X024491Y029868*
X024472Y029860*
X024455Y029851*
X024437Y029840*
X024421Y029828*
X024405Y029815*
X024391Y029801*
X024381Y029790*
X025815Y027605D02*
D01*
X025815Y027595*
X025816Y027585*
X025818Y027575*
X025820Y027566*
X025823Y027557*
X025827Y027548*
X025831Y027539*
X025836Y027530*
X025841Y027522*
X025847Y027515*
X025854Y027507*
X025861Y027500*
X025868Y027494*
X025876Y027488*
X025885Y027483*
X025893Y027479*
X025902Y027475*
X025911Y027471*
X025921Y027469*
X025930Y027467*
X025940Y027465*
X025950Y027465*
X025955Y027465*
X026545D02*
D01*
X026554Y027465*
X026564Y027466*
X026574Y027468*
X026583Y027470*
X026592Y027473*
X026601Y027477*
X026610Y027481*
X026619Y027486*
X026627Y027491*
X026634Y027497*
X026642Y027504*
X026649Y027511*
X026655Y027518*
X026661Y027526*
X026666Y027535*
X026670Y027543*
X026674Y027552*
X026678Y027561*
X026680Y027571*
X026682Y027580*
X026684Y027590*
X026684Y027600*
X026685Y027605*
X025955Y028335D02*
D01*
X025945Y028334*
X025935Y028333*
X025925Y028331*
X025916Y028329*
X025907Y028326*
X025898Y028322*
X025889Y028318*
X025880Y028313*
X025872Y028308*
X025865Y028302*
X025857Y028295*
X025850Y028288*
X025844Y028281*
X025838Y028273*
X025833Y028265*
X025829Y028256*
X025825Y028247*
X025821Y028238*
X025819Y028228*
X025817Y028219*
X025815Y028209*
X025815Y028199*
X025815Y028195*
X026685D02*
D01*
X026684Y028204*
X026683Y028214*
X026681Y028224*
X026679Y028233*
X026676Y028242*
X026672Y028251*
X026668Y028260*
X026663Y028269*
X026658Y028277*
X026652Y028284*
X026645Y028292*
X026638Y028299*
X026631Y028305*
X026623Y028311*
X026615Y028316*
X026606Y028320*
X026597Y028324*
X026588Y028328*
X026578Y028330*
X026569Y028332*
X026559Y028334*
X026549Y028334*
X026545Y028335*
X024674Y031344D02*
D01*
X024674Y031317*
X024677Y031291*
X024682Y031265*
X024688Y031240*
X024696Y031215*
X024706Y031191*
X024718Y031167*
X024731Y031144*
X024745Y031122*
X024761Y031102*
X024779Y031082*
X024798Y031064*
X024818Y031047*
X024839Y031032*
X024862Y031018*
X024885Y031006*
X024909Y030995*
X024933Y030986*
X024959Y030979*
X024984Y030973*
X025010Y030970*
X025036Y030968*
X025063*
X025089Y030970*
X025115Y030973*
X025140Y030979*
X025166Y030986*
X025190Y030995*
X025214Y031006*
X025238Y031018*
X025260Y031032*
X025281Y031047*
X025301Y031064*
X025320Y031082*
X025338Y031102*
X025354Y031122*
X025368Y031144*
X025381Y031167*
X025393Y031191*
X025403Y031215*
X025411Y031240*
X025417Y031265*
X025422Y031291*
X025425Y031317*
X025426Y031344*
X024426Y032092D02*
D01*
X024425Y032101*
X024424Y032111*
X024422Y032121*
X024420Y032130*
X024417Y032139*
X024413Y032148*
X024409Y032157*
X024404Y032166*
X024399Y032174*
X024393Y032181*
X024386Y032189*
X024379Y032196*
X024372Y032202*
X024364Y032208*
X024356Y032213*
X024347Y032217*
X024338Y032221*
X024329Y032225*
X024319Y032227*
X024310Y032229*
X024300Y032231*
X024290Y032231*
X024286Y032232*
X025426Y031856D02*
D01*
X025425Y031882*
X025422Y031908*
X025417Y031934*
X025411Y031959*
X025403Y031984*
X025393Y032008*
X025381Y032032*
X025368Y032055*
X025354Y032077*
X025338Y032097*
X025320Y032117*
X025301Y032135*
X025281Y032152*
X025260Y032167*
X025238Y032181*
X025214Y032193*
X025190Y032204*
X025166Y032213*
X025140Y032220*
X025115Y032226*
X025089Y032229*
X025063Y032231*
X025036*
X025010Y032229*
X024984Y032226*
X024959Y032220*
X024933Y032213*
X024909Y032204*
X024885Y032193*
X024862Y032181*
X024839Y032167*
X024818Y032152*
X024798Y032135*
X024779Y032117*
X024761Y032097*
X024745Y032077*
X024731Y032055*
X024718Y032032*
X024706Y032008*
X024696Y031984*
X024688Y031959*
X024682Y031934*
X024677Y031908*
X024674Y031882*
X024674Y031856*
X025674Y031344D02*
D01*
X025674Y031317*
X025677Y031291*
X025682Y031265*
X025688Y031240*
X025696Y031215*
X025706Y031191*
X025718Y031167*
X025731Y031144*
X025745Y031122*
X025761Y031102*
X025779Y031082*
X025798Y031064*
X025818Y031047*
X025839Y031032*
X025862Y031018*
X025885Y031006*
X025909Y030995*
X025933Y030986*
X025959Y030979*
X025984Y030973*
X026010Y030970*
X026036Y030968*
X026063*
X026089Y030970*
X026115Y030973*
X026140Y030979*
X026166Y030986*
X026190Y030995*
X026214Y031006*
X026238Y031018*
X026260Y031032*
X026281Y031047*
X026301Y031064*
X026320Y031082*
X026338Y031102*
X026354Y031122*
X026368Y031144*
X026381Y031167*
X026393Y031191*
X026403Y031215*
X026411Y031240*
X026417Y031265*
X026422Y031291*
X026425Y031317*
X026426Y031344*
Y031856D02*
D01*
X026425Y031882*
X026422Y031908*
X026417Y031934*
X026411Y031959*
X026403Y031984*
X026393Y032008*
X026381Y032032*
X026368Y032055*
X026354Y032077*
X026338Y032097*
X026320Y032117*
X026301Y032135*
X026281Y032152*
X026260Y032167*
X026238Y032181*
X026214Y032193*
X026190Y032204*
X026166Y032213*
X026140Y032220*
X026115Y032226*
X026089Y032229*
X026063Y032231*
X026036*
X026010Y032229*
X025984Y032226*
X025959Y032220*
X025933Y032213*
X025909Y032204*
X025885Y032193*
X025862Y032181*
X025839Y032167*
X025818Y032152*
X025798Y032135*
X025779Y032117*
X025761Y032097*
X025745Y032077*
X025731Y032055*
X025718Y032032*
X025706Y032008*
X025696Y031984*
X025688Y031959*
X025682Y031934*
X025677Y031908*
X025674Y031882*
X025674Y031856*
X010190Y021488D02*
X010778Y020900D01*
X010190Y021160D02*
X010450Y020900D01*
X010190Y021206D02*
X010496Y020900D01*
X010190Y022620D02*
X011910Y020900D01*
X010190Y022903D02*
X012193Y020900D01*
X010190Y022054D02*
X011344Y020900D01*
X010190Y022337D02*
X011627Y020900D01*
X010190Y023468D02*
X012758Y020900D01*
X010190Y023185D02*
X012475Y020900D01*
X011000D02*
X013453Y023353D01*
X010190Y023751D02*
X013041Y020900D01*
X010190Y024600D02*
X013890Y020900D01*
X010190Y024883D02*
X014173Y020900D01*
X010190Y024034D02*
X013324Y020900D01*
X010190Y024317D02*
X013607Y020900D01*
X010190Y021771D02*
X011061Y020900D01*
X010301Y021049D02*
X012921Y023669D01*
X010718Y020900D02*
X013187Y023369D01*
X010442Y020908D02*
X013020Y023485D01*
X010190Y022069D02*
X014165Y026044D01*
X010190Y022635D02*
X013602Y026047D01*
X011283Y020900D02*
X014093Y023710D01*
X010190Y021221D02*
X012961Y023992D01*
X011566Y020900D02*
X014178Y023512D01*
X010190Y025165D02*
X014455Y020900D01*
X012132D02*
X014574Y023342D01*
X011849Y020900D02*
X014334Y023385D01*
X010190Y026014D02*
X015304Y020900D01*
X010190Y021787D02*
X014448Y026044D01*
X010190Y025448D02*
X014738Y020900D01*
X010190Y025731D02*
X015021Y020900D01*
X013829D02*
X015010Y022081D01*
X013546Y020900D02*
X015010Y022364D01*
X014395Y020900D02*
X015010Y021515D01*
X014112Y020900D02*
X015010Y021798D01*
X012415Y020900D02*
X015010Y023495D01*
X012132Y020900D02*
X014574Y023342D01*
X013263Y020900D02*
X015010Y022647D01*
X012980Y020900D02*
X015010Y022930D01*
X012698Y020900D02*
X015010Y023212D01*
X013423Y023346D02*
X015010Y021760D01*
X014677Y020900D02*
X015137Y021360D01*
X014560Y023341D02*
X015010Y022891D01*
X013619Y023434D02*
X015010Y022042D01*
X013744Y023591D02*
X015010Y022325D01*
Y021360D02*
Y024240D01*
X013783Y023835D02*
X015010Y022608D01*
X014771Y023413D02*
X015010Y023174D01*
X014908Y023559D02*
X015010Y023457D01*
X014965Y023733D02*
X015010Y023778D01*
X014965Y023733D02*
X015010Y023778D01*
X014078Y026044D02*
X014609D01*
X014968Y023782D02*
X015010Y023739D01*
X014795Y024129D02*
X015360Y024694D01*
X014597Y024214D02*
X015360Y024977D01*
X014923Y023973D02*
X015010Y024061D01*
X015189Y024240D02*
X015360Y024411D01*
X013757Y023939D02*
X015360Y025542D01*
X013554Y026044D02*
X015358Y024240D01*
X014119Y026044D02*
X015360Y024804D01*
X014402Y026044D02*
X015360Y025087D01*
X010190Y023484D02*
X013151Y026444D01*
X010190Y026580D02*
X012913Y023856D01*
X010190Y022918D02*
X013365Y026092D01*
X010190Y023201D02*
X013217Y026228D01*
X010190Y021160D02*
Y029600D01*
Y027428D02*
X013402Y024216D01*
X010190Y026862D02*
X013001Y024052D01*
X010190Y027145D02*
X013158Y024177D01*
X010190Y026297D02*
X015010Y021477D01*
X010190Y027711D02*
X014089Y023812D01*
X010190Y021504D02*
X014846Y026160D01*
X010190Y022352D02*
X013955Y026117D01*
X010190Y028842D02*
X015010Y024022D01*
X010190Y028559D02*
X014530Y024220D01*
X010190Y027994D02*
X014161Y024023D01*
X010190Y028277D02*
X014307Y024160D01*
X010190Y026312D02*
X011946Y028068D01*
X010190Y026595D02*
X011663Y028068D01*
X010190Y025464D02*
X012794Y028068D01*
X011813D02*
X013214Y026667D01*
X010190Y025746D02*
X012581Y028138D01*
X010190Y026029D02*
X012455Y028294D01*
X011524Y028073D02*
X013151Y026447D01*
X010190Y026878D02*
X011445Y028133D01*
X010190Y024332D02*
X013963Y028105D01*
X010190Y024615D02*
X013667Y028092D01*
X012610Y028119D02*
X013952Y026777D01*
X012086Y028077D02*
X013359Y026805D01*
X010190Y024898D02*
X013504Y028212D01*
X010190Y025181D02*
X013425Y028416D01*
X010190Y029125D02*
X015075Y024240D01*
X012176Y028270D02*
X013592Y026854D01*
X013938Y026184D02*
Y026312D01*
X013911Y026253D02*
X013938Y026226D01*
Y026588D02*
Y026716D01*
X013914Y026642D02*
X013938Y026666D01*
X013134Y024165D02*
X015129Y026160D01*
X013774Y026107D02*
X015360Y024521D01*
X014671Y026058D02*
X015360Y025369D01*
X014852Y026160D02*
X015360Y025652D01*
Y024260D02*
Y026160D01*
X015135D02*
X015360Y025935D01*
X013793Y028068D02*
X015121Y026740D01*
X014078Y026856D02*
X014609D01*
X013090Y028205D02*
X014439Y026856D01*
X012923Y028089D02*
X014156Y026856D01*
X015360Y026740D02*
Y028590D01*
X013174Y028404D02*
X014838Y026740D01*
X014747D02*
X015360D01*
X014676Y026839D02*
X015360Y027522D01*
X015143Y026740D02*
X015360Y026957D01*
X014861Y026740D02*
X015360Y027239D01*
X014011Y028133D02*
X015360Y026784D01*
X013779Y026789D02*
X015360Y028371D01*
X014411Y026856D02*
X015360Y027805D01*
X014128Y026856D02*
X015360Y028088D01*
X018550Y020247D02*
X018813Y020510D01*
X018550Y020765D02*
X018813Y020502D01*
X018550Y019964D02*
X018815Y020229D01*
X018550Y020482D02*
X018817Y020215D01*
X018238Y021360D02*
X018837Y020761D01*
X015809Y020900D02*
X016269Y021360D01*
X018550Y019350D02*
Y020900D01*
Y020813D02*
X018813Y021076D01*
X018550Y019634D02*
X019234Y018950D01*
X018550Y019917D02*
X019517Y018950D01*
X018550Y019350D02*
X018950Y018950D01*
X018550Y019351D02*
X018951Y018950D01*
X018550Y020199D02*
X019799Y018950D01*
X018550Y020530D02*
X018847Y020827D01*
X018550Y019399D02*
X019260Y020109D01*
X018550Y019681D02*
X018977Y020109D01*
X016092Y020900D02*
X016552Y021360D01*
X015975D02*
X016435Y020900D01*
X016375D02*
X016835Y021360D01*
X016258D02*
X016718Y020900D01*
X015410Y021360D02*
X015870Y020900D01*
X015243D02*
X015703Y021360D01*
X015692D02*
X016152Y020900D01*
X015526D02*
X015986Y021360D01*
X016657Y020900D02*
X017117Y021360D01*
X010450Y020900D02*
X018550D01*
X018354D02*
X018813Y021359D01*
X017955Y021360D02*
X018415Y020900D01*
X016541Y021360D02*
X017001Y020900D01*
X017940Y021360D02*
X018813D01*
X018072Y020900D02*
X018532Y021360D01*
X018521D02*
X018813Y021068D01*
X018809Y019091D02*
X019389Y019672D01*
X018667Y019233D02*
X019387Y019952D01*
X019206Y020109D02*
X019381Y019934D01*
X018953Y020109D02*
X019347D01*
X018919Y020113D02*
X019410Y019622D01*
X019447Y020151D02*
X019483Y020115D01*
X018950Y018950D02*
X019500Y019500D01*
X018950Y018950D02*
X020500D01*
X019516D02*
X019990Y019424D01*
X019233Y018950D02*
X019680Y019397D01*
X019487Y020960D02*
X020998Y019448D01*
X019487Y021243D02*
X021279Y019450D01*
X018813Y020249D02*
Y020682D01*
Y020918D02*
Y021351D01*
X019487Y020249D02*
Y020682D01*
Y020394D02*
X019655Y020226D01*
X019487Y020677D02*
X019934Y020230D01*
X019486Y020900D02*
X019935Y021349D01*
X019487Y021184D02*
X019652Y021349D01*
X019487Y020918D02*
Y021350D01*
X019505Y021349D02*
X020095D01*
X015127Y021360D02*
X015587Y020900D01*
X014960D02*
X015420Y021360D01*
X017107D02*
X017567Y020900D01*
X016824Y021360D02*
X017284Y020900D01*
X013773Y023673D02*
X015360Y025259D01*
X010190Y023766D02*
X017017Y030594D01*
X016940Y020900D02*
X017400Y021360D01*
X017672D02*
X018132Y020900D01*
X017506D02*
X017966Y021360D01*
X017789Y020900D02*
X018249Y021360D01*
X017810D02*
X017940D01*
X017223Y020900D02*
X017683Y021360D01*
X015010D02*
X017810D01*
X017389D02*
X017849Y020900D01*
X017810Y021360D02*
X017940D01*
X013641Y024106D02*
X015360Y025825D01*
X015010Y024240D02*
X017810D01*
X017940*
X017810D02*
X017940D01*
X010190Y024049D02*
X016876Y030735D01*
X013457Y024205D02*
X015360Y026108D01*
X014747Y026160D02*
X015360D01*
X013562Y026856D02*
X016815Y030108D01*
X017940Y024240D02*
X019539D01*
X015360Y024260D02*
X019340D01*
Y024501D02*
X019539Y024302D01*
X019340Y024783D02*
X019384Y024740D01*
X018610Y029756D02*
X024187Y024179D01*
X019016Y029633D02*
X024434Y024215D01*
X019340Y024997D02*
X019384Y025040D01*
X019340Y026140D02*
Y028590D01*
Y024431D02*
X019499Y024590D01*
X019340Y024714D02*
X019384Y024758D01*
X019340Y025066D02*
X019384Y025023D01*
X019340Y024260D02*
Y025560D01*
Y025349D02*
X019427Y025262D01*
X019384Y024728D02*
Y025161D01*
X019432Y024240D02*
X019539Y024347D01*
X019487Y020335D02*
X022777Y023625D01*
X019487Y020618D02*
X020229Y021360D01*
X019354Y029577D02*
X027527Y021405D01*
X019340Y025280D02*
X019554Y025493D01*
X019524Y025301D02*
X020134D01*
X019466Y025506D02*
X019671Y025301D01*
X019340Y026198D02*
X019398Y026140D01*
X019340Y026411D02*
X019401Y026472D01*
X019340Y025560D02*
X019404D01*
X019340Y026140D02*
X019404D01*
X019340Y026694D02*
X019384Y026738D01*
X019340Y026763D02*
X019384Y026720D01*
Y026539D02*
Y026972D01*
X019340Y026977D02*
X019399Y027036D01*
X019352Y026140D02*
X019611Y026399D01*
X019524Y025493D02*
X020134D01*
X019524Y026207D02*
X020134D01*
X019340Y026481D02*
X019614Y026207D01*
X010190Y027726D02*
X011424Y028960D01*
X010190Y027161D02*
X011424Y028394D01*
X010190Y027443D02*
X011424Y028677D01*
X010190Y028009D02*
X011442Y029261D01*
X010190Y029408D02*
X011429Y028169D01*
X011424Y028208D02*
Y029192D01*
X010281Y029600D02*
X011424Y028457D01*
X011564Y028068D02*
X012036D01*
X012176Y028553D02*
X012475Y028254D01*
X012176Y028208D02*
Y029192D01*
X010190Y028292D02*
X011498Y029600D01*
X012176Y028581D02*
X012424Y028829D01*
X012176Y028836D02*
X012424Y028588D01*
X011129Y029600D02*
X011452Y029277D01*
X010190Y029423D02*
X010367Y029600D01*
X011564Y029332D02*
X012036D01*
X010847Y029600D02*
X011424Y029023D01*
X011412Y029600D02*
X011680Y029332D01*
X011495Y029314D02*
X011781Y029600D01*
X011695D02*
X011963Y029332D01*
X011796D02*
X012064Y029600D01*
X012176Y028864D02*
X012526Y029214D01*
X012176Y029119D02*
X012424Y028871D01*
X011978Y029600D02*
X012460Y029118D01*
X010190Y029600D02*
X014550D01*
X012176Y029147D02*
X012629Y029600D01*
X012074Y029327D02*
X012347Y029600D01*
X012176Y028298D02*
X012424Y028546D01*
X013176Y028685D02*
X013424Y028437D01*
X012424Y028444D02*
Y028956D01*
X013176Y028450D02*
X013424Y028697D01*
Y028444D02*
Y028956D01*
X013176Y028444D02*
Y028956D01*
X014141Y028285D02*
X015360Y027066D01*
X014176Y028533D02*
X015360Y027349D01*
X014176Y028816D02*
X015360Y027632D01*
X014176Y028444D02*
Y028956D01*
X014118Y029157D02*
X015360Y027915D01*
X014241Y029600D02*
X015360Y028481D01*
X015862Y028590D02*
X016867Y029595D01*
X014523Y029600D02*
X015533Y028590D01*
X012544Y029600D02*
X012812Y029332D01*
X013176Y028968D02*
X013424Y028720D01*
X013176Y028733D02*
X013425Y028981D01*
X012542Y029230D02*
X012912Y029600D01*
X012261D02*
X012592Y029269D01*
X012826Y029600D02*
X013426Y029000D01*
X012911Y029316D02*
X013195Y029600D01*
X013109D02*
X013512Y029198D01*
X013082Y029204D02*
X013478Y029600D01*
X013392D02*
X013680Y029312D01*
X013172Y029011D02*
X013761Y029600D01*
X013675D02*
X014001Y029274D01*
X014326Y029600D01*
X013775Y029331D02*
X014044Y029600D01*
X010190Y028858D02*
X010932Y029600D01*
X010190Y029140D02*
X010650Y029600D01*
X010190Y028575D02*
X011215Y029600D01*
X010564D02*
X011424Y028740D01*
X013958Y029600D02*
X015360Y028198D01*
X014550Y029600D02*
X015050Y030100D01*
X014678Y029728D02*
X015816Y028590D01*
X015000Y030150D02*
X015050Y030100D01*
X014961Y030011D02*
X016382Y028590D01*
X014820Y029870D02*
X016099Y028590D01*
X015000Y030255D02*
X016665Y028590D01*
X015000Y030538D02*
X016948Y028590D01*
X014139Y028281D02*
X016734Y030876D01*
X014135Y029126D02*
X016281Y031272D01*
X014176Y028601D02*
X016555Y030980D01*
X014176Y028884D02*
X016377Y031085D01*
X015000Y031122D02*
X015274Y031396D01*
X015000Y031669D02*
X015274Y031395D01*
X015000Y030839D02*
X015274Y031113D01*
X015000Y031386D02*
X015274Y031112D01*
X015000Y030150D02*
Y032350D01*
X015050*
X015000Y031405D02*
X015274Y031679D01*
X015000Y031952D02*
X015274Y031678D01*
X015000Y031688D02*
X015274Y031962D01*
X015000Y032235D02*
X015274Y031961D01*
X015000Y030274D02*
X015694Y030968D01*
X015000Y030556D02*
X015412Y030968D01*
X015000Y031971D02*
X015979Y032950D01*
X015000Y032253D02*
X015697Y032950D01*
X015109Y032409D02*
X015321Y032197D01*
X015050Y032350D02*
X015650Y032950D01*
X015414Y030968D02*
X015886D01*
X016026Y031491D02*
X016293Y031224D01*
X015274Y031108D02*
Y032092D01*
X016026Y031300D02*
X016274Y031547D01*
X016026Y031108D02*
Y032092D01*
X016274Y031344D02*
Y031856D01*
X015579Y028590D02*
X016815Y029825D01*
Y029705D02*
Y030295D01*
X015701Y030968D02*
X016815Y029854D01*
X015962Y030990D02*
X016815Y030137D01*
X016026Y031209D02*
X016848Y030386D01*
X015414Y032232D02*
X015886D01*
X016026Y031774D02*
X016274Y031527D01*
X016026Y032057D02*
X016274Y031809D01*
X015392Y032692D02*
X015851Y032232D01*
X015250Y032550D02*
X015568Y032232D01*
X015544D02*
X016262Y032950D01*
X016026Y031583D02*
X016274Y031830D01*
X015533Y032833D02*
X016323Y032043D01*
X017026Y031344D02*
Y031856D01*
X015699Y032950D02*
X016465Y032184D01*
X015827Y032232D02*
X016545Y032950D01*
X016018Y032140D02*
X016828Y032950D01*
X015982D02*
X016703Y032228D01*
X016428Y028590D02*
X017402Y029565D01*
X016145Y028590D02*
X017120Y029565D01*
X017104D02*
X018079Y028590D01*
X016955Y029565D02*
X017545D01*
X016993Y028590D02*
X018029Y029625D01*
X016711Y028590D02*
X017884Y029764D01*
X017276Y028590D02*
X018251Y029565D01*
X017387D02*
X018362Y028590D01*
X015360D02*
X019340D01*
X018125D02*
X019120Y029585D01*
X017636Y029598D02*
X018645Y028590D01*
X017685Y029832D02*
X018928Y028590D01*
X017559D02*
X018836Y029867D01*
X017842Y028590D02*
X018943Y029691D01*
X017425Y030435D02*
X017499Y030510D01*
X016955Y030435D02*
X017545D01*
X017685Y029705D02*
Y030295D01*
X017290Y030510D02*
X017365Y030435D01*
X017142D02*
X017216Y030510D01*
X017685Y029848D02*
X017815Y029978D01*
X017655Y030383D02*
X017782Y030510D01*
X017685Y030115D02*
X017815Y029985D01*
X017573Y030510D02*
X017870Y030213D01*
X017200Y030510D02*
X019000D01*
X017685Y030130D02*
X018065Y030510D01*
X017856D02*
X018006Y030360D01*
X019340Y027046D02*
X019386Y027000D01*
X019340Y027329D02*
X019557Y027112D01*
X019460Y027097D02*
X019574Y027211D01*
X019340Y027612D02*
X019571Y027380D01*
X019340Y028460D02*
X020759Y027041D01*
X018408Y028590D02*
X019415Y029597D01*
X019340Y027895D02*
X019692Y027543D01*
X019340Y028178D02*
X019943Y027575D01*
X018463Y029620D02*
X021054Y027029D01*
X019340Y028108D02*
X021692Y030460D01*
X019340Y028108D02*
X021692Y030460D01*
X019340Y028391D02*
X021409Y030460D01*
X019340Y027825D02*
X021975Y030460D01*
X018973Y028590D02*
X020922Y030539D01*
X019340Y027260D02*
X022540Y030460D01*
X019340Y027542D02*
X022258Y030460D01*
X018685Y029999D02*
X018844Y030158D01*
X018139Y030510D02*
X018215Y030434D01*
X018272Y030435D02*
X018348Y030510D01*
X018422D02*
X018827Y030104D01*
X018486Y030366D02*
X018631Y030510D01*
X018235Y029565D02*
X019210Y028590D01*
X018684Y029965D02*
X018883Y029766D01*
X019256Y028590D02*
X021126Y030460D01*
X018625Y030221D02*
X018913Y030510D01*
X018705D02*
X018925Y030290D01*
X018987Y030510D02*
X019092Y030406D01*
X015000Y030821D02*
X017231Y028590D01*
X016530Y030988D02*
X017082Y030435D01*
X016643Y030968D02*
X017030Y030580D01*
X017215Y031074D02*
X017315Y031174D01*
X017019Y031270D02*
X017299Y030990D01*
X017026Y031340D02*
X017376Y030990D01*
X017074Y031216D02*
X017274Y031416D01*
X015418Y030968D02*
X017796Y028590D01*
X017299Y030990D02*
X017523D01*
X017777D02*
X018901D01*
X017414D02*
X017449Y031026D01*
X015000Y031103D02*
X017513Y028590D01*
X017113Y032950D02*
X018987Y031076D01*
X017396Y032950D02*
X019128Y031218D01*
X017026Y031451D02*
X017274Y031699D01*
X017022Y031909D02*
X017274Y031658D01*
Y031344D02*
Y031856D01*
X017026Y031623D02*
X017274Y031375D01*
X016026Y031865D02*
X017111Y032950D01*
X016265D02*
X017282Y031933D01*
X017026Y031734D02*
X017311Y032019D01*
X016547Y032950D02*
X017380Y032118D01*
X016830Y032950D02*
X017559Y032221D01*
X016675Y032231D02*
X017394Y032950D01*
X016880Y032154D02*
X017676Y032950D01*
X017001Y031992D02*
X017959Y032950D01*
X015650D02*
X027527D01*
X017679D02*
X019270Y031359D01*
X017487Y032195D02*
X018242Y032950D01*
X018002Y031212D02*
X018225Y030990D01*
X017883Y031049D02*
X017942Y030990D01*
X019185Y030595D02*
X019359Y030421D01*
X018026Y031471D02*
X018507Y030990D01*
X018545D02*
X019474Y031919D01*
X018026Y031754D02*
X018790Y030990D01*
X018691Y028590D02*
X020781Y030680D01*
X019092Y030406D02*
X019654Y030968D01*
X019326Y030737D02*
X022310Y027753D01*
X019468Y030878D02*
X022310Y028036D01*
X018262Y030990D02*
X020222Y032950D01*
X017979Y030990D02*
X019939Y032950D01*
X019383Y030414D02*
X019937Y030968D01*
X019170Y030580D02*
X019566Y030976D01*
X018026Y031344D02*
Y031856D01*
X017946Y032088D02*
X018808Y032950D01*
X018828Y030990D02*
X019474Y031636D01*
Y031563D02*
Y032092D01*
X017962Y032950D02*
X019411Y031501D01*
X017783Y032208D02*
X018525Y032950D01*
X018026Y031603D02*
X019374Y032950D01*
X018025Y031884D02*
X019091Y032950D01*
X018245D02*
X019474Y031721D01*
X018527Y032950D02*
X019474Y032004D01*
X018901Y030990D02*
X019474Y031563D01*
X018025Y031319D02*
X019656Y032950D01*
X018810D02*
X019546Y032214D01*
X019376Y032950D02*
X020094Y032232D01*
X019093Y032950D02*
X019811Y032232D01*
X019606Y019426D02*
X020082Y018950D01*
X019918Y019397D02*
X020365Y018950D01*
X020099Y019499D02*
X020574Y019024D01*
X020210Y019671D02*
X020715Y019165D01*
X019946Y021349D02*
X021845Y019450D01*
X019663Y021349D02*
X021562Y019450D01*
X020214Y019949D02*
X020857Y019307D01*
X020218Y021360D02*
X022128Y019450D01*
X020081Y018950D02*
X024487Y023355D01*
X019799Y018950D02*
X024216Y023367D01*
X020192Y019626D02*
X024047Y023481D01*
X020218Y019936D02*
X023946Y023663D01*
X019539Y024240D02*
Y024588D01*
X020119Y024240D02*
Y024588D01*
Y024288D02*
X020166Y024240D01*
X019927Y025301D02*
X020119Y025493D01*
X019761D02*
X019954Y025301D01*
X020274Y024728D02*
Y025161D01*
X019944Y020227D02*
X023072Y023355D01*
X019663Y020229D02*
X022891Y023456D01*
X020116Y020116D02*
X023386Y023386D01*
X020150Y021360D02*
X020390D01*
X020119Y024570D02*
X020822Y023867D01*
X020119Y024240D02*
X020390D01*
X020271Y024701D02*
X020860Y024112D01*
X020390Y021754D02*
X022694Y019450D01*
X020390Y022653D02*
X020975Y023238D01*
X020500Y018950D02*
X021000Y019450D01*
X020390Y021471D02*
X022411Y019450D01*
X020390Y021360D02*
Y023279D01*
Y022936D02*
X020835Y023381D01*
X020390Y023218D02*
X020906Y023734D01*
X020390Y022602D02*
X023542Y019450D01*
X020390Y022885D02*
X023825Y019450D01*
X020390Y022036D02*
X022976Y019450D01*
X020390Y022319D02*
X023259Y019450D01*
X020390Y023168D02*
X024108Y019450D01*
X020390Y021521D02*
X022765Y023896D01*
X020393Y023731D02*
X024673Y019450D01*
X020393Y023448D02*
X024391Y019450D01*
X020393Y023504D02*
X020811Y023923D01*
X020390Y024121D02*
Y024240D01*
X020274Y024981D02*
X021025Y024230D01*
X020393Y023306D02*
Y024094D01*
Y024014D02*
X020822Y023584D01*
X023582Y023582D02*
X023977Y023977D01*
X019644Y025301D02*
X019837Y025493D01*
X020196Y025287D02*
X020469Y025560D01*
X020253D02*
X020635D01*
X020229Y026169D02*
X020474Y026414D01*
X020463Y026140D02*
Y026232D01*
X020253Y026140D02*
X020463D01*
X020274Y024799D02*
X022441Y026966D01*
X020274Y025082D02*
X020813Y025621D01*
X020390Y022087D02*
X024174Y025871D01*
X020390Y022370D02*
X023979Y025959D01*
X020280Y024240D02*
X023829Y027789D01*
X020119Y024361D02*
X023870Y028113D01*
X020393Y023787D02*
X024098Y027492D01*
X020393Y024070D02*
X023929Y027606D01*
X019701Y026207D02*
X019894Y026399D01*
X019524D02*
X020134D01*
X019987D02*
X020193Y026194D01*
X019704Y026399D02*
X019897Y026207D01*
X019984D02*
X020187Y026409D01*
X020231Y026438D02*
X020463Y026206D01*
X020274Y026678D02*
X020463Y026489D01*
X020263Y026486D02*
X020463Y026686D01*
X020274Y026961D02*
X020463Y026772D01*
X020274Y026539D02*
Y026972D01*
Y026779D02*
X022310Y028815D01*
X020784Y025602D02*
X022788Y023598D01*
X020854Y025659D02*
X020997D01*
X021010D02*
X022767Y023903D01*
X021137Y025815D02*
X022870Y024082D01*
X021137Y025799D02*
Y026232D01*
Y026098D02*
X023041Y024194D01*
X021119Y026399D02*
X023317Y024200D01*
X021362Y023625D02*
X023855Y026118D01*
X021390Y023935D02*
X023820Y026365D01*
X021124Y026959D02*
X024028Y024056D01*
X021127Y024239D02*
X024370Y027482D01*
X021137Y026664D02*
X023938Y023862D01*
X020463Y026468D02*
Y026901D01*
X021137Y026468D02*
Y026901D01*
Y025945D02*
X022268Y027076D01*
X021137Y026228D02*
X022216Y027307D01*
X022789Y027274D02*
X023818Y026245D01*
X022690Y027656D02*
X023858Y026488D01*
X021137Y026511D02*
X022310Y027684D01*
X021137Y026794D02*
X022310Y027967D01*
X022690Y027939D02*
X023984Y026645D01*
X022690Y028222D02*
X024182Y026730D01*
X021184Y023222D02*
X024956Y019450D01*
X021000D02*
X027350D01*
X021372Y023600D02*
X025522Y019450D01*
X021345Y023344D02*
X025239Y019450D01*
X020261Y025560D02*
X026371Y019450D01*
X020044Y025493D02*
X026088Y019450D01*
X021380Y023875D02*
X025805Y019450D01*
X020543Y025560D02*
X026653Y019450D01*
X022561D02*
X027527Y024415D01*
X022278Y019450D02*
X027527Y024698D01*
X023127Y019450D02*
X027527Y023850D01*
X022844Y019450D02*
X027527Y024132D01*
X021430Y019450D02*
X027527Y025547D01*
X021147Y019450D02*
X027527Y025829D01*
X021996Y019450D02*
X027527Y024981D01*
X021713Y019450D02*
X027527Y025264D01*
X023410Y019450D02*
X025265Y021305D01*
X023312Y023357D02*
X025275Y021394D01*
X023976Y019450D02*
X025461Y020936D01*
X023693Y019450D02*
X025324Y021081D01*
X023008Y023379D02*
X025370Y021016D01*
X023492Y023460D02*
X025369Y021583D01*
X023603Y023631D02*
X025533Y021702D01*
X024258Y019450D02*
X025674Y020866D01*
X024453Y023347D02*
X026309Y021491D01*
X024541Y019450D02*
X026279Y021188D01*
X024646Y023437D02*
X026437Y021647D01*
X023610Y023908D02*
X025792Y021725D01*
X024487Y024204D02*
X026148Y025865D01*
X024805Y023844D02*
X027527Y021122D01*
X024770Y023596D02*
X026636Y021730D01*
X025390Y019450D02*
X026822Y020882D01*
X025107Y019450D02*
X026549Y020892D01*
X026521Y019450D02*
X027527Y020455D01*
X025794Y020875D02*
X027219Y019450D01*
X025416Y020970D02*
X026936Y019450D01*
X024824D02*
X026379Y021005D01*
X025955Y019450D02*
X027527Y021021D01*
X025983Y020969D02*
X027426Y019526D01*
X026804Y019450D02*
X027527Y020173D01*
X026238Y019450D02*
X027527Y020738D01*
X027350Y019450D02*
X027527Y019627D01*
X027087Y019450D02*
X027527Y019890D01*
X025673Y019450D02*
X027527Y021304D01*
X026102Y021133D02*
X027527Y019708D01*
X026650Y020868D02*
X027527Y019991D01*
X026891Y020909D02*
X027527Y020274D01*
X026125Y021392D02*
X026268Y021250D01*
X026134Y021326D02*
X026319Y021511D01*
X027047Y021037D02*
X027527Y020557D01*
X027130Y021236D02*
X027527Y020840D01*
X025955Y025865D02*
X026545D01*
X027118Y021178D02*
X027527Y021587D01*
X026489Y021681D02*
X027527Y022718D01*
X026812Y021721D02*
X027527Y022435D01*
X027108Y021451D02*
X027527Y021870D01*
X026995Y021621D02*
X027527Y022153D01*
X025919Y021676D02*
X027527Y023284D01*
X025695Y021735D02*
X027527Y023567D01*
X026064Y021539D02*
X027527Y023001D01*
X026178Y025865D02*
X027527Y024517D01*
X023613Y023896D02*
X025815Y026098D01*
X023512Y024078D02*
X025302Y025868D01*
X024669Y024103D02*
X026430Y025865D01*
X024173Y024173D02*
X025884Y025884D01*
X020390Y021804D02*
X024820Y026234D01*
X021316Y024144D02*
X024866Y027695D01*
X022535Y026962D02*
X027527Y021971D01*
X022720Y027061D02*
X027527Y022254D01*
X020364Y018950D02*
X027527Y026112D01*
X024195Y025868D02*
X027527Y022537D01*
X024438Y025908D02*
X027527Y022819D01*
X024595Y026034D02*
X027527Y023102D01*
X019540Y029675D02*
X027527Y021688D01*
X024680Y026232D02*
X027527Y023385D01*
X024794Y023663D02*
X027527Y026395D01*
X024782Y023934D02*
X027527Y026678D01*
X023343Y024192D02*
X025060Y025908D01*
X023072Y024204D02*
X024904Y026036D01*
X024293Y027467D02*
X025066Y026694D01*
X022690Y028505D02*
X024821Y026374D01*
X022698Y028779D02*
X024908Y026569D01*
X024432Y026695D02*
X025204Y027467D01*
X024185Y026730D02*
X024999Y027544D01*
X025126Y027483D02*
X025890Y026719D01*
X024591Y026571D02*
X025815Y027795D01*
X024500Y027543D02*
X025312Y026731D01*
X024679Y026376D02*
X025835Y027532D01*
X024633Y027693D02*
X025815Y026511D01*
X025519Y025958D02*
X027527Y023951D01*
X026461Y025865D02*
X027527Y024799D01*
X025644Y026116D02*
X027527Y024234D01*
X025681Y026362D02*
X025815Y026228D01*
X026685Y026005D02*
Y026595D01*
X025815Y026005D02*
Y026595D01*
X025324Y025871D02*
X027527Y023668D01*
X026669Y025940D02*
X027527Y025082D01*
X026685Y026206D02*
X027527Y025365D01*
X026685Y026489D02*
X027527Y025648D01*
X025993Y027465D02*
X027527Y025931D01*
X026275Y027465D02*
X027527Y026214D01*
Y019627D02*
Y032950D01*
X026685Y026120D02*
X027527Y026961D01*
X025682Y026248D02*
X025815Y026380D01*
X025955Y026735D02*
X026545D01*
X025316Y026730D02*
X026051Y027465D01*
X025400Y027491D02*
X026156Y026735D01*
X025514Y026646D02*
X026333Y027465D01*
X025570Y027605D02*
X026439Y026735D01*
X026558Y027465D02*
X027527Y026496D01*
X026685Y026402D02*
X027527Y027244D01*
X026666Y026666D02*
X027527Y027527D01*
X025642Y026490D02*
X027527Y028375D01*
X026170Y026735D02*
X027527Y028092D01*
X026452Y026735D02*
X027527Y027809D01*
X026685Y027621D02*
X027527Y026779D01*
X019524Y027112D02*
X019629D01*
X020093Y027142D02*
X020123Y027112D01*
X020071D02*
X020134D01*
X020603Y027041D02*
X020997D01*
X020118Y027189D02*
X023897Y030968D01*
X019656Y029842D02*
X022212Y027285D01*
X020125Y027393D02*
X020511Y027007D01*
X020819Y027041D02*
X022310Y028533D01*
X019653Y029835D02*
X020644Y030827D01*
X020680Y030780D02*
X020930Y030530D01*
X019614Y030968D02*
X020086D01*
X020610Y030950D02*
Y031054D01*
X019671Y030109D02*
X022310Y027470D01*
X019939Y027576D02*
X022823Y030460D01*
X020097Y027451D02*
X023106Y030460D01*
X020991Y030486D02*
X022429Y029048D01*
X019661Y030968D02*
X022310Y028319D01*
X019944Y030968D02*
X022310Y028602D01*
X020185Y031009D02*
X022313Y028882D01*
X021077Y027016D02*
X022310Y028250D01*
Y027469D02*
Y028850D01*
X022690Y027469D02*
Y028771D01*
X021300Y030460D02*
X022571Y029189D01*
X021583Y030460D02*
X022712Y029331D01*
X022690Y028771D02*
X023329Y029410D01*
X022839Y028921D02*
X023817Y027943D01*
X022981Y029062D02*
X023893Y028150D01*
X022366Y028985D02*
X023115Y029734D01*
X021866Y030460D02*
X022854Y029472D01*
X022690Y028347D02*
X023753Y029410D01*
X022690Y028630D02*
X023470Y029410D01*
X021100Y030460D02*
X023150D01*
X021199Y030940D02*
X023051D01*
X022149Y030460D02*
X022995Y029614D01*
X022432Y030460D02*
X023138Y029754D01*
X021606Y030940D02*
X021676Y031010D01*
X021090Y031049D02*
X021199Y030940D01*
X021918Y030974D02*
X021952Y030940D01*
X021889D02*
X021924Y030975D01*
X022997Y030460D02*
X023667Y029790D01*
X022714Y030460D02*
X023384Y029790D01*
X023320Y030530D02*
X023766Y030976D01*
X019559Y030307D02*
X020489Y031237D01*
X020226Y031257D02*
X020474Y031505D01*
X020226Y031534D02*
X020479Y031281D01*
X020226Y031540D02*
X020474Y031787D01*
X020226Y031817D02*
X020474Y031569D01*
X020226Y031108D02*
Y032092D01*
X020474Y031344D02*
Y031856D01*
X019665Y030130D02*
X020599Y031064D01*
X020226Y031251D02*
X020636Y030841D01*
X021174Y031152D02*
X021386Y030940D01*
X020226Y031823D02*
X021353Y032950D01*
X021120Y031019D02*
X021474Y031373D01*
X021210Y031964D02*
X021474Y031701D01*
X019787Y032232D02*
X020505Y032950D01*
X019614Y032232D02*
X020086D01*
X020226Y032100D02*
X020474Y031852D01*
X019659Y032950D02*
X020540Y032069D01*
X019942Y032950D02*
X020694Y032198D01*
X020224Y032950D02*
X020958Y032216D01*
X020070Y032232D02*
X020788Y032950D01*
X020226Y032105D02*
X021071Y032950D01*
X020507D02*
X021490Y031967D01*
X020790Y032950D02*
X021602Y032138D01*
X020913Y032227D02*
X021636Y032950D01*
X021073D02*
X021795Y032228D01*
X021212Y031960D02*
X022202Y032950D01*
X021103Y032134D02*
X021919Y032950D01*
X021323Y030940D02*
X021530Y031147D01*
X022213Y031244D02*
X022517Y030940D01*
X022106Y031068D02*
X022234Y030940D01*
X021226Y031383D02*
X021669Y030940D01*
X021226Y031344D02*
Y031856D01*
X022226Y031344D02*
Y031856D01*
X021474Y031344D02*
Y031856D01*
X022226Y031514D02*
X022800Y030940D01*
X022226Y031797D02*
X023067Y030956D01*
X023051Y030940D02*
X023674Y031563D01*
X023020Y030940D02*
X023674Y031593D01*
X021356Y032950D02*
X023208Y031098D01*
X021639Y032950D02*
X023350Y031239D01*
X022738Y030940D02*
X023674Y031876D01*
X022219Y031270D02*
X023899Y032950D01*
X021226Y031409D02*
X021474Y031656D01*
X021226Y031665D02*
X021474Y031418D01*
X021226Y031691D02*
X021486Y031951D01*
X022013Y032195D02*
X022768Y032950D01*
X021755Y032220D02*
X022485Y032950D01*
X022226Y031843D02*
X023333Y032950D01*
X022164Y032063D02*
X023050Y032950D01*
X021921D02*
X023491Y031380D01*
X022204Y032950D02*
X023632Y031522D01*
X023674Y031563D02*
Y032092D01*
X022226Y031560D02*
X023616Y032950D01*
X022487D02*
X023674Y031763D01*
X022770Y032950D02*
X023674Y032046D01*
X023053Y032950D02*
X023776Y032227D01*
X023122Y029204D02*
X024043Y028283D01*
X024685Y027924D02*
X024833Y027776D01*
X024668Y027780D02*
X024816Y027927D01*
X020255Y027043D02*
X024180Y030968D01*
X022690Y027781D02*
X024319Y029410D01*
X022690Y027498D02*
X024515Y029323D01*
X022690Y028064D02*
X024036Y029410D01*
X023764D02*
X024955Y028220D01*
X024330Y029410D02*
X025457Y028283D01*
X024696Y029327D02*
X025815Y028208D01*
X024186Y030968D02*
X027527Y027628D01*
X023482Y029410D02*
X024841Y028050D01*
X024404Y031033D02*
X027527Y027911D01*
X024658Y028052D02*
X027527Y030921D01*
X023256Y030484D02*
X023950Y029790D01*
X023250D02*
X024381D01*
X023264Y029345D02*
X024274Y028335D01*
X023329Y029410D02*
X024381D01*
X023406Y030617D02*
X024233Y029790D01*
X023548Y030758D02*
X024455Y029851D01*
X023814Y030968D02*
X024286D01*
X024047Y029410D02*
X025137Y028320D01*
X023689Y030900D02*
X024729Y029860D01*
X023850Y029790D02*
X025029Y030968D01*
X023567Y029790D02*
X024822Y031045D01*
X023904Y030968D02*
X026536Y028335D01*
X024754Y029846D02*
X025906Y030997D01*
X025670Y027787D02*
X025815Y027643D01*
X025633Y028107D02*
X025815Y027925D01*
Y027605D02*
Y028195D01*
X025683Y027946D02*
X025815Y028077D01*
X025955Y027465D02*
X026545D01*
X026685Y027903D02*
X027527Y027062D01*
X026685Y027817D02*
X027527Y028658D01*
X026685Y028099D02*
X027527Y028941D01*
X026685Y028186D02*
X027527Y027345D01*
X026685Y027605D02*
Y028195D01*
X024851Y029455D02*
X025971Y028335D01*
X025955D02*
X026545D01*
X024860Y029729D02*
X026253Y028335D01*
X024877Y029685D02*
X026184Y030993D01*
X025606Y028151D02*
X027527Y030072D01*
X025223Y028334D02*
X027527Y030638D01*
X025455Y028284D02*
X027527Y030355D01*
X026073Y028335D02*
X027527Y029789D01*
X026618Y028315D02*
X027527Y029224D01*
X026355Y028335D02*
X027527Y029506D01*
X025035Y030968D02*
X027527Y028476D01*
X025256Y031029D02*
X027527Y028759D01*
X026152Y030982D02*
X027527Y029608D01*
X026327Y031090D02*
X027527Y029891D01*
X023285Y029790D02*
X024700Y031206D01*
X024426Y031214D02*
X024674Y031462D01*
X024426Y031577D02*
X024674Y031329D01*
Y031344D02*
Y031856D01*
X022172Y030940D02*
X024182Y032950D01*
X022172Y030940D02*
X024182Y032950D01*
X022455Y030940D02*
X024465Y032950D01*
X024426Y031108D02*
Y032092D01*
Y031294D02*
X027527Y028193D01*
X024133Y029790D02*
X025674Y031331D01*
X024544Y028221D02*
X027527Y031203D01*
X024497Y029871D02*
X025747Y031121D01*
X022784Y027309D02*
X027527Y032052D01*
X024037Y028280D02*
X027527Y031769D01*
X024361Y028321D02*
X027527Y031486D01*
X024409Y032160D02*
X024676Y031893D01*
X023814Y032232D02*
X024286D01*
X024426Y031497D02*
X024674Y031745D01*
X024426Y031859D02*
X024674Y031612D01*
X023619Y032950D02*
X024354Y032215D01*
X023336Y032950D02*
X024054Y032232D01*
X024030D02*
X024748Y032950D01*
X023901D02*
X024758Y032093D01*
X024184Y032950D02*
X024924Y032210D01*
X024310Y032230D02*
X025030Y032950D01*
X024426Y031780D02*
X025596Y032950D01*
X024426Y032063D02*
X025313Y032950D01*
X024750D02*
X025702Y031998D01*
X024467Y032950D02*
X025232Y032185D01*
X025426Y031366D02*
X025674Y031613D01*
X025426Y031708D02*
X025674Y031460D01*
X026426Y031557D02*
X027527Y030456D01*
X025674Y031344D02*
Y031856D01*
X025426Y031344D02*
Y031856D01*
X026426Y031839D02*
X027527Y030739D01*
X026426Y031344D02*
Y031856D01*
X025389Y031180D02*
X027527Y029042D01*
X025426Y031425D02*
X027527Y029325D01*
X026421Y031279D02*
X027527Y030173D01*
X026401Y031210D02*
X027527Y032335D01*
X025598Y032950D02*
X027527Y031022D01*
X025881Y032950D02*
X027527Y031305D01*
X026426Y031517D02*
X027527Y032618D01*
X026164Y032950D02*
X027527Y031588D01*
X025379Y032038D02*
X025674Y031743D01*
X025033Y032950D02*
X025825Y032158D01*
X025426Y031649D02*
X025676Y031899D01*
X025148Y032219D02*
X025879Y032950D01*
X025316D02*
X026034Y032232D01*
X025420Y031925D02*
X026445Y032950D01*
X025325Y032113D02*
X026162Y032950D01*
X026241Y032180D02*
X027010Y032950D01*
X026007Y032230D02*
X026727Y032950D01*
X026426Y031800D02*
X027527Y032901D01*
X026380Y032037D02*
X027293Y032950D01*
X026447D02*
X027527Y031870D01*
X026730Y032950D02*
X027527Y032153D01*
X027013Y032950D02*
X027527Y032436D01*
X027296Y032950D02*
X027527Y032719D01*
G54D13*
X020800Y026015D03*
Y026685D03*
X019150Y021135D03*
Y020465D03*
G54D17*
X014550Y034976D03*
Y035724D03*
X018700Y035076D03*
Y035824D03*
X025500Y035826D03*
Y036574D03*
X021050Y035826D03*
Y036574D03*
X016850Y035726D03*
Y036474D03*
X010750Y031276D03*
Y032024D03*
X012350Y032976D03*
Y033724D03*
X023200Y035076D03*
Y035824D03*
G54D18*
X020850Y030950D02*
Y031600D01*
X019829Y023730D02*
X019859Y023700D01*
X019800Y023641D02*
X019859Y023700D01*
X016650Y031300D02*
Y031600D01*
Y031300D02*
X017200Y030750D01*
X019000*
X019850Y031600*
X020850Y030950D02*
X021100Y030700D01*
X023150*
X024050Y031600*
X019150Y021135D02*
Y021700D01*
G54D19*
X010650Y039784D02*
X011968Y041102D01*
X010650Y035300D02*
Y039784D01*
Y035300D02*
X011350Y034600D01*
X013750Y016850D02*
X016950D01*
X020300Y013500*
X019800Y021784D02*
Y023641D01*
X012350Y033724D02*
Y034600D01*
X011476Y032976D02*
X012350D01*
X011450Y032950D02*
X011476Y032976D01*
X010702Y032072D02*
Y032950D01*
Y032072D02*
X010750Y032024D01*
Y031276D02*
X011376D01*
X011800Y031700*
X014550Y034976D02*
X014926Y034600D01*
X015650*
X014550Y035724D02*
X015302D01*
X015326Y035700*
X016074D02*
X016824D01*
X016850Y035726*
X016600Y036724D02*
X016850Y036474D01*
X016600Y036724D02*
Y037300D01*
X018700Y035824D02*
X019452D01*
X019476Y035800*
X020224D02*
X021024D01*
X021050Y035826*
Y036574D02*
Y037300D01*
X018700Y035076D02*
X019176Y034600D01*
X019850*
X023200Y035076D02*
X023676Y034600D01*
X024050*
X023200Y035824D02*
X023952D01*
X023976Y035800*
X024724D02*
X025474D01*
X025500Y035826*
Y036574D02*
Y037300D01*
X014500Y022459D02*
X015741Y023700D01*
X017200Y021250D02*
Y021700D01*
Y021250D02*
X017350Y021100D01*
X018215*
X018550Y020765*
Y020150D02*
Y020765D01*
Y020150D02*
X018884Y019816D01*
X019800*
G54D20*
X022500Y027250D02*
Y028850D01*
X023250Y029600*
X024600*
X013556Y026084D02*
Y026450D01*
X013191D02*
X013556D01*
Y026816*
X019405Y019816D02*
X019800D01*
X018853Y020465D02*
X019150D01*
Y020149D02*
Y020465D01*
X019447*
X015741Y023700D02*
Y024194D01*
X019424Y026756D02*
X019829D01*
X017855Y030000D02*
X018250D01*
Y029605D02*
Y030000D01*
X018645*
X018250D02*
Y030395D01*
X019800Y019816D02*
X020195D01*
X019800D02*
Y020211D01*
Y019420D02*
Y019816D01*
X020850Y023500D02*
X021100D01*
Y023250D02*
Y023500D01*
X020850Y023950D02*
X021100D01*
Y023500D02*
X021350D01*
X021100Y023950D02*
X021350D01*
X021100D02*
Y024200D01*
X019829Y026439D02*
Y026756D01*
X020234*
X020800Y026685D02*
X021097D01*
X020503D02*
X020800D01*
Y027001*
X025250Y026300D02*
Y026695D01*
X024855Y026300D02*
X025250D01*
Y025905D02*
Y026300D01*
X025645*
X019600Y027300D02*
X019850D01*
Y027550*
Y027300D02*
X020100D01*
X025250Y027505D02*
Y027900D01*
X024855D02*
X025250D01*
X025645*
X025250D02*
Y028295D01*
G54D21*
X019829Y023730D02*
Y024944D01*
Y025850D02*
X020635D01*
X020800Y026015*
X018050Y025850D02*
X019829D01*
X017450Y026450D02*
X018050Y025850D01*
X014344Y026450D02*
X017450D01*
G54D26*
X012362Y012362D03*
X015118D03*
X017874Y041102D03*
X015906D03*
X021811D03*
X019843D03*
X025748D03*
X023780D03*
X013937D03*
X011968D03*
X022598Y012362D03*
X025354D03*
G54D27*
X024250Y027900D03*
X025250D03*
X026700Y021300D03*
X025700D03*
X026700Y018300D03*
X024250Y026300D03*
X025250D03*
X019250Y030000D03*
X018250D03*
X010800Y019493D03*
X019800Y019816D03*
G54D28*
X026250Y027900D03*
Y026300D03*
X017250Y030000D03*
G54D29*
X015650Y031600D03*
X019850D03*
X024050D03*
X011800Y028700D03*
G54D30*
X016650Y031600D03*
X017650D03*
X015650Y034600D03*
X016650D03*
X017650D03*
X020850Y031600D03*
X021850D03*
X019850Y034600D03*
X020850D03*
X021850D03*
X025050Y031600D03*
X026050D03*
X024050Y034600D03*
X025050D03*
X026050D03*
X012800Y028700D03*
X013800D03*
X011800Y031700D03*
X012800D03*
X013800D03*
G54D31*
X017600Y037300D03*
X016600D03*
X022050D03*
X021050D03*
X026500D03*
X025500D03*
X013350Y034600D03*
X012350D03*
G54D32*
X015600Y037300D03*
X020050D03*
X024500D03*
X011350Y034600D03*
G54D33*
X023189Y023780D03*
X024370D03*
X013346D03*
X014528D03*
G54D34*
X013750Y016850D03*
X022411D03*
G54D35*
X025700Y018300D03*
X010800Y014907D03*
X019800Y021784D03*
G54D36*
X017300Y013500D03*
X020300D03*
X012100Y018900D03*
Y014900D03*
G54D37*
X019859Y023700D03*
G54D38*
X015741Y023700D03*
G54D39*
X014344Y026450D03*
G54D40*
X013556Y026450D03*
G54D41*
X015850Y026675D03*
Y026150D03*
Y025638D03*
Y025100D03*
X016433D03*
Y025638D03*
Y026150D03*
Y026675D03*
X017017Y025638D03*
Y026150D03*
Y026675D03*
X017600Y025100D03*
Y025638D03*
Y026150D03*
Y026675D03*
X022500Y027250D03*
X024600Y029600D03*
X019850Y027300D03*
X021100Y023950D03*
Y023500D03*
X017017Y025100D03*
G54D42*
X010702Y032950D03*
X011450D03*
X015326Y035700D03*
X016074D03*
X019476Y035800D03*
X020224D03*
X023976D03*
X024724D03*
G54D43*
X019829Y026756D03*
G54D44*
X019829Y025850D03*
Y024944D03*
G54D45*
X017171Y025850D03*
G54D46*
X017350Y026425D03*
G54D47*
X019100Y022800D03*
G54D48*
X016475Y022800D03*
M02*