%FSDAX24Y24*%
%MOIN*%
%SFA1B1*%

%IPPOS*%
%ADD18R,0.039400X0.043300*%
%ADD22R,0.059100X0.051200*%
%ADD55C,0.059100*%
%ADD56R,0.059100X0.059100*%
%ADD57C,0.098400*%
%ADD58R,0.059100X0.059100*%
%ADD59R,0.047200X0.098400*%
%ADD60O,0.047200X0.098400*%
%ADD61C,0.063000*%
%ADD62R,0.063000X0.063000*%
%ADD63C,0.060000*%
%ADD64C,0.053100*%
%ADD65C,0.055100*%
%ADD66R,0.078700X0.078700*%
%ADD67C,0.078700*%
%ADD68R,0.053100X0.053100*%
%ADD69C,0.053100*%
%ADD71R,0.051200X0.059100*%
%ADD72R,0.061000X0.043300*%
%ADD73R,0.061000X0.043300*%
%ADD74R,0.061000X0.135800*%
%LNde-230724-1*%
%LPD*%
G54D18*
X020800Y026015D03*
Y026685D03*
X019150Y021135D03*
Y020465D03*
G54D22*
X014550Y034976D03*
Y035724D03*
X018700Y035076D03*
Y035824D03*
X025500Y035826D03*
Y036574D03*
X021050Y035826D03*
Y036574D03*
X016850Y035726D03*
Y036474D03*
X010750Y031276D03*
Y032024D03*
X012350Y032976D03*
Y033724D03*
X023200Y035076D03*
Y035824D03*
G54D55*
X019800Y019816D03*
X024250Y027900D03*
X025250D03*
X026700Y021300D03*
X025700D03*
X026700Y018300D03*
X024250Y026300D03*
X025250D03*
X019250Y030000D03*
X018250D03*
X010800Y019493D03*
G54D56*
X019800Y021784D03*
X025700Y018300D03*
X010800Y014907D03*
G54D57*
X012362Y012362D03*
X015118D03*
X017874Y041102D03*
X015906D03*
X021811D03*
X019843D03*
X025748D03*
X023780D03*
X013937D03*
X011968D03*
X022598Y012362D03*
X025354D03*
G54D58*
X026250Y027900D03*
Y026300D03*
X017250Y030000D03*
G54D59*
X015650Y031600D03*
X019850D03*
X024050D03*
X011800Y028700D03*
G54D60*
X016650Y031600D03*
X017650D03*
X015650Y034600D03*
X016650D03*
X017650D03*
X020850Y031600D03*
X021850D03*
X019850Y034600D03*
X020850D03*
X021850D03*
X025050Y031600D03*
X026050D03*
X024050Y034600D03*
X025050D03*
X026050D03*
X012800Y028700D03*
X013800D03*
X011800Y031700D03*
X012800D03*
X013800D03*
G54D61*
X017600Y037300D03*
X016600D03*
X022050D03*
X021050D03*
X026500D03*
X025500D03*
X013350Y034600D03*
X012350D03*
G54D62*
X015600Y037300D03*
X020050D03*
X024500D03*
X011350Y034600D03*
G54D63*
X023189Y023780D03*
X024370D03*
X013346D03*
X014528D03*
G54D64*
X013750Y016850D03*
X022411D03*
G54D65*
X017300Y013500D03*
X020300D03*
X012100Y018900D03*
Y014900D03*
G54D66*
X019859Y023700D03*
G54D67*
X015741Y023700D03*
G54D68*
X014344Y026450D03*
G54D69*
X013556Y026450D03*
G54D71*
X010702Y032950D03*
X011450D03*
X015326Y035700D03*
X016074D03*
X019476Y035800D03*
X020224D03*
X023976D03*
X024724D03*
G54D72*
X019829Y026756D03*
G54D73*
X019829Y025850D03*
Y024944D03*
G54D74*
X017171Y025850D03*
M02*