%FSDAX24Y24*%
%MOIN*%
%SFA1B1*%

%IPPOS*%
%ADD9500C,0.010000*%
%ADD9501C,0.023600*%
%ADD9502C,0.030000*%
%ADD9503C,0.031500*%
%ADD9504C,0.033500*%
%ADD9505C,0.035400*%
%ADD9506C,0.039400*%
%ADD9507C,0.047200*%
%ADD9508C,0.157500*%
%LNde-230724-1*%
%LPD*%
G54D9500*
X015850Y025100D03*
Y025638D03*
Y026150D03*
Y026675D03*
X016433D03*
Y026150D03*
Y025638D03*
Y025100D03*
X017017D03*
Y025638D03*
Y026150D03*
Y026675D03*
X017600D03*
Y026150D03*
Y025638D03*
Y025100D03*
X019850Y027300D03*
X022500Y027250D03*
X024600Y029600D03*
X021100Y023950D03*
Y023500D03*
G54D9501*
X011800Y028700D03*
X012800D03*
X013800D03*
Y031700D03*
X012800D03*
X011800D03*
X015650Y031600D03*
X016650D03*
X017650D03*
X019850D03*
X020850D03*
X021850D03*
X024050D03*
X025050D03*
X026050D03*
Y034600D03*
X025050D03*
X024050D03*
X021850D03*
X020850D03*
X019850D03*
X017650D03*
X016650D03*
X015650D03*
G54D9502*
X023189Y023780D03*
X024370D03*
X014528D03*
X013346D03*
G54D9503*
X022411Y016850D03*
X013750D03*
X013556Y026450D03*
X014344D03*
G54D9504*
X012100Y014900D03*
X017300Y013500D03*
X020300D03*
X012100Y018900D03*
G54D9505*
X010800Y014907D03*
X019800Y019816D03*
Y021784D03*
X025700Y021300D03*
X026700D03*
Y018300D03*
X025700D03*
X025250Y026300D03*
X024250D03*
Y027900D03*
X025250D03*
X026250D03*
Y026300D03*
X019250Y030000D03*
X018250D03*
X017250D03*
X010800Y019493D03*
G54D9506*
X012362Y012362D03*
X015118D03*
X022598D03*
X025354D03*
X013350Y034600D03*
X012350D03*
X011350D03*
X015600Y037300D03*
X013937Y041102D03*
X011968D03*
X015906D03*
X017874D03*
X019843D03*
X021811D03*
X023780D03*
X025748D03*
X025500Y037300D03*
X026500D03*
X024500D03*
X022050D03*
X021050D03*
X020050D03*
X017600D03*
X016600D03*
G54D9507*
X015741Y023700D03*
X019859D03*
G54D9508*
X024961Y016299D03*
X012756Y037165D03*
M02*