%FSDAX24Y24*%
%MOIN*%
%SFA1B1*%

%IPPOS*%
%ADD10C,0.007900*%
%ADD11C,0.009800*%
%ADD12C,0.010000*%
%ADD14C,0.005000*%
%LNde-230724-1*%
%LPD*%
G54D14*
X018507Y017662D02*
X018551D01*
Y017647*
X018566*
Y017632*
X018581*
Y017617*
X018596*
Y017602*
X018611*
Y017573*
X018626*
Y017558*
X018641*
Y017528*
X018656*
Y017498*
X018670*
Y017483*
X018685*
Y017454*
X018700*
Y017439*
X018715*
Y017409*
X018730*
Y017394*
X018745*
Y017364*
X018760*
Y017334*
X018775*
Y017320*
X018790*
Y017290*
X018804*
Y017275*
X018819*
Y017245*
X018834*
Y017215*
X018849*
Y017200*
X018864*
Y017171*
X018879*
Y017156*
X018894*
Y017126*
X018909*
Y017096*
X018924*
Y017081*
X018938*
Y017052*
X018953*
Y017037*
X018968*
Y017007*
X018983*
Y016977*
X018998*
Y016962*
X019013*
Y016933*
X019028*
Y016918*
X019043*
Y016888*
X019057*
Y016858*
X019072*
Y016843*
X019087*
Y016813*
X019102*
Y016799*
X019117*
Y016769*
X019132*
Y016739*
X019147*
Y016724*
X019162*
Y016694*
X019177*
Y016680*
X019191*
Y016650*
X019206*
Y016620*
X019221*
Y016605*
X019236*
Y016575*
X019251*
Y016560*
X019266*
Y016531*
X019281*
Y016501*
X019296*
Y016486*
X019311*
Y016456*
X019325*
Y016441*
X019340*
Y016412*
X019355*
Y016382*
X019370*
Y016367*
X019385*
Y016337*
X019400*
Y016322*
X019415*
Y016293*
X019430*
Y016278*
X019444*
Y016248*
X019459*
Y016218*
X019474*
Y016203*
X019489*
Y016173*
X019504*
Y016159*
X019519*
Y016129*
X019534*
Y016099*
X019549*
Y016084*
X019564*
Y016054*
X019578*
Y016039*
X019593*
Y016010*
X019608*
Y015980*
X019623*
Y015965*
X019638*
Y015935*
X019653*
Y015920*
X019668*
Y015891*
X019683*
Y015861*
X019698*
Y015846*
X019712*
Y015816*
X019727*
Y015801*
X019742*
Y015772*
X019757*
Y015742*
X019772*
Y015727*
X019787*
Y015697*
X019802*
Y015682*
X019817*
Y015652*
X019831*
Y015623*
X019846*
Y015608*
X019861*
Y015578*
X019876*
Y015563*
X019891*
Y015533*
X019906*
Y015504*
X019921*
Y015489*
X019936*
Y015459*
X019951*
Y015444*
X019965*
Y015414*
X019980*
Y015385*
X019995*
Y015370*
X020010*
Y015340*
X020025*
Y015325*
X020040*
Y015295*
X020055*
Y015265*
X020070*
Y015251*
X020085*
Y015221*
X020099*
Y015206*
X020114*
Y015176*
X020129*
Y015146*
X020144*
Y015132*
X020159*
Y015102*
X020174*
Y015087*
X020189*
Y015057*
X020204*
Y015027*
X020218*
Y015012*
X020233*
Y014983*
X020248*
Y014968*
X020263*
Y014938*
X020278*
Y014908*
X020293*
Y014893*
X020308*
Y014864*
X020323*
Y014849*
X020338*
Y014819*
X020352*
Y014789*
X020367*
Y014774*
X020382*
Y014745*
X020397*
Y014730*
X020412*
Y014700*
X020427*
Y014685*
X020442*
Y014655*
X020457*
Y014625*
X020472*
Y014611*
X020486*
Y014581*
X020501*
Y014566*
X020516*
Y014536*
X020531*
Y014506*
X020546*
Y014491*
X020561*
Y014462*
X020576*
Y014447*
X020591*
Y014417*
X020606*
Y014387*
X020620*
Y014372*
X020635*
Y014343*
X020650*
Y014328*
X020665*
Y014298*
X020680*
Y014268*
X020695*
Y014253*
X020710*
Y014224*
X020725*
Y014209*
X020739*
Y014179*
X020754*
Y014149*
X020769*
Y014134*
X020784*
Y014104*
X020799*
Y014090*
X020814*
Y014060*
X020829*
Y014030*
X020844*
Y014015*
X020859*
Y013985*
X020873*
Y013916*
X020859*
Y013887*
X020844*
Y013872*
X020829*
Y013857*
X020814*
Y013842*
X020784*
Y013827*
X016205*
Y013842*
X016175*
Y013857*
X016160*
Y013872*
X016145*
Y013901*
X016131*
Y013931*
X016116*
Y013970*
X016131*
Y014000*
X016145*
Y014030*
X016160*
Y014060*
X016175*
Y014075*
X016190*
Y014104*
X016205*
Y014134*
X016220*
Y014149*
X016235*
Y014179*
X016250*
Y014194*
X016265*
Y014224*
X016279*
Y014238*
X016294*
Y014268*
X016309*
Y014298*
X016324*
Y014313*
X016339*
Y014343*
X016354*
Y014357*
X016369*
Y014387*
X016384*
Y014417*
X016398*
Y014432*
X016413*
Y014462*
X016428*
Y014477*
X016443*
Y014506*
X016458*
Y014536*
X016473*
Y014551*
X016488*
Y014581*
X016503*
Y014596*
X016518*
Y014625*
X016532*
Y014655*
X016547*
Y014670*
X016562*
Y014700*
X016577*
Y014715*
X016592*
Y014745*
X016607*
Y014774*
X016622*
Y014789*
X016637*
Y014819*
X016652*
Y014834*
X016666*
Y014864*
X016681*
Y014893*
X016696*
Y014908*
X016711*
Y014938*
X016726*
Y014953*
X016741*
Y014983*
X016756*
Y015012*
X016771*
Y015027*
X016785*
Y015057*
X016800*
Y015072*
X016815*
Y015102*
X016830*
Y015132*
X016845*
Y015146*
X016860*
Y015176*
X016875*
Y015191*
X016890*
Y015221*
X016905*
Y015236*
X016919*
Y015265*
X016934*
Y015295*
X016949*
Y015310*
X016964*
Y015340*
X016979*
Y015355*
X016994*
Y015385*
X017009*
Y015414*
X017024*
Y015429*
X017039*
Y015459*
X017053*
Y015489*
X017068*
Y015504*
X017083*
Y015533*
X017098*
Y015548*
X017113*
Y015578*
X017128*
Y015593*
X017143*
Y015623*
X017158*
Y015652*
X017172*
Y015667*
X017187*
Y015697*
X017202*
Y015712*
X017217*
Y015742*
X017232*
Y015772*
X017247*
Y015786*
X017262*
Y015816*
X017277*
Y015831*
X017292*
Y015861*
X017306*
Y015891*
X017321*
Y015906*
X017336*
Y015935*
X017351*
Y015950*
X017366*
Y015980*
X017381*
Y016010*
X017396*
Y016025*
X017411*
Y016054*
X017426*
Y016069*
X017440*
Y016099*
X017455*
Y016129*
X017470*
Y016144*
X017485*
Y016173*
X017500*
Y016188*
X017515*
Y016218*
X017530*
Y016248*
X017545*
Y016263*
X017559*
Y016293*
X017574*
Y016307*
X017589*
Y016337*
X017604*
Y016352*
X017619*
Y016382*
X017634*
Y016412*
X017649*
Y016426*
X017664*
Y016456*
X017679*
Y016486*
X017693*
Y016501*
X017708*
Y016531*
X017723*
Y016546*
X017738*
Y016575*
X017753*
Y016605*
X017768*
Y016620*
X017783*
Y016650*
X017798*
Y016665*
X017813*
Y016694*
X017827*
Y016709*
X017842*
Y016739*
X017857*
Y016769*
X017872*
Y016784*
X017887*
Y016813*
X017902*
Y016843*
X017917*
Y016858*
X017932*
Y016888*
X017946*
Y016903*
X017961*
Y016933*
X017976*
Y016947*
X017991*
Y016977*
X018006*
Y017007*
X018021*
Y017022*
X018036*
Y017052*
X018051*
Y017067*
X018066*
Y017096*
X018080*
Y017126*
X018095*
Y017141*
X018110*
Y017171*
X018125*
Y017186*
X018140*
Y017215*
X018155*
Y017245*
X018170*
Y017260*
X018185*
Y017290*
X018200*
Y017305*
X018214*
Y017334*
X018229*
Y017364*
X018244*
Y017379*
X018259*
Y017409*
X018274*
Y017424*
X018289*
Y017454*
X018304*
Y017483*
X018319*
Y017498*
X018333*
Y017528*
X018348*
Y017543*
X018363*
Y017573*
X018378*
Y017602*
X018393*
Y017617*
X018408*
Y017632*
X018423*
Y017647*
X018438*
Y017662*
X018482*
Y017677*
X018507*
Y017662*
G54D12*
X018457Y017612D02*
X018501D01*
Y017597*
X018516*
Y017582*
X018531*
Y017567*
X018546*
Y017552*
X018561*
Y017523*
X018576*
Y017508*
X018591*
Y017478*
X018606*
Y017448*
X018620*
Y017433*
X018635*
Y017404*
X018650*
Y017389*
X018665*
Y017359*
X018680*
Y017344*
X018695*
Y017314*
X018710*
Y017284*
X018725*
Y017270*
X018740*
Y017240*
X018754*
Y017225*
X018769*
Y017195*
X018784*
Y017165*
X018799*
Y017150*
X018814*
Y017121*
X018829*
Y017106*
X018844*
Y017076*
X018859*
Y017046*
X018874*
Y017031*
X018888*
Y017002*
X018903*
Y016987*
X018918*
Y016957*
X018933*
Y016927*
X018948*
Y016912*
X018963*
Y016883*
X018978*
Y016868*
X018993*
Y016838*
X019007*
Y016808*
X019022*
Y016793*
X019037*
Y016763*
X019052*
Y016749*
X019067*
Y016719*
X019082*
Y016689*
X019097*
Y016674*
X019112*
Y016644*
X019127*
Y016630*
X019141*
Y016600*
X019156*
Y016570*
X019171*
Y016555*
X019186*
Y016525*
X019201*
Y016510*
X019216*
Y016481*
X019231*
Y016451*
X019246*
Y016436*
X019261*
Y016406*
X019275*
Y016391*
X019290*
Y016362*
X019305*
Y016332*
X019320*
Y016317*
X019335*
Y016287*
X019350*
Y016272*
X019365*
Y016243*
X019380*
Y016228*
X019394*
Y016198*
X019409*
Y016168*
X019424*
Y016153*
X019439*
Y016123*
X019454*
Y016109*
X019469*
Y016079*
X019484*
Y016049*
X019499*
Y016034*
X019514*
Y016004*
X019528*
Y015989*
X019543*
Y015960*
X019558*
Y015930*
X019573*
Y015915*
X019588*
Y015885*
X019603*
Y015870*
X019618*
Y015841*
X019633*
Y015811*
X019648*
Y015796*
X019662*
Y015766*
X019677*
Y015751*
X019692*
Y015722*
X019707*
Y015692*
X019722*
Y015677*
X019737*
Y015647*
X019752*
Y015632*
X019767*
Y015602*
X019781*
Y015573*
X019796*
Y015558*
X019811*
Y015528*
X019826*
Y015513*
X019841*
Y015483*
X019856*
Y015454*
X019871*
Y015439*
X019886*
Y015409*
X019901*
Y015394*
X019915*
Y015364*
X019930*
Y015335*
X019945*
Y015320*
X019960*
Y015290*
X019975*
Y015275*
X019990*
Y015245*
X020005*
Y015215*
X020020*
Y015201*
X020035*
Y015171*
X020049*
Y015156*
X020064*
Y015126*
X020079*
Y015096*
X020094*
Y015082*
X020109*
Y015052*
X020124*
Y015037*
X020139*
Y015007*
X020154*
Y014977*
X020168*
Y014962*
X020183*
Y014933*
X020198*
Y014918*
X020213*
Y014888*
X020228*
Y014858*
X020243*
Y014843*
X020258*
Y014814*
X020273*
Y014799*
X020288*
Y014769*
X020302*
Y014739*
X020317*
Y014724*
X020332*
Y014695*
X020347*
Y014680*
X020362*
Y014650*
X020377*
Y014635*
X020392*
Y014605*
X020407*
Y014575*
X020422*
Y014561*
X020436*
Y014531*
X020451*
Y014516*
X020466*
Y014486*
X020481*
Y014456*
X020496*
Y014441*
X020511*
Y014412*
X020526*
Y014397*
X020541*
Y014367*
X020556*
Y014337*
X020570*
Y014322*
X020585*
Y014293*
X020600*
Y014278*
X020615*
Y014248*
X020630*
Y014218*
X020645*
Y014203*
X020660*
Y014174*
X020675*
Y014159*
X020689*
Y014129*
X020704*
Y014099*
X020719*
Y014084*
X020734*
Y014054*
X020749*
Y014040*
X020764*
Y014010*
X020779*
Y013980*
X020794*
Y013965*
X020809*
Y013935*
X020823*
Y013966*
X020809*
Y013937*
X020794*
Y013922*
X020779*
Y013907*
X020764*
Y013892*
X020734*
Y013877*
X016255*
Y013892*
X016225*
Y013907*
X016210*
Y013922*
X016195*
Y013951*
X016181*
Y013981*
X016166*
Y013920*
X016181*
Y013950*
X016195*
Y013980*
X016210*
Y014010*
X016225*
Y014025*
X016240*
Y014054*
X016255*
Y014084*
X016270*
Y014099*
X016285*
Y014129*
X016300*
Y014144*
X016315*
Y014174*
X016329*
Y014188*
X016344*
Y014218*
X016359*
Y014248*
X016374*
Y014263*
X016389*
Y014293*
X016404*
Y014307*
X016419*
Y014337*
X016434*
Y014367*
X016448*
Y014382*
X016463*
Y014412*
X016478*
Y014427*
X016493*
Y014456*
X016508*
Y014486*
X016523*
Y014501*
X016538*
Y014531*
X016553*
Y014546*
X016568*
Y014575*
X016582*
Y014605*
X016597*
Y014620*
X016612*
Y014650*
X016627*
Y014665*
X016642*
Y014695*
X016657*
Y014724*
X016672*
Y014739*
X016687*
Y014769*
X016702*
Y014784*
X016716*
Y014814*
X016731*
Y014843*
X016746*
Y014858*
X016761*
Y014888*
X016776*
Y014903*
X016791*
Y014933*
X016806*
Y014962*
X016821*
Y014977*
X016835*
Y015007*
X016850*
Y015022*
X016865*
Y015052*
X016880*
Y015082*
X016895*
Y015096*
X016910*
Y015126*
X016925*
Y015141*
X016940*
Y015171*
X016955*
Y015186*
X016969*
Y015215*
X016984*
Y015245*
X016999*
Y015260*
X017014*
Y015290*
X017029*
Y015305*
X017044*
Y015335*
X017059*
Y015364*
X017074*
Y015379*
X017089*
Y015409*
X017103*
Y015439*
X017118*
Y015454*
X017133*
Y015483*
X017148*
Y015498*
X017163*
Y015528*
X017178*
Y015543*
X017193*
Y015573*
X017208*
Y015602*
X017222*
Y015617*
X017237*
Y015647*
X017252*
Y015662*
X017267*
Y015692*
X017282*
Y015722*
X017297*
Y015736*
X017312*
Y015766*
X017327*
Y015781*
X017342*
Y015811*
X017356*
Y015841*
X017371*
Y015856*
X017386*
Y015885*
X017401*
Y015900*
X017416*
Y015930*
X017431*
Y015960*
X017446*
Y015975*
X017461*
Y016004*
X017476*
Y016019*
X017490*
Y016049*
X017505*
Y016079*
X017520*
Y016094*
X017535*
Y016123*
X017550*
Y016138*
X017565*
Y016168*
X017580*
Y016198*
X017595*
Y016213*
X017609*
Y016243*
X017624*
Y016257*
X017639*
Y016287*
X017654*
Y016302*
X017669*
Y016332*
X017684*
Y016362*
X017699*
Y016376*
X017714*
Y016406*
X017729*
Y016436*
X017743*
Y016451*
X017758*
Y016481*
X017773*
Y016496*
X017788*
Y016525*
X017803*
Y016555*
X017818*
Y016570*
X017833*
Y016600*
X017848*
Y016615*
X017863*
Y016644*
X017877*
Y016659*
X017892*
Y016689*
X017907*
Y016719*
X017922*
Y016734*
X017937*
Y016763*
X017952*
Y016793*
X017967*
Y016808*
X017982*
Y016838*
X017996*
Y016853*
X018011*
Y016883*
X018026*
Y016897*
X018041*
Y016927*
X018056*
Y016957*
X018071*
Y016972*
X018086*
Y017002*
X018101*
Y017017*
X018116*
Y017046*
X018130*
Y017076*
X018145*
Y017091*
X018160*
Y017121*
X018175*
Y017136*
X018190*
Y017165*
X018205*
Y017195*
X018220*
Y017210*
X018235*
Y017240*
X018250*
Y017255*
X018264*
Y017284*
X018279*
Y017314*
X018294*
Y017329*
X018309*
Y017359*
X018324*
Y017374*
X018339*
Y017404*
X018354*
Y017433*
X018369*
Y017448*
X018383*
Y017478*
X018398*
Y017493*
X018413*
Y017523*
X018428*
Y017552*
X018443*
Y017567*
X018458*
Y017582*
X018473*
Y017597*
X018488*
Y017612*
X018532*
Y017627*
X018457*
Y017612*
X016180Y013930D02*
X020770D01*
X020820D02*
D01*
X016260Y014030D02*
X020750D01*
X016320Y014130D02*
X020670D01*
X016380Y014230D02*
X020610D01*
X016440Y014330D02*
X020550D01*
X016500Y014430D02*
X020490D01*
X016560Y014530D02*
X020430D01*
X016620Y014630D02*
X020370D01*
X016680Y014730D02*
X020310D01*
X016740Y014830D02*
X020250D01*
X016820Y014930D02*
X020170D01*
X016880Y015030D02*
X020130D01*
X016940Y015130D02*
X020050D01*
X017000Y015230D02*
X019990D01*
X017080Y015330D02*
X019910D01*
X017120Y015430D02*
X019870D01*
X017200Y015530D02*
X019790D01*
X017260Y015630D02*
X019730D01*
X017320Y015730D02*
X019670D01*
X017380Y015830D02*
X019610D01*
X017440Y015930D02*
X019550D01*
X017500Y016030D02*
X019490D01*
X017560Y016130D02*
X019430D01*
X017620Y016230D02*
X019370D01*
X017700Y016330D02*
X019290D01*
X017740Y016430D02*
X019250D01*
X017820Y016530D02*
X019170D01*
X017880Y016630D02*
X019110D01*
X017960Y016730D02*
X019050D01*
X018000Y016830D02*
X018990D01*
X018080Y016930D02*
X018910D01*
X018140Y017030D02*
X018850D01*
X018180Y017130D02*
X018790D01*
X018240Y017230D02*
X018730D01*
X018320Y017330D02*
X018670D01*
X018380Y017430D02*
X018610D01*
X018440Y017530D02*
X018550D01*
G54D14*
X018110Y016230D02*
Y016300D01*
X018160Y016170D02*
Y016300D01*
X018210Y016080D02*
Y016300D01*
X018260Y016010D02*
Y016300D01*
X018310Y015950D02*
Y016300D01*
Y017210D02*
Y017230D01*
X018360Y015860D02*
Y016300D01*
Y017150D02*
D01*
X018410Y015790D02*
Y016300D01*
Y017040D02*
Y017070D01*
X018460Y015730D02*
Y016300D01*
Y016900D02*
Y016980D01*
X018510Y015640D02*
Y016300D01*
Y016710D02*
Y016920D01*
X018560Y015560D02*
Y016300D01*
Y016580D02*
Y016860D01*
X018610Y015500D02*
Y016300D01*
Y016440D02*
Y016770D01*
X018660Y015410D02*
Y015670D01*
Y015980D02*
Y016710D01*
X018710Y015270D02*
Y015320D01*
Y015990D02*
Y016640D01*
X018760Y015990D02*
Y016560D01*
X018810Y015990D02*
Y016510D01*
X018860Y015990D02*
Y016430D01*
X018910Y015990D02*
Y016360D01*
X018960Y015990D02*
Y016300D01*
X019010Y015990D02*
Y016220D01*
X019060Y015990D02*
Y016160D01*
X019110Y015990D02*
Y016090D01*
X019160Y015990D02*
Y016010D01*
X019210Y015970D02*
D01*
%LNde-230724-2*%
%LPC*%
G36*
X018547Y017642D02*
X018457D01*
Y017627*
X018428*
Y017612*
X018413*
Y017583*
X018398*
Y017568*
X018383*
Y017538*
X018368*
Y017523*
X018353*
Y017493*
X018338*
Y017464*
X018323*
Y017449*
X018308*
Y017419*
X018294*
Y017404*
X018279*
Y017374*
X018264*
Y017345*
X018249*
Y017330*
X018234*
Y017300*
X018219*
Y017285*
X018204*
Y017255*
X018189*
Y017225*
X018175*
Y017211*
X018160*
Y017181*
X018145*
Y017166*
X018130*
Y017136*
X018115*
Y017106*
X018100*
Y017092*
X018085*
Y017062*
X018070*
Y017047*
X018055*
Y017017*
X018041*
Y016987*
X018026*
Y016972*
X018011*
Y016943*
X017996*
Y016928*
X017981*
Y016898*
X017966*
Y016868*
X017951*
Y016853*
X017936*
Y016824*
X017921*
Y016809*
X017907*
Y016779*
X017892*
Y016749*
X017877*
Y016734*
X017862*
Y016705*
X017847*
Y016690*
X017832*
Y016660*
X017817*
Y016630*
X017802*
Y016615*
X017788*
Y016585*
X017773*
Y016571*
X017758*
Y016541*
X017743*
Y016526*
X017728*
Y016496*
X017713*
Y016466*
X017698*
Y016451*
X017683*
Y016422*
X017668*
Y016407*
X017654*
Y016377*
X017639*
Y016347*
X017624*
Y016332*
X017609*
Y016303*
X017594*
Y016288*
X017579*
Y016258*
X017564*
Y016228*
X017549*
Y016213*
X017534*
Y016184*
X017520*
Y016169*
X017505*
Y016139*
X017490*
Y016109*
X017475*
Y016094*
X017460*
Y016064*
X017445*
Y016050*
X017430*
Y016020*
X017415*
Y015990*
X017401*
Y015975*
X017386*
Y015945*
X017371*
Y015931*
X017356*
Y015901*
X017341*
Y015871*
X017326*
Y015856*
X017311*
Y015826*
X017296*
Y015811*
X017281*
Y015782*
X017267*
Y015767*
X017252*
Y015737*
X017237*
Y015707*
X017222*
Y015692*
X017207*
Y015663*
X017192*
Y015633*
X017177*
Y015618*
X017162*
Y015588*
X017147*
Y015573*
X017133*
Y015544*
X017118*
Y015514*
X017103*
Y015499*
X017088*
Y015469*
X017073*
Y015454*
X017058*
Y015424*
X017043*
Y015395*
X017028*
Y015380*
X017014*
Y015350*
X016999*
Y015335*
X016984*
Y015305*
X016969*
Y015290*
X016954*
Y015261*
X016939*
Y015231*
X016924*
Y015216*
X016909*
Y015186*
X016894*
Y015157*
X016880*
Y015142*
X016865*
Y015112*
X016850*
Y015097*
X016835*
Y015067*
X016820*
Y015037*
X016805*
Y015023*
X016790*
Y014993*
X016775*
Y014978*
X016760*
Y014948*
X016746*
Y014933*
X016731*
Y014903*
X016716*
Y014874*
X016701*
Y014859*
X016686*
Y014829*
X016671*
Y014814*
X016656*
Y014784*
X016641*
Y014755*
X016627*
Y014740*
X016612*
Y014710*
X016597*
Y014695*
X016582*
Y014665*
X016567*
Y014636*
X016552*
Y014621*
X016537*
Y014591*
X016522*
Y014576*
X016507*
Y014546*
X016493*
Y014516*
X016478*
Y014502*
X016463*
Y014472*
X016448*
Y014457*
X016433*
Y014427*
X016418*
Y014397*
X016403*
Y014382*
X016388*
Y014353*
X016373*
Y014338*
X016359*
Y014308*
X016344*
Y014278*
X016329*
Y014263*
X016314*
Y014234*
X016299*
Y014219*
X016284*
Y014189*
X016269*
Y014159*
X016254*
Y014144*
X016240*
Y014115*
X016225*
Y014100*
X016210*
Y014070*
X016195*
Y014040*
X016180*
Y014025*
X016165*
Y013995*
X016150*
Y013906*
X016165*
Y013876*
X016180*
Y013862*
X016225*
Y013847*
X020779*
Y013862*
X020809*
Y013876*
X020824*
Y013891*
X020839*
Y013936*
X020854*
Y013951*
X020839*
Y014010*
X020824*
Y014025*
X020809*
Y014055*
X020794*
Y014070*
X020779*
Y014100*
X020764*
Y014129*
X020750*
Y014144*
X020735*
Y014174*
X020720*
Y014189*
X020705*
Y014219*
X020690*
Y014249*
X020675*
Y014263*
X020660*
Y014293*
X020645*
Y014308*
X020631*
Y014338*
X020616*
Y014353*
X020601*
Y014382*
X020586*
Y014412*
X020571*
Y014427*
X020556*
Y014457*
X020541*
Y014487*
X020526*
Y014502*
X020511*
Y014531*
X020497*
Y014546*
X020482*
Y014576*
X020467*
Y014606*
X020452*
Y014621*
X020437*
Y014650*
X020422*
Y014665*
X020407*
Y014695*
X020392*
Y014725*
X020377*
Y014740*
X020363*
Y014770*
X020348*
Y014784*
X020333*
Y014814*
X020318*
Y014829*
X020303*
Y014859*
X020288*
Y014889*
X020273*
Y014903*
X020258*
Y014933*
X020243*
Y014948*
X020229*
Y014978*
X020214*
Y015008*
X020199*
Y015023*
X020184*
Y015052*
X020169*
Y015067*
X020154*
Y015097*
X020139*
Y015127*
X020124*
Y015142*
X020110*
Y015171*
X020095*
Y015186*
X020080*
Y015216*
X020065*
Y015246*
X020050*
Y015261*
X020035*
Y015290*
X020020*
Y015305*
X020005*
Y015335*
X019990*
Y015365*
X019976*
Y015380*
X019961*
Y015410*
X019946*
Y015424*
X019931*
Y015454*
X019916*
Y015484*
X019901*
Y015499*
X019886*
Y015529*
X019871*
Y015544*
X019856*
Y015573*
X019842*
Y015603*
X019827*
Y015618*
X019812*
Y015648*
X019797*
Y015663*
X019782*
Y015692*
X019767*
Y015707*
X019752*
Y015737*
X019737*
Y015767*
X019723*
Y015782*
X019708*
Y015811*
X019693*
Y015826*
X019678*
Y015856*
X019663*
Y015886*
X019648*
Y015901*
X019633*
Y015931*
X019618*
Y015960*
X019603*
Y015975*
X019589*
Y016005*
X019574*
Y016020*
X019559*
Y016050*
X019544*
Y016064*
X019529*
Y016094*
X019514*
Y016124*
X019499*
Y016139*
X019484*
Y016169*
X019469*
Y016184*
X019455*
Y016213*
X019440*
Y016243*
X019425*
Y016258*
X019410*
Y016288*
X019395*
Y016303*
X019380*
Y016332*
X019365*
Y016362*
X019350*
Y016377*
X019336*
Y016407*
X019321*
Y016422*
X019306*
Y016451*
X019291*
Y016481*
X019276*
Y016496*
X019261*
Y016526*
X019246*
Y016541*
X019231*
Y016571*
X019216*
Y016600*
X019202*
Y016615*
X019187*
Y016645*
X019172*
Y016660*
X019157*
Y016690*
X019142*
Y016719*
X019127*
Y016734*
X019112*
Y016764*
X019097*
Y016779*
X019082*
Y016809*
X019068*
Y016838*
X019053*
Y016853*
X019038*
Y016883*
X019023*
Y016898*
X019008*
Y016928*
X018993*
Y016958*
X018978*
Y016972*
X018963*
Y017002*
X018949*
Y017017*
X018934*
Y017047*
X018919*
Y017077*
X018904*
Y017092*
X018889*
Y017121*
X018874*
Y017136*
X018859*
Y017166*
X018844*
Y017196*
X018829*
Y017211*
X018815*
Y017240*
X018800*
Y017255*
X018785*
Y017285*
X018770*
Y017300*
X018755*
Y017330*
X018740*
Y017359*
X018725*
Y017374*
X018710*
Y017404*
X018695*
Y017419*
X018681*
Y017449*
X018666*
Y017479*
X018651*
Y017493*
X018636*
Y017523*
X018621*
Y017553*
X018606*
Y017568*
X018591*
Y017598*
X018576*
Y017612*
X018562*
Y017627*
X018547*
Y017642*
G37*
%LNde-230724-3*%
%LPD*%
G54D10*
X020643Y027019D02*
X020957D01*
X018993Y020131D02*
X019307D01*
X017772Y024531D02*
Y027169D01*
Y024531D02*
X019228D01*
Y027169*
X017772D02*
X019228D01*
G54D11*
X020400Y026756D02*
D01*
X020399Y026759*
X020399Y026762*
X020398Y026766*
X020398Y026769*
X020397Y026772*
X020395Y026775*
X020394Y026779*
X020392Y026781*
X020390Y026784*
X020388Y026787*
X020386Y026790*
X020383Y026792*
X020381Y026794*
X020378Y026796*
X020375Y026798*
X020372Y026800*
X020369Y026801*
X020366Y026802*
X020362Y026803*
X020359Y026804*
X020356Y026804*
X020352Y026804*
X020349*
X020345Y026804*
X020342Y026804*
X020339Y026803*
X020335Y026802*
X020332Y026801*
X020329Y026800*
X020326Y026798*
X020323Y026796*
X020320Y026794*
X020318Y026792*
X020315Y026790*
X020313Y026787*
X020311Y026784*
X020309Y026781*
X020307Y026779*
X020306Y026775*
X020304Y026772*
X020303Y026769*
X020303Y026766*
X020302Y026762*
X020302Y026759*
X020302Y026756*
X020302Y026752*
X020302Y026749*
X020303Y026745*
X020303Y026742*
X020304Y026739*
X020306Y026736*
X020307Y026732*
X020309Y026730*
X020311Y026727*
X020313Y026724*
X020315Y026721*
X020318Y026719*
X020320Y026717*
X020323Y026715*
X020326Y026713*
X020329Y026711*
X020332Y026710*
X020335Y026709*
X020339Y026708*
X020342Y026707*
X020345Y026707*
X020349Y026707*
X020352*
X020356Y026707*
X020359Y026707*
X020362Y026708*
X020366Y026709*
X020369Y026710*
X020372Y026711*
X020375Y026713*
X020378Y026715*
X020381Y026717*
X020383Y026719*
X020386Y026721*
X020388Y026724*
X020390Y026727*
X020392Y026730*
X020394Y026732*
X020395Y026736*
X020397Y026739*
X020398Y026742*
X020398Y026745*
X020399Y026749*
X020399Y026752*
X020400Y026756*
G54D12*
X016238Y014139D02*
X020776D01*
X019703Y014371D02*
X020170D01*
X019703Y014838*
Y014954*
X019820Y015071*
X020053*
X020170Y014954*
X019004Y014371D02*
X019470D01*
X019004Y014838*
Y014954*
X019120Y015071*
X019354*
X019470Y014954*
X018770D02*
X018654Y015071D01*
X018421*
X018304Y014954*
Y014488*
X018421Y014371*
X018654*
X018770Y014488*
Y014954*
X017371Y015071D02*
Y014604D01*
X017138Y014371*
X016904Y014604*
Y015071*
X022100Y011550D02*
Y010950D01*
Y011250*
X021700*
Y011550*
Y010950*
X021500Y011550D02*
X021300D01*
X021400*
Y010950*
X021500*
X021300*
X020600Y011450D02*
X020700Y011550D01*
X020900*
X021000Y011450*
Y011050*
X020900Y010950*
X020700*
X020600Y011050*
Y011250*
X020800*
X020401Y011550D02*
Y010950D01*
Y011250*
X020001*
Y011550*
Y010950*
X019201Y011550D02*
Y011150D01*
X019001Y010950*
X018801Y011150*
Y011550*
X018301D02*
X018501D01*
X018601Y011450*
Y011050*
X018501Y010950*
X018301*
X018201Y011050*
Y011450*
X018301Y011550*
X018001D02*
Y010950D01*
X017601*
X017402Y011550D02*
X017002D01*
X017202*
Y010950*
X016802D02*
Y011350D01*
X016602Y011550*
X016402Y011350*
Y010950*
Y011250*
X016802*
X015802Y011450D02*
X015902Y011550D01*
X016102*
X016202Y011450*
Y011050*
X016102Y010950*
X015902*
X015802Y011050*
Y011250*
X016002*
X015202Y011550D02*
X015602D01*
Y010950*
X015202*
X015602Y011250D02*
X015402D01*
X021650Y018750D02*
Y019250D01*
Y018650D02*
Y018550D01*
X021450Y018750D02*
Y019250D01*
Y018650D02*
Y018550D01*
X021250Y018750D02*
Y019250D01*
Y018650D02*
Y018550D01*
X020450Y019150D02*
Y018550D01*
X020250Y018750*
X020051Y018550*
Y019150*
X019851Y018550D02*
Y018950D01*
X019651Y019150*
X019451Y018950*
Y018550*
Y018850*
X019851*
X019251Y018550D02*
Y019150D01*
X018951*
X018851Y019050*
Y018850*
X018951Y018750*
X019251*
X019051D02*
X018851Y018550D01*
X018651D02*
Y019150D01*
X018251Y018550*
Y019150*
X018051D02*
X017851D01*
X017951*
Y018550*
X018051*
X017851*
X017551D02*
Y019150D01*
X017151Y018550*
Y019150*
X016552Y019050D02*
X016652Y019150D01*
X016852*
X016952Y019050*
Y018650*
X016852Y018550*
X016652*
X016552Y018650*
Y018850*
X016752*
X015752Y018750D02*
Y019250D01*
Y018650D02*
Y018550D01*
X015552Y018750D02*
Y019250D01*
Y018650D02*
Y018550D01*
X015352Y018750D02*
Y019250D01*
Y018650D02*
Y018550D01*
G54D14*
X021050Y027550D02*
X021100Y027600D01*
X021200*
X021250Y027550*
Y027350*
X021200Y027300*
X021100*
X021050Y027350*
X020950Y027550D02*
X020900Y027600D01*
X020800*
X020750Y027550*
Y027500*
X020800Y027450*
X020750Y027400*
Y027350*
X020800Y027300*
X020900*
X020950Y027350*
Y027400*
X020900Y027450*
X020950Y027500*
Y027550*
X020900Y027450D02*
X020800D01*
X018500Y020500D02*
X018550Y020550D01*
X018650*
X018700Y020500*
Y020300*
X018650Y020250*
X018550*
X018500Y020300*
X018400Y020250D02*
X018300D01*
X018350*
Y020550*
X018400Y020500*
X018150D02*
X018100Y020550D01*
X018000*
X017950Y020500*
Y020300*
X018000Y020250*
X018100*
X018150Y020300*
Y020500*
X013400Y032750D02*
Y033050D01*
X013250*
X013200Y033000*
Y032900*
X013250Y032850*
X013400*
X013300D02*
X013200Y032750D01*
X012900D02*
X013100D01*
X012900Y032950*
Y033000*
X012950Y033050*
X013050*
X013100Y033000*
X011700Y033540D02*
Y033840D01*
X011550*
X011500Y033790*
Y033690*
X011550Y033640*
X011700*
X011600D02*
X011500Y033540D01*
X011400Y033790D02*
X011350Y033840D01*
X011250*
X011200Y033790*
Y033740*
X011250Y033690*
X011300*
X011250*
X011200Y033640*
Y033590*
X011250Y033540*
X011350*
X011400Y033590*
X011000Y030500D02*
Y030800D01*
X010850*
X010800Y030750*
Y030650*
X010850Y030600*
X011000*
X010900D02*
X010800Y030500D01*
X010550D02*
Y030800D01*
X010700Y030650*
X010500*
X017900Y035550D02*
Y035850D01*
X017750*
X017700Y035800*
Y035700*
X017750Y035650*
X017900*
X017800D02*
X017700Y035550D01*
X017600Y035850D02*
X017400D01*
Y035800*
X017600Y035600*
Y035550*
X016320Y036290D02*
Y036590D01*
X016170*
X016120Y036540*
Y036440*
X016170Y036390*
X016320*
X016220D02*
X016120Y036290D01*
X016020Y036540D02*
X015970Y036590D01*
X015870*
X015820Y036540*
Y036490*
X015870Y036440*
X015820Y036390*
Y036340*
X015870Y036290*
X015970*
X016020Y036340*
Y036390*
X015970Y036440*
X016020Y036490*
Y036540*
X015970Y036440D02*
X015870D01*
X014840Y036270D02*
Y036570D01*
X014690*
X014640Y036520*
Y036420*
X014690Y036370*
X014840*
X014740D02*
X014640Y036270D01*
X014540Y036320D02*
X014490Y036270D01*
X014390*
X014340Y036320*
Y036520*
X014390Y036570*
X014490*
X014540Y036520*
Y036470*
X014490Y036420*
X014340*
X022150Y035650D02*
Y035950D01*
X022000*
X021950Y035900*
Y035800*
X022000Y035750*
X022150*
X022050D02*
X021950Y035650D01*
X021850D02*
X021750D01*
X021800*
Y035950*
X021850Y035900*
X021600Y035650D02*
X021500D01*
X021550*
Y035950*
X021600Y035900*
X020470Y036390D02*
Y036690D01*
X020320*
X020270Y036640*
Y036540*
X020320Y036490*
X020470*
X020370D02*
X020270Y036390D01*
X020170D02*
X020070D01*
X020120*
Y036690*
X020170Y036640*
X019720Y036390D02*
X019920D01*
X019720Y036590*
Y036640*
X019770Y036690*
X019870*
X019920Y036640*
X018990Y036370D02*
Y036670D01*
X018840*
X018790Y036620*
Y036520*
X018840Y036470*
X018990*
X018890D02*
X018790Y036370D01*
X018690D02*
X018590D01*
X018640*
Y036670*
X018690Y036620*
X018440D02*
X018390Y036670D01*
X018290*
X018240Y036620*
Y036570*
X018290Y036520*
X018340*
X018290*
X018240Y036470*
Y036420*
X018290Y036370*
X018390*
X018440Y036420*
X026750Y035600D02*
Y035900D01*
X026600*
X026550Y035850*
Y035750*
X026600Y035700*
X026750*
X026650D02*
X026550Y035600D01*
X026450D02*
X026350D01*
X026400*
Y035900*
X026450Y035850*
X026050Y035600D02*
Y035900D01*
X026200Y035750*
X026000*
X024970Y036390D02*
Y036690D01*
X024820*
X024770Y036640*
Y036540*
X024820Y036490*
X024970*
X024870D02*
X024770Y036390D01*
X024670D02*
X024570D01*
X024620*
Y036690*
X024670Y036640*
X024220Y036690D02*
X024420D01*
Y036540*
X024320Y036590*
X024270*
X024220Y036540*
Y036440*
X024270Y036390*
X024370*
X024420Y036440*
X023490Y036370D02*
Y036670D01*
X023340*
X023290Y036620*
Y036520*
X023340Y036470*
X023490*
X023390D02*
X023290Y036370D01*
X023190D02*
X023090D01*
X023140*
Y036670*
X023190Y036620*
X022740Y036670D02*
X022840Y036620D01*
X022940Y036520*
Y036420*
X022890Y036370*
X022790*
X022740Y036420*
Y036470*
X022790Y036520*
X022940*
X018800Y027750D02*
Y027500D01*
X018750Y027450*
X018650*
X018600Y027500*
Y027750*
X018500Y027700D02*
X018450Y027750D01*
X018350*
X018300Y027700*
Y027650*
X018350Y027600*
X018300Y027550*
Y027500*
X018350Y027450*
X018450*
X018500Y027500*
Y027550*
X018450Y027600*
X018500Y027650*
Y027700*
X018450Y027600D02*
X018350D01*
X018298Y017230D02*
X018313D01*
Y017200*
X018328*
Y017186*
X018343*
Y017156*
X018358*
Y017141*
X018373*
Y017126*
X018388*
Y017096*
X018403*
Y017081*
X018417*
Y017067*
X018432*
Y017037*
X018447*
Y017022*
X018462*
Y016992*
X018477*
Y016977*
X018492*
Y016962*
X018507*
Y016933*
X018522*
Y016918*
X018537*
Y016888*
X018551*
Y016873*
X018566*
Y016858*
X018581*
Y016828*
X018596*
Y016813*
X018611*
Y016784*
X018626*
Y016769*
X018641*
Y016754*
X018656*
Y016724*
X018670*
Y016709*
X018685*
Y016680*
X018700*
Y016665*
X018715*
Y016650*
X018730*
Y016620*
X018745*
Y016605*
X018760*
Y016575*
X018775*
Y016560*
X018790*
Y016546*
X018804*
Y016516*
X018819*
Y016501*
X018834*
Y016486*
X018849*
Y016456*
X018864*
Y016441*
X018879*
Y016412*
X018894*
Y016397*
X018909*
Y016367*
X018924*
Y016352*
X018938*
Y016337*
X018953*
Y016307*
X018968*
Y016293*
X018983*
Y016263*
X018998*
Y016248*
X019013*
Y016233*
X019028*
Y016203*
X019043*
Y016188*
X019057*
Y016173*
X019072*
Y016144*
X019087*
Y016129*
X019102*
Y016099*
X019117*
Y016084*
X019132*
Y016069*
X019147*
Y016039*
X019162*
Y016025*
X019177*
Y015995*
X019191*
Y015980*
X019206*
Y015965*
X019221*
Y015985*
X018700*
Y015970*
X018626*
Y015906*
X018641*
Y015801*
X018656*
Y015682*
X018670*
Y015563*
X018685*
Y015444*
X018700*
Y015325*
X018715*
Y015256*
X018750*
Y015286*
X018735*
Y015315*
X018720*
Y015330*
X018706*
Y015360*
X018691*
Y015375*
X018676*
Y015405*
X018661*
Y015420*
X018646*
Y015449*
X018631*
Y015464*
X018616*
Y015494*
X018601*
Y015509*
X018587*
Y015539*
X018572*
Y015554*
X018557*
Y015583*
X018542*
Y015598*
X018527*
Y015628*
X018512*
Y015643*
X018497*
Y015673*
X018482*
Y015688*
X018467*
Y015717*
X018453*
Y015732*
X018438*
Y015762*
X018423*
Y015777*
X018408*
Y015807*
X018393*
Y015822*
X018378*
Y015851*
X018363*
Y015866*
X018348*
Y015896*
X018333*
Y015911*
X018319*
Y015941*
X018304*
Y015956*
X018289*
Y015985*
X018274*
Y016000*
X018259*
Y016030*
X018244*
Y016045*
X018229*
Y016075*
X018214*
Y016089*
X018200*
Y016119*
X018185*
Y016134*
X018170*
Y016164*
X018155*
Y016179*
X018140*
Y016209*
X018125*
Y016223*
X018110*
Y016253*
X018095*
Y016268*
X018080*
Y016298*
X018066*
Y016313*
X018051*
Y016343*
X018036*
Y016307*
X018631*
Y016372*
X018616*
Y016432*
X018601*
Y016476*
X018587*
Y016521*
X018572*
Y016566*
X018557*
Y016610*
X018542*
Y016655*
X018527*
Y016700*
X018512*
Y016744*
X018497*
Y016789*
X018482*
Y016849*
X018467*
Y016893*
X018453*
Y016938*
X018438*
Y016983*
X018423*
Y017027*
X018408*
Y017072*
X018393*
Y017117*
X018378*
Y017161*
X018363*
Y017206*
X018348*
Y017250*
X018333*
Y017245*
X018298*
Y017230*
M02*