%FSDAX24Y24*%
%MOIN*%
%SFA1B1*%

%IPPOS*%
%ADD82C,0.003900*%
%ADD84C,0.002000*%
%LNde-230724-1*%
%LPD*%
G54D82*
X016403Y037300D02*
X016797D01*
X016600Y037103D02*
Y037497D01*
X020853Y037300D02*
X021247D01*
X021050Y037103D02*
Y037497D01*
X025303Y037300D02*
X025697D01*
X025500Y037103D02*
Y037497D01*
X017203Y028600D02*
X017597D01*
X017400Y028403D02*
Y028797D01*
X021200Y027453D02*
Y027847D01*
X021003Y027650D02*
X021397D01*
X026003Y019800D02*
X026397D01*
X026200Y019603D02*
Y019997D01*
X026137Y029246D02*
X027515D01*
X026137Y030781D02*
X027515D01*
X026137Y029246D02*
Y030781D01*
X027515Y029246D02*
Y030781D01*
X026826Y029817D02*
Y030210D01*
X026629Y030013D02*
X027023D01*
X012153Y034600D02*
X012547D01*
X012350Y034403D02*
Y034797D01*
G54D84*
X018726Y036332D02*
Y038438D01*
X014474Y036332D02*
Y038438D01*
X018726*
X014474Y036332D02*
X018726D01*
X023176D02*
Y038438D01*
X018924Y036332D02*
Y038438D01*
X023176*
X018924Y036332D02*
X023176D01*
X027626D02*
Y038438D01*
X023374Y036332D02*
Y038438D01*
X027626*
X023374Y036332D02*
X027626D01*
X018089Y027832D02*
Y029368D01*
X016711Y027832D02*
Y029368D01*
X018089*
X016711Y027832D02*
X018089D01*
X019802Y026085D02*
X022598D01*
X019802Y029215D02*
X022598D01*
X019802Y026085D02*
Y029215D01*
X022598Y026085D02*
Y029215D01*
X014476Y033631D02*
Y035738D01*
X010224Y033631D02*
Y035738D01*
X014476*
X010224Y033631D02*
X014476D01*
M02*